<svg width="8" height="13" viewBox="0 0 8 13" fill="none" xmlns="http://www.w3.org/2000/svg">
<path d="M7.30813 12.4077C7.47725 12.2386 7.57227 12.0091 7.57227 11.7699C7.57227 11.5307 7.47725 11.3013 7.30813 11.1321L2.84245 6.66643L7.30813 2.20077C7.47246 2.03062 7.56339 1.80273 7.56134 1.56619C7.55928 1.32965 7.4644 1.10338 7.29714 0.936109C7.12987 0.768842 6.9036 0.673964 6.66706 0.671909C6.43051 0.669853 6.20263 0.760785 6.03248 0.92512L0.928979 6.02861C0.759851 6.19778 0.66484 6.42721 0.66484 6.66643C0.66484 6.90565 0.759851 7.13507 0.928979 7.30425L6.03248 12.4077C6.20166 12.5769 6.43108 12.6719 6.6703 12.6719C6.90952 12.6719 7.13895 12.5769 7.30813 12.4077Z" fill="black"/>
</svg>
