<svg width="9" height="15" viewBox="0 0 9 15" fill="none" xmlns="http://www.w3.org/2000/svg">
<path d="M4.61873 14.6617C4.48544 14.662 4.35628 14.6155 4.25365 14.5305L0.831069 11.6783C0.714578 11.5815 0.641321 11.4424 0.627414 11.2915C0.613507 11.1407 0.660089 10.9905 0.756913 10.874C0.853737 10.7575 0.992872 10.6843 1.14371 10.6704C1.29455 10.6565 1.44473 10.7031 1.56122 10.7999L4.61873 13.3554L7.67623 10.8912C7.73458 10.8438 7.80172 10.8084 7.87379 10.787C7.94585 10.7657 8.02143 10.7588 8.09617 10.7667C8.17091 10.7747 8.24335 10.7973 8.30931 10.8334C8.37527 10.8694 8.43347 10.9181 8.48054 10.9767C8.53278 11.0354 8.57234 11.1042 8.59675 11.1788C8.62116 11.2535 8.62989 11.3324 8.6224 11.4106C8.6149 11.4887 8.59134 11.5645 8.55318 11.6332C8.51503 11.7019 8.46311 11.7619 8.40068 11.8095L4.9781 14.5647C4.87252 14.6363 4.74599 14.6705 4.61873 14.6617Z" fill="black"/>
<path d="M4.61873 0.668383C4.48544 0.668123 4.35628 0.714541 4.25365 0.799582L0.831069 3.65173C0.714578 3.74856 0.641321 3.88769 0.627414 4.03853C0.613507 4.18937 0.660089 4.33955 0.756913 4.45604C0.853737 4.57253 0.992872 4.64579 1.14371 4.6597C1.29455 4.6736 1.44473 4.62702 1.56122 4.5302L4.61873 1.97467L7.67623 4.43893C7.73458 4.48631 7.80172 4.5217 7.87379 4.54305C7.94585 4.5644 8.02143 4.5713 8.09617 4.56335C8.17091 4.5554 8.24335 4.53275 8.30931 4.49672C8.37527 4.46068 8.43347 4.41196 8.48054 4.35336C8.53278 4.29471 8.57234 4.2259 8.59675 4.15125C8.62116 4.07659 8.62989 3.9977 8.6224 3.91952C8.6149 3.84133 8.59134 3.76554 8.55318 3.69688C8.51503 3.62823 8.46311 3.56819 8.40068 3.52053L4.9781 0.765356C4.87252 0.693758 4.74599 0.659615 4.61873 0.668383Z" fill="black"/>
</svg>
