<svg width="6" height="9" viewBox="0 0 6 9" fill="none" xmlns="http://www.w3.org/2000/svg">
<path d="M1.08534 8.48888C0.968166 8.37168 0.902344 8.21274 0.902344 8.04701C0.902344 7.88128 0.968166 7.72234 1.08534 7.60514L4.17909 4.51139L1.08534 1.41765C0.971486 1.29978 0.908489 1.1419 0.909914 0.978026C0.911338 0.814154 0.977068 0.657396 1.09295 0.541516C1.20883 0.425636 1.36559 0.359907 1.52946 0.358483C1.69333 0.357058 1.85121 0.420055 1.96908 0.533904L5.50471 4.06952C5.62188 4.18672 5.6877 4.34567 5.6877 4.51139C5.6877 4.67712 5.62188 4.83606 5.50471 4.95327L1.96909 8.48888C1.85188 8.60605 1.69294 8.67187 1.52721 8.67187C1.36148 8.67187 1.20254 8.60605 1.08534 8.48888Z" fill="#9A9EA5"/>
</svg>
