<svg width="17" height="17" viewBox="0 0 17 17" fill="none" xmlns="http://www.w3.org/2000/svg">
<path d="M8.4082 0.421875C3.997 0.421875 0.408203 4.01068 0.408203 8.42188C0.408203 12.8331 3.997 16.4219 8.4082 16.4219C12.8194 16.4219 16.4082 12.8331 16.4082 8.42188C16.4082 4.01068 12.8194 0.421875 8.4082 0.421875ZM8.4082 14.8219C4.8794 14.8219 2.0082 11.9507 2.0082 8.42188C2.0082 4.89308 4.8794 2.02188 8.4082 2.02188C11.937 2.02188 14.8082 4.89308 14.8082 8.42188C14.8082 11.9507 11.937 14.8219 8.4082 14.8219Z" fill="black"/>
<path d="M7.25761 9.3337L5.49238 7.63788L4.4082 8.68419L7.25915 11.4219L12.4082 6.4667L11.3225 5.42188L7.25761 9.3337Z" fill="black"/>
</svg>
