<svg width="40" height="18" viewBox="0 0 40 18" fill="none" xmlns="http://www.w3.org/2000/svg">
<path fill-rule="evenodd" clip-rule="evenodd" d="M24.9732 1.0332C33.0492 1.8747 39 4.74979 39 8.16251C39 10.9207 35.1235 13.305 29.3937 14.5906L31.0089 17.2085H27.9996L20.0765 4.2823L14.7718 12.9076C16.37 13.0712 18.0872 13.1881 19.8725 13.1881C20.7056 13.1881 21.5387 13.1647 22.3378 13.118L23.936 15.3853C22.6608 15.4788 21.3517 15.5489 19.9915 15.5489C17.6792 15.5489 15.4689 15.3853 13.4286 15.1048L11.9834 17.4423H8.97405L10.7083 14.6139C4.92752 13.3517 1 10.9441 1 8.16251C1 4.81992 6.71275 1.99157 14.5508 1.07995L13.5647 3.44081C7.95392 4.21217 4.0264 6.01203 4.0264 8.09239C4.0264 9.98574 7.23982 11.622 12.0175 12.5102L18.5803 1.82795H21.5727L28.0846 12.4401C32.6752 11.5519 35.7356 9.93899 35.7356 8.09239C35.7356 5.98866 31.774 4.1888 26.1123 3.41743L24.9732 1.0332Z" fill="black" stroke="white" stroke-width="0.7"/>
</svg>
