<svg width="44" height="50" viewBox="0 0 44 50" fill="none" xmlns="http://www.w3.org/2000/svg">
<path d="M25.9171 13.814L18.6642 13.7389C17.9102 13.7312 17.1985 14.0174 16.6598 14.5449C16.1213 15.0726 15.8203 15.7784 15.8126 16.5322L16.3345 21.8523L28.0783 21.974L28.7041 16.7644L28.7106 16.666C28.7266 15.1094 27.4735 13.8301 25.9171 13.814ZM26.9019 16.6053L26.4762 20.1491L17.9738 20.0608L17.6217 16.5092C17.6346 16.2539 17.7414 16.0166 17.925 15.8368C18.1185 15.6472 18.3744 15.5443 18.6453 15.5472L25.8983 15.6223C26.1692 15.6251 26.4229 15.7332 26.6125 15.9268C26.7925 16.1103 26.8942 16.3499 26.9019 16.6053Z" fill="black"/>
<path d="M16.4772 30.9121L16.4395 34.5584C16.4282 35.645 16.8407 36.6711 17.6014 37.4476C18.3617 38.2239 19.3789 38.6577 20.4657 38.6689L23.5997 38.7013C24.1456 38.7071 24.6756 38.6059 25.1668 38.4075C25.6538 38.2107 26.1024 37.9183 26.4889 37.5396C27.2651 36.7792 27.6991 35.7619 27.7102 34.6753L27.748 31.0288L16.4772 30.9121ZM25.9021 34.6565C25.8958 35.2603 25.6548 35.8256 25.2235 36.248C24.792 36.6704 24.2222 36.8997 23.6184 36.8933L20.4842 36.8609C19.8805 36.8546 19.3154 36.6137 18.893 36.1824C18.4705 35.7508 18.2412 35.1808 18.2477 34.5773L18.2667 32.739L25.9211 32.8182L25.9021 34.6565Z" fill="black"/>
<path d="M30.4313 6.9086C30.3044 6.77916 30.1724 6.65696 30.0379 6.53826C29.9236 6.43766 29.8073 6.34034 29.6878 6.24767C28.4477 5.28477 26.936 4.7538 25.339 4.73721L19.4323 4.67603C19.3088 4.67467 19.1858 4.67675 19.0632 4.68161C19.0486 4.68222 19.0343 4.68371 19.0198 4.68428C18.9106 4.68929 18.8019 4.69595 18.6936 4.70578C18.6931 4.70584 18.6928 4.70587 18.6923 4.70594C17.0382 4.85557 15.4987 5.56352 14.2963 6.74129C13.0958 7.91712 12.3567 9.43851 12.1713 11.0859C12.1709 11.0895 12.1703 11.0928 12.1699 11.0963C12.1583 11.2006 12.1497 11.3055 12.1427 11.4105C12.1415 11.4287 12.1392 11.4467 12.138 11.465C12.1307 11.5872 12.1261 11.71 12.1248 11.8334L12.1024 13.9976L12.874 20.9678L12.6834 39.3711C12.6671 40.9414 13.2633 42.424 14.3622 43.546C15.4611 44.6678 16.9311 45.2947 18.5015 45.311L25.4276 45.3828C26.2246 45.391 26.9869 45.2395 27.6838 44.9579C29.8206 44.0944 31.3421 42.0091 31.3675 39.5647L31.5582 21.1612L32.4742 14.2086L32.4966 12.0446C32.5165 10.1128 31.7831 8.28881 30.4313 6.9086ZM14.0373 10.846C14.0488 10.7882 14.0613 10.7308 14.0748 10.6737C14.0776 10.662 14.0802 10.6502 14.083 10.6384C14.5679 8.62449 16.1778 7.04831 18.2022 6.60784C18.2097 6.60623 18.2173 6.60457 18.2248 6.60297C18.2863 6.58978 18.3483 6.57767 18.4106 6.5666C18.4127 6.56628 18.4147 6.56596 18.4168 6.56553C17.9852 8.7552 16.2337 10.472 14.035 10.8573C14.036 10.8536 14.0367 10.8498 14.0373 10.846ZM30.6672 14.0808L29.7512 21.0334L29.5593 39.546C29.548 40.6335 29.114 41.6513 28.3372 42.4122C27.5604 43.1731 26.5337 43.5862 25.4463 43.5748L18.5202 43.503C17.4329 43.4917 16.415 43.0576 15.654 42.2809C14.8932 41.5041 14.4803 40.4773 14.4915 39.3901L14.6835 20.8773L13.9117 13.9073L13.9243 12.6978C14.5778 12.6228 15.2057 12.4624 15.7952 12.2242C18.1564 11.2702 19.9058 9.1034 20.2604 6.49306L24.4746 6.53664C24.8502 9.80706 27.4176 12.4282 30.6796 12.8715L30.6672 14.0808ZM30.3145 9.98417C30.3358 10.0384 30.3562 10.093 30.3758 10.1479C30.3835 10.1696 30.3914 10.1911 30.3989 10.2128C30.4246 10.288 30.449 10.3637 30.4713 10.4401C30.4735 10.4475 30.4753 10.4551 30.4774 10.4625C30.4974 10.5318 30.5157 10.6016 30.5328 10.6717C30.5386 10.6959 30.5442 10.7202 30.5497 10.7444C30.5627 10.8005 30.5745 10.8566 30.5857 10.9132C30.5905 10.938 30.5956 10.9627 30.6 10.9877C30.6025 11.0016 30.6044 11.0155 30.6068 11.0295C28.4171 10.5979 26.7012 8.84589 26.315 6.64789C26.3232 6.64946 26.3318 6.65068 26.34 6.65252C26.4565 6.67572 26.572 6.70287 26.6862 6.73374C26.7098 6.7401 26.7331 6.74728 26.7567 6.75406C26.8567 6.78251 26.9556 6.81372 27.0536 6.84777C27.0744 6.85503 27.0953 6.8616 27.1161 6.86912C27.2267 6.90923 27.3359 6.95327 27.4435 7.00052C27.4682 7.01138 27.4925 7.02279 27.5171 7.03407C27.6128 7.07785 27.7074 7.12416 27.8006 7.17349C27.8163 7.1819 27.8324 7.18949 27.848 7.19806C27.9518 7.25437 28.0534 7.31493 28.1536 7.37812C28.1776 7.39328 28.2013 7.40895 28.2252 7.42453C28.318 7.4853 28.4096 7.54845 28.4989 7.61502C28.5078 7.62154 28.5169 7.62782 28.5259 7.6344C28.6217 7.70677 28.7147 7.7836 28.8062 7.86273C28.8282 7.88182 28.8501 7.90117 28.8718 7.92062C28.9631 8.00216 29.053 8.08584 29.1395 8.17411C29.1969 8.23274 29.2523 8.29268 29.3066 8.35328C29.323 8.37155 29.339 8.39016 29.3552 8.40863C29.3939 8.45302 29.4319 8.49788 29.4689 8.54322C29.4851 8.56308 29.5015 8.58286 29.5174 8.60286C29.5595 8.65576 29.6004 8.70948 29.6403 8.76365C29.6483 8.77441 29.6566 8.78515 29.6645 8.79595C29.7118 8.8611 29.7571 8.92733 29.8013 8.99413C29.813 9.01191 29.824 9.02997 29.8355 9.04785C29.868 9.09842 29.8997 9.14941 29.9304 9.20107C29.9434 9.223 29.9563 9.24497 29.9691 9.26699C29.9997 9.31999 30.0295 9.37373 30.0581 9.42765C30.0673 9.44491 30.0768 9.46177 30.0858 9.47912C30.1224 9.54989 30.1574 9.62128 30.191 9.69341C30.1979 9.70834 30.2042 9.72354 30.211 9.73852C30.2372 9.79655 30.2625 9.85505 30.2865 9.91393C30.296 9.93703 30.3053 9.9606 30.3145 9.98417Z" fill="black"/>
<path d="M16.7102 39.9713L16.6914 41.7793L19.2225 41.8056L19.2413 39.9976L16.7102 39.9713Z" fill="black"/>
<path d="M24.9152 40.0569L24.8965 41.8652L27.4281 41.8914L27.4468 40.0831L24.9152 40.0569Z" fill="black"/>
</svg>
