<svg width="36" height="37" viewBox="0 0 36 37" fill="none" xmlns="http://www.w3.org/2000/svg">
<g clip-path="url(#clip0_307_1175)">
<path d="M23.25 35.2832H5.25C4.25544 35.2832 3.30161 34.8881 2.59835 34.1848C1.89509 33.4816 1.5 32.5278 1.5 31.5332V9.0332C1.5 8.83429 1.57902 8.64353 1.71967 8.50287C1.86032 8.36222 2.05109 8.2832 2.25 8.2832C2.44891 8.2832 2.63968 8.36222 2.78033 8.50287C2.92098 8.64353 3 8.83429 3 9.0332V31.5332C3 32.1299 3.23705 32.7022 3.65901 33.1242C4.08097 33.5461 4.65326 33.7832 5.25 33.7832H23.25C23.8468 33.7832 24.419 33.5461 24.841 33.1242C25.263 32.7022 25.5 32.1299 25.5 31.5332V24.0332C25.5 23.8343 25.579 23.6435 25.7197 23.5029C25.8603 23.3622 26.0511 23.2832 26.25 23.2832C26.4489 23.2832 26.6397 23.3622 26.7803 23.5029C26.921 23.6435 27 23.8343 27 24.0332V31.5332C27 32.5278 26.6049 33.4816 25.9017 34.1848C25.1984 34.8881 24.2446 35.2832 23.25 35.2832Z" fill="black"/>
<path d="M26.25 12.7832C26.0511 12.7832 25.8603 12.7042 25.7197 12.5635C25.579 12.4229 25.5 12.2321 25.5 12.0332V4.5332C25.5 3.93647 25.2629 3.36417 24.841 2.94221C24.419 2.52026 23.8467 2.2832 23.25 2.2832H9.75C9.55109 2.2832 9.36032 2.20419 9.21967 2.06353C9.07902 1.92288 9 1.73212 9 1.5332C9 1.33429 9.07902 1.14353 9.21967 1.00287C9.36032 0.862221 9.55109 0.783203 9.75 0.783203H23.25C23.7425 0.783203 24.2301 0.8802 24.6851 1.06865C25.14 1.25711 25.5534 1.53333 25.9016 1.88155C26.2499 2.22977 26.5261 2.64317 26.7145 3.09814C26.903 3.55311 27 4.04075 27 4.5332V12.0332C27 12.2321 26.921 12.4229 26.7803 12.5635C26.6397 12.7042 26.4489 12.7832 26.25 12.7832Z" fill="black"/>
<path d="M9.75059 9.7838H2.25059C2.10252 9.78306 1.95799 9.73851 1.8352 9.65576C1.71241 9.57301 1.61686 9.45576 1.56059 9.3188C1.50316 9.18221 1.48747 9.03168 1.5155 8.88619C1.54353 8.7407 1.61402 8.60677 1.71809 8.5013L9.21809 1.0013C9.32356 0.897228 9.45749 0.826731 9.60298 0.7987C9.74847 0.770669 9.89901 0.786361 10.0356 0.843796C10.1726 0.900061 10.2898 0.995609 10.3725 1.1184C10.4553 1.24119 10.4998 1.38573 10.5006 1.5338V9.0338C10.5006 9.23271 10.4216 9.42348 10.2809 9.56413C10.1403 9.70478 9.9495 9.7838 9.75059 9.7838ZM4.05809 8.2838H9.00059V3.3413L4.05809 8.2838Z" fill="black"/>
<path d="M14.25 18.7832H6.75C6.55109 18.7832 6.36032 18.7042 6.21967 18.5635C6.07902 18.4229 6 18.2321 6 18.0332C6 17.8343 6.07902 17.6435 6.21967 17.5029C6.36032 17.3622 6.55109 17.2832 6.75 17.2832H14.25C14.4489 17.2832 14.6397 17.3622 14.7803 17.5029C14.921 17.6435 15 17.8343 15 18.0332C15 18.2321 14.921 18.4229 14.7803 18.5635C14.6397 18.7042 14.4489 18.7832 14.25 18.7832Z" fill="black"/>
<path d="M14.25 24.7832H6.75C6.55109 24.7832 6.36032 24.7042 6.21967 24.5635C6.07902 24.4229 6 24.2321 6 24.0332C6 23.8343 6.07902 23.6435 6.21967 23.5029C6.36032 23.3622 6.55109 23.2832 6.75 23.2832H14.25C14.4489 23.2832 14.6397 23.3622 14.7803 23.5029C14.921 23.6435 15 23.8343 15 24.0332C15 24.2321 14.921 24.4229 14.7803 24.5635C14.6397 24.7042 14.4489 24.7832 14.25 24.7832Z" fill="black"/>
<path d="M26.2491 24.783C25.8877 24.7797 25.5269 24.7521 25.1691 24.7005C23.4901 24.4222 21.9759 23.526 20.9241 22.188C20.0158 21.0215 19.5156 19.5891 19.5004 18.1108C19.4851 16.6324 19.9556 15.19 20.8396 14.005C21.7236 12.8199 22.9722 11.9579 24.3936 11.5513C25.8149 11.1447 27.3305 11.216 28.7075 11.7543C30.0844 12.2925 31.2466 13.2679 32.0154 14.5307C32.7843 15.7935 33.1173 17.2737 32.9633 18.7441C32.8093 20.2145 32.1768 21.5936 31.163 22.6697C30.1492 23.7458 28.8102 24.4592 27.3516 24.7005C26.9862 24.7514 26.618 24.7789 26.2491 24.783ZM26.2491 12.783C24.9289 12.7809 23.6563 13.2763 22.685 14.1705C21.7137 15.0647 21.1149 16.292 21.008 17.6079C20.9011 18.9238 21.2939 20.2317 22.1082 21.271C22.9224 22.3102 24.0983 23.0045 25.4016 23.2155C25.9706 23.3055 26.5502 23.3055 27.1191 23.2155C28.4158 22.9956 29.5828 22.2971 30.3891 21.258C31.1129 20.3393 31.5042 19.2026 31.4991 18.033C31.4991 16.6406 30.946 15.3053 29.9614 14.3207C28.9769 13.3361 27.6415 12.783 26.2491 12.783Z" fill="black"/>
<path d="M23.2502 30.7825H18.7502C18.6312 30.782 18.5141 30.7531 18.4085 30.6983C18.3028 30.6436 18.2117 30.5645 18.1427 30.4675C18.073 30.3714 18.0272 30.26 18.0089 30.1427C17.9907 30.0253 18.0005 29.9053 18.0377 29.7925L20.8052 21.4825C20.8689 21.2936 21.005 21.1376 21.1836 21.049C21.3622 20.9604 21.5688 20.9464 21.7577 21.01C21.9467 21.0737 22.1026 21.2098 22.1912 21.3884C22.2799 21.5671 22.2939 21.7736 22.2302 21.9625L19.7927 29.2825H22.7102L24.5627 23.7175C24.6264 23.5286 24.7625 23.3726 24.9411 23.284C25.1197 23.1954 25.3263 23.1814 25.5152 23.245C25.7042 23.3087 25.8601 23.4448 25.9487 23.6234C26.0374 23.8021 26.0514 24.0086 25.9877 24.1975L24.0002 30.2725C23.948 30.4278 23.8465 30.5617 23.7111 30.6537C23.5756 30.7458 23.4138 30.7911 23.2502 30.7825Z" fill="black"/>
<path d="M33.7499 30.7825H29.2499C29.0863 30.7911 28.9245 30.7458 28.7891 30.6537C28.6536 30.5617 28.5521 30.4278 28.4999 30.2725L26.4749 24.1975C26.4434 24.104 26.4306 24.0051 26.4373 23.9066C26.444 23.8081 26.47 23.7119 26.5139 23.6234C26.5577 23.535 26.6186 23.456 26.693 23.3911C26.7674 23.3262 26.8538 23.2766 26.9474 23.245C27.0409 23.2135 27.1398 23.2007 27.2383 23.2074C27.3368 23.2141 27.433 23.2401 27.5215 23.284C27.6099 23.3279 27.6889 23.3888 27.7538 23.4631C27.8187 23.5375 27.8684 23.624 27.8999 23.7175L29.7899 29.2825H32.7074L30.2699 21.9625C30.2384 21.869 30.2256 21.7701 30.2323 21.6716C30.239 21.5731 30.265 21.4769 30.3089 21.3884C30.3975 21.2098 30.5534 21.0737 30.7424 21.01C30.9313 20.9464 31.1379 20.9604 31.3165 21.049C31.4049 21.0929 31.4839 21.1538 31.5488 21.2281C31.6137 21.3025 31.6634 21.389 31.6949 21.4825L34.4999 29.7925C34.5371 29.9053 34.5469 30.0253 34.5287 30.1427C34.5104 30.26 34.4646 30.3714 34.3949 30.4675C34.3223 30.5698 34.2252 30.6522 34.1125 30.7072C33.9998 30.7622 33.8751 30.7881 33.7499 30.7825Z" fill="black"/>
</g>
<defs>
<clipPath id="clip0_307_1175">
<rect width="36" height="36" fill="white" transform="translate(0 0.0332031)"/>
</clipPath>
</defs>
</svg>
