<svg width="34" height="35" viewBox="0 0 34 35" fill="none" xmlns="http://www.w3.org/2000/svg">
<path d="M8.04033 6.22509H7.84033V6.42509V26.7321V26.9321H8.04033H10.5787H10.7787V26.7321V6.42509V6.22509H10.5787H8.04033ZM11.8479 29.0704H6.77114C6.18354 29.0704 5.70195 28.5889 5.70195 28.0013V5.15591C5.70195 4.56831 6.18354 4.08672 6.77114 4.08672H11.8479C12.4355 4.08672 12.9171 4.56831 12.9171 5.15591V28.0013C12.9171 28.5889 12.4355 29.0704 11.8479 29.0704Z" fill="black" stroke="white" stroke-width="0.4"/>
<path d="M18.1927 11.3013H17.9927V11.5013V26.7315V26.9315H18.1927H20.731H20.931V26.7315V11.5013V11.3013H20.731H18.1927ZM22.0002 29.0699H16.9235C16.3359 29.0699 15.8543 28.5883 15.8543 28.0007V10.2321C15.8543 9.64448 16.3359 9.16289 16.9235 9.16289H22.0002C22.5878 9.16289 23.0694 9.64448 23.0694 10.2321V28.0007C23.0694 28.5883 22.5878 29.0699 22.0002 29.0699Z" fill="black" stroke="white" stroke-width="0.4"/>
<path d="M30.8873 26.9339H31.0873V26.7339V16.5804V16.3804H30.8873H28.3489H28.1489V16.5804V26.7339V26.9339H28.3489H30.8873ZM27.0797 14.242H32.1565C32.7441 14.242 33.2257 14.7236 33.2257 15.3112V28.003C33.2257 28.5906 32.7441 29.0722 32.1565 29.0722H27.0797C26.4921 29.0722 26.0105 28.5906 26.0105 28.003V15.3112C26.0105 14.7236 26.4921 14.242 27.0797 14.242Z" fill="black" stroke="white" stroke-width="0.4"/>
<path d="M2.76415 31.8078V32.0078H2.96415H32.1554C32.743 32.0078 33.2246 32.4894 33.2246 33.077C33.2246 33.6646 32.743 34.1462 32.1554 34.1462H1.69497C1.10737 34.1462 0.625781 33.6646 0.625781 33.077V1.34731C0.625781 0.759716 1.10737 0.278125 1.69497 0.278125C2.28256 0.278125 2.76415 0.759716 2.76415 1.34731V31.8078Z" fill="black" stroke="white" stroke-width="0.4"/>
</svg>
