<svg width="40" height="27" viewBox="0 0 40 27" fill="none" xmlns="http://www.w3.org/2000/svg">
<path d="M21.2402 3.73633H1.99023C1.62556 3.73633 1.27583 3.58817 1.01796 3.32445C0.7601 3.06072 0.615234 2.70304 0.615234 2.33008C0.615234 1.95712 0.7601 1.59943 1.01796 1.33571C1.27583 1.07199 1.62556 0.923828 1.99023 0.923828H21.2402C21.6049 0.923828 21.9546 1.07199 22.2125 1.33571C22.4704 1.59943 22.6152 1.95712 22.6152 2.33008C22.6152 2.70304 22.4704 3.06072 22.2125 3.32445C21.9546 3.58817 21.6049 3.73633 21.2402 3.73633ZM22.6152 9.36133C22.6152 8.98837 22.4704 8.63068 22.2125 8.36696C21.9546 8.10324 21.6049 7.95508 21.2402 7.95508H1.99023C1.62556 7.95508 1.27583 8.10324 1.01796 8.36696C0.7601 8.63068 0.615234 8.98837 0.615234 9.36133C0.615234 9.73429 0.7601 10.092 1.01796 10.3557C1.27583 10.6194 1.62556 10.7676 1.99023 10.7676H21.2402C21.6049 10.7676 21.9546 10.6194 22.2125 10.3557C22.4704 10.092 22.6152 9.73429 22.6152 9.36133ZM12.9902 16.3926C12.9902 16.0196 12.8454 15.6619 12.5875 15.3982C12.3296 15.1345 11.9799 14.9863 11.6152 14.9863H1.99023C1.62556 14.9863 1.27583 15.1345 1.01796 15.3982C0.7601 15.6619 0.615234 16.0196 0.615234 16.3926C0.615234 16.7655 0.7601 17.1232 1.01796 17.3869C1.27583 17.6507 1.62556 17.7988 1.99023 17.7988H11.6152C11.9799 17.7988 12.3296 17.6507 12.5875 17.3869C12.8454 17.1232 12.9902 16.7655 12.9902 16.3926ZM25.3652 26.2363C25.5683 26.235 25.7686 26.1876 25.9517 26.0976C26.1347 26.0077 26.296 25.8773 26.424 25.716L38.799 10.2473C38.9352 10.1084 39.0413 9.94191 39.1107 9.7585C39.18 9.57508 39.2109 9.37882 39.2015 9.18241C39.1921 8.986 39.1425 8.79379 39.0559 8.6182C38.9693 8.44262 38.8477 8.28756 38.6989 8.16303C38.5501 8.0385 38.3774 7.94728 38.1919 7.89526C38.0065 7.84324 37.8125 7.83156 37.6224 7.861C37.4322 7.89044 37.2503 7.96032 37.0882 8.06615C36.9261 8.17198 36.7876 8.31139 36.6815 8.47539L25.3652 22.6223L19.5627 15.4926C19.4472 15.3504 19.3054 15.2329 19.1454 15.1467C18.9854 15.0606 18.8104 15.0075 18.6304 14.9905C18.2668 14.9562 17.9048 15.0711 17.624 15.3098C17.3432 15.5485 17.1666 15.8915 17.1331 16.2633C17.0996 16.6352 17.2118 17.0054 17.4452 17.2926L24.3202 25.7301C24.448 25.887 24.6077 26.0136 24.7882 26.101C24.9686 26.1884 25.1656 26.2346 25.3652 26.2363Z" fill="black" stroke="white" stroke-width="0.7"/>
</svg>
