<svg width="31" height="37" viewBox="0 0 31 37" fill="none" xmlns="http://www.w3.org/2000/svg">
<path d="M13.4928 19.35C13.743 19.6002 13.9933 19.7254 14.3687 19.7254H14.4938C14.8692 19.7254 15.2446 19.4751 15.3697 19.0997L20.375 10.3405C20.7504 9.71481 20.6253 8.96401 19.9996 8.58862C19.374 8.33836 18.6232 8.46349 18.2478 9.08915L13.9933 16.4719L11.3655 13.8442C10.865 13.3436 10.1142 13.3436 9.61368 13.8442C9.11315 14.3447 9.11315 15.0955 9.61368 15.596L13.4928 19.35Z" fill="black" stroke="white" stroke-width="0.6"/>
<path d="M30.3849 30.2359L24.6289 22.1024C26.7561 19.85 28.1326 16.8468 28.1326 13.4683C28.1326 6.58601 22.5016 0.955078 15.6194 0.955078C8.73712 0.955078 3.10618 6.58601 3.10618 13.4683C3.10618 16.8468 4.48263 19.85 6.60988 22.1024L0.85381 30.2359C0.603546 30.6113 0.603546 31.1119 0.728678 31.4873C0.978942 31.9878 1.35434 32.2381 1.85486 32.2381H6.35961L9.73817 35.6166C9.98844 35.8669 10.2387 35.992 10.6141 35.992H10.8644C11.2398 35.8669 11.6152 35.6166 11.7403 35.3664L15.6194 27.6082L19.4985 35.3664C19.6236 35.7418 19.999 35.992 20.3744 35.992H20.6246C21 35.992 21.2503 35.8669 21.5006 35.6166L24.8791 32.2381H29.3839C29.8844 32.2381 30.2598 31.9878 30.5101 31.6124C30.7603 31.1119 30.6352 30.6113 30.3849 30.2359ZM15.6194 3.45772C21.1252 3.45772 25.6299 7.96247 25.6299 13.4683C25.6299 18.9741 21.1252 23.4788 15.6194 23.4788C10.1136 23.4788 5.60882 18.9741 5.60882 13.4683C5.60882 7.96247 10.1136 3.45772 15.6194 3.45772ZM10.2387 32.6135L7.73606 30.1108C7.4858 29.8606 7.23554 29.7354 6.86014 29.7354H4.23237L8.48686 23.7291C9.98844 24.7301 11.7403 25.4809 13.6173 25.7312L10.2387 32.6135ZM24.3786 29.7354C24.0032 29.7354 23.7529 29.8606 23.5027 30.1108L21 32.6135L17.6215 25.8563C19.4985 25.6061 21.2503 24.8553 22.7519 23.8542L27.0064 29.8606H24.3786V29.7354Z" fill="black" stroke="white" stroke-width="0.6"/>
</svg>
