<svg width="42" height="42" viewBox="0 0 42 42" fill="none" xmlns="http://www.w3.org/2000/svg">
<path d="M3.20898 21.077C3.20898 17.7605 4.13336 14.5288 5.88219 11.7313C7.105 9.77525 8.69406 8.086 10.5498 6.74809L9.8575 9.74642L12.1412 10.2736L13.7229 3.42256L6.87188 1.84082L6.34469 4.12445L9.2482 4.79477C7.11688 6.31745 5.29453 8.24967 3.89484 10.4888C1.91281 13.6593 0.865234 17.3206 0.865234 21.077C0.865234 26.4193 2.94563 31.4418 6.72305 35.2194C10.5006 38.9969 15.523 41.0773 20.8652 41.0773V38.7335C16.1491 38.7335 11.7152 36.8969 8.38039 33.562C5.04555 30.2271 3.20898 25.7932 3.20898 21.077Z" fill="black" stroke="white" stroke-width="0.8"/>
<path d="M37.8357 31.6666C39.8177 28.4961 40.8652 24.8348 40.8652 21.0784C40.8652 15.7362 38.7848 10.7137 35.0074 6.93603C31.2298 3.15855 26.2074 1.07812 20.8652 1.07812V3.42191C25.5814 3.42191 30.0152 5.25851 33.3501 8.5934C36.6849 11.9283 38.5215 16.3622 38.5215 21.0784C38.5215 24.395 37.5971 27.6267 35.8483 30.4241C34.6255 32.3802 33.0364 34.0694 31.1807 35.4074L31.873 32.409L29.5893 31.8818L28.0076 38.7329L34.8586 40.3145L35.3858 38.0309L32.4823 37.3606C34.6136 35.8379 36.4359 33.9057 37.8357 31.6666Z" fill="black" stroke="white" stroke-width="0.8"/>
<path d="M17.5522 35.9956L35.7823 17.7652L24.1813 6.16406L5.95117 24.3945L17.5522 35.9956ZM21.6953 13.6219C22.3594 14.2859 23.2422 14.6517 24.1813 14.6517C25.1203 14.6517 26.0031 14.286 26.6672 13.6219L27.4959 12.7933L29.1532 14.4507L28.3245 15.2794C26.9538 16.6502 26.9538 18.8805 28.3245 20.2513L29.1531 21.0799L20.8667 29.3664L20.0381 28.5377C19.374 27.8737 18.4912 27.5079 17.5521 27.5079C16.613 27.5079 15.7302 27.8736 15.0662 28.5377L14.2375 29.3663L12.5802 27.7089L13.4088 26.8803C14.7796 25.5095 14.7796 23.2791 13.4088 21.9083L12.5803 21.0799L20.8667 12.7933L21.6953 13.6219ZM11.7517 23.5658C12.2087 24.0227 12.2087 24.7662 11.7517 25.2231L10.923 26.0518L9.26578 24.3945L10.923 22.7371L11.7517 23.5658ZM15.8948 31.0237L16.7235 30.195C16.9448 29.9737 17.2391 29.8517 17.5522 29.8517C17.8652 29.8517 18.1595 29.9737 18.3808 30.195L19.2095 31.0237L17.5522 32.6811L15.8948 31.0237ZM30.8104 19.4226L29.9818 18.594C29.5248 18.137 29.5248 17.3935 29.9818 16.9366L30.8105 16.1079L32.4677 17.7652L30.8104 19.4226ZM25.8386 11.136L25.0099 11.9647C24.7886 12.186 24.4943 12.308 24.1813 12.308C23.8683 12.308 23.574 12.186 23.3527 11.9647L22.524 11.136L24.1813 9.47865L25.8386 11.136Z" fill="black" stroke="white" stroke-width="0.8"/>
<path d="M20.8655 24.5925C21.7657 24.5925 22.666 24.2498 23.3514 23.5644C24.722 22.1937 24.722 19.9633 23.3514 18.5926C21.9808 17.2217 19.7503 17.2218 18.3795 18.5926C17.0089 19.9633 17.0089 22.1937 18.3795 23.5644C19.0649 24.2498 19.9652 24.5925 20.8655 24.5925ZM20.0368 20.2498C20.2581 20.0285 20.5524 19.9066 20.8655 19.9066C21.1785 19.9066 21.4727 20.0285 21.6941 20.2498C22.1509 20.7068 22.1509 21.4502 21.6941 21.9071C21.4727 22.1285 21.1784 22.2504 20.8654 22.2504C20.5523 22.2504 20.2581 22.1285 20.0368 21.9071C19.5799 21.4502 19.5799 20.7067 20.0368 20.2498Z" fill="black" stroke="white" stroke-width="0.8"/>
</svg>
