<svg width="36" height="38" viewBox="0 0 36 38" fill="none" xmlns="http://www.w3.org/2000/svg">
<path d="M23.4076 37.2881H4.40755C3.35774 37.2881 2.35092 36.871 1.60859 36.1287C0.866256 35.3864 0.449219 34.3796 0.449219 33.3297V9.57975C0.449219 9.36979 0.532626 9.16843 0.681093 9.01996C0.829559 8.87149 1.03092 8.78809 1.24089 8.78809C1.45085 8.78809 1.65221 8.87149 1.80068 9.01996C1.94915 9.16843 2.03255 9.36979 2.03255 9.57975V33.3297C2.03255 33.9596 2.28278 34.5637 2.72817 35.0091C3.17357 35.4545 3.77766 35.7047 4.40755 35.7047H23.4076C24.0375 35.7047 24.6415 35.4545 25.0869 35.0091C25.5323 34.5637 25.7826 33.9596 25.7826 33.3297V25.4131C25.7826 25.2031 25.866 25.0018 26.0144 24.8533C26.1629 24.7048 26.3643 24.6214 26.5742 24.6214C26.7842 24.6214 26.9856 24.7048 27.134 24.8533C27.2825 25.0018 27.3659 25.2031 27.3659 25.4131V33.3297C27.3659 34.3796 26.9489 35.3864 26.2065 36.1287C25.4642 36.871 24.4574 37.2881 23.4076 37.2881Z" fill="black" stroke="black" stroke-width="0.1"/>
<path d="M26.5736 13.5378C26.3636 13.5378 26.1622 13.4544 26.0138 13.3059C25.8653 13.1574 25.7819 12.9561 25.7819 12.7461V4.82943C25.7819 4.19954 25.5317 3.59545 25.0863 3.15005C24.6409 2.70465 24.0368 2.45443 23.4069 2.45443H9.1569C8.94694 2.45443 8.74557 2.37102 8.59711 2.22255C8.44864 2.07409 8.36523 1.87272 8.36523 1.66276C8.36523 1.4528 8.44864 1.25143 8.59711 1.10297C8.74557 0.954501 8.94694 0.871094 9.1569 0.871094H23.4069C23.9267 0.871094 24.4414 0.973479 24.9217 1.1724C25.4019 1.37133 25.8383 1.6629 26.2059 2.03046C26.5734 2.39803 26.865 2.83439 27.0639 3.31464C27.2628 3.79489 27.3652 4.30961 27.3652 4.82943V12.7461C27.3652 12.9561 27.2818 13.1574 27.1334 13.3059C26.9849 13.4544 26.7835 13.5378 26.5736 13.5378Z" fill="black" stroke="black" stroke-width="0.1"/>
<path d="M9.15807 10.3716H1.2414C1.08511 10.3708 0.932541 10.3238 0.802929 10.2365C0.673317 10.1491 0.57246 10.0254 0.513069 9.88078C0.452444 9.73661 0.43588 9.57771 0.465468 9.42413C0.495056 9.27056 0.56947 9.12919 0.679319 9.01786L8.59598 1.10119C8.70731 0.991345 8.84868 0.916931 9.00226 0.887343C9.15583 0.857755 9.31473 0.874319 9.4589 0.934944C9.60347 0.994335 9.72723 1.09519 9.81458 1.2248C9.90193 1.35442 9.94895 1.50698 9.94973 1.66328V9.57994C9.94973 9.78991 9.86633 9.99127 9.71786 10.1397C9.56939 10.2882 9.36803 10.3716 9.15807 10.3716ZM3.14932 8.78828H8.3664V3.57119L3.14932 8.78828Z" fill="black" stroke="black" stroke-width="0.1"/>
<path d="M13.9076 19.8714H5.99089C5.78092 19.8714 5.57956 19.788 5.43109 19.6395C5.28263 19.4911 5.19922 19.2897 5.19922 19.0798C5.19922 18.8698 5.28263 18.6684 5.43109 18.52C5.57956 18.3715 5.78092 18.2881 5.99089 18.2881H13.9076C14.1175 18.2881 14.3189 18.3715 14.4673 18.52C14.6158 18.6684 14.6992 18.8698 14.6992 19.0798C14.6992 19.2897 14.6158 19.4911 14.4673 19.6395C14.3189 19.788 14.1175 19.8714 13.9076 19.8714Z" fill="black" stroke="black" stroke-width="0.1"/>
<path d="M13.9076 26.2044H5.99089C5.78092 26.2044 5.57956 26.121 5.43109 25.9725C5.28263 25.8241 5.19922 25.6227 5.19922 25.4128C5.19922 25.2028 5.28263 25.0014 5.43109 24.853C5.57956 24.7045 5.78092 24.6211 5.99089 24.6211H13.9076C14.1175 24.6211 14.3189 24.7045 14.4673 24.853C14.6158 25.0014 14.6992 25.2028 14.6992 25.4128C14.6992 25.6227 14.6158 25.8241 14.4673 25.9725C14.3189 26.121 14.1175 26.2044 13.9076 26.2044Z" fill="black" stroke="black" stroke-width="0.1"/>
<path d="M26.5733 26.2044C26.1918 26.2009 25.8109 26.1718 25.4333 26.1174C23.661 25.8236 22.0627 24.8776 20.9525 23.4653C19.9937 22.234 19.4657 20.722 19.4496 19.1615C19.4335 17.601 19.9301 16.0785 20.8632 14.8276C21.7963 13.5768 23.1143 12.6669 24.6146 12.2377C26.115 11.8085 27.7148 11.8837 29.1682 12.4519C30.6217 13.02 31.8484 14.0496 32.6599 15.3826C33.4715 16.7155 33.823 18.278 33.6605 19.83C33.4979 21.3821 32.8303 22.8379 31.7602 23.9737C30.6901 25.1096 29.2767 25.8627 27.737 26.1174C27.3514 26.171 26.9627 26.2001 26.5733 26.2044ZM26.5733 13.5378C25.1797 13.5356 23.8364 14.0585 22.8111 15.0023C21.7859 15.9462 21.1538 17.2417 21.041 18.6307C20.9281 20.0197 21.3428 21.4003 22.2023 22.4973C23.0618 23.5942 24.303 24.3271 25.6787 24.5499C26.2793 24.6448 26.8911 24.6448 27.4916 24.5499C28.8604 24.3178 30.0922 23.5804 30.9433 22.4836C31.7073 21.5139 32.1203 20.314 32.115 19.0794C32.115 17.6097 31.5311 16.2002 30.4918 15.1609C29.4526 14.1216 28.043 13.5378 26.5733 13.5378Z" fill="black" stroke="black" stroke-width="0.1"/>
<path d="M23.4071 32.5376H18.6571C18.5315 32.537 18.4079 32.5066 18.2964 32.4487C18.1849 32.3909 18.0887 32.3074 18.0159 32.2051C17.9423 32.1036 17.8939 31.9861 17.8746 31.8622C17.8554 31.7383 17.8658 31.6117 17.9051 31.4926L20.8263 22.7209C20.8935 22.5215 21.0372 22.3569 21.2257 22.2633C21.4143 22.1698 21.6323 22.155 21.8317 22.2222C22.0312 22.2894 22.1958 22.433 22.2893 22.6216C22.3829 22.8102 22.3977 23.0281 22.3305 23.2276L19.7576 30.9543H22.8371L24.7926 25.0801C24.8597 24.8806 25.0034 24.716 25.192 24.6225C25.3805 24.529 25.5985 24.5142 25.798 24.5814C25.9974 24.6485 26.162 24.7922 26.2556 24.9808C26.3491 25.1693 26.3639 25.3873 26.2967 25.5868L24.1988 31.9993C24.1437 32.1631 24.0365 32.3044 23.8936 32.4017C23.7506 32.4989 23.5798 32.5466 23.4071 32.5376Z" fill="black" stroke="black" stroke-width="0.1"/>
<path d="M34.4902 32.5376H29.7402C29.5676 32.5466 29.3967 32.4989 29.2538 32.4017C29.1108 32.3044 29.0036 32.1631 28.9486 31.9993L26.8111 25.5868C26.7778 25.488 26.7643 25.3837 26.7714 25.2797C26.7784 25.1757 26.8059 25.0741 26.8522 24.9808C26.8985 24.8874 26.9628 24.8041 27.0413 24.7355C27.1198 24.667 27.211 24.6146 27.3098 24.5814C27.4086 24.5481 27.5129 24.5346 27.6169 24.5417C27.7209 24.5487 27.8224 24.5762 27.9158 24.6225C28.0092 24.6688 28.0925 24.7331 28.161 24.8116C28.2296 24.8901 28.282 24.9813 28.3152 25.0801L30.3102 30.9543H33.3898L30.8169 23.2276C30.7836 23.1288 30.7701 23.0245 30.7772 22.9205C30.7842 22.8165 30.8117 22.715 30.858 22.6216C30.9516 22.433 31.1162 22.2894 31.3156 22.2222C31.5151 22.155 31.7331 22.1698 31.9216 22.2633C32.015 22.3096 32.0983 22.3739 32.1669 22.4524C32.2354 22.5309 32.2878 22.6222 32.321 22.7209L35.2819 31.4926C35.3211 31.6117 35.3316 31.7383 35.3123 31.8622C35.293 31.9861 35.2446 32.1036 35.171 32.2051C35.0944 32.313 34.9919 32.4 34.873 32.4581C34.7541 32.5162 34.6224 32.5435 34.4902 32.5376Z" fill="black" stroke="black" stroke-width="0.1"/>
</svg>
