<svg width="41" height="41" viewBox="0 0 41 41" fill="none" xmlns="http://www.w3.org/2000/svg">
<path d="M30.5262 20.4287V20.4787H30.5762H32.584C32.9524 20.4787 33.2825 20.7062 33.4136 21.0504C33.5446 21.3947 33.4493 21.7841 33.1742 22.0291L21.4554 32.4598C21.2872 32.6095 21.0764 32.6843 20.8653 32.6843C20.6542 32.6843 20.4434 32.6095 20.2752 32.4598L8.55645 22.0291L8.5232 22.0664L8.55645 22.0291C8.28133 21.7842 8.18606 21.3947 8.31704 21.0504C8.44802 20.7062 8.77809 20.4787 9.14648 20.4787H11.3248H11.3748V20.4287V8.35938C11.3748 7.86918 11.7722 7.47188 12.2623 7.47188H29.6387C30.1288 7.47188 30.5262 7.86918 30.5262 8.35938V20.4287ZM20.832 30.5791L20.8652 30.6087L20.8985 30.5791L30.1539 22.341L30.252 22.2537H30.1206H29.6387C29.1486 22.2537 28.7512 21.8563 28.7512 21.3662V9.29688V9.24687H28.7012H13.1999H13.1499V9.29688V21.3662C13.1499 21.8563 12.7525 22.2537 12.2624 22.2537H11.6098H11.4785L11.5766 22.341L20.832 30.5791ZM16.9677 16.2238C15.9076 16.2238 15.0428 15.359 15.0428 14.2988C15.0428 13.2386 15.9077 12.3739 16.9677 12.3739C18.0279 12.3739 18.8927 13.2387 18.8927 14.2988C18.8927 15.3589 18.0278 16.2238 16.9677 16.2238ZM24.2443 14.133L18.9251 21.9957C18.7536 22.2492 18.474 22.3859 18.1892 22.3859C18.0181 22.3859 17.8453 22.3366 17.6928 22.2334C17.2868 21.9587 17.1803 21.407 17.455 21.0011L22.7741 13.1384C23.0488 12.7324 23.6005 12.626 24.0066 12.9005C24.4125 13.1753 24.519 13.727 24.2443 14.133ZM26.6877 20.9691C26.6877 22.0293 25.8229 22.8941 24.7627 22.8941C23.7025 22.8941 22.8377 22.0293 22.8377 20.9691C22.8377 19.909 23.7025 19.0442 24.7627 19.0442C25.8229 19.0442 26.6877 19.909 26.6877 20.9691ZM0.915234 20.0781C0.915234 9.07769 9.8648 0.128125 20.8652 0.128125C31.8657 0.128125 40.8152 9.07769 40.8152 20.0781C40.8152 31.0786 31.8657 40.0281 20.8652 40.0281C9.8648 40.0281 0.915234 31.0786 0.915234 20.0781ZM2.69023 20.0781C2.69023 30.0999 10.8435 38.2531 20.8652 38.2531C30.887 38.2531 39.0402 30.0999 39.0402 20.0781C39.0402 10.0564 30.887 1.90313 20.8652 1.90313C10.8435 1.90313 2.69023 10.0564 2.69023 20.0781Z" fill="black" stroke="white" stroke-width="0.1"/>
</svg>
