<svg width="38" height="36" viewBox="0 0 38 36" fill="none" xmlns="http://www.w3.org/2000/svg">
<mask id="path-1-outside-1_307_1669" maskUnits="userSpaceOnUse" x="-0.134766" y="-0.585938" width="38" height="37" fill="black">
<rect fill="white" x="-0.134766" y="-0.585938" width="38" height="37"/>
<path d="M36.2652 0.414062H1.46523C1.13388 0.414062 0.865234 0.682713 0.865234 1.01406V25.0141C0.865234 25.3454 1.13388 25.6141 1.46523 25.6141H12.2994C12.3174 25.8139 12.3468 26.0107 12.3822 26.2057L9.09124 30.1279C8.87809 30.3816 8.91101 30.76 9.16473 30.9732C9.23621 31.0333 9.32081 31.0758 9.41164 31.0975L13.0344 31.9627L14.5158 35.3827C14.6475 35.6867 15.0008 35.8265 15.3048 35.6948C15.3905 35.6578 15.4662 35.6012 15.5262 35.5297L18.8118 31.6141C18.8298 31.6141 18.8472 31.6141 18.8652 31.6141C18.8832 31.6141 18.9006 31.6141 18.9186 31.6141L22.2042 35.5297C22.4171 35.7836 22.7955 35.8169 23.0495 35.6041C23.121 35.5441 23.1775 35.4683 23.2146 35.3827L24.696 31.9627L28.3188 31.0975C28.6412 31.0207 28.8403 30.6971 28.7635 30.3748C28.7418 30.2839 28.6993 30.1993 28.6392 30.1279L25.3482 26.2057C25.3836 26.0107 25.413 25.8139 25.431 25.6141H36.2652C36.5966 25.6141 36.8652 25.3454 36.8652 25.0141V1.01406C36.8652 0.682638 36.5966 0.414062 36.2652 0.414062ZM15.231 34.0141L14.016 31.2121C13.941 31.0388 13.7887 30.911 13.605 30.8671L10.635 30.1573L12.789 27.5899C12.8004 27.6163 12.8154 27.6403 12.8268 27.6667C12.9048 27.8467 12.9894 28.0177 13.083 28.1875C13.1214 28.2583 13.1622 28.3279 13.203 28.3969C13.2855 28.534 13.3726 28.6684 13.4646 28.8001C13.5288 28.8919 13.596 28.9801 13.665 29.0701C13.7454 29.1721 13.8282 29.2717 13.9152 29.3701C14.0022 29.4685 14.1036 29.5771 14.2038 29.6767C14.2776 29.7505 14.3538 29.8219 14.4318 29.8921C14.4966 29.9521 14.5548 30.0151 14.6226 30.0721C14.6904 30.1291 14.754 30.1675 14.8188 30.2179C14.8482 30.2407 14.8734 30.2671 14.9034 30.2893C14.9574 30.3301 15.0144 30.3655 15.0696 30.4045C15.156 30.4645 15.2412 30.5293 15.3306 30.5845C15.501 30.6937 15.6768 30.7933 15.855 30.8845C15.9234 30.9193 15.993 30.9511 16.0626 30.9835C16.2226 31.0587 16.3836 31.1271 16.5456 31.1887C16.5924 31.2061 16.6386 31.2259 16.6854 31.2421C16.9127 31.3219 17.1443 31.3891 17.379 31.4431L17.3856 31.4449L15.231 34.0141ZM19.992 30.2869C19.7169 30.345 19.4376 30.3817 19.1568 30.3967H19.149C19.0542 30.4015 18.9594 30.4081 18.864 30.4081C18.7686 30.4081 18.6738 30.4015 18.579 30.3967H18.5712C18.291 30.3817 18.0124 30.3451 17.7378 30.2875L17.6874 30.2773C17.5806 30.2539 17.475 30.2251 17.3706 30.1951C17.3268 30.1825 17.2824 30.1711 17.2392 30.1573C17.1642 30.1339 17.0904 30.1063 17.0166 30.0799C16.9428 30.0535 16.8726 30.0277 16.8018 29.9983C16.758 29.9797 16.7148 29.9599 16.6716 29.9383C16.5732 29.8939 16.4754 29.8489 16.38 29.7991L16.332 29.7727C16.0847 29.6404 15.848 29.4891 15.624 29.3203C15.4992 29.2273 15.384 29.1247 15.2706 29.0233C15.1365 28.9036 15.0085 28.7773 14.8872 28.6447C14.8392 28.5931 14.7876 28.5439 14.742 28.4905C14.5745 28.2934 14.4216 28.0842 14.2848 27.8647C14.2644 27.8323 14.247 27.7981 14.2248 27.7645C14.0973 27.5513 13.985 27.3293 13.8888 27.1003C13.8804 27.0799 13.8708 27.0595 13.863 27.0403C13.7568 26.7778 13.6713 26.5074 13.6074 26.2315C13.6074 26.2207 13.599 26.2123 13.596 26.2015C13.5089 25.8117 13.465 25.4134 13.4652 25.0141C13.4634 22.0317 15.8796 19.6126 18.8619 19.6108C21.8443 19.609 24.2634 22.0252 24.2652 25.0075C24.2655 25.4114 24.2204 25.8141 24.1308 26.208C24.1278 26.2182 24.1218 26.2272 24.1194 26.2374C24.0557 26.513 23.9704 26.7832 23.8644 27.0456C23.856 27.0666 23.8464 27.0876 23.8374 27.1056C23.7416 27.3332 23.6297 27.5538 23.5026 27.7656C23.4828 27.7992 23.4648 27.8346 23.4426 27.8682C23.3058 28.0874 23.1532 28.2964 22.986 28.4934C22.941 28.5462 22.89 28.5942 22.8426 28.6458C22.7197 28.7796 22.5901 28.9072 22.4544 29.028C22.3404 29.1294 22.227 29.232 22.1028 29.3244C21.9786 29.4168 21.8676 29.4948 21.7464 29.5722L21.7392 29.5764C21.6306 29.6454 21.5196 29.709 21.4068 29.769C21.3846 29.781 21.363 29.7936 21.3408 29.805C21.2502 29.8524 21.1608 29.895 21.0654 29.9364C21.0174 29.958 20.97 29.9802 20.9214 30C20.8542 30.0282 20.7858 30.0528 20.7174 30.0774C20.649 30.102 20.5644 30.1338 20.4864 30.1578C20.445 30.171 20.403 30.1824 20.361 30.1944C20.2548 30.2244 20.148 30.2544 20.04 30.2772L19.992 30.2869ZM27.0954 30.1555L24.1254 30.8653C23.9418 30.9092 23.7895 31.037 23.7144 31.2103L22.4994 34.0141L20.3448 31.4467H20.3502C20.5859 31.3928 20.8183 31.3255 21.0462 31.2451C21.0912 31.2295 21.1344 31.2109 21.1794 31.1947C21.3468 31.1311 21.5118 31.0615 21.6738 30.9841C21.7398 30.9535 21.8058 30.9241 21.8706 30.8905C22.0506 30.7969 22.2306 30.6955 22.4034 30.5845C22.4868 30.5317 22.5666 30.4723 22.6476 30.4153C22.7076 30.3739 22.7676 30.3361 22.8276 30.2923C22.8594 30.2683 22.8876 30.2401 22.9188 30.2155C22.9788 30.1663 23.0484 30.1249 23.1096 30.0733C23.1708 30.0217 23.2332 29.9533 23.2968 29.8969C23.376 29.8249 23.454 29.7523 23.5296 29.6773C23.6284 29.5785 23.724 29.4769 23.8164 29.3725C23.9034 29.2741 23.9862 29.1745 24.0672 29.0725C24.1362 28.9843 24.2034 28.8925 24.2676 28.8025C24.36 28.6717 24.4476 28.5373 24.5286 28.4005C24.5706 28.3309 24.6114 28.2607 24.6486 28.1893C24.7419 28.0201 24.8268 27.847 24.9036 27.6703C24.9144 27.6397 24.93 27.6151 24.9414 27.5881L27.0954 30.1555ZM35.6652 24.4141H25.4346C25.1091 20.7856 21.9036 18.108 18.2751 18.4336C15.0978 18.7188 12.5798 21.2368 12.2946 24.4141H2.06523V1.61406H35.6652V24.4141Z"/>
</mask>
<path d="M36.2652 0.414062H1.46523C1.13388 0.414062 0.865234 0.682713 0.865234 1.01406V25.0141C0.865234 25.3454 1.13388 25.6141 1.46523 25.6141H12.2994C12.3174 25.8139 12.3468 26.0107 12.3822 26.2057L9.09124 30.1279C8.87809 30.3816 8.91101 30.76 9.16473 30.9732C9.23621 31.0333 9.32081 31.0758 9.41164 31.0975L13.0344 31.9627L14.5158 35.3827C14.6475 35.6867 15.0008 35.8265 15.3048 35.6948C15.3905 35.6578 15.4662 35.6012 15.5262 35.5297L18.8118 31.6141C18.8298 31.6141 18.8472 31.6141 18.8652 31.6141C18.8832 31.6141 18.9006 31.6141 18.9186 31.6141L22.2042 35.5297C22.4171 35.7836 22.7955 35.8169 23.0495 35.6041C23.121 35.5441 23.1775 35.4683 23.2146 35.3827L24.696 31.9627L28.3188 31.0975C28.6412 31.0207 28.8403 30.6971 28.7635 30.3748C28.7418 30.2839 28.6993 30.1993 28.6392 30.1279L25.3482 26.2057C25.3836 26.0107 25.413 25.8139 25.431 25.6141H36.2652C36.5966 25.6141 36.8652 25.3454 36.8652 25.0141V1.01406C36.8652 0.682638 36.5966 0.414062 36.2652 0.414062ZM15.231 34.0141L14.016 31.2121C13.941 31.0388 13.7887 30.911 13.605 30.8671L10.635 30.1573L12.789 27.5899C12.8004 27.6163 12.8154 27.6403 12.8268 27.6667C12.9048 27.8467 12.9894 28.0177 13.083 28.1875C13.1214 28.2583 13.1622 28.3279 13.203 28.3969C13.2855 28.534 13.3726 28.6684 13.4646 28.8001C13.5288 28.8919 13.596 28.9801 13.665 29.0701C13.7454 29.1721 13.8282 29.2717 13.9152 29.3701C14.0022 29.4685 14.1036 29.5771 14.2038 29.6767C14.2776 29.7505 14.3538 29.8219 14.4318 29.8921C14.4966 29.9521 14.5548 30.0151 14.6226 30.0721C14.6904 30.1291 14.754 30.1675 14.8188 30.2179C14.8482 30.2407 14.8734 30.2671 14.9034 30.2893C14.9574 30.3301 15.0144 30.3655 15.0696 30.4045C15.156 30.4645 15.2412 30.5293 15.3306 30.5845C15.501 30.6937 15.6768 30.7933 15.855 30.8845C15.9234 30.9193 15.993 30.9511 16.0626 30.9835C16.2226 31.0587 16.3836 31.1271 16.5456 31.1887C16.5924 31.2061 16.6386 31.2259 16.6854 31.2421C16.9127 31.3219 17.1443 31.3891 17.379 31.4431L17.3856 31.4449L15.231 34.0141ZM19.992 30.2869C19.7169 30.345 19.4376 30.3817 19.1568 30.3967H19.149C19.0542 30.4015 18.9594 30.4081 18.864 30.4081C18.7686 30.4081 18.6738 30.4015 18.579 30.3967H18.5712C18.291 30.3817 18.0124 30.3451 17.7378 30.2875L17.6874 30.2773C17.5806 30.2539 17.475 30.2251 17.3706 30.1951C17.3268 30.1825 17.2824 30.1711 17.2392 30.1573C17.1642 30.1339 17.0904 30.1063 17.0166 30.0799C16.9428 30.0535 16.8726 30.0277 16.8018 29.9983C16.758 29.9797 16.7148 29.9599 16.6716 29.9383C16.5732 29.8939 16.4754 29.8489 16.38 29.7991L16.332 29.7727C16.0847 29.6404 15.848 29.4891 15.624 29.3203C15.4992 29.2273 15.384 29.1247 15.2706 29.0233C15.1365 28.9036 15.0085 28.7773 14.8872 28.6447C14.8392 28.5931 14.7876 28.5439 14.742 28.4905C14.5745 28.2934 14.4216 28.0842 14.2848 27.8647C14.2644 27.8323 14.247 27.7981 14.2248 27.7645C14.0973 27.5513 13.985 27.3293 13.8888 27.1003C13.8804 27.0799 13.8708 27.0595 13.863 27.0403C13.7568 26.7778 13.6713 26.5074 13.6074 26.2315C13.6074 26.2207 13.599 26.2123 13.596 26.2015C13.5089 25.8117 13.465 25.4134 13.4652 25.0141C13.4634 22.0317 15.8796 19.6126 18.8619 19.6108C21.8443 19.609 24.2634 22.0252 24.2652 25.0075C24.2655 25.4114 24.2204 25.8141 24.1308 26.208C24.1278 26.2182 24.1218 26.2272 24.1194 26.2374C24.0557 26.513 23.9704 26.7832 23.8644 27.0456C23.856 27.0666 23.8464 27.0876 23.8374 27.1056C23.7416 27.3332 23.6297 27.5538 23.5026 27.7656C23.4828 27.7992 23.4648 27.8346 23.4426 27.8682C23.3058 28.0874 23.1532 28.2964 22.986 28.4934C22.941 28.5462 22.89 28.5942 22.8426 28.6458C22.7197 28.7796 22.5901 28.9072 22.4544 29.028C22.3404 29.1294 22.227 29.232 22.1028 29.3244C21.9786 29.4168 21.8676 29.4948 21.7464 29.5722L21.7392 29.5764C21.6306 29.6454 21.5196 29.709 21.4068 29.769C21.3846 29.781 21.363 29.7936 21.3408 29.805C21.2502 29.8524 21.1608 29.895 21.0654 29.9364C21.0174 29.958 20.97 29.9802 20.9214 30C20.8542 30.0282 20.7858 30.0528 20.7174 30.0774C20.649 30.102 20.5644 30.1338 20.4864 30.1578C20.445 30.171 20.403 30.1824 20.361 30.1944C20.2548 30.2244 20.148 30.2544 20.04 30.2772L19.992 30.2869ZM27.0954 30.1555L24.1254 30.8653C23.9418 30.9092 23.7895 31.037 23.7144 31.2103L22.4994 34.0141L20.3448 31.4467H20.3502C20.5859 31.3928 20.8183 31.3255 21.0462 31.2451C21.0912 31.2295 21.1344 31.2109 21.1794 31.1947C21.3468 31.1311 21.5118 31.0615 21.6738 30.9841C21.7398 30.9535 21.8058 30.9241 21.8706 30.8905C22.0506 30.7969 22.2306 30.6955 22.4034 30.5845C22.4868 30.5317 22.5666 30.4723 22.6476 30.4153C22.7076 30.3739 22.7676 30.3361 22.8276 30.2923C22.8594 30.2683 22.8876 30.2401 22.9188 30.2155C22.9788 30.1663 23.0484 30.1249 23.1096 30.0733C23.1708 30.0217 23.2332 29.9533 23.2968 29.8969C23.376 29.8249 23.454 29.7523 23.5296 29.6773C23.6284 29.5785 23.724 29.4769 23.8164 29.3725C23.9034 29.2741 23.9862 29.1745 24.0672 29.0725C24.1362 28.9843 24.2034 28.8925 24.2676 28.8025C24.36 28.6717 24.4476 28.5373 24.5286 28.4005C24.5706 28.3309 24.6114 28.2607 24.6486 28.1893C24.7419 28.0201 24.8268 27.847 24.9036 27.6703C24.9144 27.6397 24.93 27.6151 24.9414 27.5881L27.0954 30.1555ZM35.6652 24.4141H25.4346C25.1091 20.7856 21.9036 18.108 18.2751 18.4336C15.0978 18.7188 12.5798 21.2368 12.2946 24.4141H2.06523V1.61406H35.6652V24.4141Z" fill="black"/>
<path d="M36.2652 0.414062H1.46523C1.13388 0.414062 0.865234 0.682713 0.865234 1.01406V25.0141C0.865234 25.3454 1.13388 25.6141 1.46523 25.6141H12.2994C12.3174 25.8139 12.3468 26.0107 12.3822 26.2057L9.09124 30.1279C8.87809 30.3816 8.91101 30.76 9.16473 30.9732C9.23621 31.0333 9.32081 31.0758 9.41164 31.0975L13.0344 31.9627L14.5158 35.3827C14.6475 35.6867 15.0008 35.8265 15.3048 35.6948C15.3905 35.6578 15.4662 35.6012 15.5262 35.5297L18.8118 31.6141C18.8298 31.6141 18.8472 31.6141 18.8652 31.6141C18.8832 31.6141 18.9006 31.6141 18.9186 31.6141L22.2042 35.5297C22.4171 35.7836 22.7955 35.8169 23.0495 35.6041C23.121 35.5441 23.1775 35.4683 23.2146 35.3827L24.696 31.9627L28.3188 31.0975C28.6412 31.0207 28.8403 30.6971 28.7635 30.3748C28.7418 30.2839 28.6993 30.1993 28.6392 30.1279L25.3482 26.2057C25.3836 26.0107 25.413 25.8139 25.431 25.6141H36.2652C36.5966 25.6141 36.8652 25.3454 36.8652 25.0141V1.01406C36.8652 0.682638 36.5966 0.414062 36.2652 0.414062ZM15.231 34.0141L14.016 31.2121C13.941 31.0388 13.7887 30.911 13.605 30.8671L10.635 30.1573L12.789 27.5899C12.8004 27.6163 12.8154 27.6403 12.8268 27.6667C12.9048 27.8467 12.9894 28.0177 13.083 28.1875C13.1214 28.2583 13.1622 28.3279 13.203 28.3969C13.2855 28.534 13.3726 28.6684 13.4646 28.8001C13.5288 28.8919 13.596 28.9801 13.665 29.0701C13.7454 29.1721 13.8282 29.2717 13.9152 29.3701C14.0022 29.4685 14.1036 29.5771 14.2038 29.6767C14.2776 29.7505 14.3538 29.8219 14.4318 29.8921C14.4966 29.9521 14.5548 30.0151 14.6226 30.0721C14.6904 30.1291 14.754 30.1675 14.8188 30.2179C14.8482 30.2407 14.8734 30.2671 14.9034 30.2893C14.9574 30.3301 15.0144 30.3655 15.0696 30.4045C15.156 30.4645 15.2412 30.5293 15.3306 30.5845C15.501 30.6937 15.6768 30.7933 15.855 30.8845C15.9234 30.9193 15.993 30.9511 16.0626 30.9835C16.2226 31.0587 16.3836 31.1271 16.5456 31.1887C16.5924 31.2061 16.6386 31.2259 16.6854 31.2421C16.9127 31.3219 17.1443 31.3891 17.379 31.4431L17.3856 31.4449L15.231 34.0141ZM19.992 30.2869C19.7169 30.345 19.4376 30.3817 19.1568 30.3967H19.149C19.0542 30.4015 18.9594 30.4081 18.864 30.4081C18.7686 30.4081 18.6738 30.4015 18.579 30.3967H18.5712C18.291 30.3817 18.0124 30.3451 17.7378 30.2875L17.6874 30.2773C17.5806 30.2539 17.475 30.2251 17.3706 30.1951C17.3268 30.1825 17.2824 30.1711 17.2392 30.1573C17.1642 30.1339 17.0904 30.1063 17.0166 30.0799C16.9428 30.0535 16.8726 30.0277 16.8018 29.9983C16.758 29.9797 16.7148 29.9599 16.6716 29.9383C16.5732 29.8939 16.4754 29.8489 16.38 29.7991L16.332 29.7727C16.0847 29.6404 15.848 29.4891 15.624 29.3203C15.4992 29.2273 15.384 29.1247 15.2706 29.0233C15.1365 28.9036 15.0085 28.7773 14.8872 28.6447C14.8392 28.5931 14.7876 28.5439 14.742 28.4905C14.5745 28.2934 14.4216 28.0842 14.2848 27.8647C14.2644 27.8323 14.247 27.7981 14.2248 27.7645C14.0973 27.5513 13.985 27.3293 13.8888 27.1003C13.8804 27.0799 13.8708 27.0595 13.863 27.0403C13.7568 26.7778 13.6713 26.5074 13.6074 26.2315C13.6074 26.2207 13.599 26.2123 13.596 26.2015C13.5089 25.8117 13.465 25.4134 13.4652 25.0141C13.4634 22.0317 15.8796 19.6126 18.8619 19.6108C21.8443 19.609 24.2634 22.0252 24.2652 25.0075C24.2655 25.4114 24.2204 25.8141 24.1308 26.208C24.1278 26.2182 24.1218 26.2272 24.1194 26.2374C24.0557 26.513 23.9704 26.7832 23.8644 27.0456C23.856 27.0666 23.8464 27.0876 23.8374 27.1056C23.7416 27.3332 23.6297 27.5538 23.5026 27.7656C23.4828 27.7992 23.4648 27.8346 23.4426 27.8682C23.3058 28.0874 23.1532 28.2964 22.986 28.4934C22.941 28.5462 22.89 28.5942 22.8426 28.6458C22.7197 28.7796 22.5901 28.9072 22.4544 29.028C22.3404 29.1294 22.227 29.232 22.1028 29.3244C21.9786 29.4168 21.8676 29.4948 21.7464 29.5722L21.7392 29.5764C21.6306 29.6454 21.5196 29.709 21.4068 29.769C21.3846 29.781 21.363 29.7936 21.3408 29.805C21.2502 29.8524 21.1608 29.895 21.0654 29.9364C21.0174 29.958 20.97 29.9802 20.9214 30C20.8542 30.0282 20.7858 30.0528 20.7174 30.0774C20.649 30.102 20.5644 30.1338 20.4864 30.1578C20.445 30.171 20.403 30.1824 20.361 30.1944C20.2548 30.2244 20.148 30.2544 20.04 30.2772L19.992 30.2869ZM27.0954 30.1555L24.1254 30.8653C23.9418 30.9092 23.7895 31.037 23.7144 31.2103L22.4994 34.0141L20.3448 31.4467H20.3502C20.5859 31.3928 20.8183 31.3255 21.0462 31.2451C21.0912 31.2295 21.1344 31.2109 21.1794 31.1947C21.3468 31.1311 21.5118 31.0615 21.6738 30.9841C21.7398 30.9535 21.8058 30.9241 21.8706 30.8905C22.0506 30.7969 22.2306 30.6955 22.4034 30.5845C22.4868 30.5317 22.5666 30.4723 22.6476 30.4153C22.7076 30.3739 22.7676 30.3361 22.8276 30.2923C22.8594 30.2683 22.8876 30.2401 22.9188 30.2155C22.9788 30.1663 23.0484 30.1249 23.1096 30.0733C23.1708 30.0217 23.2332 29.9533 23.2968 29.8969C23.376 29.8249 23.454 29.7523 23.5296 29.6773C23.6284 29.5785 23.724 29.4769 23.8164 29.3725C23.9034 29.2741 23.9862 29.1745 24.0672 29.0725C24.1362 28.9843 24.2034 28.8925 24.2676 28.8025C24.36 28.6717 24.4476 28.5373 24.5286 28.4005C24.5706 28.3309 24.6114 28.2607 24.6486 28.1893C24.7419 28.0201 24.8268 27.847 24.9036 27.6703C24.9144 27.6397 24.93 27.6151 24.9414 27.5881L27.0954 30.1555ZM35.6652 24.4141H25.4346C25.1091 20.7856 21.9036 18.108 18.2751 18.4336C15.0978 18.7188 12.5798 21.2368 12.2946 24.4141H2.06523V1.61406H35.6652V24.4141Z" stroke="black" stroke-width="0.4" mask="url(#path-1-outside-1_307_1669)"/>
<path d="M26.166 7.01562V6.91562H26.066H11.666H11.566V7.01562V8.21563V8.31563H11.666H26.066H26.166V8.21563V7.01562Z" fill="black" stroke="black" stroke-width="0.2"/>
<path d="M29.7645 10.6152V10.5152H29.6645H8.06445H7.96445V10.6152V11.8152V11.9152H8.06445H29.6645H29.7645V11.8152V10.6152Z" fill="black" stroke="black" stroke-width="0.2"/>
<path d="M14.566 25.0145L14.566 25.0146C14.5687 27.3882 16.4923 29.3118 18.8659 29.3145H18.866C21.2408 29.3145 23.166 27.3893 23.166 25.0145C23.166 22.6396 21.2408 20.7145 18.866 20.7145C16.4912 20.7145 14.566 22.6396 14.566 25.0145ZM18.866 27.9145C17.2644 27.9145 15.966 26.6161 15.966 25.0145C15.968 23.4137 17.2652 22.1164 18.866 22.1145C20.4676 22.1145 21.766 23.4129 21.766 25.0145C21.766 26.6161 20.4676 27.9145 18.866 27.9145Z" fill="black" stroke="black" stroke-width="0.2"/>
</svg>
