<svg width="40" height="38" viewBox="0 0 40 38" fill="none" xmlns="http://www.w3.org/2000/svg">
<path d="M33.6241 6.43633C25.8084 -1.37945 12.9248 -0.276619 6.48992 8.60541L4.57027 7.39307L3.97322 8.33647C-0.169756 14.8825 -0.171767 23.2732 3.97322 29.8224L4.57027 30.7658L6.48992 29.5535C12.9499 38.4699 25.8362 39.5106 33.6242 31.7226C40.6117 24.7351 40.6127 13.4247 33.6241 6.43633ZM5.29427 10.4938L12.8858 15.2884C11.7592 17.6845 11.7584 20.4727 12.8858 22.8704L5.29427 27.6651C2.37489 22.3409 2.36364 15.8385 5.29427 10.4938ZM14.276 19.0795C14.276 15.3823 17.2839 12.3744 20.981 12.3744C24.6782 12.3744 27.6861 15.3823 27.6861 19.0795C27.6861 22.7766 24.6782 25.7845 20.981 25.7845C17.2839 25.7845 14.276 22.7766 14.276 19.0795ZM20.981 34.7246C15.9614 34.7246 11.3313 32.3636 8.38403 28.3572L14.0816 24.7586C15.7226 26.7488 18.2062 28.0195 20.981 28.0195C25.9106 28.0195 29.9211 24.009 29.9211 19.0795C29.9211 14.1499 25.9106 10.1394 20.981 10.1394C18.2062 10.1394 15.7227 11.4101 14.0816 13.4003L8.38403 9.80174C11.3313 5.79533 15.9614 3.43433 20.981 3.43433C29.6077 3.43433 36.6262 10.4527 36.6262 19.0795C36.6262 27.7062 29.6077 34.7246 20.981 34.7246Z" fill="black" stroke="white" stroke-width="0.5"/>
<path d="M14.8145 7.12305L16.8796 6.2648L17.7378 8.32996L15.6727 9.1882L14.8145 7.12305Z" fill="black" stroke="white" stroke-width="0.5"/>
<path d="M24.2188 8.33301L25.0725 6.26784L27.1377 7.12162L26.2839 9.18679L24.2188 8.33301Z" fill="black" stroke="white" stroke-width="0.5"/>
<path d="M30.8926 13.7559L32.9577 12.8976L33.816 14.9628L31.7509 15.8211L30.8926 13.7559Z" fill="black" stroke="white" stroke-width="0.5"/>
<path d="M30.8867 24.3936L31.7405 22.3284L33.8057 23.1822L32.9519 25.2473L30.8867 24.3936Z" fill="black" stroke="white" stroke-width="0.5"/>
<path d="M24.2578 29.835L26.323 28.9767L27.1812 31.0419L25.1161 31.9001L24.2578 29.835Z" fill="black" stroke="white" stroke-width="0.5"/>
<path d="M14.8262 31.0605L15.6799 28.9954L17.7451 29.8492L16.8913 31.9143L14.8262 31.0605Z" fill="black" stroke="white" stroke-width="0.5"/>
<path d="M6.50195 17.4824L6.91542 15.2855L9.11244 15.699L8.69897 17.8959L6.50195 17.4824Z" fill="black" stroke="white" stroke-width="0.5"/>
<path d="M6.49805 20.6758L8.69507 20.2623L9.10856 22.4594L6.91154 22.8729L6.49805 20.6758Z" fill="black" stroke="white" stroke-width="0.5"/>
<path d="M20.9818 23.5494C23.4465 23.5494 25.4518 21.5442 25.4518 19.0794C25.4518 16.6146 23.4465 14.6094 20.9818 14.6094C18.517 14.6094 16.5117 16.6146 16.5117 19.0794C16.5117 21.5442 18.517 23.5494 20.9818 23.5494ZM20.9818 16.8444C22.2141 16.8444 23.2168 17.847 23.2168 19.0794C23.2168 20.3118 22.2141 21.3144 20.9818 21.3144C19.7494 21.3144 18.7467 20.3118 18.7467 19.0794C18.7467 17.847 19.7494 16.8444 20.9818 16.8444Z" fill="black" stroke="white" stroke-width="0.5"/>
</svg>
