<svg width="34" height="40" viewBox="0 0 34 40" fill="none" xmlns="http://www.w3.org/2000/svg">
<path d="M32.4893 15.1558C32.489 14.7493 32.3448 14.349 32.0458 14.0499L19.534 1.53822C19.235 1.23823 18.8348 1.09269 18.4282 1.09269V1.08008H9.04443C4.73288 1.08008 1.22461 4.58834 1.22461 8.8999V30.7954C1.22461 35.107 4.73288 38.6152 9.04443 38.6152H24.6841C28.9956 38.6152 32.5039 35.107 32.5039 30.7954V15.1558H32.4893ZM19.9922 6.41955L27.1644 13.5918H24.6841C22.0968 13.5918 19.9922 11.4872 19.9922 8.8999V6.41955ZM24.6841 35.4873H9.04443C6.45715 35.4873 4.35254 33.3827 4.35254 30.7954V8.8999C4.35254 6.31262 6.45715 4.20801 9.04443 4.20801H16.8643V8.8999C16.8643 13.2115 20.3725 16.7197 24.6841 16.7197H29.376V30.7954C29.376 33.3827 27.2714 35.4873 24.6841 35.4873ZM24.6841 29.2314C24.6841 30.0959 23.9838 30.7954 23.1201 30.7954H10.6084C9.7447 30.7954 9.04443 30.0959 9.04443 29.2314C9.04443 28.367 9.7447 27.6675 10.6084 27.6675H23.1201C23.9838 27.6675 24.6841 28.367 24.6841 29.2314ZM24.6841 22.9756C24.6841 23.8401 23.9838 24.5396 23.1201 24.5396H10.6084C9.7447 24.5396 9.04443 23.8401 9.04443 22.9756C9.04443 22.1111 9.7447 21.4116 10.6084 21.4116H23.1201C23.9838 21.4116 24.6841 22.1111 24.6841 22.9756ZM9.04443 16.7197C9.04443 15.8552 9.7447 15.1558 10.6084 15.1558H13.7363C14.6 15.1558 15.3003 15.8552 15.3003 16.7197C15.3003 17.5842 14.6 18.2837 13.7363 18.2837H10.6084C9.7447 18.2837 9.04443 17.5842 9.04443 16.7197Z" fill="black" stroke="white"/>
</svg>
