<svg width="148" height="76" viewBox="0 0 148 76" fill="none" xmlns="http://www.w3.org/2000/svg">
<path fill-rule="evenodd" clip-rule="evenodd" d="M93.5142 0.513672C124.774 2.88287 147.808 10.9776 147.808 20.586C147.808 28.3517 132.803 35.0645 110.625 38.6841L116.877 46.0549H105.229L74.4949 9.6614L54.0276 33.9457C60.2139 34.4063 66.8608 34.7354 73.7709 34.7354C76.9957 34.7354 80.2204 34.6696 83.3135 34.538L89.4998 40.9216C84.5639 41.1849 79.4965 41.3823 74.2316 41.3823C65.2813 41.3823 56.7259 40.9216 48.8286 40.1319L43.2346 46.713H31.5861L38.2988 38.7499C15.923 35.1961 0.720703 28.4175 0.720703 20.586C0.720703 11.1751 22.8332 3.21192 53.1721 0.645294L49.355 7.29221C27.6374 9.46397 12.4351 14.5314 12.4351 20.3886C12.4351 25.7193 24.8733 30.3261 43.3662 32.8269L68.7693 2.75125H80.352L105.558 32.6294C123.327 30.1286 135.173 25.5877 135.173 20.3886C135.173 14.4656 119.839 9.39816 97.9236 7.2264L93.5142 0.513672Z" fill="#BBC3CE"/>
<path d="M44.3536 68.8896L47.71 69.9426C47.1835 71.8511 46.328 73.2332 45.1434 74.1545C43.9588 75.0759 42.4451 75.5366 40.6024 75.5366C38.299 75.5366 36.4563 74.7468 34.9427 73.1674C33.4948 71.5879 32.7051 69.4819 32.7051 66.7837C32.7051 63.888 33.429 61.7162 34.9427 60.1368C36.3905 58.5573 38.3648 57.7676 40.7998 57.7676C42.9058 57.7676 44.6169 58.3599 45.9331 59.6103C46.7228 60.3342 47.3151 61.3872 47.71 62.7692L44.2878 63.5589C44.0904 62.6376 43.6955 61.9795 43.0374 61.453C42.3793 60.9265 41.5896 60.6633 40.6682 60.6633C39.4178 60.6633 38.3648 61.1239 37.5751 62.0453C36.7854 62.9666 36.3905 64.4145 36.3905 66.5204C36.3905 68.6922 36.7854 70.2717 37.5751 71.193C38.3648 72.1144 39.352 72.5751 40.6024 72.5751C41.5238 72.5751 42.3135 72.3118 42.9716 71.7195C43.5639 71.1272 44.0246 70.14 44.3536 68.8896Z" fill="#BBC3CE"/>
<path d="M50.668 75.2079V58.0312H54.1559V64.8098H61.0003V58.0312H64.4883V75.2079H61.0003V67.7055H54.1559V75.2079H50.668Z" fill="#BBC3CE"/>
<path d="M68.0449 75.2079V58.0312H80.8123V60.9269H71.5329V64.744H80.1541V67.6397H71.5329V72.3122H81.1413V75.2079H68.0449Z" fill="#BBC3CE"/>
<path d="M84.1016 75.2079V58.0312H91.4066C93.2493 58.0312 94.5655 58.1629 95.4211 58.4919C96.2766 58.821 96.9347 59.3475 97.3954 60.1372C97.9219 60.9269 98.1193 61.8483 98.1193 62.8355C98.1193 64.1517 97.7244 65.2046 97.0005 66.0602C96.2108 66.9157 95.092 67.4422 93.5784 67.6397C94.3023 68.1003 94.9604 68.561 95.4211 69.0875C95.8817 69.614 96.5398 70.5353 97.3954 71.8516L99.5013 75.2079H95.3553L92.8544 71.4567C91.9331 70.1405 91.3408 69.2849 91.0117 68.9559C90.6827 68.6268 90.3536 68.3636 89.9587 68.232C89.5639 68.1003 89.0374 68.0345 88.1818 68.0345H87.5895V75.2079H84.1016ZM87.5895 65.3363H90.1562C91.8014 65.3363 92.8544 65.2705 93.2493 65.1388C93.6442 65.0072 93.9732 64.744 94.2365 64.4149C94.4997 64.0859 94.5655 63.6252 94.5655 63.0987C94.5655 62.5064 94.4339 62.0457 94.1048 61.7167C93.7758 61.3876 93.3809 61.1244 92.7886 61.0586C92.5254 60.9927 91.6698 60.9927 90.222 60.9927H87.5895V65.3363Z" fill="#BBC3CE"/>
<path d="M105.097 75.2079V67.9687L98.7793 58.0312H102.86L106.874 64.8098L110.889 58.0312H114.837L108.519 68.0345V75.2079H105.097Z" fill="#BBC3CE"/>
</svg>
