<svg width="96" height="97" viewBox="0 0 96 97" fill="none" xmlns="http://www.w3.org/2000/svg">
<path fill-rule="evenodd" clip-rule="evenodd" d="M47.7943 0.621321C43.7406 0.631097 42.0789 0.785882 38.4752 1.51431C24.9905 4.24017 13.0978 13.1766 6.42637 25.597C-1.94878 41.1889 -1.04352 60.3482 8.76573 75.1054C11.8509 79.7468 16.5811 84.5974 21.1619 87.8172C27.4472 92.2351 35.4237 95.2272 42.8709 95.9603C43.687 96.041 44.5975 96.1304 44.8942 96.1593C46.3383 96.3014 52.1401 96.1031 53.9992 95.8482C61.7533 94.7856 68.7391 92.0395 74.9743 87.603C84.2872 80.9768 91.0356 71.054 93.7251 60.0312C96.7559 47.609 94.8327 34.5378 88.3846 23.7352C81.9219 12.9077 71.4627 5.04335 59.4623 1.98825C55.3387 0.938487 52.5767 0.614973 47.7943 0.621181V0.621321ZM47.3406 1.96317C49.7882 1.97714 52.7126 2.08555 53.7969 2.24264C59.3804 3.05167 64.6083 4.73102 69.1978 7.19003C83.6513 14.9336 93.0494 29.8529 93.7469 46.161L93.8334 48.186L92.951 47.3343C92.4655 46.8658 91.7629 46.1931 91.3896 45.8394C90.2311 44.7414 89.0314 41.8453 88.346 38.4917L88.052 37.0531L88.1047 40.1561C88.2984 51.5272 85.6898 63.1243 80.5709 73.6474C79.1395 76.5901 77.7979 78.7876 76.6837 80.0154C75.299 81.5412 71.6295 84.1429 68.8037 85.6024C64.2998 87.9288 59.5894 89.1137 53.1226 89.5471C51.2113 89.6753 44.3968 89.7444 44.2759 89.6369C44.2449 89.609 43.4817 89.5471 42.5796 89.4982C37.2013 89.2074 31.8064 87.8735 27.7916 85.8417C24.7374 84.296 20.5923 81.3533 19.3306 79.8349C18.9356 79.3597 18.2547 78.4182 17.8173 77.7425C16.7456 76.0867 14.4262 71.3017 13.3336 68.4926C9.77916 59.3539 8.10501 50.7721 8.07941 41.5586C8.07081 38.3743 8.05217 38.0863 7.90385 38.8216C7.33299 41.6533 6.34263 43.3975 4.64541 44.5604C3.61833 45.2641 3.06288 45.8338 2.45018 46.8115L2.06713 47.423L2.0681 46.543C2.0689 46.059 2.1598 44.8032 2.26987 43.7522C3.23158 34.5742 6.55601 26.4078 12.3002 19.1126C13.6951 17.3411 17.4608 13.5484 19.2651 12.0978C25.3504 7.2054 32.5425 3.89114 39.8555 2.61C41.3539 2.3475 41.7509 2.29317 43.9497 2.0494C44.5746 1.9804 45.8717 1.95481 47.3403 1.96267L47.3406 1.96317ZM48.3248 8.67426C46.0955 8.65958 43.8803 8.71466 42.7359 8.8471C34.8133 9.76511 27.67 12.1216 20.9513 16.0339C18.4052 17.5164 17.218 18.4155 15.702 20.0082C13.5131 22.3081 12.3736 24.293 11.1838 27.8788C9.12654 34.0786 8.69892 41.2073 9.83413 50.3731C10.7526 57.7889 13.1277 65.8623 16.3692 72.587C17.287 74.491 17.5513 74.916 18.2491 75.6113C18.6957 76.0563 19.3769 76.5796 19.7629 76.7743C20.5646 77.1786 21.24 77.2298 21.5055 76.906C21.7533 76.6039 21.8375 74.0674 21.6346 73.0234C21.5481 72.5782 21.2045 71.3078 20.8711 70.2004C18.163 61.2078 16.0256 49.8341 15.4265 41.2271C15.2226 38.2985 15.255 32.7487 15.4888 30.5113C15.927 26.3179 16.8007 23.1055 17.9715 21.3835C18.457 20.6694 19.7044 19.6439 21.0188 18.8784C25.4223 16.3136 33.3064 14.4946 42.3312 13.961C45.0554 13.8 53.1678 13.8512 55.4156 14.0438C65.7003 14.9243 72.9957 16.9478 76.9488 20.0166C78.2024 20.9898 78.823 21.9297 79.464 23.8267C80.567 27.0911 81.025 30.7195 81.0144 36.1083C80.9959 45.4517 78.9653 58.0526 75.6469 69.416C74.6083 72.9727 74.5065 73.462 74.5042 74.9147C74.5013 76.5764 74.7115 77.1287 75.3457 77.1287C76.0034 77.1287 77.1194 76.514 77.9484 75.6949C78.5477 75.1027 78.8536 74.5998 79.7426 72.7444C83.2172 65.4928 85.5358 57.5035 86.433 49.6907C86.8533 46.0309 86.8929 45.1851 86.8539 40.7495C86.8212 37.0087 86.7673 35.9431 86.5366 34.466C85.7212 29.245 84.3931 25.3406 82.4102 22.3363C81.5347 21.0097 79.7523 19.1028 78.4815 18.1326C76.3087 16.4738 71.4786 13.8878 67.8671 12.4496C63.2933 10.6282 59.037 9.54567 53.9992 8.92328C52.7979 8.77478 50.5542 8.68955 48.3248 8.67447L48.3248 8.67426ZM48.2665 15.9161C41.8816 15.9161 39.9089 16.0283 35.587 16.6657C28.4404 17.7197 22.9334 19.6347 20.414 21.9419C18.7502 23.4657 17.7445 26.7349 17.2995 32.0679C17.1014 34.4414 17.2076 40.5986 17.4984 43.616C18.4515 53.504 20.9689 65.1902 24.0106 73.8462C25.2001 77.2313 25.5184 77.6992 27.5529 79.0546C31.4138 81.6267 36.3559 83.0275 43.3431 83.5302C45.6127 83.6934 50.4014 83.6988 52.6504 83.54C59.9294 83.0276 64.637 81.7256 68.6167 79.1242C70.4405 77.9319 71.0025 77.2735 71.6539 75.567C74.8682 67.1455 77.5141 55.4048 78.7777 43.9568C78.9577 42.326 79.0125 40.6363 79.0163 36.5854C79.0212 31.7529 78.9965 31.1736 78.7128 29.3907C78.1399 25.7885 77.2431 23.2552 76.1578 22.1737C73.3549 19.3806 66.4603 17.2233 57.1326 16.2204C54.6909 15.9579 53.567 15.9192 48.2665 15.9156L48.2665 15.9161ZM46.0692 33.192H57.66C61.4297 39.6788 62.794 48.9967 62.3549 65.4816H61.9308H58.1753H57.6998C57.6729 61.7609 57.5622 54.4861 57.1102 52.1293H51.3603L51.3067 65.4816H50.7577H47.0168H46.5083L46.0691 33.192H46.0692ZM23.9841 33.1923H35.408L35.4376 37.4112H29.9422L29.9263 47.9182H34.1357V52.0922H29.9263L30.0364 65.4827H25.0167L23.9841 33.1923H23.9841ZM37.3921 33.1923H43.3158L43.2107 65.4827H38.0271L37.3921 33.1923H37.3921ZM61.6918 33.1923H75.7782L75.8092 37.2603H71.7483L70.6832 65.4827H65.6685L65.7861 37.265H61.6917V33.1923H61.6918ZM51.1894 37.1688L51.1326 48.137H56.8997C56.2387 42.8421 55.3956 39.6116 54.0835 37.1688H51.1894H51.1894ZM28.5177 82.9982C28.0865 82.9982 27.9658 83.0494 27.9658 83.232C27.9658 83.6275 29.7128 85.218 30.7467 85.7636C32.8922 86.8959 37.6114 87.9315 42.3988 88.3205C44.7202 88.509 53.7912 88.3836 55.8203 88.1347C60.6087 87.5473 64.3819 86.5221 66.2228 85.3083C67.2228 84.6489 68.1625 83.6637 68.1625 83.2744C68.1625 83.0446 68.0746 82.9983 67.6379 82.9983C66.9808 82.9983 65.0102 83.4057 62.7122 84.0164C60.5206 84.5989 59.3233 84.8253 56.6054 85.1723C48.6659 86.1858 39.9689 85.7307 33.2938 83.9523C31.2857 83.4173 29.1879 82.9983 28.5177 82.9983V82.9982Z" fill="#BBC3CE"/>
</svg>
