<svg width="246" height="11" viewBox="0 0 246 11" fill="none" xmlns="http://www.w3.org/2000/svg">
<path fill-rule="evenodd" clip-rule="evenodd" d="M1.2808 1.41991C0.656293 1.85724 0.617188 2.10053 0.617188 5.55291C0.617188 8.72736 0.690624 9.28768 1.16318 9.71516C1.63574 10.1429 2.57756 10.2092 8.17838 10.2092H14.6476V9.46948V8.72945L8.9011 8.64855L3.1546 8.56735V5.58216V2.59697L8.9011 2.51577L14.6476 2.43487V1.69484V0.955115H8.296C3.03012 0.955115 1.83067 1.03452 1.2808 1.41991ZM25.6928 5.58216V10.2092H26.7233H27.7541L27.8427 8.34346L27.9317 6.47772L33.3797 6.39623L38.8276 6.31503V8.26197V10.2092H39.8725H40.9173V5.58216V0.955115H39.8725H38.8276V2.74623V4.53735H33.305H27.7824V2.74623V0.955115H26.7376H25.6928V5.58216ZM52.6912 1.37871C52.1715 1.75903 52.1118 2.18472 52.1118 5.51231C52.1118 8.21779 52.2228 9.35544 52.5213 9.71546C52.8798 10.1471 53.7512 10.2092 59.4619 10.2092H65.9929V9.46948V8.72945L60.2464 8.64855L54.4999 8.56735L54.4074 7.44791L54.3145 6.32846H59.7061H65.0973V5.4329V4.53735H59.724H54.3506V3.67373C54.3506 3.16147 54.5429 2.73638 54.8229 2.62891C55.0826 2.52921 57.7021 2.44771 60.644 2.44771H65.9929V1.70141V0.955115H59.6318C54.6092 0.955115 53.1488 1.04437 52.6912 1.37871ZM77.6351 5.58216V10.2092H78.8292H80.0233V8.71661V7.22402H82.4144C84.436 7.22402 84.8844 7.31626 85.3166 7.82106C85.5978 8.14943 85.9659 8.42048 86.1346 8.42317C86.3035 8.42615 86.7591 8.76318 87.1472 9.17245C87.5355 9.58172 88.1526 9.99159 88.5192 10.0835C88.8854 10.1755 89.692 10.2077 90.3118 10.1555L91.4387 10.0599L89.7676 8.86587C88.8481 8.20913 88.0932 7.5709 88.0899 7.44791C88.0863 7.32492 88.4529 7.22222 88.9043 7.21984C89.3556 7.21775 90.0112 7.13924 90.3604 7.0455C90.71 6.95147 91.1464 6.54399 91.3306 6.13979C91.5148 5.7356 91.6656 4.70213 91.6656 3.84329C91.6656 2.9134 91.4778 2.01366 91.2008 1.61872C90.7446 0.967354 90.6163 0.955115 84.1856 0.955115H77.6351V5.58216ZM103.501 1.48737C103.854 1.76918 104.771 2.4701 105.54 3.04475C106.309 3.6194 107.186 4.31435 107.489 4.58929C107.791 4.86422 108.318 5.23857 108.658 5.42066C109.201 5.71112 109.278 6.03084 109.278 7.98076V10.2092H110.472H111.666L111.668 8.04495L111.669 5.88068L113.085 4.75646C113.865 4.13822 114.804 3.39939 115.174 3.1146C115.543 2.82981 116.282 2.21725 116.815 1.75336L117.786 0.90974L116.025 1.03542C115 1.10825 114.126 1.33632 113.935 1.58051C113.754 1.81127 112.947 2.50383 112.14 3.11938C111.333 3.73522 110.487 4.23883 110.26 4.23883C110.033 4.23883 109.536 3.90299 109.155 3.49253C108.775 3.08206 108.362 2.74623 108.238 2.74623C108.115 2.74623 107.555 2.34323 106.994 1.85067C106.134 1.09602 105.729 0.956606 104.417 0.964965C102.895 0.974816 102.874 0.986458 103.501 1.48737ZM129.599 1.74171C129.065 2.42084 128.98 2.94445 128.98 5.58216C128.98 8.21988 129.065 8.74348 129.599 9.42261L130.218 10.2092H136.614H143.011V9.46291V8.71661H137.548C133.697 8.71661 131.979 8.61094 131.727 8.35839C131.53 8.16137 131.369 7.62403 131.369 7.16431V6.32846H136.742H142.115V5.4329V4.53735H136.742H131.369V3.67373C131.369 3.16147 131.561 2.73638 131.841 2.62891C132.101 2.52921 134.72 2.44771 137.662 2.44771H143.011V1.70141V0.955115H136.614H130.218L129.599 1.74171ZM155.252 1.65335C155.661 2.08441 156.158 2.43965 156.355 2.44264C156.552 2.44532 156.82 2.61638 156.952 2.82295C157.083 3.02923 157.825 3.66716 158.599 4.24092C159.374 4.81437 160.012 5.37051 160.017 5.47649C160.022 5.58276 159.523 6.09591 158.907 6.61683C158.291 7.13775 157.5 7.82344 157.148 8.14017C156.797 8.4572 156.384 8.71661 156.23 8.71661C156.077 8.71661 155.636 9.05245 155.25 9.46291L154.549 10.2092H155.893C157.068 10.2092 157.505 10.0014 159.351 8.56735C160.513 7.66433 161.61 6.9255 161.79 6.9255C161.969 6.9255 163.022 7.66165 164.131 8.56138C165.936 10.0268 166.294 10.1982 167.564 10.2032C168.344 10.2065 168.982 10.1495 168.982 10.0767C168.982 10.0038 167.943 9.16409 166.673 8.21092C165.403 7.25775 164.16 6.27622 163.912 6.02994C163.508 5.62993 163.508 5.5344 163.915 5.13438C164.166 4.8881 165.408 3.89553 166.676 2.92862C167.944 1.96202 168.982 1.12229 168.982 1.06288C168.982 1.00377 168.337 0.955115 167.548 0.955115C166.249 0.955115 165.924 1.11064 164.122 2.59697C163.028 3.49999 161.995 4.23883 161.828 4.23883C161.661 4.23883 160.885 3.75821 160.104 3.17043C159.322 2.58294 158.518 1.88888 158.315 1.62827C158.085 1.33095 157.307 1.10139 156.228 1.01183L154.508 0.869141L155.252 1.65335ZM181.455 1.159C181.156 1.23751 180.864 1.70917 180.755 2.29039C180.652 2.83877 180.614 4.69944 180.671 6.42548C180.727 8.15152 180.885 9.67546 181.022 9.81188C181.158 9.94831 184.214 10.1008 187.813 10.1507L194.356 10.2415V9.47903V8.71661H188.893C185.042 8.71661 183.325 8.61094 183.072 8.35839C182.875 8.16137 182.714 7.62403 182.714 7.16431V6.32846H188.237H193.759V5.4329V4.53735H188.237H182.714V3.85075C182.714 3.47312 182.875 3.00296 183.072 2.80593C183.325 2.55339 185.042 2.44771 188.893 2.44771H194.356V1.70141V0.955115L188.162 0.989742C184.755 1.00885 181.737 1.08497 181.455 1.159ZM206.961 1.41991C206.335 1.85754 206.297 2.09964 206.297 5.58216C206.297 9.06469 206.335 9.30678 206.961 9.74441C207.509 10.1289 208.696 10.2092 213.826 10.2092H220.029V9.46948V8.72975L214.432 8.64855L208.834 8.56735L208.742 7.44791L208.649 6.32846H214.041H219.432V5.4329V4.53735H214.04H208.647L208.741 3.56716L208.834 2.59697L214.432 2.51577L220.029 2.43458V1.69484V0.955115H213.826C208.696 0.955115 207.509 1.03542 206.961 1.41991ZM231.671 5.58216V10.2092L238.164 10.2047C241.735 10.202 244.804 10.1014 244.985 9.98084C245.166 9.86024 245.468 9.46799 245.657 9.10946C245.847 8.74885 246 7.17148 246 5.58216C246 3.99285 245.847 2.41547 245.657 2.05486C245.468 1.69634 245.166 1.30408 244.985 1.18348C244.804 1.06288 241.735 0.962279 238.164 0.959592L231.671 0.955115V5.58216ZM89.2625 2.87758C89.4586 3.11371 89.5756 3.68149 89.5228 4.13912C89.4616 4.6681 89.1547 5.10812 88.6804 5.34693C88.1944 5.59172 86.5543 5.72426 83.9787 5.72694L80.0233 5.73142V4.08957V2.44771H84.4647C87.9651 2.44771 88.9813 2.53876 89.2625 2.87758ZM243.251 2.70115C243.531 2.87907 243.612 3.70866 243.549 5.7565L243.463 8.56735L238.91 8.64975L234.358 8.73214V5.58992V2.44771L238.612 2.45219C240.951 2.45487 243.039 2.56682 243.251 2.70115Z" fill="#BBC3CE"/>
</svg>
