<svg width="179" height="72" viewBox="0 0 179 72" fill="none" xmlns="http://www.w3.org/2000/svg">
<path d="M0.734375 0.800722C1.99122 0.686464 3.26296 0.314875 4.51881 0.492721C25.5205 6.75806 46.5093 13.0681 67.511 19.3255C68.6943 17.8242 69.8896 16.3309 71.0898 14.8456C73.8399 11.9841 77.2985 9.86589 80.9945 8.45902C84.2116 7.36015 87.6334 6.91802 91.0264 7.02433C97.9852 6.92001 104.866 9.86887 109.692 14.8565C110.98 16.3876 112.239 17.9415 113.546 19.4596C133.695 13.2996 153.856 7.1674 174.008 1.01235C175.073 0.590089 176.253 0.363559 177.385 0.632812C178.011 0.800722 178.311 1.61941 177.853 2.1132C177.176 2.89116 176.131 3.16339 175.233 3.5936C156.358 12.3508 137.486 21.1159 118.607 29.8681C118.247 30.0767 117.756 30.1423 117.494 30.4761C117.536 32.2685 117.849 34.0569 117.684 35.8522C117.456 39.7311 116.367 43.5314 114.688 47.0237C126.513 47.0237 138.335 47.0237 150.16 47.0237C150.163 55.0357 150.163 63.0477 150.16 71.0597C111.709 71.0627 73.2597 71.0627 34.8092 71.0597C32.7824 71.014 31.3 68.9842 31.1321 67.0994C31.1112 60.4079 31.1271 53.7153 31.1241 47.0237C42.8113 47.0208 54.4965 47.0267 66.1836 47.0208C64.0395 43.0555 62.9635 38.5388 63.0579 34.037C63.1801 32.4424 63.2944 30.8497 63.4364 29.257C43.4829 20.4999 23.5294 11.7427 3.57593 2.99051C2.50687 2.50764 0.933085 2.1748 0.734375 0.800722Z" fill="#BBC3CE"/>
<path d="M1.90625 0.78125C2.65141 0.872657 3.40949 0.911406 4.14274 1.08925C25.0977 7.27014 46.0537 13.458 67.0097 19.6438C67.6426 20.4576 68.4315 21.1292 69.1439 21.8694C70.2447 21.7223 71.3307 21.2593 72.4425 21.3229C78.7704 23.1819 85.0894 25.0815 91.4094 26.9663C91.3865 29.2078 91.4193 31.4482 91.3915 33.6887C69.131 25.5267 46.8804 17.3368 24.6228 9.16782C17.0559 6.35905 9.45327 3.64566 1.90625 0.78125Z" fill="#F5F6F8"/>
<path d="M170.86 2.66534C173.056 2.08511 175.177 0.886883 177.522 1.19687C149.04 12.2313 120.535 23.204 92.043 34.2066C92.043 31.7903 92.043 29.374 92.043 26.9577C97.5671 25.218 103.079 23.4296 108.608 21.7028C109.797 21.6422 110.961 22.1171 112.145 22.2473C112.849 21.5448 113.294 20.5383 114.126 19.9988C133.034 14.2094 151.95 8.44583 170.86 2.66534Z" fill="#F5F6F8"/>
<path d="M80.9457 8.98993C82.9676 8.32127 85.056 7.8384 87.1822 7.64466C91.6691 7.2989 96.3159 7.56815 100.524 9.29793C103.789 10.7018 106.847 12.6631 109.311 15.2394C110.57 16.7863 111.819 18.3402 113.062 19.8971C112.63 20.4744 112.193 21.0467 111.763 21.6259C109.317 17.2791 105.488 13.7441 101.002 11.5771C95.9294 9.39728 90.1887 9.08928 84.7997 10.061C78.2909 11.284 72.7608 15.7838 69.4086 21.3845C68.9456 20.7844 68.4776 20.1922 68.0176 19.5911C69.1542 18.1266 70.3137 16.677 71.4741 15.2265C74.117 12.4753 77.4156 10.4018 80.9457 8.98993Z" fill="#F5F6F8"/>
<path d="M76.4573 16.94C80.356 13.6851 85.4608 11.9474 90.5349 12.1123C96.1822 11.9782 101.814 14.2743 105.791 18.2753C106.63 19.2629 107.465 20.2575 108.319 21.2361C102.988 22.8745 97.6467 24.489 92.3134 26.1303C91.5652 26.486 90.8051 26.0409 90.0749 25.868C84.3322 24.1999 78.5914 22.5237 72.8457 20.8645C74.0082 19.5192 75.0077 18.0061 76.4573 16.94Z" fill="#F5F6F8"/>
<path d="M66.4637 28.7832C66.9137 29.5214 67.3638 30.2616 67.7205 31.0475C67.7026 32.5557 67.3767 34.056 67.5317 35.5672C67.7662 39.6388 69.183 43.602 71.4165 47.003C70.6912 47.0228 69.9659 47.0278 69.2386 47.0179C66.9803 43.1818 65.6857 38.7565 65.7235 34.2924C65.9043 32.4484 65.9728 30.5795 66.4637 28.7832Z" fill="#F5F6F8"/>
<path d="M113.149 33.5405C112.928 32.091 114.086 31.007 114.675 29.7988C115.645 35.6667 114.764 41.952 111.534 47.0211C110.809 47.026 110.085 47.026 109.359 47.023C111.883 43.017 113.31 38.2887 113.149 33.5405Z" fill="#F5F6F8"/>
<path d="M68.4143 31.2891C70.9807 32.4515 73.5699 33.5603 76.1362 34.7248C75.091 36.4625 74.0408 38.1942 72.9956 39.932C72.476 40.8013 71.7745 41.6359 71.6831 42.6861C71.701 43.4521 72.3876 44.2122 73.2043 44.0373C79.3921 43.4442 85.5879 42.854 91.7717 42.1853C98.7177 39.151 105.582 35.9051 112.516 32.8301C113.048 37.8405 111.479 42.9812 108.492 47.013C96.3878 47.0379 84.2833 47.015 72.1789 47.023C68.9002 42.554 67.5271 36.7576 68.4143 31.2891Z" fill="#F5F6F8"/>
<path d="M77.175 34.6896C81.8119 34.6836 86.4488 34.6965 91.0877 34.6816C84.9297 37.4179 78.7597 40.1293 72.5938 42.8486C72.8183 42.2406 73.0567 41.6355 73.3906 41.0781C74.6544 38.9499 75.9231 36.8227 77.175 34.6896Z" fill="#F5F6F8"/>
<path d="M32.1428 48.0424C71.1447 48.0503 110.147 48.0275 149.145 48.0553C149.137 55.337 149.131 62.6168 149.148 69.8985C111.123 69.9422 73.095 69.8985 35.0698 69.9214C34.2461 69.98 33.4036 69.6819 32.8194 69.0997C32.3047 68.4817 32.1319 67.6501 32.1368 66.8672C32.1448 60.5919 32.1368 54.3177 32.1428 48.0424Z" fill="#F5F6F8"/>
<path d="M34.3018 50.0762C39.814 50.0762 45.3223 50.0762 50.8345 50.0762C50.8315 53.8944 50.8375 57.7146 50.8315 61.5318C50.8216 62.5264 50.9895 63.508 51.0988 64.4926C51.7983 64.8384 52.5663 64.8871 53.2538 64.4777C53.3452 63.4961 53.5181 62.5194 53.5082 61.5298C53.5002 57.7116 53.5022 53.8944 53.5052 50.0762C59.0571 50.0762 64.6131 50.0762 70.1651 50.0762C70.1651 54.9118 70.1651 59.7464 70.168 64.582C70.2008 65.6958 69.6663 66.8354 68.7075 67.4276C68.0438 67.7177 67.3185 67.8657 66.5992 67.8836C56.763 67.8776 46.9299 67.8806 37.0947 67.8836C36.118 67.9412 35.1821 67.3362 34.7161 66.5016C34.4667 65.8021 34.3018 65.0679 34.2988 64.3247C34.3048 59.5765 34.2988 54.8254 34.3018 50.0762Z" fill="#BBC3CE"/>
<path d="M73.1728 51.0628C73.9766 50.0762 75.3706 50.1169 76.528 50.0792C85.939 50.0732 95.3519 50.0792 104.763 50.0762C105.707 50.1169 106.737 50.0503 107.559 50.5998C108.293 51.0906 108.596 52.0245 108.578 52.874C108.568 57.8775 108.576 62.8771 108.573 67.8806C97.5446 67.8776 86.5132 67.8856 75.4848 67.8757C74.5588 67.8886 73.7242 67.3213 73.1857 66.6009C72.3134 65.05 72.6383 63.2238 72.5777 61.5249C72.534 60.268 73.0784 58.8204 74.3532 58.3654C75.459 58.0047 76.6473 58.108 77.7968 58.0852C82.543 58.0931 87.2892 58.0753 92.0354 58.0931C91.9619 56.5243 91.8446 54.9575 91.7761 53.3877C91.0558 52.9684 90.2371 53.2585 89.6091 53.7006C89.5426 54.4031 89.4561 55.1026 89.3667 55.799C83.771 55.799 78.1754 55.804 72.5826 55.799C72.7357 54.2292 72.1375 52.421 73.1728 51.0628Z" fill="#BBC3CE"/>
<path d="M110.61 50.0762C122.565 50.0762 134.519 50.0762 146.474 50.0762C146.474 51.1035 146.471 52.1308 146.477 53.1592C141.323 57.0529 136.158 60.9347 131.004 64.8284C136.16 64.8284 141.318 64.8284 146.474 64.8284C146.474 65.8458 146.474 66.8632 146.474 67.8806C134.519 67.8806 122.565 67.8806 110.61 67.8806C110.61 66.8732 110.61 65.8687 110.607 64.8642C115.834 60.9496 121.065 57.04 126.294 53.1313C121.067 53.1234 115.837 53.1313 110.61 53.1284C110.61 52.111 110.61 51.0936 110.61 50.0762Z" fill="#BBC3CE"/>
<path d="M89.763 60.7814C90.5191 60.7029 91.2762 60.6234 92.0343 60.5449C92.0472 61.9766 92.0392 63.4113 92.0392 64.843C91.2792 64.7775 90.5191 64.696 89.761 64.6115C89.3 63.3527 89.4093 62.0502 89.763 60.7814Z" fill="#F5F6F8"/>
</svg>
