<svg width="17" height="17" viewBox="0 0 17 17" fill="none" xmlns="http://www.w3.org/2000/svg">
<path d="M8.12109 0.519531C3.70989 0.519531 0.121094 4.10833 0.121094 8.51953C0.121094 12.9307 3.70989 16.5195 8.12109 16.5195C12.5323 16.5195 16.1211 12.9307 16.1211 8.51953C16.1211 4.10833 12.5323 0.519531 8.12109 0.519531ZM8.12109 14.9195C4.59229 14.9195 1.72109 12.0483 1.72109 8.51953C1.72109 4.99073 4.59229 2.11953 8.12109 2.11953C11.6499 2.11953 14.5211 4.99073 14.5211 8.51953C14.5211 12.0483 11.6499 14.9195 8.12109 14.9195Z" fill="#2E75DE"/>
<path d="M5.9705 9.43135L4.20527 7.73554L3.12109 8.78185L5.97204 11.5195L11.1211 6.56436L10.0354 5.51953L5.9705 9.43135Z" fill="#2E75DE"/>
</svg>
