<svg width="48" height="48" viewBox="0 0 48 48" fill="none" xmlns="http://www.w3.org/2000/svg">
<path d="M16.6777 9.34375H7.33397C7.0471 9.34375 6.77748 9.48076 6.6083 9.71247C6.43913 9.94418 6.39088 10.2427 6.4783 10.516L7.9158 15.0082C8.03493 15.3804 8.38083 15.6328 8.77147 15.6328H15.2402C15.631 15.6328 15.9769 15.3803 16.0959 15.0082L17.5334 10.516C17.6208 10.2427 17.5726 9.94418 17.4034 9.71247C17.2342 9.48076 16.9646 9.34375 16.6777 9.34375ZM14.5845 13.8359H9.42724L8.56474 11.1406H15.4469L14.5845 13.8359Z" fill="black" stroke="white" stroke-width="0.25"/>
<path d="M16.0959 21.4683C15.9768 21.0962 15.6309 20.8438 15.2402 20.8438H8.77147C8.38074 20.8438 8.03484 21.0963 7.9158 21.4683L6.4783 25.9605C6.39088 26.2338 6.43913 26.5324 6.6083 26.7641C6.77748 26.9958 7.0471 27.1328 7.33397 27.1328H16.6777C16.9646 27.1328 17.2342 26.9958 17.4034 26.7641C17.5726 26.5324 17.6208 26.2338 17.5334 25.9605L16.0959 21.4683ZM8.56483 25.3359L9.42733 22.6406H14.5845L15.447 25.3359H8.56483Z" fill="black" stroke="white" stroke-width="0.25"/>
<path d="M22.0684 11.3203H21.1699V7.68164C21.1699 4.01566 18.1875 1.0332 14.5215 1.0332H9.49023C5.82425 1.0332 2.8418 4.01566 2.8418 7.68164V11.3203H1.94336C1.44715 11.3203 1.04492 11.7225 1.04492 12.2188C1.04492 12.715 1.44715 13.1172 1.94336 13.1172H2.8418V28.6412C2.8418 31.5002 5.16776 33.8262 8.02677 33.8262H15.9849C18.844 33.8262 21.1699 31.5002 21.1699 28.6412V13.1172H22.0684C22.5646 13.1172 22.9668 12.715 22.9668 12.2188C22.9668 11.7225 22.5646 11.3203 22.0684 11.3203ZM18.5821 5.03125H16.3184V3.17652C17.2497 3.54928 18.039 4.20226 18.5821 5.03125ZM7.69336 3.17652V5.03125H5.42966C5.97267 4.20226 6.76204 3.54928 7.69336 3.17652ZM19.373 28.6412C19.373 30.5094 17.8532 32.0293 15.9849 32.0293H8.02677C6.15856 32.0293 4.63867 30.5094 4.63867 28.6412V7.68164C4.63867 7.39037 4.66589 7.10547 4.7154 6.82812H7.7682C8.71776 6.82812 9.49023 6.05565 9.49023 5.10609V2.83008H14.5215V5.10609C14.5215 6.05556 15.294 6.82812 16.2435 6.82812H19.2963C19.3458 7.10547 19.373 7.39037 19.373 7.68164V28.6412Z" fill="black" stroke="white" stroke-width="0.25"/>
<path d="M27.8184 34.6641C28.0546 34.6641 28.2864 34.5688 28.4536 34.4008C28.6207 34.2337 28.7168 34.0028 28.7168 33.7656C28.7168 33.5293 28.6207 33.2975 28.4536 33.1304C28.2864 32.9633 28.0546 32.8672 27.8184 32.8672C27.5821 32.8672 27.3503 32.9633 27.1832 33.1304C27.0161 33.2975 26.9199 33.5293 26.9199 33.7656C26.9199 34.0028 27.0161 34.2337 27.1832 34.4008C27.3503 34.5688 27.5821 34.6641 27.8184 34.6641Z" fill="black" stroke="white" stroke-width="0.25"/>
<path d="M31.9939 28.2153C32.1131 28.5874 32.459 28.8398 32.8496 28.8398H39.3183C39.7091 28.8398 40.055 28.5873 40.174 28.2153L41.6115 23.7231C41.6989 23.4498 41.6507 23.1512 41.4815 22.9195C41.3123 22.6878 41.0427 22.5508 40.7559 22.5508H31.4121C31.1252 22.5508 30.8556 22.6878 30.6864 22.9195C30.5173 23.1512 30.469 23.4498 30.5564 23.7231L31.9939 28.2153ZM39.525 24.3477L38.6625 27.043H33.5054L32.6429 24.3477H39.525Z" fill="black" stroke="white" stroke-width="0.25"/>
<path d="M30.6865 39.9711C30.8556 40.2028 31.1253 40.3398 31.4121 40.3398H40.7559C41.0428 40.3398 41.3124 40.2028 41.4816 39.9711C41.6507 39.7394 41.699 39.4409 41.6116 39.1676L40.1741 34.6754C40.0549 34.3032 39.709 34.0508 39.3184 34.0508H32.8496C32.4589 34.0508 32.113 34.3033 31.994 34.6754L30.5565 39.1676C30.469 39.4409 30.5173 39.7394 30.6865 39.9711ZM33.5054 35.8477H38.6625L39.525 38.543H32.643L33.5054 35.8477Z" fill="black" stroke="white" stroke-width="0.25"/>
<path d="M46.1465 24.5273H45.248V20.8887C45.248 17.2227 42.2656 14.2402 38.5996 14.2402H33.5684C29.9024 14.2402 26.9199 17.2227 26.9199 20.8887V24.5273H26.0215C25.5253 24.5273 25.123 24.9296 25.123 25.4258C25.123 25.922 25.5253 26.3242 26.0215 26.3242H26.9199V29.7233C26.9199 30.2195 27.3222 30.6217 27.8184 30.6217C28.3146 30.6217 28.7168 30.2195 28.7168 29.7233V20.8887C28.7168 20.5974 28.744 20.3125 28.7935 20.0352H31.8463C32.7958 20.0352 33.5684 19.2627 33.5684 18.3131V16.0371H38.5996V18.3131C38.5996 19.2626 39.3721 20.0352 40.3216 20.0352H43.3744C43.4239 20.3125 43.4512 20.5974 43.4512 20.8887V41.8482C43.4512 43.7164 41.9313 45.2363 40.0631 45.2363H32.105C30.2367 45.2363 28.7168 43.7164 28.7168 41.8482V37.8092C28.7168 37.313 28.3146 36.9108 27.8184 36.9108C27.3222 36.9108 26.9199 37.313 26.9199 37.8092V41.8482C26.9199 44.7072 29.2459 47.0332 32.1049 47.0332H40.063C42.9221 47.0332 45.248 44.7072 45.248 41.8482V26.3242H46.1465C46.6427 26.3242 47.0449 25.922 47.0449 25.4258C47.0449 24.9296 46.6427 24.5273 46.1465 24.5273ZM31.7715 18.2383H29.5078C30.0507 17.4093 30.8402 16.7563 31.7715 16.3835V18.2383ZM40.3965 18.2383V16.3835C41.3278 16.7563 42.1172 17.4093 42.6602 18.2383H40.3965Z" fill="black" stroke="white" stroke-width="0.25"/>
</svg>
