<svg width="28" height="31" viewBox="0 0 28 31" fill="none" xmlns="http://www.w3.org/2000/svg">
<path d="M22.0983 30.0327H5.99157C2.84879 30.0327 0.291992 27.476 0.291992 24.3334V8.22666C0.291992 5.08408 2.84873 2.52734 5.99157 2.52734C6.52003 2.52734 6.94835 2.95567 6.94835 3.48413C6.94835 4.01259 6.52003 4.44091 5.99157 4.44091C3.90381 4.44091 2.20556 6.13917 2.20556 8.22666V24.3334C2.20556 26.4209 3.90381 28.1192 5.99157 28.1192H22.0983C24.186 28.1192 25.8843 26.4209 25.8843 24.3334V8.22666C25.8843 6.13917 24.186 4.44091 22.0983 4.44091C21.5698 4.44091 21.1415 4.01259 21.1415 3.48413C21.1415 2.95567 21.5698 2.52734 22.0983 2.52734C25.2411 2.52734 27.7979 5.08408 27.7979 8.22666V24.3334C27.7979 27.4759 25.2411 30.0327 22.0983 30.0327Z" fill="black"/>
<path d="M17.0059 4.44091H11.0261C10.4977 4.44091 10.0693 4.01258 10.0693 3.48413C10.0693 2.95567 10.4977 2.52734 11.0261 2.52734H17.0059C17.5344 2.52734 17.9627 2.95567 17.9627 3.48413C17.9627 4.01258 17.5344 4.44091 17.0059 4.44091Z" fill="black"/>
<path d="M26.3037 11.1518H1.51733C0.98887 11.1518 0.560547 10.7235 0.560547 10.1951C0.560547 9.6666 0.98887 9.23828 1.51733 9.23828H26.3037C26.8321 9.23828 27.2605 9.6666 27.2605 10.1951C27.2605 10.7235 26.8321 11.1518 26.3037 11.1518Z" fill="black"/>
<path d="M21.3723 18.3413H6.71655C6.18809 18.3413 5.75977 17.913 5.75977 17.3845C5.75977 16.8561 6.18809 16.4277 6.71655 16.4277H21.3723C21.9008 16.4277 22.3291 16.8561 22.3291 17.3845C22.3291 17.913 21.9008 18.3413 21.3723 18.3413Z" fill="black"/>
<path d="M17.2564 22.814H11.0124C10.484 22.814 10.0557 22.3856 10.0557 21.8572C10.0557 21.3287 10.484 20.9004 11.0124 20.9004H17.2564C17.7849 20.9004 18.2132 21.3287 18.2132 21.8572C18.2132 22.3856 17.7849 22.814 17.2564 22.814Z" fill="black"/>
<path d="M8.47827 7.47379C7.94981 7.47379 7.52148 7.04546 7.52148 6.51701V0.989985C7.52148 0.461526 7.94981 0.0332031 8.47827 0.0332031C9.00673 0.0332031 9.43505 0.461526 9.43505 0.989985V6.51701C9.43505 7.04546 9.00673 7.47379 8.47827 7.47379Z" fill="black"/>
<path d="M19.6121 7.47379C19.0836 7.47379 18.6553 7.04546 18.6553 6.51701V0.989985C18.6553 0.461526 19.0836 0.0332031 19.6121 0.0332031C20.1405 0.0332031 20.5689 0.461526 20.5689 0.989985V6.51701C20.5689 7.04546 20.1405 7.47379 19.6121 7.47379Z" fill="black"/>
</svg>
