<svg width="46" height="21" viewBox="0 0 46 21" fill="none" xmlns="http://www.w3.org/2000/svg">
<path fill-rule="evenodd" clip-rule="evenodd" d="M28.8033 1.0332C38.1545 2.00756 45.0449 5.33662 45.0449 9.28819C45.0449 12.4819 40.5563 15.2426 33.9219 16.7312L35.7921 19.7625H32.3076L23.1335 4.79531L16.9912 14.7825C18.8418 14.9719 20.8302 15.1073 22.8973 15.1073C23.8619 15.1073 24.8266 15.0802 25.7519 15.0261L27.6024 17.6514C26.1259 17.7597 24.61 17.8409 23.0351 17.8409C20.3577 17.8409 17.7984 17.6514 15.436 17.3267L13.7626 20.0332H10.278L12.2861 16.7583C5.59257 15.2967 1.04492 12.509 1.04492 9.28819C1.04492 5.41782 7.65969 2.14289 16.7353 1.08733L15.5935 3.82095C9.09682 4.71411 4.54917 6.79816 4.54917 9.20699C4.54917 11.3993 8.26998 13.2939 13.802 14.3224L21.4011 1.95343H24.8659L32.406 14.2412C37.7214 13.2127 41.2651 11.3452 41.2651 9.20699C41.2651 6.7711 36.678 4.68705 30.1223 3.79389L28.8033 1.0332Z" fill="black" stroke="white"/>
</svg>
