<svg width="40" height="38" viewBox="0 0 40 38" fill="none" xmlns="http://www.w3.org/2000/svg">
<path d="M39.0449 1.20898H34.1114L31.2214 4.099L31.0935 3.97106C29.9313 2.80916 28.0406 2.80908 26.8787 3.97114L25.1702 5.67957H14.9196L13.2112 3.97114C12.0491 2.80908 10.1583 2.80908 8.99631 3.97114L8.86845 4.099L5.97844 1.20898H1.04492V6.1425L3.93493 9.03252C3.88963 9.09764 2.93412 9.84162 2.93412 11.2678C2.93412 12.064 3.24415 12.8124 3.80707 13.3752L5.51551 15.0837V26.2602L11.7585 32.5031H14.4567V36.9737H25.6332V32.5031H28.3314L34.5743 26.2602V15.0837L36.2828 13.3752C37.4476 12.2104 37.4477 10.3252 36.2828 9.16038L36.1549 9.03252L39.0449 6.1425V1.20898ZM3.28022 5.21665V3.44428H5.05258L7.28795 5.67957L5.51551 7.45194L3.28022 5.21665ZM5.38765 10.741L10.5769 5.55179C10.8674 5.26143 11.3402 5.26128 11.6307 5.55179L12.8761 6.79722L6.63316 13.0402L5.38765 11.7947C5.09647 11.5036 5.09647 11.0321 5.38765 10.741ZM23.3979 34.7384H16.692V32.5031H23.3979V34.7384ZM27.4055 30.2678H12.6843L7.7508 25.3343V15.0837L14.9196 7.91487H25.1702L32.339 15.0837V25.3343L27.4055 30.2678ZM34.7022 11.7947L33.4567 13.0402L27.2137 6.79722L28.4592 5.55172C28.7497 5.26135 29.2224 5.2612 29.513 5.55172L34.7023 10.7409C34.9926 11.0315 34.9926 11.5042 34.7022 11.7947ZM36.8096 5.21665L34.5743 7.45194L32.802 5.67957L35.0373 3.44428H36.8096V5.21665Z" fill="black" stroke="white" stroke-width="0.5"/>
<path d="M25.5306 13.6678L25.53 13.6679C25.0921 11.6594 23.3007 10.1504 21.1628 10.1504C19.7347 10.1504 18.4618 10.8243 17.6429 11.8699L17.6411 11.8684L10.7869 20.2717L10.788 20.2725C10.2887 20.8581 9.98633 21.6165 9.98633 22.4445C9.98633 24.1526 11.2704 25.5653 12.9236 25.7708L12.9225 25.776L23.5426 27.8883C23.8507 27.9819 24.1774 28.0328 24.5157 28.0328C26.7172 28.0328 28.3435 25.9272 27.7453 23.7809C27.3869 22.1445 25.89 15.3087 25.5306 13.6678ZM21.1955 25.1423L16.2226 24.1533C16.5205 23.6525 16.6922 23.0683 16.6922 22.4445C16.6922 20.9934 15.7654 19.755 14.4728 19.2892L16.9848 16.2094C17.6269 17.8924 19.2571 19.0916 21.1628 19.0916C22.3218 19.0916 23.379 18.6482 24.1741 17.9222L24.9254 21.3528C22.7438 21.0855 20.8923 22.9562 21.1955 25.1423ZM21.1628 12.3857C22.3953 12.3857 23.3981 13.3884 23.3981 14.621C23.3981 15.8535 22.3953 16.8563 21.1628 16.8563C19.9303 16.8563 18.9275 15.8535 18.9275 14.621C18.9275 13.3884 19.9303 12.3857 21.1628 12.3857ZM12.2216 22.4445C12.2216 21.8282 12.723 21.3269 13.3393 21.3269C13.9555 21.3269 14.4569 21.8282 14.4569 22.4445C14.4569 23.0609 13.9555 23.5622 13.3393 23.5622C12.723 23.5622 12.2216 23.0609 12.2216 22.4445ZM24.5157 25.7974C23.9066 25.7974 23.3981 25.2999 23.3981 24.6798C23.3981 24.0635 23.8994 23.5622 24.5157 23.5622C25.132 23.5622 25.6334 24.0635 25.6334 24.6798C25.6334 25.2961 25.132 25.7974 24.5157 25.7974Z" fill="black" stroke="white" stroke-width="0.5"/>
</svg>
