<svg width="58" height="58" viewBox="0 0 58 58" fill="none" xmlns="http://www.w3.org/2000/svg">
<g clip-path="url(#clip0_307_1828)">
<path d="M50.8301 57.082H12.5332C12.297 57.082 12.0705 56.9882 11.9034 56.8212C11.7364 56.6541 11.6426 56.4276 11.6426 56.1914V0.972656C11.6426 0.736448 11.7364 0.509914 11.9034 0.342889C12.0705 0.175865 12.297 0.0820313 12.5332 0.0820313L41.6228 0.0820312C41.859 0.0820817 42.0855 0.175948 42.2525 0.342984L51.4598 9.55027C51.6268 9.71725 51.7207 9.94375 51.7207 10.1799V56.1914C51.7207 56.4276 51.6269 56.6541 51.4598 56.8212C51.2928 56.9882 51.0663 57.082 50.8301 57.082Z" fill="url(#paint0_linear_307_1828)"/>
<path d="M7.18945 29.4243L10.752 27.8506L13.2386 31.6669H7.18945V29.4243Z" fill="url(#paint1_linear_307_1828)"/>
<path d="M49.9395 57.082H11.6426C11.4064 57.082 11.1798 56.9882 11.0128 56.8212C10.8458 56.6541 10.752 56.4276 10.752 56.1914V0.972656C10.752 0.736448 10.8458 0.509914 11.0128 0.342889C11.1798 0.175865 11.4064 0.0820313 11.6426 0.0820313L41.1009 0.0820312L50.8301 9.81122V56.1914C50.8301 56.4276 50.7362 56.6541 50.5692 56.8212C50.4022 56.9882 50.1757 57.082 49.9395 57.082Z" fill="url(#paint2_linear_307_1828)"/>
<path d="M41.1016 0.0820312V8.92059C41.1016 9.1568 41.1954 9.38334 41.3624 9.55036C41.5294 9.71739 41.756 9.81122 41.9922 9.81122H50.8307L46.4667 4.55653L41.1016 0.0820312Z" fill="url(#paint3_linear_307_1828)"/>
<path d="M41.9434 46.8397H8.76586C8.55881 46.8398 8.35377 46.7991 8.16246 46.7199C7.97115 46.6407 7.79732 46.5246 7.65091 46.3782C7.5045 46.2318 7.38839 46.058 7.30921 45.8667C7.23003 45.6754 7.18934 45.4703 7.18945 45.2633V30.999H41.9434C42.3614 30.9993 42.7623 31.1654 43.0578 31.461C43.3534 31.7566 43.5196 32.1574 43.5198 32.5754V45.2633C43.5198 45.6814 43.3537 46.0823 43.0581 46.378C42.7625 46.6736 42.3615 46.8397 41.9434 46.8397Z" fill="url(#paint4_linear_307_1828)"/>
<path d="M10.752 27.8506H8.76408C8.55734 27.8505 8.3526 27.8911 8.16156 27.9701C7.97053 28.0492 7.79693 28.1651 7.6507 28.3112C7.50448 28.4574 7.38848 28.6309 7.30933 28.8219C7.23019 29.0129 7.18945 29.2176 7.18945 29.4243C7.18934 29.6311 7.22999 29.836 7.30908 30.027C7.38817 30.2181 7.50415 30.3918 7.65039 30.538C7.79663 30.6843 7.97026 30.8002 8.16136 30.8793C8.35245 30.9584 8.55726 30.9991 8.76408 30.999H10.752V27.8506Z" fill="url(#paint5_linear_307_1828)"/>
<path d="M14.3145 41.9729V35.8686C14.3143 35.767 14.3342 35.6664 14.373 35.5725C14.4118 35.4786 14.4688 35.3932 14.5406 35.3214C14.6124 35.2495 14.6976 35.1925 14.7915 35.1536C14.8853 35.1146 14.9859 35.0946 15.0875 35.0946C16.2694 35.0492 17.4531 35.0876 18.6295 35.2095C19.1056 35.3476 19.5193 35.6459 19.8009 36.0538C20.0824 36.4618 20.2145 36.9545 20.1748 37.4485C20.2099 37.9723 20.0575 38.4914 19.7448 38.9131C19.4322 39.3347 18.9797 39.6314 18.4683 39.7499C17.685 39.8437 16.8959 39.8803 16.1073 39.8595C16.0414 39.8595 15.9782 39.8856 15.9316 39.9322C15.885 39.9788 15.8588 40.042 15.8588 40.1079V41.9729C15.8588 42.0743 15.8388 42.1747 15.8 42.2684C15.7612 42.3621 15.7043 42.4472 15.6326 42.5189C15.5609 42.5906 15.4758 42.6475 15.3821 42.6863C15.2884 42.7251 15.188 42.7451 15.0866 42.7451C14.8818 42.7451 14.6854 42.6637 14.5406 42.5189C14.3958 42.3741 14.3145 42.1777 14.3145 41.9729ZM15.8588 36.6381V38.3116C15.8588 38.3775 15.885 38.4407 15.9316 38.4873C15.9782 38.5339 16.0414 38.56 16.1073 38.56C16.7159 38.602 17.3273 38.5616 17.925 38.4398C18.1364 38.3557 18.3146 38.2049 18.4323 38.0103C18.5501 37.8157 18.6011 37.5879 18.5775 37.3616C18.5539 37.1354 18.457 36.923 18.3016 36.7569C18.1462 36.5907 17.9408 36.4799 17.7166 36.4412C17.1815 36.3951 16.6443 36.3776 16.1073 36.3887C16.0746 36.3888 16.0424 36.3954 16.0123 36.408C15.9822 36.4205 15.9548 36.4389 15.9318 36.4621C15.9088 36.4853 15.8906 36.5127 15.8783 36.5429C15.8659 36.5731 15.8596 36.6054 15.8597 36.6381H15.8588Z" fill="white"/>
<path d="M21.4395 35.8683C21.4393 35.7667 21.4592 35.6661 21.498 35.5722C21.5368 35.4783 21.5938 35.3929 21.6656 35.3211C21.7374 35.2492 21.8226 35.1922 21.9165 35.1533C22.0103 35.1143 22.1109 35.0943 22.2125 35.0943C23.3829 35.0244 24.5574 35.0734 25.718 35.2404C26.1672 35.3857 26.5738 35.6389 26.9024 35.9778C27.231 36.3168 27.4714 36.7312 27.6026 37.1846C27.7833 37.7698 27.8678 38.3804 27.8528 38.9926C27.8645 39.5445 27.7851 40.0946 27.6177 40.6207C27.4949 41.0833 27.2552 41.5065 26.9216 41.8496C26.5879 42.1928 26.1716 42.4443 25.7127 42.58C24.5536 42.7441 23.3817 42.7984 22.2125 42.7421C22.0079 42.7421 21.8117 42.6611 21.6668 42.5167C21.5219 42.3723 21.4402 42.1763 21.4395 41.9717V35.8683ZM22.9838 36.6378V41.2076C22.9838 41.2735 23.01 41.3367 23.0566 41.3833C23.1032 41.4299 23.1664 41.4561 23.2323 41.4561C23.8463 41.4899 24.4621 41.4655 25.0714 41.383C25.3284 41.329 25.5635 41.1995 25.7465 41.0112C25.9296 40.8229 26.0524 40.5843 26.0992 40.3259C26.2174 39.8686 26.2702 39.397 26.2559 38.9249C26.2724 38.4657 26.2196 38.0066 26.0992 37.5631C26.0317 37.2881 25.8867 37.0381 25.6815 36.8428C25.4763 36.6476 25.2195 36.5152 24.9414 36.4614C24.3725 36.3988 23.8 36.3744 23.2278 36.3884C23.1624 36.3893 23.1 36.4161 23.0541 36.4627C23.0082 36.5094 22.9827 36.5723 22.9829 36.6378H22.9838Z" fill="white"/>
<path d="M29.1719 41.973V35.8687C29.1719 35.6634 29.2534 35.4666 29.3986 35.3214C29.5437 35.1763 29.7406 35.0947 29.9458 35.0947H33.7693C33.941 35.0947 34.1057 35.1629 34.2271 35.2844C34.3486 35.4058 34.4168 35.5705 34.4168 35.7422C34.4168 35.8272 34.4 35.9113 34.3675 35.9899C34.3349 36.0684 34.2872 36.1397 34.2271 36.1997C34.1669 36.2598 34.0956 36.3074 34.017 36.3398C33.9384 36.3723 33.8543 36.3889 33.7693 36.3888H30.9692C30.9365 36.3888 30.9041 36.3953 30.8739 36.4078C30.8437 36.4203 30.8162 36.4387 30.7931 36.4619C30.7701 36.4851 30.7518 36.5126 30.7393 36.5428C30.7269 36.5731 30.7206 36.6055 30.7207 36.6382V37.951C30.7206 37.9837 30.7269 38.0161 30.7393 38.0463C30.7518 38.0766 30.7701 38.1041 30.7931 38.1272C30.8162 38.1504 30.8437 38.1688 30.8739 38.1813C30.9041 38.1939 30.9365 38.2003 30.9692 38.2003H33.267C33.4385 38.2003 33.6031 38.2684 33.7245 38.3897C33.8459 38.5109 33.9142 38.6753 33.9145 38.8469C33.9142 39.0186 33.8459 39.1831 33.7246 39.3045C33.6032 39.4259 33.4386 39.4942 33.267 39.4944H30.9692C30.9365 39.4944 30.9042 39.5008 30.8741 39.5133C30.8439 39.5258 30.8165 39.5441 30.7935 39.5672C30.7704 39.5903 30.7521 39.6176 30.7396 39.6478C30.7271 39.6779 30.7207 39.7102 30.7207 39.7429V41.9694C30.7204 42.1743 30.6389 42.3707 30.4939 42.5155C30.349 42.6603 30.1525 42.7416 29.9476 42.7416C29.8462 42.7421 29.7457 42.7226 29.6518 42.6842C29.558 42.6458 29.4726 42.5893 29.4006 42.518C29.3285 42.4466 29.2713 42.3617 29.232 42.2682C29.1928 42.1747 29.1723 42.0744 29.1719 41.973Z" fill="white"/>
</g>
<defs>
<linearGradient id="paint0_linear_307_1828" x1="31.6816" y1="-28.4064" x2="31.6816" y2="-26.121" gradientUnits="userSpaceOnUse">
<stop stop-color="#F3F7FF"/>
<stop offset="0.99" stop-color="#B5D1FF"/>
</linearGradient>
<linearGradient id="paint1_linear_307_1828" x1="10.214" y1="27.2004" x2="10.214" y2="106.689" gradientUnits="userSpaceOnUse">
<stop stop-color="#FF5252"/>
<stop offset="1" stop-color="#D50000"/>
</linearGradient>
<linearGradient id="paint2_linear_307_1828" x1="1353.37" y1="-309.371" x2="1353.37" y2="8776.77" gradientUnits="userSpaceOnUse">
<stop stop-color="#F3F7FF"/>
<stop offset="0.99" stop-color="#B5D1FF"/>
</linearGradient>
<linearGradient id="paint3_linear_307_1828" x1="532.795" y1="-227.863" x2="532.795" y2="-38.825" gradientUnits="userSpaceOnUse">
<stop stop-color="#F3F7FF"/>
<stop offset="0.99" stop-color="#B5D1FF"/>
</linearGradient>
<linearGradient id="paint4_linear_307_1828" x1="1002.5" y1="546.106" x2="1002.5" y2="1376.69" gradientUnits="userSpaceOnUse">
<stop stop-color="#FF5252"/>
<stop offset="1" stop-color="#D50000"/>
</linearGradient>
<linearGradient id="paint5_linear_307_1828" x1="39.252" y1="79.2351" x2="39.252" y2="165.308" gradientUnits="userSpaceOnUse">
<stop stop-color="#FF5252"/>
<stop offset="1" stop-color="#D50000"/>
</linearGradient>
<clipPath id="clip0_307_1828">
<rect width="57" height="57" fill="white" transform="translate(0.955078 0.0820312)"/>
</clipPath>
</defs>
</svg>
