<svg width="58" height="58" viewBox="0 0 58 58" fill="none" xmlns="http://www.w3.org/2000/svg">
<g clip-path="url(#clip0_307_1871)">
<path d="M50.8301 57.082H12.5332C12.297 57.082 12.0705 56.9882 11.9034 56.8212C11.7364 56.6541 11.6426 56.4276 11.6426 56.1914V0.972656C11.6426 0.736448 11.7364 0.509914 11.9034 0.342889C12.0705 0.175865 12.297 0.0820313 12.5332 0.0820313L41.6228 0.0820312C41.859 0.0820817 42.0855 0.175948 42.2525 0.342984L51.4598 9.55027C51.6268 9.71725 51.7207 9.94375 51.7207 10.1799V56.1914C51.7207 56.4276 51.6269 56.6541 51.4598 56.8212C51.2928 56.9882 51.0663 57.082 50.8301 57.082Z" fill="url(#paint0_linear_307_1871)"/>
<path d="M7.18945 29.4243L10.752 27.8506L13.2386 31.6669H7.18945V29.4243Z" fill="url(#paint1_linear_307_1871)"/>
<path d="M49.9395 57.082H11.6426C11.4064 57.082 11.1798 56.9882 11.0128 56.8212C10.8458 56.6541 10.752 56.4276 10.752 56.1914V0.972656C10.752 0.736448 10.8458 0.509914 11.0128 0.342889C11.1798 0.175865 11.4064 0.0820313 11.6426 0.0820313L41.1009 0.0820312L50.8301 9.81122V56.1914C50.8301 56.4276 50.7362 56.6541 50.5692 56.8212C50.4022 56.9882 50.1757 57.082 49.9395 57.082Z" fill="url(#paint2_linear_307_1871)"/>
<path d="M41.1016 0.0820312V8.92059C41.1016 9.1568 41.1954 9.38334 41.3624 9.55036C41.5294 9.71739 41.756 9.81122 41.9922 9.81122H50.8307L46.4667 4.55653L41.1016 0.0820312Z" fill="url(#paint3_linear_307_1871)"/>
<path d="M41.9434 46.8397H8.76586C8.55881 46.8398 8.35377 46.7991 8.16246 46.7199C7.97115 46.6407 7.79732 46.5246 7.65091 46.3782C7.5045 46.2318 7.38839 46.058 7.30921 45.8667C7.23003 45.6754 7.18934 45.4703 7.18945 45.2633V30.999H41.9434C42.3614 30.9993 42.7623 31.1654 43.0578 31.461C43.3534 31.7566 43.5196 32.1574 43.5198 32.5754V45.2633C43.5198 45.6814 43.3537 46.0823 43.0581 46.378C42.7625 46.6736 42.3615 46.8397 41.9434 46.8397Z" fill="url(#paint4_linear_307_1871)"/>
<path d="M10.752 27.8506H8.76408C8.55734 27.8505 8.3526 27.8911 8.16156 27.9701C7.97053 28.0492 7.79693 28.1651 7.6507 28.3112C7.50448 28.4574 7.38848 28.6309 7.30933 28.8219C7.23019 29.0129 7.18945 29.2176 7.18945 29.4243C7.18934 29.6311 7.22999 29.8359 7.30908 30.027C7.38817 30.2181 7.50415 30.3918 7.65039 30.538C7.79663 30.6843 7.97026 30.8002 8.16136 30.8793C8.35245 30.9584 8.55726 30.9991 8.76408 30.9989H10.752V27.8506Z" fill="url(#paint5_linear_307_1871)"/>
<path d="M13.7871 35.8674C13.7871 35.6624 13.8686 35.4657 14.0135 35.3208C14.1585 35.1758 14.3551 35.0943 14.5602 35.0943C15.7309 35.0244 16.9057 35.0734 18.0666 35.2404C18.5156 35.3857 18.9221 35.639 19.2505 35.9779C19.5789 36.3169 19.8192 36.7312 19.9502 37.1846C20.1314 37.7697 20.2159 38.3803 20.2005 38.9926C20.212 39.5444 20.1329 40.0944 19.9663 40.6207C19.8435 41.0833 19.6038 41.5065 19.2701 41.8496C18.9365 42.1928 18.5202 42.4443 18.0612 42.58C16.9019 42.7441 15.7297 42.7983 14.5602 42.7421C14.4587 42.7421 14.3581 42.7221 14.2643 42.6833C14.1705 42.6444 14.0853 42.5875 14.0135 42.5157C13.9417 42.4439 13.8848 42.3587 13.846 42.2649C13.8071 42.1711 13.7871 42.0706 13.7871 41.9691V35.8674ZM15.3323 36.872V40.9689C15.3323 41.6582 16.2435 41.4062 16.4857 41.4516C16.7986 41.4618 17.1116 41.4373 17.4191 41.3786C17.6762 41.3247 17.9115 41.1953 18.0947 41.007C18.278 40.8187 18.4009 40.58 18.4477 40.3214C18.5656 39.8641 18.6181 39.3925 18.6036 38.9205C18.6203 38.4613 18.5678 38.0022 18.4477 37.5587C18.3804 37.2843 18.2361 37.0348 18.0318 36.8396C17.8275 36.6444 17.5716 36.5117 17.2944 36.457C16.8037 36.3971 16.3093 36.3727 15.8151 36.384C15.7512 36.384 15.688 36.3966 15.6291 36.4212C15.5702 36.4458 15.5167 36.4818 15.4718 36.5272C15.4269 36.5726 15.3915 36.6265 15.3675 36.6857C15.3436 36.7448 15.3316 36.8082 15.3323 36.872Z" fill="white"/>
<path d="M21.1972 38.9667C21.1591 38.4189 21.2337 37.8691 21.4162 37.3512C21.5988 36.8333 21.8856 36.3583 22.2588 35.9555C22.603 35.6125 23.0162 35.3467 23.4711 35.1758C23.9259 35.0048 24.412 34.9327 24.8968 34.9642C25.3959 34.9412 25.8943 35.0226 26.3602 35.2031C26.8261 35.3836 27.2492 35.6592 27.6026 36.0125C27.9558 36.4079 28.2273 36.8692 28.4016 37.3699C28.5758 37.8707 28.6493 38.4009 28.6179 38.9302C28.6487 39.4559 28.5755 39.9825 28.4027 40.4799C28.2299 40.9773 27.9607 41.4358 27.6106 41.8292C27.2596 42.182 26.8387 42.4575 26.3748 42.6377C25.9109 42.818 25.4144 42.899 24.9173 42.8757C24.4175 42.9001 23.918 42.8202 23.4508 42.6409C22.9836 42.4617 22.5588 42.187 22.2036 41.8345C21.8549 41.4466 21.5864 40.9934 21.4137 40.5012C21.2409 40.009 21.1673 39.4875 21.1972 38.9667ZM22.7887 38.9142C22.7377 39.6224 22.9512 40.3244 23.3881 40.8842C23.5811 41.095 23.8158 41.2635 24.0773 41.3789C24.3388 41.4943 24.6214 41.5542 24.9072 41.5547C25.1931 41.5552 25.4759 41.4963 25.7378 41.3818C25.9997 41.2673 26.235 41.0997 26.4287 40.8896C26.8643 40.3194 27.075 39.6091 27.021 38.8937C27.0751 38.1919 26.8697 37.4947 26.4439 36.9343C26.244 36.729 26.005 36.566 25.7409 36.455C25.4769 36.3439 25.1932 36.2871 24.9067 36.2879C24.6203 36.2886 24.3369 36.3469 24.0734 36.4593C23.8099 36.5718 23.5717 36.736 23.373 36.9423C22.943 37.5053 22.735 38.2068 22.7887 38.9133V38.9142Z" fill="white"/>
<path d="M35.4372 40.1604C35.5439 40.1942 35.6421 40.2506 35.7249 40.3258C35.8078 40.4011 35.8733 40.4933 35.9172 40.5963C35.961 40.6993 35.982 40.8105 35.9788 40.9223C35.9756 41.0342 35.9482 41.144 35.8986 41.2443C35.7046 41.6444 35.4212 41.9946 35.0703 42.2677C34.3799 42.7296 33.5512 42.9388 32.7243 42.8599C31.8974 42.781 31.1231 42.4189 30.5326 41.8348C29.8457 41.0496 29.494 40.0264 29.5529 38.9848C29.4863 37.9056 29.8399 36.8425 30.5397 36.0181C30.8716 35.6672 31.2747 35.3914 31.7221 35.2092C32.1694 35.027 32.6506 34.9427 33.1332 34.9619C33.9729 34.9261 34.7926 35.2242 35.4132 35.791C35.5577 35.9281 35.684 36.0832 35.789 36.2524C35.8532 36.3565 35.8918 36.4744 35.9016 36.5963C35.9114 36.7182 35.8921 36.8407 35.8453 36.9537C35.7985 37.0667 35.7256 37.167 35.6325 37.2464C35.5395 37.3258 35.4289 37.3819 35.3099 37.4102C35.1504 37.4489 34.9828 37.4351 34.8318 37.3709C34.6808 37.3068 34.5546 37.1956 34.4718 37.0539C34.3765 36.8883 34.2508 36.742 34.1013 36.6229C33.8034 36.3894 33.4332 36.2675 33.0548 36.2782C32.7936 36.27 32.5339 36.3206 32.295 36.4264C32.056 36.5322 31.8439 36.6903 31.6743 36.8892C31.2709 37.4655 31.0833 38.1655 31.1444 38.8664C31.0781 39.5947 31.2622 40.3239 31.6663 40.9335C31.8306 41.1329 32.0383 41.292 32.2736 41.3987C32.5089 41.5054 32.7654 41.5568 33.0236 41.5489C33.4133 41.5568 33.7915 41.4171 34.0826 41.1579C34.2615 40.9943 34.4046 40.7953 34.503 40.5737C34.5825 40.4036 34.721 40.2681 34.8927 40.1921C35.0644 40.1161 35.2579 40.1049 35.4372 40.1604Z" fill="white"/>
</g>
<defs>
<linearGradient id="paint0_linear_307_1871" x1="31.6816" y1="-28.4064" x2="31.6816" y2="-26.121" gradientUnits="userSpaceOnUse">
<stop stop-color="#F3F7FF"/>
<stop offset="0.99" stop-color="#B5D1FF"/>
</linearGradient>
<linearGradient id="paint1_linear_307_1871" x1="10.214" y1="27.2004" x2="10.214" y2="106.689" gradientUnits="userSpaceOnUse">
<stop stop-color="#048AC4"/>
<stop offset="1" stop-color="#35489B"/>
</linearGradient>
<linearGradient id="paint2_linear_307_1871" x1="1353.37" y1="-309.371" x2="1353.37" y2="8776.77" gradientUnits="userSpaceOnUse">
<stop stop-color="#F3F7FF"/>
<stop offset="0.99" stop-color="#B5D1FF"/>
</linearGradient>
<linearGradient id="paint3_linear_307_1871" x1="532.795" y1="-227.863" x2="532.795" y2="-38.825" gradientUnits="userSpaceOnUse">
<stop stop-color="#F3F7FF"/>
<stop offset="0.99" stop-color="#B5D1FF"/>
</linearGradient>
<linearGradient id="paint4_linear_307_1871" x1="1002.5" y1="546.106" x2="1002.5" y2="1376.69" gradientUnits="userSpaceOnUse">
<stop stop-color="#048AC4"/>
<stop offset="1" stop-color="#35489B"/>
</linearGradient>
<linearGradient id="paint5_linear_307_1871" x1="39.252" y1="79.235" x2="39.252" y2="165.308" gradientUnits="userSpaceOnUse">
<stop stop-color="#048AC4"/>
<stop offset="1" stop-color="#35489B"/>
</linearGradient>
<clipPath id="clip0_307_1871">
<rect width="57" height="57" fill="white" transform="translate(0.955078 0.0820312)"/>
</clipPath>
</defs>
</svg>
