<svg width="13" height="17" viewBox="0 0 13 17" fill="none" xmlns="http://www.w3.org/2000/svg">
<path d="M2.58203 0.169922C2.0516 0.169922 1.54289 0.380635 1.16782 0.755708C0.792745 1.13078 0.582031 1.63949 0.582031 2.16992V14.1699C0.582031 14.7004 0.792745 15.2091 1.16782 15.5841C1.54289 15.9592 2.0516 16.1699 2.58203 16.1699H10.582C11.1125 16.1699 11.6212 15.9592 11.9962 15.5841C12.3713 15.2091 12.582 14.7004 12.582 14.1699V5.58392C12.5817 5.18623 12.4234 4.80496 12.142 4.52392L8.22803 0.608922C7.94683 0.327904 7.56558 0.170007 7.16803 0.169922H2.58203ZM1.58203 2.16992C1.58203 1.90471 1.68739 1.65035 1.87492 1.46282C2.06246 1.27528 2.31681 1.16992 2.58203 1.16992H6.58203V4.66992C6.58203 5.06775 6.74007 5.44928 7.02137 5.73058C7.30268 6.01189 7.68421 6.16992 8.08203 6.16992H11.582V14.1699C11.582 14.4351 11.4767 14.6895 11.2891 14.877C11.1016 15.0646 10.8472 15.1699 10.582 15.1699H2.58203C2.31681 15.1699 2.06246 15.0646 1.87492 14.877C1.68739 14.6895 1.58203 14.4351 1.58203 14.1699V2.16992ZM11.375 5.16992H8.08203C7.94942 5.16992 7.82225 5.11724 7.72848 5.02348C7.63471 4.92971 7.58203 4.80253 7.58203 4.66992V1.37692L11.375 5.16992Z" fill="white"/>
</svg>
