<svg width="136" height="24" viewBox="0 0 136 24" fill="none" xmlns="http://www.w3.org/2000/svg">
<g clip-path="url(#clip0_303_1560)">
<path d="M67.101 3.80386L68.6991 7.63261H65.53L67.101 3.80386ZM69.5388 9.67093L70.2972 11.4613H73.4393L68.97 1.40746H65.2862L60.7898 11.4889H63.9589L64.6903 9.69847H69.5388V9.67093ZM105.429 3.80386L107.027 7.63261H103.858L105.429 3.80386ZM107.866 9.67093L108.625 11.4613H111.767L107.298 1.40746H103.614L99.1174 11.4889H102.287L103.018 9.69847H107.866V9.67093ZM134.899 7.41225V5.56674H128.94V3.72123H135.603V1.40746H126.069V11.4889H135.82V9.06494H128.94V7.41225H134.899ZM54.5057 1.24219C50.3072 1.24219 48.5195 2.81225 48.5195 6.44818C48.5195 10.1116 50.3072 11.6542 54.5057 11.6542C58.3249 11.6542 60.1126 10.4146 60.4377 7.49488H57.3227C56.9977 8.70686 56.0767 9.25776 54.3973 9.25776C52.1221 9.25776 51.3636 8.54159 51.3636 6.42063C51.3636 4.32722 52.1491 3.5835 54.3973 3.5835C55.9955 3.5835 56.9164 4.10686 57.2685 5.20865H60.4106C60.0585 2.42662 58.2978 1.24219 54.5057 1.24219ZM77.7461 3.74877H80.4818C81.4028 3.74877 82.3508 3.91404 82.3508 5.04338C82.3508 6.17273 81.4028 6.338 80.4818 6.338H77.7461V3.74877ZM82.5946 11.4889H86.0617L82.9196 7.77033L83.2446 7.6877C84.7073 7.24698 85.3574 6.338 85.3574 4.71285C85.3574 2.48171 83.8135 1.40746 80.6443 1.40746H74.7665V11.4889H77.7461V8.40386H80.2922L82.5946 11.4889ZM118.349 9.09249H115.965V3.80386H118.349C120.516 3.80386 121.329 4.54758 121.329 6.44818C121.329 8.32123 120.435 9.09249 118.349 9.09249ZM118.241 1.40746H113.067V11.4889H118.241C122.52 11.4889 124.362 9.97392 124.362 6.44818C124.362 2.92243 122.547 1.40746 118.241 1.40746ZM92.9959 1.24219C88.7974 1.24219 87.0097 2.81225 87.0097 6.44818C87.0097 10.1116 88.7974 11.6542 92.9959 11.6542C96.8151 11.6542 98.6028 10.4146 98.9278 7.49488H95.8129C95.4878 8.70686 94.5669 9.25776 92.8875 9.25776C90.6122 9.25776 89.8538 8.54159 89.8538 6.42063C89.8538 4.32722 90.6393 3.5835 92.8875 3.5835C94.4856 3.5835 95.4066 4.10686 95.7587 5.20865H98.9008C98.5486 2.42662 96.788 1.24219 92.9959 1.24219Z" fill="#C1C7D2"/>
<path d="M36.5754 10.4425C36.5212 13.6102 34.1376 16.4198 31.7269 16.888C28.6932 17.494 26.9867 14.6294 27.8264 11.4617C29.4516 5.31918 36.6567 4.87846 36.5754 10.4425ZM26.3908 4.16229C26.3367 7.32995 23.9259 10.1395 21.5423 10.6078C18.5086 11.1862 16.7751 8.34912 17.6147 5.18145C19.267 -0.961064 26.4721 -1.42933 26.3908 4.16229ZM19.9442 16.7228C19.89 19.8904 17.4793 22.7 15.0957 23.1683C12.062 23.7743 10.3284 20.9096 11.1952 17.7419C12.8204 11.5994 20.0255 11.1587 19.9442 16.7228ZM9.7867 10.4425C9.73252 13.6102 7.3489 16.4198 4.93818 16.888C1.93156 17.4665 0.198015 14.6294 1.0377 11.4617C2.6629 5.31918 9.86796 4.87846 9.7867 10.4425Z" fill="#C1C7D2"/>
<path d="M48.5195 18.2371C48.5195 20.4958 50.3072 22.3138 52.5284 22.3138C54.7224 22.3138 56.5372 20.4958 56.5372 18.2371C56.5372 15.9784 54.7495 14.1605 52.5284 14.1605C50.3072 14.1329 48.5195 15.9784 48.5195 18.2371ZM48.655 18.2371C48.655 16.0611 50.3885 14.2982 52.5013 14.2982C54.6411 14.2982 56.3476 16.0611 56.3476 18.2371C56.3476 20.4132 54.614 22.176 52.5013 22.176C50.3885 22.176 48.655 20.3856 48.655 18.2371ZM49.7655 17.1078C50.7948 16.4191 51.9054 16.0335 53.8285 16.3641C53.9369 16.309 53.991 16.2539 54.0181 16.1161C53.5306 15.9509 53.0159 15.8682 52.3388 15.8958C51.7428 15.9233 50.6594 16.1437 50.0635 16.5018L50.2531 16.2814C50.6594 16.0335 51.7158 15.703 52.5013 15.703C53.0701 15.703 53.341 15.7305 54.0181 15.8958C53.964 15.7856 53.8285 15.7305 53.6118 15.6203C52.9617 15.3173 51.7699 15.2898 50.7948 15.7305C50.9302 15.6479 51.0386 15.5653 51.2011 15.4826C51.5262 15.3449 52.0679 15.1796 52.718 15.2072C53.2597 15.2072 53.8827 15.4 54.2619 15.7856C54.3161 15.8682 54.3703 15.9509 54.3703 16.006C54.6682 16.1712 54.8578 16.309 54.9391 16.4742C54.9662 16.5569 54.9932 16.667 54.9662 16.7772C55.1016 16.8599 55.1558 16.915 55.2099 16.9976C55.2641 17.0802 55.2912 17.1353 55.2912 17.2179C55.2912 17.3281 55.3183 17.4383 55.2099 17.5485C55.3183 17.6036 55.3995 17.7413 55.3995 17.8239C55.4537 18.0718 55.2912 18.2922 55.1016 18.4575C54.8849 18.6503 54.3703 18.8982 53.991 19.0084C53.1784 19.2012 52.4742 19.3114 51.9325 19.394C52.1762 19.4491 52.5284 19.5317 53.0972 19.5317C54.289 19.5317 55.3454 18.9533 55.3454 18.9533C55.3454 18.9533 55.3183 19.0359 55.2912 19.091C54.5328 19.5593 53.3139 19.7521 52.7992 19.7245C52.2846 19.697 51.8241 19.6144 51.4178 19.4766C51.2824 19.5042 51.1469 19.5593 51.0386 19.6144C51.6887 19.9173 52.1762 20 52.7451 20.0275C53.3139 20.0826 54.2619 19.9173 55.0745 19.6419C55.0474 19.6694 55.0203 19.7521 54.9932 19.7796C54.5869 20 53.7202 20.2203 53.2868 20.2479C52.8534 20.2754 52.3388 20.2479 51.8783 20.1653C51.472 20.0826 51.174 19.9449 50.8219 19.8072C50.7677 19.8623 50.7406 19.9173 50.7135 19.9724C52.0408 20.6611 53.2597 20.6886 54.6682 20.2479L54.5328 20.3856C52.9888 21.0191 51.7699 20.7712 50.849 20.303C50.8219 20.303 50.7948 20.2754 50.7677 20.2479C50.849 20.4132 51.5803 20.9365 52.3658 20.9916C52.9076 21.0467 53.5847 20.9365 53.991 20.7712L53.7473 20.909C53.5577 20.9916 53.043 21.212 52.3388 21.1844C51.3907 21.1293 50.849 20.6886 50.6052 20.4682C50.4969 20.3581 50.4427 20.2479 50.4156 20.0826C50.1989 19.9724 50.0635 19.8623 49.9551 19.6694C49.9009 19.5593 49.901 19.4491 49.928 19.3389C49.928 19.3114 49.928 19.2838 49.9551 19.2563C49.8468 19.1736 49.7384 19.091 49.7113 19.0084C49.6301 18.8431 49.6843 18.6778 49.7384 18.5676C49.6843 18.5126 49.6301 18.4299 49.603 18.3748C49.5759 18.2922 49.5759 18.2096 49.5759 18.1269C49.603 17.9892 49.6572 17.8515 49.7655 17.7413C49.9822 17.4934 50.3072 17.3006 50.849 17.1078C51.3907 16.915 51.6074 16.8874 52.0408 16.8048C52.5284 16.6946 53.0972 16.667 53.5847 16.4742C52.2304 16.2263 50.849 16.4467 49.7113 17.2455L49.7655 17.1078ZM54.3432 16.2539C54.3161 16.309 54.2619 16.3916 54.2077 16.4467C54.3432 16.4742 54.5057 16.5293 54.6411 16.5844C54.6411 16.4742 54.4786 16.3365 54.3432 16.2539ZM50.1989 19.0084C50.1176 18.9533 50.0635 18.9257 49.9822 18.8706C49.9551 18.9533 50.0093 19.0635 50.0906 19.091C50.1176 19.0635 50.1718 19.0359 50.1989 19.0084ZM54.7495 17.2179C54.8578 17.273 54.9391 17.3006 55.0203 17.3557C55.0745 17.2455 55.0474 17.1629 54.912 17.0527C54.8578 17.1078 54.8036 17.1629 54.7495 17.2179ZM54.4515 17.3832C54.2619 17.4659 53.964 17.576 53.5577 17.6862C53.2326 17.7688 52.42 17.879 51.5532 18.0718C51.2824 18.1269 50.5239 18.3197 50.1718 18.6227C50.2802 18.7054 50.3343 18.7329 50.4427 18.788C50.6052 18.6778 50.7948 18.5952 51.0928 18.5126C51.6345 18.3748 52.0137 18.2922 52.5013 18.2371C52.9888 18.1545 53.8827 17.9617 54.3703 17.7964C54.5328 17.7413 54.6682 17.6587 54.8036 17.576C54.7766 17.5209 54.4515 17.3832 54.4515 17.3832ZM50.7135 19.5042C50.7948 19.4491 50.8761 19.4215 50.9844 19.3664C50.849 19.3114 50.7136 19.2563 50.551 19.1736C50.4969 19.2287 50.4156 19.2563 50.3885 19.3114C50.4698 19.394 50.5781 19.4491 50.7135 19.5042ZM50.2531 19.5593C50.2531 19.6419 50.3073 19.7245 50.4156 19.8347C50.4427 19.7796 50.4427 19.7521 50.4969 19.697C50.4156 19.6419 50.3343 19.5868 50.2531 19.5593ZM50.9302 17.879C51.9054 17.576 52.9347 17.4934 53.964 17.2179C53.5577 17.1078 53.341 17.0527 52.9076 17.1078C52.2846 17.1904 51.6074 17.3281 51.0115 17.4934C50.7948 17.576 49.5759 17.9066 49.928 18.4024C49.928 18.4024 50.1176 18.0994 50.9302 17.879ZM54.5869 16.8599C54.4244 16.7772 54.2348 16.7221 54.0181 16.667C53.9369 16.7497 53.8014 16.8048 53.666 16.8874C53.9369 16.9425 54.1265 16.9976 54.3432 17.0802C54.3703 17.0527 54.5328 16.8874 54.5869 16.8599ZM55.0474 17.7964C55.0203 17.8239 54.9932 17.8515 54.9391 17.879C54.7224 18.0443 54.3703 18.182 53.8827 18.3197C52.8805 18.5952 52.1491 18.6227 51.3095 18.8431C51.1469 18.8706 50.9844 18.9257 50.8219 19.0084C50.9844 19.091 51.1469 19.1736 51.3095 19.2287C51.6345 19.1185 51.797 19.091 52.2846 19.0084C52.4742 18.9808 53.043 18.8706 53.4493 18.788C54.2619 18.6227 55.3454 18.2647 55.0474 17.7964Z" fill="#C1C7D2"/>
<path fill-rule="evenodd" clip-rule="evenodd" d="M79.4261 20.2483H80.3742L80.4825 19.5597H81.1326L81.2409 20.2483H82.189L81.4035 16.2268H80.2387L79.4261 20.2483ZM80.8076 17.4387L80.9972 18.6783H80.645L80.8076 17.4387ZM83.0558 17.7968C83.1099 17.7968 83.1641 17.7968 83.2183 17.7693C83.2724 17.7417 83.3266 17.7142 83.3537 17.6866C83.3808 17.6591 83.435 17.604 83.4621 17.5489C83.4891 17.4938 83.4891 17.4387 83.5162 17.3836C83.5162 17.3286 83.5162 17.2735 83.4891 17.2459C83.4621 17.1908 83.435 17.1633 83.4079 17.1357C83.3808 17.1082 83.3266 17.0807 83.2724 17.0531C83.2183 17.0256 83.1641 17.0256 83.1099 17.0531C82.9474 17.0531 82.7578 17.0807 82.5953 17.1633V16.3094C82.8661 16.2268 83.137 16.1992 83.4079 16.1992C84.1663 16.1992 84.5184 16.7226 84.5184 17.2184C84.5184 17.4112 84.4643 17.604 84.3559 17.7693C84.2476 17.9345 84.085 18.0447 83.9225 18.1274V18.1549C84.1121 18.21 84.2747 18.3477 84.4101 18.513C84.5184 18.6783 84.5726 18.8986 84.5726 19.0914C84.5726 19.8351 84.058 20.2208 83.3808 20.2208C83.0828 20.2208 82.7849 20.1657 82.514 20.028L82.5411 19.2292C82.7307 19.3118 82.9474 19.3669 83.1641 19.3393C83.2183 19.3393 83.2724 19.3393 83.3266 19.3118C83.3808 19.2842 83.4079 19.2567 83.4621 19.2292C83.4891 19.2016 83.5433 19.1465 83.5433 19.0914C83.5704 19.0363 83.5704 18.9813 83.5704 18.9262C83.5704 18.7058 83.435 18.5681 83.1099 18.5681H82.7307V17.7417H83.0558V17.7968ZM84.9789 16.2268H87.5251V20.2759H86.6041V17.1908H85.9269V20.2483H85.006V16.2268H84.9789ZM88.0397 20.2483H88.9606V18.9262H89.2857C90.2066 18.9262 90.4775 18.0998 90.4775 17.5765C90.4775 17.0531 90.1525 16.2268 89.2857 16.2268H88.0397V20.2483ZM88.9606 17.1082H89.1773C89.394 17.1082 89.5295 17.2459 89.5295 17.5765C89.5295 18.0172 89.3128 18.0447 89.1773 18.0447H88.9606V17.1082ZM92.184 20.2483C93.2945 20.2483 93.6466 19.2292 93.6466 18.2375C93.6466 17.2184 93.2674 16.2268 92.184 16.2268C91.0734 16.2268 90.7213 17.2459 90.7213 18.2375C90.7213 19.2567 91.1005 20.2483 92.184 20.2483ZM92.184 19.3118C91.8589 19.3118 91.6964 18.9262 91.6964 18.2375C91.6964 17.5489 91.8589 17.1633 92.184 17.1633C92.509 17.1633 92.6715 17.5489 92.6715 18.2375C92.6986 18.9262 92.509 19.3118 92.184 19.3118ZM97.7096 20.2208H98.8202C98.9827 20.2208 99.1452 20.1932 99.3078 20.1381C99.4703 20.083 99.6057 19.9729 99.7141 19.8627C99.8224 19.7525 99.9307 19.5872 99.9849 19.422C100.039 19.2567 100.066 19.0914 100.039 18.9262C100.039 17.907 99.2536 17.7142 98.766 17.7142H98.6035V17.1908H99.8495V16.2268H97.7096V20.2208ZM98.6306 19.422V18.513H98.766C98.8744 18.513 99.1723 18.513 99.1723 18.9262C99.1723 19.3393 98.8744 19.422 98.766 19.422H98.6306ZM103.398 16.2268H104.292V17.6866H104.942V16.2268H105.863V20.2483H104.942V18.6507H104.292V20.2483H103.398V16.2268ZM106.486 16.2268H107.407V17.6866H107.596L108.111 16.2268H109.113L108.409 18.1274L109.221 20.2483H108.165L107.65 18.6232H107.434V20.2483H106.513V16.2268H106.486ZM77.6113 16.2268H79.5074V17.2184H78.5594V20.2208H77.6113V16.2268ZM94.1071 16.2268H94.8926L95.5969 17.1908L96.3011 16.2268H97.0866V20.2483H96.1657V17.7968L95.5969 18.513L95.0281 17.7968V20.2483H94.1071V16.2268ZM100.256 20.2483H101.204L101.312 19.5597H101.962L102.071 20.2483H103.019L102.206 16.2268H101.041L100.256 20.2483ZM101.637 17.4387L101.8 18.6783H101.448L101.637 17.4387Z" fill="#C1C7D2"/>
<path fill-rule="evenodd" clip-rule="evenodd" d="M121.248 16.2268V18.4028L122.087 16.2268H122.927V20.2483H122.087V18.0723L121.248 20.2483H120.408V16.2268H121.248ZM114.801 16.2268V20.2483H115.641L116.48 18.0723V20.2483H117.32V16.2268H116.48L115.641 18.4028V16.2268H114.801ZM112.038 16.1992V18.4028C112.038 19.119 111.957 19.2843 111.74 19.2843C111.659 19.2843 111.605 19.2567 111.523 19.2567V20.1932C111.632 20.2483 111.767 20.2759 111.903 20.2759C112.905 20.2759 112.905 19.3118 112.905 18.7609V17.1633H113.257V20.2208H114.124V16.1992H112.038ZM118.078 17.7693V18.6232H118.458C118.783 18.6232 118.918 18.7609 118.918 18.9813C118.918 19.0363 118.891 19.0914 118.891 19.1465C118.864 19.2016 118.837 19.2292 118.81 19.2843C118.783 19.3118 118.728 19.3393 118.674 19.3669C118.62 19.3944 118.566 19.3944 118.512 19.3944C118.295 19.3944 118.078 19.3669 117.889 19.2843L117.862 20.0831C118.133 20.2208 118.431 20.3034 118.728 20.2759C119.406 20.2759 119.92 19.8627 119.92 19.1465C119.92 18.9537 119.866 18.7334 119.758 18.5681C119.649 18.4028 119.46 18.2651 119.27 18.21V18.1549C119.46 18.0723 119.595 17.9621 119.704 17.7968C119.812 17.6316 119.866 17.4387 119.839 17.2459C119.839 16.7501 119.487 16.2268 118.728 16.2268C118.458 16.2268 118.187 16.2543 117.916 16.3369V17.1908C118.078 17.1357 118.241 17.0807 118.431 17.0807C118.485 17.0807 118.539 17.0807 118.593 17.0807C118.647 17.1082 118.674 17.1082 118.728 17.1633C118.756 17.1908 118.81 17.2459 118.81 17.2735C118.837 17.3286 118.837 17.3837 118.837 17.4112C118.837 17.5214 118.783 17.6316 118.701 17.6866C118.62 17.7693 118.512 17.7968 118.403 17.7968H118.078V17.7693ZM126.692 20.2208H127.64V17.1908H128.588V16.2268H126.692V20.2208ZM123.577 20.2483H124.471V18.6507H125.121V20.2483H126.042V16.2268H125.148V17.6866H124.498V16.2268H123.604V20.2483H123.577Z" fill="#C1C7D2"/>
<path fill-rule="evenodd" clip-rule="evenodd" d="M66.6951 16.2266H69.2412V20.2757H68.3203V17.1906H67.6431V20.2481H66.7222V16.2266H66.6951ZM69.8101 20.2481H70.731V17.1906H71.4082V20.2481H72.3291V16.2266H69.783V20.2481H69.8101ZM61.3048 20.2481V16.2266H62.5508C63.4176 16.2266 63.7426 17.0529 63.7426 17.5763C63.7426 18.0996 63.4718 18.926 62.5508 18.926H62.2258V20.2481H61.3048ZM62.2258 18.017H62.4425C62.5508 18.017 62.7946 17.9894 62.7946 17.5487C62.7946 17.2182 62.6592 17.0805 62.4425 17.0805H62.2258V18.017ZM59.0566 20.2206H60.0047V17.2182H60.9527V16.2266H59.0566V20.2206ZM73.3855 16.2266H74.5502L75.3357 20.2481H74.3877L74.2794 19.5595H73.6293L73.5209 20.2481H72.6L73.3855 16.2266ZM73.7918 18.6781H74.1439L73.9814 17.4385L73.7918 18.6781ZM64.4469 20.2481C64.5823 20.2481 64.7178 20.2206 64.8261 20.1655C64.9345 20.1104 65.0428 20.0278 65.1241 19.9176C65.2053 19.8074 65.3137 19.6421 65.3949 19.4769C65.4762 19.284 65.5574 19.0912 65.6387 18.8433L66.4784 16.2266H65.4762L65.1511 17.714H65.1241L64.7448 16.2266H63.7155L64.6365 18.926V18.9535C64.6094 19.0361 64.5823 19.0912 64.5282 19.1463C64.474 19.2014 64.3927 19.229 64.3115 19.229C64.2573 19.229 64.2031 19.229 64.1489 19.2014C64.0948 19.1739 64.0677 19.1739 64.0677 19.1739V20.1655C64.0948 20.193 64.1489 20.193 64.2302 20.2206C64.2844 20.2206 64.3656 20.2481 64.4469 20.2481Z" fill="#C1C7D2"/>
</g>
<defs>
<clipPath id="clip0_303_1560">
<rect width="135" height="23" fill="white" transform="translate(0.820312 0.25)"/>
</clipPath>
</defs>
</svg>
