<svg width="107" height="21" viewBox="0 0 107 21" fill="none" xmlns="http://www.w3.org/2000/svg">
<g clip-path="url(#clip0_303_1665)">
<path d="M5.75458 11.0874C4.23108 11.0874 3.03295 10.7566 2.16019 10.095C0.418505 8.77569 0.629039 5.9038 1.35442 4.08735C2.3803 1.48697 4.84163 0.288118 7.53455 0.288118C9.45998 0.288118 12.2486 0.758482 12.2486 3.23841C12.2486 6.46594 8.8035 6.87129 6.31537 6.87129C5.67284 6.87394 5.03067 6.84074 4.39185 6.77187C4.13921 8.33974 5.14595 8.54242 6.4838 8.56154C7.46919 8.545 8.4468 8.38394 9.38534 8.08353C9.64563 8.01278 9.80832 7.97072 9.95952 8.2212L10.706 9.77569C10.8189 9.96689 10.7308 10.1199 10.4418 10.248C9.02169 10.877 7.2666 11.0931 5.75267 11.0931L5.75458 11.0874ZM18.9589 2.47932C17.9828 2.47932 17.2363 2.89997 17.0583 3.89615L16.1684 8.69538C16.7731 8.79097 17.3839 8.84337 17.9962 8.85217C18.9799 8.85217 20.6164 8.58257 20.6164 7.27856C20.6164 6.22693 19.1063 6.29577 18.3809 6.29577C18.0766 6.29577 17.8354 6.26517 17.9005 5.90188L18.0689 4.95733C18.1435 4.54242 18.4747 4.51565 18.8345 4.48506C19.4469 4.43535 20.469 4.2059 20.469 3.40284C20.4728 2.65905 19.512 2.47167 18.9589 2.47167V2.47932ZM13.5998 3.87512C14.0726 1.10074 16.6851 0.244141 19.1733 0.244141C20.7733 0.244141 23.738 0.645671 23.8146 2.80055C23.8509 3.83879 23.0892 4.69538 22.1552 5.04338V5.14089C23.2327 5.44682 24.1265 6.09691 24.1265 7.30341C24.1265 10.313 20.2317 11.0797 17.9215 11.0797C16.287 11.0797 14.4439 10.9478 12.9204 10.3149C12.6256 10.1925 12.5376 10.0357 12.5835 9.72598L13.5998 3.87512ZM27.4032 14.5482C27.3477 14.8732 27.141 14.8828 26.8501 14.8828H24.4251C24.1591 14.8828 23.9371 14.8732 23.9926 14.5482L26.2051 1.72406C26.2348 1.57921 26.3042 1.44545 26.4056 1.33774C26.507 1.23003 26.6364 1.1526 26.7793 1.11412C28.3812 0.511827 30.1995 0.326359 31.901 0.326359C34.8504 0.326359 37.1471 1.42578 37.0686 4.69347C36.9729 8.65714 34.5173 11.0472 30.6301 11.0472C29.767 11.0531 28.9055 10.9743 28.0578 10.812L27.4032 14.5482ZM31.2062 2.78716C30.5987 2.78561 29.9932 2.85817 29.4033 3.00322L28.4884 8.37225C29.1025 8.52037 29.7324 8.59293 30.3641 8.58831C32.546 8.58831 33.5872 6.89424 33.5872 4.87129C33.5872 3.3493 32.6264 2.78716 31.2062 2.78716ZM44.4813 2.70877C43.0095 2.70877 42.0736 3.73554 41.7157 5.08926C41.287 6.71259 41.3674 8.66861 43.4957 8.66861C45.624 8.66861 46.4297 6.49271 46.4297 4.67626C46.4297 3.40666 45.7599 2.70877 44.4813 2.70877ZM44.7933 0.29003C47.6183 0.29003 49.961 1.48506 49.961 4.59787C49.961 8.84643 47.09 11.1294 43.1071 11.0874C40.397 11.0587 37.9605 10.0816 37.9605 7.01661C37.9441 6.03712 38.1156 5.06355 38.4658 4.14854C39.5357 1.48697 42.0832 0.288118 44.7952 0.288118L44.7933 0.29003ZM56.6292 2.64949C56.1061 2.63951 55.5832 2.67212 55.0655 2.74701L53.7257 10.5157C53.6683 10.8503 53.4826 10.8694 53.1726 10.8694H50.7859C50.5198 10.8694 50.271 10.8426 50.3284 10.5157L51.7964 2.07779C51.9649 1.10838 52.5524 0.639934 53.5037 0.485058C54.6192 0.333562 55.7448 0.269632 56.8703 0.293853C58.945 0.293853 61.8466 0.553892 62.4016 3.01852C62.5436 3.80328 62.5352 4.60785 62.3767 5.38946L61.5116 10.5233C61.4542 10.8598 61.2686 10.877 60.9585 10.877H58.5527C58.2847 10.877 58.0397 10.8503 58.0952 10.5233L59.0101 5.21546C59.1154 4.60934 59.1881 3.81011 58.7709 3.30341C58.2866 2.69538 57.3258 2.64949 56.6292 2.64949ZM83.1277 2.70877C81.6961 2.70877 80.6951 3.61317 80.23 4.921C79.4817 7.02426 79.8262 8.7298 82.3832 8.68774C82.9436 8.67414 83.5005 8.59521 84.0426 8.45255C84.3278 6.58831 84.6283 4.71068 85.0283 2.86747C84.5354 2.78343 84.0371 2.73423 83.5373 2.72024C83.3765 2.71068 83.2387 2.70877 83.1277 2.70877ZM83.2904 0.30915C84.9239 0.313951 86.5522 0.492134 88.148 0.840699C88.5518 0.928653 88.6782 1.07206 88.6054 1.46976C88.0772 4.31489 87.5815 7.17722 87.1872 10.0453C87.1763 10.1392 87.1355 10.2271 87.0706 10.296C87.0058 10.3649 86.9205 10.4111 86.8274 10.4277C85.1673 10.8867 83.4511 11.112 81.7286 11.0969C78.8577 11.0969 76.4155 10.2021 76.4155 7.08162C76.402 6.12221 76.5535 5.16761 76.8634 4.25944C77.8586 1.45255 80.475 0.30915 83.2904 0.30915ZM74.4863 10.2155L74.4384 10.4984V10.5137C74.3772 10.8388 74.2011 10.8713 73.8891 10.8713H71.5101C71.1579 10.8713 71.0316 10.7432 71.0775 10.4774L72.3809 2.86556H69.5387C69.2152 4.24032 68.9167 5.62655 68.5052 6.97645C67.7396 9.4755 66.2678 10.661 63.7682 11.2633C63.5194 11.3225 63.194 11.334 63.0715 11.0281L62.5164 9.61317C62.3748 9.24988 62.5452 9.10647 62.8763 8.9841C64.3385 8.44299 64.995 7.82349 65.5328 6.2212C65.9711 4.91718 66.2161 3.24605 66.6027 1.70686C66.8305 0.802458 67.3683 0.546244 68.2621 0.546244H74.7695C75.6557 0.546244 76.1093 0.808195 75.9485 1.74127V1.76422L74.4863 10.2155ZM92.1654 10.4774C92.1041 10.8426 91.9338 10.8713 91.5912 10.8713H89.2389C88.8868 10.8713 88.7375 10.7413 88.7815 10.4774L90.4409 0.917181C90.4849 0.666703 90.6725 0.534772 90.994 0.534772H93.3501C93.6736 0.534772 93.8669 0.534772 93.8075 0.917181L93.2544 4.28047H97.5837L98.1579 0.917181C98.2 0.666703 98.3991 0.534772 98.7321 0.534772H101.09C101.41 0.534772 101.611 0.534772 101.548 0.917181L99.8881 10.4774C99.825 10.8407 99.6872 10.8713 99.335 10.8713H96.9828C96.6306 10.8713 96.4813 10.7413 96.5253 10.4774L97.199 6.52521H92.8467L92.1654 10.4774ZM7.34124 2.66861C6.00148 2.66861 4.99666 3.4602 4.71914 4.77187C5.57561 4.84232 6.4368 4.83272 7.29148 4.74318C7.99198 4.66288 8.87814 4.48124 8.87814 3.61317C8.88005 2.80055 7.96136 2.66861 7.34124 2.66861Z" fill="#C1C7D2"/>
<path d="M101.119 14.3462C77.2403 9.7955 54.5677 12.4341 30.362 19.9026C29.6826 20.1129 29.5965 20.3748 30.473 20.1875C52.7992 15.3844 77.0412 13.7898 101.033 14.8337C101.517 14.8548 102.217 14.8701 102.215 14.7496C102.213 14.6291 101.995 14.5087 101.119 14.3423" fill="#C1C7D2"/>
<path d="M105.11 0.780072C105.409 0.780072 105.702 0.868887 105.952 1.03528C106.201 1.20168 106.395 1.43819 106.51 1.7149C106.625 1.99161 106.655 2.29609 106.596 2.58984C106.538 2.8836 106.393 3.15343 106.181 3.36521C105.969 3.577 105.699 3.72122 105.405 3.77965C105.111 3.83809 104.806 3.8081 104.53 3.69348C104.253 3.57886 104.016 3.38477 103.849 3.13573C103.683 2.8867 103.594 2.59392 103.594 2.29441C103.594 1.89294 103.754 1.50806 104.038 1.22417C104.322 0.940287 104.708 0.780578 105.11 0.780072ZM105.11 0.588867C104.772 0.588867 104.442 0.688896 104.161 0.876304C103.88 1.06371 103.662 1.33008 103.532 1.64173C103.403 1.95338 103.369 2.2963 103.435 2.62715C103.501 2.95799 103.664 3.26189 103.902 3.50041C104.141 3.73894 104.445 3.90138 104.777 3.96719C105.108 4.03299 105.451 3.99922 105.763 3.87013C106.075 3.74104 106.342 3.52244 106.529 3.24196C106.717 2.96149 106.817 2.63174 106.817 2.29441C106.816 1.84241 106.636 1.40908 106.316 1.08965C105.996 0.770207 105.562 0.590779 105.11 0.59078V0.588867Z" fill="#C1C7D2"/>
<path d="M105.401 2.34773C105.465 2.3654 105.521 2.40292 105.562 2.4548C105.597 2.50685 105.624 2.56434 105.641 2.62498L105.797 3.19859C105.801 3.20719 105.801 3.21676 105.797 3.22536C105.797 3.22536 105.784 3.23874 105.769 3.23874H105.621H105.597C105.597 3.23874 105.581 3.22727 105.577 3.21389L105.434 2.69572C105.421 2.64741 105.4 2.60154 105.373 2.55997C105.35 2.52721 105.322 2.49926 105.288 2.47775C105.256 2.45724 105.219 2.44298 105.181 2.43568C105.14 2.4275 105.097 2.42366 105.055 2.42421H104.636V3.20815C104.638 3.21268 104.639 3.21756 104.639 3.22249C104.639 3.22742 104.638 3.2323 104.636 3.23683C104.626 3.2399 104.616 3.2399 104.607 3.23683H104.471C104.462 3.23977 104.452 3.23977 104.442 3.23683C104.44 3.2323 104.439 3.22742 104.439 3.22249C104.439 3.21756 104.44 3.21268 104.442 3.20815V1.48731C104.44 1.45389 104.449 1.42069 104.469 1.39362C104.482 1.38145 104.498 1.37224 104.514 1.36663C104.531 1.36102 104.549 1.35914 104.567 1.36111H105.174C105.252 1.35979 105.33 1.37275 105.403 1.39936C105.468 1.42338 105.527 1.46048 105.577 1.50834C105.625 1.5548 105.663 1.61082 105.688 1.67278C105.714 1.73852 105.727 1.80863 105.727 1.87928C105.728 1.98003 105.7 2.07904 105.646 2.16417C105.592 2.24826 105.51 2.31106 105.415 2.34199L105.401 2.34773ZM105.503 1.88693C105.503 1.84412 105.497 1.80154 105.484 1.76073C105.471 1.72023 105.449 1.68303 105.42 1.65175C105.386 1.62054 105.346 1.59706 105.302 1.58291C105.248 1.56245 105.191 1.55271 105.133 1.55423H104.64V2.23492H105.118C105.17 2.23958 105.223 2.2335 105.272 2.21706C105.322 2.20061 105.368 2.17415 105.407 2.13932C105.439 2.10586 105.464 2.06626 105.481 2.02288C105.497 1.97951 105.505 1.93327 105.503 1.88693Z" fill="#C1C7D2"/>
</g>
<defs>
<clipPath id="clip0_303_1665">
<rect width="106" height="20" fill="white" transform="translate(0.820312 0.25)"/>
</clipPath>
</defs>
</svg>
