<svg width="177" height="56" viewBox="0 0 177 56" fill="none" xmlns="http://www.w3.org/2000/svg">
<g clip-path="url(#clip0_303_1732)">
<path d="M115.93 32.17H158.619L137.274 21.5811L115.93 32.17Z" fill="#A80906"/>
<path d="M108.677 31.5815L117.554 27.1776L93.8724 15.4259C93.0862 15.0362 92.1617 15.0365 91.3755 15.4263L57.9258 31.9073H65.5207L87.2687 20.9599L108.677 31.5815Z" fill="#A80906"/>
<path d="M121.197 25.4254L133.037 19.5512L102.107 4.20666C101.325 3.81783 100.404 3.81783 99.6209 4.20666L43.6035 31.9069H50.7435L92.5694 11.2223L121.197 25.4254Z" fill="#A80906"/>
<path d="M28.9835 50.7291C29.2327 50.3774 29.4787 49.9144 29.7142 49.3535V49.3529L33.2129 41.043C33.2967 40.8489 33.3769 40.7077 33.4599 40.6102C33.5597 40.4938 33.7137 40.407 33.9326 40.3448L34.5243 40.1906V39.1994H30.4557L30.3308 40.1686L31.6735 40.3401L29.187 46.6228H28.7475L26.436 40.337L27.8738 40.1636V39.1992H22.9486L22.8203 40.1938L23.4323 40.3426C23.5706 40.3729 23.6938 40.4267 23.7926 40.501C23.8984 40.58 23.9884 40.7014 24.0672 40.8732L27.5343 48.9907L27.4965 49.0823C27.31 49.5315 27.1102 49.845 26.8861 50.0396C26.6475 50.2472 26.3001 50.3519 25.8538 50.3519C25.5174 50.3519 25.1833 50.3068 24.8597 50.2168C24.6551 50.1596 24.4713 50.0964 24.3098 50.0279L23.745 51.5433C24.0204 51.6803 24.3512 51.7948 24.733 51.8831C25.7195 52.1125 26.6142 52.0799 27.2786 51.9369C27.6108 51.8652 27.9185 51.7317 28.1943 51.54C28.474 51.3464 28.7394 51.0726 28.9835 50.7291Z" fill="#212222"/>
<path d="M69.2631 51.6132C69.8377 51.4706 70.3335 51.2491 70.7381 50.9549C71.1349 50.6664 71.4499 50.2845 71.6748 49.8215C71.901 49.356 72.0157 48.7844 72.0157 48.1242C72.0157 47.6587 71.944 47.2259 71.8025 46.8377C71.6652 46.4613 71.4362 46.1317 71.1227 45.8581C70.8032 45.5798 70.3816 45.3592 69.8697 45.2004C69.3486 45.0394 68.6981 44.9574 67.9362 44.9574H65.3104V40.6981H68.4653C68.6054 40.6981 68.7002 40.7142 68.7725 40.7499C68.9089 40.8186 68.9617 40.9688 68.9885 41.0763L69.2648 42.461L70.7946 42.5174V39.2002H61.5254V40.1977L62.4603 40.3013C62.6811 40.341 62.8037 40.4007 62.8744 40.498C62.9376 40.5871 62.9646 40.7102 62.9646 40.8996V50.1512C62.9646 50.3357 62.9401 50.4581 62.8829 50.5485C62.7852 50.7037 62.5921 50.7377 62.4553 50.7496L61.5254 50.8528V51.8319H67.3177C68.0231 51.8321 68.6781 51.7587 69.2631 51.6132ZM65.3104 50.3529V46.3462H67.0622C67.3876 46.3462 67.6977 46.3687 67.9826 46.4123C68.2842 46.4593 68.5549 46.5521 68.7867 46.6872C69.0297 46.8291 69.2249 47.0303 69.3669 47.2836C69.5076 47.5363 69.5793 47.8609 69.5793 48.2503C69.5793 48.646 69.5132 48.9844 69.3833 49.257C69.25 49.5353 69.0575 49.762 68.8104 49.9306C68.5715 50.0937 68.2898 50.2069 67.9732 50.2665C67.674 50.3241 67.3369 50.3529 66.9716 50.3529H65.3104Z" fill="#212222"/>
<path d="M126.287 50.5646C126.215 50.6634 126.093 50.7231 125.888 50.7602L125.065 50.8628V51.8274H130.216V50.8644L129.206 50.7441C128.991 50.7059 128.875 50.6537 128.803 50.5684C128.733 50.4849 128.704 50.3624 128.704 50.1464V40.9127C128.704 40.6969 128.733 40.5736 128.805 40.4881C128.874 40.4057 128.99 40.3536 129.191 40.3169L130.216 40.1947V39.1953H119.088V40.1922L120.059 40.2962C120.271 40.3341 120.405 40.401 120.486 40.5032C120.566 40.6067 120.6 40.7617 120.6 41.0213C120.613 42.1675 120.6 43.234 120.565 44.1898C120.527 45.1546 120.459 45.9643 120.361 46.598C120.274 47.1648 120.16 47.6588 120.023 48.0667C119.881 48.4934 119.685 48.8541 119.442 49.1407C119.196 49.4312 118.893 49.6623 118.541 49.8273C118.259 49.9602 117.924 50.0603 117.543 50.1269L117.899 52.0882C118.635 52.0387 119.263 51.8951 119.768 51.6602C120.319 51.4034 120.781 51.0697 121.139 50.6675C121.499 50.2639 121.782 49.7984 121.978 49.2835C122.177 48.7597 122.319 48.2047 122.401 47.6322C122.474 47.169 122.534 46.6538 122.582 46.0979C122.631 45.5394 122.664 44.9626 122.682 44.3817C122.699 43.796 122.712 43.1998 122.718 42.6125C122.724 42.0337 122.721 41.4697 122.708 40.9364L122.704 40.6934H126.376V50.1641C126.376 50.3538 126.349 50.4773 126.287 50.5646Z" fill="#212222"/>
<path d="M33.9023 51.8315V50.8241L34.7111 50.7343C34.8055 50.718 34.8631 50.6947 34.8841 50.6647C34.9053 50.6349 34.9165 50.5735 34.9165 50.4804V43.9631C34.9165 43.8699 34.9053 43.8062 34.8841 43.7722C34.8629 43.7385 34.8055 43.7169 34.7111 43.7087L33.9023 43.6194V42.5986H38.2535C38.8437 42.5986 39.3381 42.6713 39.7359 42.8158C40.1336 42.9611 40.4521 43.1585 40.692 43.4092C40.9317 43.6602 41.1005 43.949 41.199 44.2761C41.297 44.6032 41.3466 44.9495 41.3466 45.3154C41.3466 45.8679 41.265 46.3416 41.1024 46.7375C40.94 47.1326 40.7066 47.4555 40.4028 47.7063C40.0991 47.9569 39.7291 48.14 39.2929 48.2539C38.8562 48.3694 38.3691 48.4268 37.8298 48.4268H36.8927V50.467C36.8927 50.5689 36.9033 50.6326 36.9249 50.6582C36.9461 50.6838 37.0039 50.7054 37.0983 50.722L38.9335 50.8239V51.8313H33.9023V51.8315ZM37.5348 47.0621C37.7484 47.0621 37.9602 47.0454 38.1699 47.0112C38.3795 46.977 38.5697 46.903 38.7412 46.7879C38.9125 46.6736 39.0508 46.5079 39.158 46.2909C39.2651 46.0736 39.3185 45.7872 39.3185 45.4297C39.3185 45.1237 39.2736 44.8771 39.1838 44.6903C39.0936 44.5032 38.974 44.3566 38.824 44.2501C38.6739 44.1438 38.4988 44.0742 38.2982 44.0394C38.097 44.0054 37.8812 43.9889 37.6502 43.9889H36.8925V47.0617H37.5348V47.0621Z" fill="#212222"/>
<path d="M46.3377 51.8333V50.8393L47.39 50.7234L46.9276 49.3971H43.7449L43.2955 50.7234L44.3095 50.8393V51.8333H40.7285V50.8393L41.2939 50.6982C41.3706 50.6812 41.4368 50.6554 41.4931 50.6213C41.5478 50.5886 41.5891 50.5328 41.6147 50.4558L44.4253 42.6006H46.6967L49.4948 50.4812C49.5204 50.5577 49.5589 50.6099 49.6106 50.6341C49.6614 50.6597 49.7256 50.6814 49.8031 50.6984L50.3933 50.8394V51.8335H46.3377V51.8333ZM45.4009 44.5514H45.3234L44.1426 48.0202H46.5429L45.4009 44.5514Z" fill="#212222"/>
<path d="M56.2955 51.8325V50.8379L57.014 50.7478C57.1081 50.7314 57.1659 50.7077 57.1874 50.6779C57.2086 50.6484 57.2194 50.5876 57.2194 50.4932V43.9897H54.858C54.8661 44.3638 54.8686 44.7593 54.8642 45.1755C54.8601 45.5922 54.8516 46.0086 54.8389 46.4247C54.8256 46.842 54.8019 47.2475 54.768 47.643C54.7337 48.0377 54.6913 48.4017 54.6397 48.7328C54.5794 49.1495 54.4767 49.5492 54.3316 49.9318C54.1865 50.3147 53.979 50.6566 53.709 50.9587C53.4398 51.2603 53.0993 51.5077 52.6891 51.6977C52.2783 51.8891 51.7688 51.9973 51.1618 52.0229L50.8535 50.3273C51.1786 50.2846 51.4545 50.2109 51.6815 50.1048C51.9079 49.9979 52.1004 49.8513 52.2592 49.6647C52.4174 49.4776 52.5434 49.2432 52.6376 48.9624C52.7315 48.6827 52.8084 48.347 52.8685 47.9546C52.9369 47.5128 52.9839 46.9539 53.0095 46.2779C53.0352 45.602 53.0432 44.8601 53.0352 44.053C53.0352 43.9165 53.0201 43.8299 52.9905 43.7917C52.9604 43.7532 52.8983 43.7259 52.8043 43.7087L51.97 43.6194V42.5986H60.261V43.6194L59.4013 43.7211C59.3067 43.7385 59.2488 43.7594 59.2278 43.785C59.2066 43.8108 59.196 43.8744 59.196 43.9759V50.4802C59.196 50.5823 59.2066 50.6454 59.2278 50.671C59.249 50.6968 59.3067 50.7178 59.4013 50.7346L60.261 50.8373V51.8319H56.2955V51.8325Z" fill="#212222"/>
<path d="M78.3453 51.8331V50.8385L79.154 50.7484C79.2483 50.732 79.3059 50.7083 79.3269 50.6785C79.3481 50.649 79.3591 50.5882 79.3591 50.4938V45.2524H79.2951L75.6241 51.8331H72.6465V50.8385L73.4554 50.7484C73.5494 50.732 73.607 50.7083 73.6282 50.6785C73.6494 50.649 73.6606 50.5882 73.6606 50.4938V43.9647C73.6606 43.8712 73.6494 43.8077 73.6282 43.7731C73.607 43.7395 73.5494 43.7179 73.4554 43.7097L72.6465 43.6204V42.5996H76.677V43.6204L75.8166 43.7221C75.723 43.7395 75.6652 43.7603 75.6432 43.786C75.622 43.8118 75.6114 43.871 75.6114 43.9647V48.9381H75.6756L79.2307 42.5998H82.375V43.6206L81.5153 43.7223C81.4208 43.7397 81.3632 43.7605 81.3422 43.7861C81.321 43.812 81.3102 43.8712 81.3102 43.9649V50.4816C81.3102 50.5836 81.3208 50.6467 81.3422 50.6723C81.3634 50.6982 81.421 50.7192 81.5153 50.736L82.375 50.8387V51.8333H78.3453V51.8331Z" fill="#212222"/>
<path d="M86.5479 42.4336C87.6339 42.4336 88.432 42.6337 88.9413 43.0335C89.4506 43.4332 89.7053 44.0065 89.7053 44.7549C89.7053 45.0525 89.6577 45.3226 89.5637 45.5646C89.4697 45.8072 89.3433 46.0217 89.1851 46.2086C89.0269 46.3958 88.8432 46.5531 88.6332 46.6808C88.4237 46.8077 88.1993 46.906 87.9596 46.9739V47.0247C88.2243 47.0761 88.475 47.1562 88.7103 47.2675C88.9457 47.3776 89.1531 47.5244 89.3325 47.7072C89.5126 47.8905 89.6535 48.1088 89.7562 48.3638C89.8587 48.6192 89.91 48.9205 89.91 49.2699C89.91 50.1114 89.5891 50.7741 88.9479 51.2591C88.3058 51.7435 87.3817 51.9855 86.1758 51.9855C85.9101 51.9855 85.6336 51.9706 85.3473 51.9406C85.0607 51.9114 84.7848 51.8691 84.5196 51.8133C84.2545 51.7584 84.0106 51.6923 83.7884 51.6158C83.5658 51.5392 83.3814 51.4585 83.2363 51.3734V49.077H84.6611L84.9177 50.175C84.9264 50.2425 84.9436 50.2894 84.969 50.3144C84.9944 50.3402 85.0461 50.3656 85.123 50.3912C85.2852 50.4505 85.4611 50.491 85.6492 50.5123C85.8367 50.5333 86.017 50.5448 86.1883 50.5448C86.676 50.5448 87.0778 50.431 87.3948 50.2062C87.7112 49.981 87.8694 49.6343 87.8694 49.1671C87.8694 48.6909 87.7197 48.3632 87.4204 48.1851C87.1206 48.0059 86.7483 47.9169 86.3042 47.9169H84.9436V46.4761H85.7006C86.3764 46.4761 86.8789 46.3381 87.2088 46.0616C87.5378 45.7854 87.7033 45.439 87.7033 45.0221C87.7033 44.5715 87.5721 44.259 87.3113 44.085C87.0502 43.9109 86.7315 43.8237 86.3554 43.8237C86.1502 43.8237 85.9615 43.8382 85.7902 43.8681C85.6195 43.8981 85.4527 43.9344 85.2898 43.9766C85.1873 44.0105 85.1231 44.0829 85.0979 44.1934L84.8921 45.2773L83.4674 45.3796V43.1988C83.6387 43.0967 83.8379 43.0012 84.0643 42.9121C84.2913 42.8228 84.5393 42.7421 84.8089 42.6693C85.0779 42.5976 85.3604 42.5401 85.6558 42.4971C85.951 42.4552 86.2483 42.4336 86.5479 42.4336Z" fill="#212222"/>
<path d="M96.0044 51.8331V50.8385L96.8131 50.7484C96.9071 50.732 96.9645 50.7083 96.9861 50.6785C97.0073 50.649 97.0179 50.5882 97.0179 50.4938V47.803H93.5011V50.4814C93.5011 50.5835 93.5123 50.6465 93.5335 50.6722C93.5545 50.698 93.6127 50.719 93.7071 50.7358L94.5665 50.8385V51.8331H90.498V50.8385L91.3068 50.7484C91.4008 50.732 91.4582 50.7083 91.4798 50.6785C91.501 50.649 91.5122 50.5882 91.5122 50.4938V43.9647C91.5122 43.8712 91.501 43.8077 91.4798 43.7731C91.458 43.7395 91.4008 43.7179 91.3068 43.7097L90.498 43.6204V42.5996H94.5665V43.6204L93.7071 43.7221C93.6125 43.7395 93.5545 43.7603 93.5335 43.786C93.5123 43.8118 93.5011 43.871 93.5011 43.9647V46.3743H97.0179V43.9647C97.0179 43.8712 97.0073 43.8077 96.9861 43.7731C96.9643 43.7395 96.9069 43.7179 96.8131 43.7097L96.0044 43.6204V42.5996H100.06V43.6204L99.1999 43.7221C99.1061 43.7395 99.0477 43.7603 99.0265 43.786C99.0047 43.8118 98.9947 43.871 98.9947 43.9647V50.4814C98.9947 50.5835 99.0047 50.6465 99.0265 50.6722C99.0477 50.698 99.1061 50.719 99.1999 50.7358L100.06 50.8385V51.8331H96.0044Z" fill="#212222"/>
<path d="M100.859 51.8323V50.8377L101.668 50.7476C101.762 50.7312 101.82 50.7075 101.841 50.6777C101.862 50.6482 101.873 50.5875 101.873 50.493V43.9509C101.873 43.8572 101.862 43.7936 101.841 43.7596C101.82 43.7259 101.762 43.7043 101.668 43.6959L100.859 43.6061V42.5986H107.688V45.1751L106.276 45.1111L106.096 44.1423C106.071 44.0322 105.997 43.9761 105.878 43.9761H103.863V46.4884H106.866V47.9043H103.863V50.4672H106.16C106.228 50.4672 106.276 50.4619 106.301 50.4481C106.327 50.4353 106.348 50.3951 106.366 50.3271L106.571 49.2052H107.969V51.8321H100.859V51.8323Z" fill="#212222"/>
<path d="M116.338 51.2838C116.15 51.3939 115.932 51.4942 115.684 51.5829C115.436 51.6728 115.171 51.7471 114.888 51.8062C114.606 51.8653 114.315 51.9102 114.016 51.9402C113.715 51.9696 113.42 51.9847 113.13 51.9847C112.334 51.9847 111.651 51.8722 111.083 51.6468C110.513 51.4212 110.047 51.1025 109.683 50.6902C109.32 50.2786 109.053 49.7738 108.882 49.1798C108.711 48.584 108.625 47.9166 108.625 47.1767C108.625 46.4969 108.724 45.8674 108.92 45.2895C109.117 44.7118 109.414 44.2104 109.812 43.7849C110.21 43.3596 110.708 43.0285 111.307 42.7903C111.906 42.5521 112.604 42.4326 113.399 42.4326C113.938 42.4326 114.469 42.4965 114.991 42.6244C115.513 42.7519 115.954 42.9304 116.312 43.1596V45.6594L114.901 45.5443L114.696 44.2951C114.67 44.1754 114.601 44.099 114.49 44.0653C114.345 44.0231 114.171 43.9868 113.97 43.9567C113.769 43.9279 113.562 43.9116 113.348 43.9116C112.526 43.9116 111.876 44.1846 111.398 44.7285C110.918 45.2721 110.678 46.088 110.678 47.1767C110.678 48.3164 110.907 49.1602 111.365 49.7082C111.822 50.2565 112.454 50.5313 113.259 50.5313C113.472 50.5313 113.697 50.5164 113.932 50.486C114.167 50.4572 114.37 50.4159 114.542 50.3649C114.619 50.348 114.672 50.3228 114.702 50.2891C114.733 50.2547 114.755 50.1909 114.773 50.0978L114.965 48.9115H116.338V51.2838Z" fill="#212222"/>
<path d="M137.013 51.8331V50.8385L137.822 50.7484C137.916 50.732 137.973 50.7083 137.995 50.6785C138.015 50.649 138.027 50.5882 138.027 50.4938V45.2524H137.963L134.292 51.8331H131.314V50.8385L132.123 50.7484C132.217 50.732 132.275 50.7083 132.296 50.6785C132.318 50.649 132.329 50.5882 132.329 50.4938V43.9647C132.329 43.8712 132.318 43.8077 132.296 43.7731C132.275 43.7395 132.217 43.7179 132.123 43.7097L131.314 43.6204V42.5996H135.345V43.6204L134.484 43.7221C134.391 43.7395 134.332 43.7603 134.31 43.786C134.29 43.8118 134.279 43.871 134.279 43.9647V48.9381H134.343L137.899 42.5998H141.043V43.6206L140.183 43.7223C140.088 43.7397 140.031 43.7605 140.009 43.7861C139.989 43.812 139.978 43.8712 139.978 43.9649V50.4816C139.978 50.5836 139.989 50.6467 140.009 50.6723C140.031 50.6982 140.088 50.7192 140.183 50.736L141.043 50.8387V51.8333H137.013V51.8331Z" fill="#212222"/>
<path d="M145.217 42.4336C146.304 42.4336 147.102 42.6337 147.611 43.0335C148.12 43.4332 148.375 44.0065 148.375 44.7549C148.375 45.0525 148.328 45.3226 148.233 45.5646C148.139 45.8072 148.013 46.0217 147.855 46.2086C147.697 46.3958 147.513 46.5531 147.303 46.6808C147.093 46.8077 146.869 46.906 146.629 46.9739V47.0247C146.894 47.0761 147.145 47.1562 147.38 47.2675C147.616 47.3776 147.823 47.5244 148.003 47.7072C148.183 47.8905 148.324 48.1088 148.426 48.3638C148.529 48.6192 148.58 48.9205 148.58 49.2699C148.58 50.1114 148.26 50.7741 147.618 51.2591C146.977 51.7435 146.051 51.9855 144.846 51.9855C144.581 51.9855 144.304 51.9706 144.018 51.9406C143.731 51.9114 143.455 51.8691 143.19 51.8133C142.925 51.7584 142.68 51.6923 142.459 51.6158C142.236 51.5392 142.052 51.4585 141.906 51.3734V49.077H143.331L143.587 50.175C143.596 50.2425 143.614 50.2894 143.639 50.3144C143.665 50.3402 143.716 50.3656 143.794 50.3912C143.956 50.4505 144.132 50.491 144.319 50.5123C144.508 50.5333 144.687 50.5448 144.859 50.5448C145.346 50.5448 145.748 50.431 146.066 50.2062C146.381 49.981 146.54 49.6343 146.54 49.1671C146.54 48.6909 146.39 48.3632 146.091 48.1851C145.791 48.0059 145.419 47.9169 144.975 47.9169H143.614V46.4761H144.371C145.047 46.4761 145.549 46.3381 145.879 46.0616C146.208 45.7854 146.373 45.439 146.373 45.0221C146.373 44.5715 146.242 44.259 145.981 44.085C145.721 43.9109 145.402 43.8237 145.025 43.8237C144.82 43.8237 144.631 43.8382 144.461 43.8681C144.289 43.8981 144.123 43.9344 143.96 43.9766C143.857 44.0105 143.794 44.0829 143.768 44.1934L143.562 45.2773L142.137 45.3796V43.1988C142.309 43.0967 142.507 43.0012 142.734 42.9121C142.961 42.8228 143.21 42.7421 143.479 42.6693C143.748 42.5976 144.031 42.5401 144.326 42.4971C144.621 42.4552 144.918 42.4336 145.217 42.4336Z" fill="#212222"/>
<path d="M154.867 51.8331V50.8385L155.675 50.7484C155.769 50.732 155.827 50.7083 155.848 50.6785C155.869 50.649 155.881 50.5882 155.881 50.4938V45.2524H155.816L152.145 51.8331H149.168V50.8385L149.976 50.7484C150.07 50.732 150.128 50.7083 150.149 50.6785C150.171 50.649 150.182 50.5882 150.182 50.4938V43.9647C150.182 43.8712 150.171 43.8077 150.149 43.7731C150.128 43.7395 150.07 43.7179 149.976 43.7097L149.168 43.6204V42.5996H153.198V43.6204L152.338 43.7221C152.244 43.7395 152.186 43.7603 152.164 43.786C152.143 43.8118 152.132 43.871 152.132 43.9647V48.9381H152.196L155.752 42.5998H158.896V43.6206L158.036 43.7223C157.942 43.7397 157.884 43.7605 157.863 43.7861C157.842 43.812 157.831 43.8712 157.831 43.9649V50.4816C157.831 50.5836 157.842 50.6467 157.863 50.6723C157.884 50.6982 157.942 50.7192 158.036 50.736L158.896 50.8387V51.8333H154.867V51.8331Z" fill="#212222"/>
<path d="M165.187 51.8331V50.8385L165.996 50.7484C166.09 50.732 166.148 50.7083 166.169 50.6785C166.19 50.649 166.202 50.5882 166.202 50.4938V47.803H162.685V50.4814C162.685 50.5835 162.695 50.6465 162.717 50.6722C162.738 50.698 162.796 50.719 162.89 50.7358L163.75 50.8385V51.8331H159.682V50.8385L160.49 50.7484C160.584 50.732 160.642 50.7083 160.663 50.6785C160.685 50.649 160.695 50.5882 160.695 50.4938V43.9647C160.695 43.8712 160.685 43.8077 160.663 43.7731C160.642 43.7395 160.584 43.7179 160.49 43.7097L159.682 43.6204V42.5996H163.75V43.6204L162.89 43.7221C162.796 43.7395 162.738 43.7603 162.717 43.786C162.695 43.8118 162.685 43.871 162.685 43.9647V46.3743H166.202V43.9647C166.202 43.8712 166.19 43.8077 166.169 43.7731C166.148 43.7395 166.09 43.7179 165.996 43.7097L165.187 43.6204V42.5996H169.244V43.6204L168.384 43.7221C168.29 43.7395 168.231 43.7603 168.21 43.786C168.188 43.8118 168.178 43.871 168.178 43.9647V50.4814C168.178 50.5835 168.188 50.6465 168.21 50.6722C168.231 50.698 168.29 50.719 168.384 50.7358L169.244 50.8385V51.8331H165.187Z" fill="#212222"/>
<path d="M170.043 51.8331V50.8251L170.852 50.7358C170.946 50.7274 171.003 50.7066 171.025 50.6722C171.046 50.6381 171.057 50.5745 171.057 50.4814V43.9647C171.057 43.8712 171.046 43.8095 171.025 43.7796C171.003 43.7498 170.946 43.7269 170.852 43.7097L170.043 43.6204V42.5996H176.973V45.3162L175.574 45.2524L175.37 44.1304C175.352 44.062 175.331 44.0215 175.305 44.009C175.279 43.997 175.232 43.9901 175.164 43.9901H173.046V50.4812C173.046 50.5743 173.057 50.6356 173.079 50.6655C173.1 50.6955 173.157 50.7146 173.252 50.7236L175.075 50.8249V51.8329H170.043V51.8331Z" fill="#212222"/>
</g>
<defs>
<clipPath id="clip0_303_1732">
<rect width="176" height="55" fill="white" transform="translate(0.820312 0.500977)"/>
</clipPath>
</defs>
</svg>
