<svg width="102" height="32" viewBox="0 0 102 32" fill="none" xmlns="http://www.w3.org/2000/svg">
<path d="M61.3242 18.961H89.0922L75.2082 12.0732L61.3242 18.961Z" fill="#C1C7D2"/>
<path d="M56.6079 18.5786L62.382 15.7139L46.9777 8.06991C46.4663 7.81637 45.865 7.81662 45.3536 8.07016L23.5957 18.7905H28.5359L42.6823 11.6695L56.6079 18.5786Z" fill="#C1C7D2"/>
<path d="M64.7494 14.5738L72.4508 10.7528L52.3319 0.771718C51.823 0.518802 51.224 0.518802 50.7147 0.771718L14.2773 18.7897H18.9216L46.128 5.33513L64.7494 14.5738Z" fill="#C1C7D2"/>
<path d="M4.76872 31.033C4.93078 30.8042 5.09084 30.503 5.244 30.1382V30.1378L7.51977 24.7325C7.5743 24.6063 7.62644 24.5144 7.68046 24.451C7.74538 24.3753 7.84553 24.3188 7.98791 24.2784L8.37283 24.1781V23.5333H5.7263L5.64508 24.1638L6.51844 24.2753L4.90108 28.362H4.61518L3.11162 24.2733L4.04689 24.1605V23.5332H0.843241L0.759766 24.1802L1.15784 24.2769C1.24783 24.2967 1.32793 24.3316 1.39222 24.38C1.46103 24.4313 1.51957 24.5103 1.57083 24.6221L3.82605 29.9022L3.80148 29.9618C3.68015 30.254 3.55018 30.4579 3.40441 30.5845C3.24924 30.7195 3.02325 30.7877 2.73297 30.7877C2.51413 30.7877 2.29679 30.7583 2.08635 30.6998C1.95324 30.6626 1.83367 30.6214 1.72863 30.5769L1.36127 31.5626C1.54037 31.6517 1.75558 31.7262 2.00388 31.7837C2.64561 31.9329 3.22756 31.9116 3.65972 31.8186C3.87581 31.772 4.07597 31.6852 4.25533 31.5605C4.43732 31.4345 4.60991 31.2564 4.76872 31.033Z" fill="#C1C7D2"/>
<path d="M30.9706 31.6084C31.3444 31.5157 31.6669 31.3716 31.9301 31.1802C32.1881 30.9926 32.3931 30.7441 32.5393 30.443C32.6865 30.1402 32.7611 29.7684 32.7611 29.3389C32.7611 29.0361 32.7144 28.7546 32.6224 28.5021C32.5331 28.2573 32.3842 28.0429 32.1802 27.8649C31.9724 27.6839 31.6982 27.5404 31.3652 27.4371C31.0262 27.3324 30.6031 27.279 30.1075 27.279H28.3995V24.5085H30.4517C30.5428 24.5085 30.6045 24.519 30.6515 24.5422C30.7402 24.5869 30.7746 24.6846 30.792 24.7545L30.9717 25.6552L31.9668 25.6919V23.5342H25.9375V24.183L26.5456 24.2504C26.6893 24.2763 26.769 24.3151 26.815 24.3783C26.8561 24.4363 26.8737 24.5164 26.8737 24.6396V30.6575C26.8737 30.7774 26.8577 30.857 26.8205 30.9158C26.757 31.0168 26.6314 31.0389 26.5424 31.0467L25.9375 31.1138V31.7507H29.7052C30.164 31.7508 30.5901 31.7031 30.9706 31.6084ZM28.3995 30.7886V28.1824H29.539C29.7507 28.1824 29.9523 28.1971 30.1377 28.2254C30.3339 28.256 30.51 28.3163 30.6608 28.4042C30.8188 28.4965 30.9458 28.6274 31.0382 28.7922C31.1296 28.9566 31.1763 29.1677 31.1763 29.421C31.1763 29.6784 31.1333 29.8985 31.0488 30.0758C30.9621 30.2568 30.8369 30.4043 30.6762 30.514C30.5208 30.62 30.3375 30.6936 30.1316 30.7324C29.9369 30.7699 29.7177 30.7886 29.4801 30.7886H28.3995Z" fill="#C1C7D2"/>
<path d="M68.0605 30.9266C68.0142 30.9909 67.9344 31.0297 67.8011 31.0538L67.2658 31.1206V31.748H70.6166V31.1216L69.9597 31.0433C69.8197 31.0185 69.744 30.9845 69.6976 30.9291C69.652 30.8747 69.6328 30.795 69.6328 30.6545V24.6484C69.6328 24.508 69.6518 24.4278 69.6987 24.3722C69.7435 24.3186 69.8189 24.2846 69.9498 24.2608L70.6164 24.1813V23.5312H63.3783V24.1797L64.0098 24.2473C64.1477 24.272 64.2344 24.3155 64.2872 24.382C64.3397 24.4493 64.3618 24.5501 64.3618 24.719C64.3701 25.4645 64.3618 26.1583 64.3385 26.78C64.3142 27.4075 64.2697 27.9343 64.2061 28.3465C64.1496 28.7151 64.0755 29.0364 63.9865 29.3018C63.8938 29.5793 63.7662 29.814 63.6084 30.0004C63.4485 30.1894 63.2512 30.3397 63.0225 30.447C62.8391 30.5334 62.621 30.5986 62.373 30.6418L62.6045 31.9176C63.0831 31.8854 63.4921 31.792 63.8202 31.6392C64.1785 31.4722 64.479 31.2551 64.712 30.9935C64.9465 30.731 65.1302 30.4282 65.2577 30.0932C65.3874 29.7525 65.4798 29.3916 65.5332 29.0192C65.5805 28.7179 65.6197 28.3828 65.6509 28.0212C65.6827 27.6578 65.7039 27.2827 65.7158 26.9048C65.727 26.5238 65.7355 26.136 65.7394 25.754C65.7434 25.3775 65.7411 25.0107 65.733 24.6638L65.7299 24.5057H68.1183V30.6661C68.1187 30.7894 68.1011 30.8698 68.0605 30.9266Z" fill="#C1C7D2"/>
<path d="M7.9668 31.7498V31.0945L8.49284 31.0361C8.55426 31.0255 8.59173 31.0103 8.6054 30.9908C8.61918 30.9714 8.62645 30.9315 8.62645 30.871V26.6317C8.62645 26.571 8.61918 26.5296 8.6054 26.5075C8.59161 26.4856 8.55426 26.4716 8.49284 26.4662L7.9668 26.4081V25.7441H10.7971C11.181 25.7441 11.5026 25.7914 11.7613 25.8854C12.02 25.9799 12.2272 26.1083 12.3832 26.2714C12.5391 26.4346 12.6489 26.6225 12.713 26.8353C12.7768 27.048 12.809 27.2733 12.809 27.5113C12.809 27.8707 12.756 28.1788 12.6502 28.4363C12.5445 28.6933 12.3928 28.9033 12.1951 29.0665C11.9976 29.2295 11.7569 29.3486 11.4731 29.4227C11.1891 29.4978 10.8723 29.5351 10.5214 29.5351H9.91193V30.8623C9.91193 30.9285 9.91882 30.9699 9.93286 30.9866C9.94664 31.0033 9.98425 31.0173 10.0457 31.0281L11.2394 31.0944V31.7497H7.9668V31.7498ZM10.3296 28.6474C10.4686 28.6474 10.6063 28.6366 10.7427 28.6144C10.879 28.5921 11.0027 28.544 11.1143 28.4691C11.2257 28.3948 11.3157 28.287 11.3854 28.1458C11.4551 28.0045 11.4898 27.8182 11.4898 27.5857C11.4898 27.3866 11.4606 27.2262 11.4022 27.1047C11.3435 26.983 11.2657 26.8876 11.1682 26.8183C11.0706 26.7492 10.9566 26.704 10.8261 26.6813C10.6953 26.6592 10.5549 26.6485 10.4046 26.6485H9.9118V28.6472H10.3296V28.6474Z" fill="#C1C7D2"/>
<path d="M16.0568 31.7507V31.1041L16.7413 31.0287L16.4405 30.166H14.3703L14.078 31.0287L14.7375 31.1041V31.7507H12.4082V31.1041L12.7759 31.0123C12.8258 31.0013 12.8689 30.9845 12.9055 30.9623C12.9411 30.9411 12.968 30.9048 12.9846 30.8547L14.8128 25.7451H16.2903L18.1104 30.8712C18.127 30.9209 18.1521 30.9549 18.1857 30.9707C18.2188 30.9873 18.2605 31.0014 18.3109 31.0124L18.6948 31.1042V31.7508H16.0568V31.7507ZM15.4474 27.014H15.397L14.6289 29.2704H16.1903L15.4474 27.014Z" fill="#C1C7D2"/>
<path d="M22.5359 31.7504V31.1035L23.0033 31.0449C23.0645 31.0342 23.1021 31.0188 23.1161 30.9994C23.1299 30.9803 23.1369 30.9407 23.1369 30.8793V26.649H21.6009C21.6061 26.8923 21.6078 27.1496 21.6049 27.4203C21.6023 27.6914 21.5967 27.9622 21.5885 28.2329C21.5798 28.5043 21.5644 28.7681 21.5423 29.0253C21.52 29.2821 21.4925 29.5188 21.4589 29.7342C21.4196 30.0053 21.3528 30.2653 21.2585 30.5141C21.1641 30.7631 21.0291 30.9856 20.8535 31.1821C20.6784 31.3783 20.4569 31.5392 20.1901 31.6628C19.9228 31.7872 19.5915 31.8576 19.1966 31.8743L18.9961 30.7714C19.2075 30.7436 19.387 30.6956 19.5347 30.6266C19.6819 30.5571 19.8072 30.4617 19.9104 30.3404C20.0133 30.2186 20.0953 30.0662 20.1566 29.8835C20.2176 29.7016 20.2677 29.4833 20.3068 29.228C20.3513 28.9406 20.3818 28.5771 20.3985 28.1374C20.4152 27.6977 20.4204 27.2151 20.4152 26.6901C20.4152 26.6014 20.4054 26.545 20.3861 26.5202C20.3665 26.4952 20.3262 26.4774 20.265 26.4662L19.7223 26.4081V25.7441H25.1154V26.4081L24.5561 26.4743C24.4946 26.4856 24.457 26.4992 24.4433 26.5158C24.4295 26.5326 24.4226 26.574 24.4226 26.64V30.8708C24.4226 30.9372 24.4295 30.9783 24.4433 30.9949C24.4571 31.0117 24.4946 31.0254 24.5561 31.0363L25.1154 31.1031V31.7501H22.5359V31.7504Z" fill="#C1C7D2"/>
<path d="M36.8768 31.7512V31.1042L37.4029 31.0456C37.4641 31.0349 37.5016 31.0195 37.5153 31.0001C37.5291 30.981 37.5362 30.9414 37.5362 30.88V27.4706H37.4946L35.1068 31.7512H33.1699V31.1042L33.6961 31.0456C33.7573 31.0349 33.7947 31.0195 33.8085 31.0001C33.8223 30.981 33.8296 30.9414 33.8296 30.88V26.6331C33.8296 26.5723 33.8223 26.531 33.8085 26.5085C33.7947 26.4866 33.7573 26.4725 33.6961 26.4672L33.1699 26.4091V25.7451H35.7916V26.4091L35.232 26.4753C35.1711 26.4866 35.1335 26.5001 35.1192 26.5168C35.1054 26.5336 35.0985 26.5721 35.0985 26.6331V29.8681H35.1402L37.4527 25.7452H39.498V26.4092L38.9388 26.4754C38.8773 26.4867 38.8399 26.5003 38.8262 26.5169C38.8124 26.5337 38.8054 26.5723 38.8054 26.6332V30.8721C38.8054 30.9385 38.8123 30.9795 38.8262 30.9962C38.84 31.0129 38.8775 31.0266 38.9388 31.0376L39.498 31.1043V31.7513H36.8768V31.7512Z" fill="#C1C7D2"/>
<path d="M42.2127 25.6367C42.9191 25.6367 43.4382 25.7669 43.7695 26.0269C44.1008 26.2869 44.2665 26.6598 44.2665 27.1466C44.2665 27.3402 44.2355 27.5159 44.1743 27.6733C44.1132 27.8311 44.0309 27.9707 43.928 28.0923C43.8251 28.214 43.7057 28.3163 43.5691 28.3994C43.4328 28.482 43.2868 28.5459 43.1309 28.59V28.6231C43.3031 28.6565 43.4662 28.7086 43.6192 28.781C43.7724 28.8526 43.9072 28.9481 44.0239 29.067C44.1411 29.1862 44.2327 29.3282 44.2995 29.4941C44.3662 29.6602 44.3996 29.8562 44.3996 30.0835C44.3996 30.6309 44.1909 31.062 43.7738 31.3774C43.3561 31.6925 42.755 31.8499 41.9706 31.8499C41.7978 31.8499 41.6179 31.8402 41.4317 31.8207C41.2453 31.8017 41.0658 31.7742 40.8933 31.7379C40.7209 31.7022 40.5622 31.6592 40.4177 31.6094C40.2729 31.5596 40.153 31.5071 40.0586 31.4518V29.958H40.9853L41.1523 30.6723C41.1579 30.7162 41.1691 30.7466 41.1856 30.7629C41.2022 30.7797 41.2358 30.7962 41.2858 30.8129C41.3913 30.8514 41.5058 30.8778 41.6281 30.8916C41.75 30.9053 41.8674 30.9127 41.9788 30.9127C42.296 30.9127 42.5573 30.8388 42.7635 30.6925C42.9693 30.5461 43.0722 30.3205 43.0722 30.0166C43.0722 29.7069 42.9748 29.4937 42.7802 29.3778C42.5852 29.2613 42.343 29.2034 42.0541 29.2034H41.1691V28.2662H41.6615C42.1011 28.2662 42.428 28.1764 42.6426 27.9966C42.8565 27.817 42.9642 27.5917 42.9642 27.3205C42.9642 27.0274 42.8788 26.8241 42.7093 26.7109C42.5394 26.5976 42.3321 26.5409 42.0874 26.5409C41.954 26.5409 41.8313 26.5504 41.7198 26.5698C41.6088 26.5893 41.5002 26.6129 41.3943 26.6404C41.3276 26.6624 41.2859 26.7096 41.2695 26.7814L41.1356 27.4865L40.2089 27.553V26.1345C40.3203 26.0681 40.4499 26.0059 40.5972 25.948C40.7448 25.8899 40.9061 25.8374 41.0815 25.79C41.2565 25.7434 41.4402 25.706 41.6323 25.678C41.8244 25.6508 42.0178 25.6367 42.2127 25.6367Z" fill="#C1C7D2"/>
<path d="M48.3629 31.7512V31.1042L48.889 31.0456C48.9501 31.035 48.9875 31.0195 49.0015 31.0001C49.0153 30.981 49.0222 30.9414 49.0222 30.88V29.1298H46.7346V30.8719C46.7346 30.9383 46.7419 30.9794 46.7557 30.996C46.7694 31.0128 46.8072 31.0265 46.8686 31.0374L47.4276 31.1042V31.7512H44.7812V31.1042L45.3073 31.0456C45.3685 31.035 45.4058 31.0195 45.4198 31.0001C45.4336 30.981 45.4409 30.9414 45.4409 30.88V26.6331C45.4409 26.5723 45.4336 26.531 45.4198 26.5085C45.4057 26.4866 45.3685 26.4725 45.3073 26.4672L44.7812 26.4091V25.7451H47.4276V26.4091L46.8686 26.4753C46.8071 26.4866 46.7694 26.5001 46.7557 26.5168C46.7419 26.5336 46.7346 26.5721 46.7346 26.6331V28.2004H49.0222V26.6331C49.0222 26.5723 49.0153 26.531 49.0015 26.5085C48.9874 26.4866 48.95 26.4725 48.889 26.4672L48.3629 26.4091V25.7451H51.0008V26.4091L50.4415 26.4753C50.3805 26.4866 50.3425 26.5001 50.3287 26.5168C50.3146 26.5336 50.308 26.5721 50.308 26.6331V30.8719C50.308 30.9383 50.3146 30.9794 50.3287 30.996C50.3425 31.0128 50.3805 31.0265 50.4415 31.0374L51.0008 31.1042V31.7512H48.3629Z" fill="#C1C7D2"/>
<path d="M51.5215 31.7503V31.1034L52.0477 31.0448C52.1088 31.0341 52.1462 31.0187 52.16 30.9993C52.1736 30.9801 52.1808 30.9406 52.1808 30.8792V26.6237C52.1808 26.5628 52.1736 26.5214 52.16 26.4993C52.1462 26.4774 52.1088 26.4633 52.0477 26.4579L51.5215 26.3994V25.7441H55.963V27.42L55.0448 27.3784L54.9276 26.7482C54.9112 26.6766 54.8636 26.6402 54.7859 26.6402H53.475V28.2743H55.4286V29.1953H53.475V30.8624H54.9691C55.0138 30.8624 55.0448 30.8589 55.0613 30.8499C55.0777 30.8416 55.0915 30.8155 55.103 30.7712L55.2368 30.0415H56.1464V31.7502H51.5215V31.7503Z" fill="#C1C7D2"/>
<path d="M61.5915 31.3941C61.4688 31.4657 61.3269 31.531 61.1657 31.5887C61.0043 31.6471 60.832 31.6955 60.6481 31.7339C60.4646 31.7723 60.2752 31.8016 60.0807 31.8211C59.8853 31.8402 59.6935 31.8501 59.5048 31.8501C58.9871 31.8501 58.5427 31.7768 58.173 31.6302C57.8024 31.4835 57.4993 31.2762 57.2627 31.008C57.0262 30.7403 56.8526 30.4119 56.7414 30.0256C56.6299 29.638 56.5742 29.2039 56.5742 28.7226C56.5742 28.2804 56.6384 27.8709 56.7661 27.495C56.8941 27.1193 57.0875 26.7931 57.3463 26.5163C57.6055 26.2397 57.929 26.0243 58.3191 25.8694C58.7085 25.7144 59.1625 25.6367 59.6799 25.6367C60.0302 25.6367 60.3754 25.6783 60.715 25.7614C61.0543 25.8444 61.3412 25.9605 61.5746 26.1096V27.7356L60.6567 27.6608L60.523 26.8482C60.5063 26.7704 60.4615 26.7206 60.3893 26.6987C60.2951 26.6713 60.1818 26.6476 60.0511 26.6281C59.9205 26.6093 59.7854 26.5988 59.6464 26.5988C59.1118 26.5988 58.6888 26.7763 58.3778 27.1301C58.0657 27.4837 57.9098 28.0144 57.9098 28.7226C57.9098 29.4639 58.0587 30.0127 58.3567 30.3692C58.654 30.7259 59.0648 30.9047 59.5882 30.9047C59.7271 30.9047 59.8731 30.895 60.0262 30.8752C60.1793 30.8564 60.3112 30.8296 60.4229 30.7964C60.4729 30.7854 60.5076 30.769 60.5269 30.7471C60.5469 30.7247 60.5619 30.6832 60.5731 30.6227L60.6984 29.851H61.5915V31.3941Z" fill="#C1C7D2"/>
<path d="M75.0388 31.7512V31.1042L75.565 31.0456C75.6259 31.0349 75.6632 31.0195 75.6773 31.0001C75.6907 30.981 75.6982 30.9414 75.6982 30.88V27.4706H75.6565L73.2688 31.7512H71.332V31.1042L71.8581 31.0456C71.9189 31.0349 71.9566 31.0195 71.9704 31.0001C71.9847 30.981 71.9917 30.9414 71.9917 30.88V26.6331C71.9917 26.5723 71.9847 26.531 71.9704 26.5085C71.9567 26.4866 71.919 26.4725 71.8581 26.4672L71.332 26.4091V25.7451H73.9535V26.4091L73.394 26.4753C73.3331 26.4866 73.2951 26.5001 73.2808 26.5168C73.2675 26.5336 73.2604 26.5721 73.2604 26.6331V29.8681H73.3021L75.6148 25.7452H77.66V26.4092L77.1007 26.4754C77.0392 26.4867 77.0018 26.5003 76.9877 26.5169C76.9745 26.5337 76.9674 26.5723 76.9674 26.6332V30.8721C76.9674 30.9385 76.9745 30.9795 76.9877 30.9962C77.0018 31.0129 77.0392 31.0266 77.1007 31.0376L77.66 31.1043V31.7513H75.0388V31.7512Z" fill="#C1C7D2"/>
<path d="M80.3745 25.6367C81.0812 25.6367 81.6006 25.7669 81.9312 26.0269C82.2626 26.2869 82.4283 26.6598 82.4283 27.1466C82.4283 27.3402 82.3976 27.5159 82.3363 27.6733C82.275 27.8311 82.1927 27.9707 82.09 28.0923C81.9872 28.214 81.8675 28.3163 81.7312 28.3994C81.5948 28.482 81.4487 28.5459 81.293 28.59V28.6231C81.4652 28.6565 81.6283 28.7086 81.7813 28.781C81.9345 28.8526 82.0696 28.9481 82.1863 29.067C82.3032 29.1862 82.3951 29.3282 82.4618 29.4941C82.5286 29.6602 82.5619 29.8562 82.5619 30.0835C82.5619 30.6309 82.3534 31.062 81.936 31.3774C81.5187 31.6925 80.917 31.8499 80.133 31.8499C79.9603 31.8499 79.7803 31.8402 79.5942 31.8207C79.4074 31.8017 79.2281 31.7742 79.0555 31.7379C78.8831 31.7022 78.7241 31.6592 78.58 31.6094C78.4352 31.5596 78.3152 31.5071 78.2207 31.4518V29.958H79.1473L79.3143 30.6723C79.3201 30.7162 79.3313 30.7466 79.3477 30.7629C79.3644 30.7797 79.3978 30.7962 79.4485 30.8129C79.5537 30.8514 79.6682 30.8778 79.7902 30.8916C79.9129 30.9053 80.0296 30.9127 80.1411 30.9127C80.4582 30.9127 80.7196 30.8388 80.9263 30.6925C81.1317 30.5461 81.2348 30.3205 81.2348 30.0166C81.2348 29.7069 81.1373 29.4937 80.9428 29.3778C80.7477 29.2613 80.5055 29.2034 80.2166 29.2034H79.3315V28.2662H79.8239C80.2633 28.2662 80.5902 28.1764 80.8047 27.9966C81.0189 27.817 81.1264 27.5917 81.1264 27.3205C81.1264 27.0274 81.0411 26.8241 80.8715 26.7109C80.7018 26.5976 80.4947 26.5409 80.2496 26.5409C80.1162 26.5409 79.9934 26.5504 79.8823 26.5698C79.7709 26.5893 79.6623 26.6129 79.5564 26.6404C79.4896 26.6624 79.4485 26.7096 79.4316 26.7814L79.2977 27.4865L78.3711 27.553V26.1345C78.4825 26.0681 78.6118 26.0059 78.7593 25.948C78.9068 25.8899 79.0685 25.8374 79.2437 25.79C79.4187 25.7434 79.6027 25.706 79.7946 25.678C79.9863 25.6508 80.1797 25.6367 80.3745 25.6367Z" fill="#C1C7D2"/>
<path d="M86.6523 31.7512V31.1042L87.1781 31.0456C87.2392 31.0349 87.2766 31.0195 87.2904 31.0001C87.3041 30.981 87.3117 30.9414 87.3117 30.88V27.4706H87.2699L84.8818 31.7512H82.9453V31.1042L83.4711 31.0456C83.5321 31.0349 83.5699 31.0195 83.5835 31.0001C83.5974 30.981 83.6046 30.9414 83.6046 30.88V26.6331C83.6046 26.5723 83.5974 26.531 83.5835 26.5085C83.5699 26.4866 83.5321 26.4725 83.4711 26.4672L82.9453 26.4091V25.7451H85.5666V26.4091L85.007 26.4753C84.946 26.4866 84.9085 26.5001 84.8944 26.5168C84.8807 26.5336 84.8735 26.5721 84.8735 26.6331V29.8681H84.9153L87.2281 25.7452H89.2732V26.4092L88.7138 26.4754C88.6522 26.4867 88.615 26.5003 88.601 26.5169C88.5877 26.5337 88.5805 26.5723 88.5805 26.6332V30.8721C88.5805 30.9385 88.5877 30.9795 88.601 30.9962C88.615 31.0129 88.6522 31.0266 88.7138 31.0376L89.2732 31.1043V31.7513H86.6523V31.7512Z" fill="#C1C7D2"/>
<path d="M93.3645 31.7512V31.1042L93.8908 31.0456C93.9517 31.035 93.9891 31.0195 94.0031 31.0001C94.0165 30.981 94.0242 30.9414 94.0242 30.88V29.1298H91.7365V30.8719C91.7365 30.9383 91.7435 30.9794 91.7577 30.996C91.7711 31.0128 91.8089 31.0265 91.87 31.0374L92.4293 31.1042V31.7512H89.7832V31.1042L90.309 31.0456C90.37 31.035 90.4078 31.0195 90.4218 31.0001C90.4356 30.981 90.4426 30.9414 90.4426 30.88V26.6331C90.4426 26.5723 90.4356 26.531 90.4218 26.5085C90.4078 26.4866 90.37 26.4725 90.309 26.4672L89.7832 26.4091V25.7451H92.4293V26.4091L91.87 26.4753C91.8091 26.4866 91.7712 26.5001 91.7577 26.5168C91.7435 26.5336 91.7365 26.5721 91.7365 26.6331V28.2004H94.0242V26.6331C94.0242 26.5723 94.0165 26.531 94.0031 26.5085C93.9891 26.4866 93.9517 26.4725 93.8908 26.4672L93.3645 26.4091V25.7451H96.0029V26.4091L95.4436 26.4753C95.3824 26.4866 95.3445 26.5001 95.3304 26.5168C95.3164 26.5336 95.3099 26.5721 95.3099 26.6331V30.8719C95.3099 30.9383 95.3164 30.9794 95.3304 30.996C95.3445 31.0128 95.3824 31.0265 95.4436 31.0374L96.0029 31.1042V31.7512H93.3645Z" fill="#C1C7D2"/>
<path d="M96.5234 31.7512V31.0955L97.0496 31.0374C97.1105 31.032 97.1479 31.0184 97.1619 30.996C97.1761 30.9739 97.1828 30.9325 97.1828 30.8719V26.6331C97.1828 26.5723 97.1761 26.5321 97.1619 26.5127C97.148 26.4933 97.1106 26.4784 97.0496 26.4672L96.5234 26.4091V25.7451H101.031V27.5122L100.121 27.4706L99.9882 26.7409C99.9765 26.6963 99.9629 26.67 99.9464 26.6619C99.9295 26.6541 99.8984 26.6496 99.8544 26.6496H98.4771V30.8718C98.4771 30.9324 98.484 30.9723 98.498 30.9917C98.5117 31.0112 98.5493 31.0236 98.6107 31.0295L99.7963 31.0954V31.751H96.5234V31.7512Z" fill="#C1C7D2"/>
</svg>
