<svg width="112" height="54" viewBox="0 0 112 54" fill="none" xmlns="http://www.w3.org/2000/svg">
<g clip-path="url(#clip0_303_1610)">
<path fill-rule="evenodd" clip-rule="evenodd" d="M56.1256 0.250162L42.9945 23.0898C41.944 24.9165 41.886 24.764 43.896 24.7629L69.507 24.7606C70.1569 24.7606 70.1569 24.7788 69.8097 24.2348C68.6374 22.4012 67.7121 20.8703 66.5637 19.0652C66.0026 18.182 65.9013 17.5879 65.108 18.0101C61.2928 20.0417 54.9453 21.0308 52.6621 18.3265C50.231 15.4447 52.7372 8.79894 56.1256 0.249023V0.250162Z" fill="#C1C7D2"/>
<path fill-rule="evenodd" clip-rule="evenodd" d="M59.736 7.39453C62.2844 7.39453 64.3502 9.4603 64.3502 12.0075C64.3502 14.5559 62.2844 16.6217 59.736 16.6217C57.1877 16.6217 55.123 14.5559 55.123 12.0075C55.123 9.45917 57.1888 7.39453 59.736 7.39453Z" fill="#C1C7D2"/>
<path fill-rule="evenodd" clip-rule="evenodd" d="M0.820313 37.0619C10.1635 28.4335 37.5114 26.1924 55.6094 26.1594C73.1417 26.1275 102.484 29.2973 111.171 37.2122C103.529 33.5177 91.7929 31.0365 81.6245 30.0076C72.7513 29.1107 63.7473 28.6133 55.565 28.6144C46.7226 28.6167 37.088 29.0492 28.1113 30.0178C18.7487 31.0285 7.71078 33.3697 0.820312 37.0608L0.820313 37.0619Z" fill="#C1C7D2"/>
<path d="M96.7829 37.8975H98.4799V40.5164H96.7829C96.116 40.5164 95.7278 40.0463 95.7278 39.212C95.7278 38.3675 96.108 37.8975 96.7829 37.8975ZM94.8742 39.212C94.8742 40.3457 95.3135 41.0832 96.0727 41.329C95.9043 41.4576 95.7859 41.6602 95.6755 41.938L94.7968 44.2359C94.7376 44.4066 94.7467 44.525 94.9152 44.525H95.2862C95.5651 44.525 95.6573 44.4931 95.7256 44.2792L96.4346 42.3227C96.6623 41.6807 96.9161 41.4781 97.5409 41.4781H98.4788V44.2462C98.4788 44.4487 98.53 44.5239 98.6985 44.5239H99.0695C99.2379 44.5239 99.2892 44.4487 99.2892 44.2462V37.2123C99.2892 37.0086 99.2391 36.9346 99.0695 36.9346H96.7055C95.5651 36.9346 94.8731 37.7688 94.8731 39.2109L94.8742 39.212Z" fill="#C1C7D2"/>
<path d="M91.8051 38.8808L92.6894 41.6921H90.5485L91.442 38.8706C91.5831 38.3789 91.5831 37.8974 91.5922 37.877H91.6457C91.6457 37.8986 91.6639 38.3789 91.8051 38.882V38.8808ZM94.4058 44.2473L92.1055 37.1383C92.0532 36.9562 91.9815 36.9141 91.8142 36.9141H91.4602C91.2917 36.9141 91.2212 36.9573 91.1677 37.1497L88.8686 44.2473C88.8151 44.4294 88.8504 44.525 89.0279 44.525H89.3375C89.6198 44.525 89.6983 44.4715 89.7609 44.2791L90.3095 42.5366H92.9284L93.477 44.2791C93.5305 44.4715 93.6102 44.525 93.9016 44.525H94.2464C94.4228 44.525 94.4593 44.4294 94.4058 44.2473Z" fill="#C1C7D2"/>
<path d="M87.7893 36.9346H87.4342C87.2726 36.9346 87.2248 37.0097 87.2248 37.2123V40.1943H84.4647V37.2123C84.4647 37.0086 84.4078 36.9346 84.2462 36.9346H83.8911C83.7374 36.9346 83.6816 37.0097 83.6816 37.2123V44.2462C83.6816 44.4487 83.7385 44.5239 83.8911 44.5239H84.2462C84.4078 44.5239 84.4647 44.4487 84.4647 44.2462V41.1572H87.2248V44.2462C87.2248 44.4487 87.2737 44.5239 87.4342 44.5239H87.7893C87.9509 44.5239 87.9998 44.4487 87.9998 44.2462V37.2123C87.9998 37.0086 87.9509 36.9346 87.7893 36.9346Z" fill="#C1C7D2"/>
<path d="M79.1219 40.8567H80.7756C81.5359 40.8567 81.9934 41.3074 81.9934 42.227C81.9934 43.1467 81.5359 43.5621 80.7756 43.5621H79.1219V40.8567ZM78.4936 44.5239H80.8553C82.1027 44.5239 82.8869 43.7454 82.8869 42.227C82.8869 40.7201 82.1118 39.8949 80.8553 39.8949H79.1219V37.2123C79.1219 37.0086 79.0593 36.9346 78.8828 36.9346H78.4936C78.3251 36.9346 78.2637 37.0097 78.2637 37.2123V44.2462C78.2637 44.4487 78.3251 44.5239 78.4936 44.5239Z" fill="#C1C7D2"/>
<path d="M76.5854 36.9346H73.1174C72.9489 36.9346 72.8874 37.0097 72.8874 37.2123V39.5637C72.8874 42.9839 72.3218 43.38 71.7732 43.7112C71.6138 43.7966 71.5786 43.9036 71.6582 44.0959L71.8346 44.5022C71.9052 44.6946 71.9849 44.7162 72.1442 44.6309C72.9762 44.1392 73.7274 43.5405 73.7274 39.5637V37.8963H75.9651V44.2462C75.9651 44.4487 76.0265 44.5239 76.195 44.5239H76.5842C76.7618 44.5239 76.8232 44.4487 76.8232 44.2462V37.2123C76.8232 37.0086 76.7618 36.9346 76.5842 36.9346H76.5854Z" fill="#C1C7D2"/>
<path d="M71.4858 44.2463L69.1856 37.1373C69.1321 36.9552 69.0615 36.9131 68.8942 36.9131H68.5403C68.3718 36.9131 68.3013 36.9563 68.2478 37.1487L65.9487 44.2463C65.8952 44.4284 65.9305 44.524 66.108 44.524H66.4176C66.6987 44.524 66.7784 44.4705 66.841 44.2782L67.3896 42.5356H70.0085L70.5571 44.2782C70.6106 44.4705 70.6903 44.524 70.9816 44.524H71.3265C71.5029 44.524 71.5382 44.4284 71.4858 44.2463ZM68.8851 38.8798L69.7695 41.6911H67.6286L68.5221 38.8696C68.6632 38.3779 68.6632 37.8965 68.6723 37.876H68.7258C68.7258 37.8976 68.7429 38.3779 68.8851 38.881V38.8798Z" fill="#C1C7D2"/>
<path d="M64.79 36.9346H64.4394C64.2801 36.9346 64.2323 37.0097 64.2323 37.2123V40.1943H61.5052V37.2123C61.5052 37.0086 61.4495 36.9346 61.2901 36.9346H60.9396C60.7882 36.9346 60.7324 37.0097 60.7324 37.2123V44.2462C60.7324 44.4487 60.7882 44.5239 60.9396 44.5239H61.2901C61.4495 44.5239 61.5052 44.4487 61.5052 44.2462V41.1572H64.2323V44.2462C64.2323 44.4487 64.2801 44.5239 64.4394 44.5239H64.79C64.9493 44.5239 64.9971 44.4487 64.9971 44.2462V37.2123C64.9971 37.0086 64.9493 36.9346 64.79 36.9346Z" fill="#C1C7D2"/>
<path d="M58.7584 39.5115V41.9484C58.7584 43.082 58.1836 43.7228 57.1399 43.7228C56.0962 43.7228 55.5214 43.082 55.5214 41.9484V39.5115C55.5214 38.3779 56.0962 37.7371 57.1399 37.7371C58.1836 37.7371 58.7584 38.3779 58.7584 39.5115ZM54.6621 39.5115V41.9484C54.6621 43.6374 55.5385 44.6845 57.1388 44.6845C58.7402 44.6845 59.6154 43.6374 59.6154 41.9484V39.5115C59.6154 37.8225 58.739 36.7754 57.1388 36.7754C55.5374 36.7754 54.6621 37.8236 54.6621 39.5115Z" fill="#C1C7D2"/>
<path d="M53.3304 36.9347H52.9321C52.808 36.9347 52.7466 36.9882 52.7022 37.0736L50.4019 41.1778C49.9683 41.9688 49.7293 42.4605 49.4379 43.2299H49.4117C49.5267 42.3535 49.5711 41.8835 49.5711 40.8569V37.2124C49.5711 37.0087 49.5096 36.9347 49.3321 36.9347H48.9428C48.7744 36.9347 48.7129 37.0099 48.7129 37.2124V44.2463C48.7129 44.4489 48.7744 44.524 48.9428 44.524H49.3412C49.4652 44.524 49.5176 44.4922 49.5802 44.3852L51.9248 40.1842C52.3493 39.3932 52.5622 38.9766 52.8365 38.2277H52.8718C52.7477 39.0825 52.7124 39.5104 52.7124 40.5256V44.2452C52.7124 44.4478 52.7659 44.5229 52.9423 44.5229H53.3316C53.5091 44.5229 53.5615 44.4478 53.5615 44.2452V37.2113C53.5615 37.0076 53.5091 36.9336 53.3316 36.9336L53.3304 36.9347Z" fill="#C1C7D2"/>
<path d="M47.7085 36.9346H44.3998C44.2314 36.9346 44.1699 37.0097 44.1699 37.2123V44.2462C44.1699 44.4487 44.2314 44.5239 44.3998 44.5239H44.7891C44.9655 44.5239 45.0281 44.4487 45.0281 44.2462V37.8963H47.7085C47.8849 37.8963 47.9384 37.8212 47.9384 37.6186V37.2123C47.9384 37.0086 47.8849 36.9346 47.7085 36.9346Z" fill="#C1C7D2"/>
<path d="M42.8414 36.9346H39.2846C39.1161 36.9346 39.0547 37.0097 39.0547 37.2123V44.2462C39.0547 44.4487 39.1161 44.5239 39.2846 44.5239H42.9472C43.1248 44.5239 43.1771 44.4487 43.1771 44.2462V43.8398C43.1771 43.6372 43.1236 43.5621 42.9472 43.5621H39.9129V41.1572H42.4339C42.6103 41.1572 42.6638 41.0934 42.6638 40.8795V40.4845C42.6638 40.2705 42.6103 40.1954 42.4339 40.1954H39.9129V37.8975H42.8414C43.0189 37.8975 43.0713 37.8223 43.0713 37.6197V37.2134C43.0713 37.0097 43.0178 36.9357 42.8414 36.9357V36.9346Z" fill="#C1C7D2"/>
<path d="M36.0451 40.8043H34.3914V37.8975H36.0451C36.8066 37.8975 37.2664 38.4426 37.2664 39.3623C37.2664 40.2819 36.8066 40.8055 36.0451 40.8055V40.8043ZM36.1248 36.9346H33.7631C33.5947 36.9346 33.5332 37.0097 33.5332 37.2123V44.2462C33.5332 44.4487 33.5947 44.5239 33.7631 44.5239H34.1524C34.3288 44.5239 34.3914 44.4487 34.3914 44.2462V41.7661H36.1248C37.3813 41.7661 38.1599 40.8681 38.1599 39.3611C38.1599 37.8428 37.3722 36.9346 36.1248 36.9346Z" fill="#C1C7D2"/>
<path d="M32.1754 36.9346H31.7418C31.4675 36.9346 31.3036 36.9323 31.282 37.1702C31.1818 38.2537 30.8472 39.2917 29.9856 40.2273C29.8798 40.2057 29.4234 40.2057 29.3004 40.2057H28.885V37.2123C28.885 37.0086 28.8315 36.9346 28.6551 36.9346H28.2658C28.0883 36.9346 28.0359 37.0097 28.0359 37.2123V40.2057H27.6205C27.5055 40.2057 27.2472 40.2057 27.1334 40.2273C26.0271 39.4021 25.8108 38.2537 25.6481 37.1702C25.6116 36.93 25.4534 36.9346 25.1791 36.9346H24.7455C24.577 36.9346 24.6078 37.0438 24.6305 37.202C24.8274 38.5735 25.4443 40.0748 26.3196 40.5266C25.9656 40.7406 25.7277 41.098 25.5058 41.617L24.3824 44.2359C24.313 44.3964 24.3289 44.525 24.4974 44.525H24.8866C25.178 44.525 25.2713 44.484 25.3555 44.2792L26.2934 41.9915C26.5518 41.3609 26.9581 41.1469 27.6216 41.1469H28.0371V44.2473C28.0371 44.4499 28.0906 44.525 28.267 44.525H28.6562C28.8326 44.525 28.8861 44.4499 28.8861 44.2473V41.1469H29.3016C29.9651 41.1469 30.5695 41.362 30.8279 41.9915L31.7657 44.2792C31.8499 44.484 31.9433 44.525 32.2346 44.525H32.6239C32.7923 44.525 32.8071 44.3975 32.7388 44.2359L31.6246 41.617C31.4026 41.0934 31.1556 40.7406 30.8017 40.5266C31.7452 39.5285 32.1641 38.5622 32.2927 37.202C32.3075 37.0473 32.345 36.9346 32.1777 36.9346H32.1754Z" fill="#C1C7D2"/>
<path d="M23.7007 36.9346H20.144C19.9755 36.9346 19.9141 37.0097 19.9141 37.2123V44.2462C19.9141 44.4487 19.9755 44.5239 20.144 44.5239H23.8066C23.9841 44.5239 24.0365 44.4487 24.0365 44.2462V43.8398C24.0365 43.6372 23.983 43.5621 23.8066 43.5621H20.7722V41.1572H23.2933C23.4697 41.1572 23.5232 41.0934 23.5232 40.8795V40.4845C23.5232 40.2705 23.4697 40.1954 23.2933 40.1954H20.7722V37.8975H23.7007C23.8783 37.8975 23.9307 37.8223 23.9307 37.6197V37.2134C23.9307 37.0097 23.8772 36.9357 23.7007 36.9357V36.9346Z" fill="#C1C7D2"/>
<path d="M18.2839 36.9347H17.9481C17.7626 36.9347 17.7091 36.978 17.6294 37.159L15.6035 41.5204L13.5685 37.1487C13.4888 36.978 13.4353 36.9347 13.2407 36.9347H12.9311C12.7626 36.9347 12.7012 37.0099 12.7012 37.2124V44.2463C12.7012 44.4489 12.7626 44.524 12.9311 44.524H13.2668C13.4433 44.524 13.4968 44.4489 13.4968 44.2463V40.3868C13.4968 39.7563 13.4615 39.1359 13.3556 38.3768H13.4091C13.6219 39.1246 13.7984 39.5844 14.0727 40.1512L15.2142 42.588C15.2939 42.7485 15.3474 42.7917 15.4885 42.7917H15.7093C15.8505 42.7917 15.9131 42.7382 15.9836 42.588L17.107 40.1717C17.3722 39.6049 17.593 39.0916 17.815 38.3757H17.8593C17.7535 39.1234 17.7 39.787 17.7 40.3857V44.2452C17.7 44.4478 17.7535 44.5229 17.9299 44.5229H18.2839C18.4523 44.5229 18.5138 44.4478 18.5138 44.2452V37.2113C18.5138 37.0076 18.4523 36.9336 18.2839 36.9336V36.9347Z" fill="#C1C7D2"/>
<path d="M97.0982 48.3062H98.5425V50.4562H97.0982C96.5302 50.4562 96.2001 50.0703 96.2001 49.3852C96.2001 48.692 96.5234 48.305 97.0982 48.305V48.3062ZM95.474 49.3863C95.474 50.3162 95.8473 50.9228 96.4949 51.1243C96.3515 51.2301 96.2502 51.3963 96.1569 51.6251L95.4091 53.5121C95.359 53.6521 95.3659 53.7489 95.5093 53.7489H95.8257C96.0624 53.7489 96.1421 53.7227 96.199 53.5474L96.8022 51.9415C96.9969 51.4145 97.212 51.2483 97.7435 51.2483H98.5414V53.5213C98.5414 53.6874 98.5846 53.7489 98.728 53.7489H99.0444C99.1878 53.7489 99.2311 53.6874 99.2311 53.5213V47.7462C99.2311 47.58 99.1878 47.5186 99.0444 47.5186H97.0321C96.0624 47.5186 95.4729 48.2037 95.4729 49.3886L95.474 49.3863Z" fill="#C1C7D2"/>
<path d="M94.4085 47.5166H94.0852C93.9851 47.5166 93.935 47.561 93.8986 47.6304L92.0297 51.0005C91.678 51.6504 91.4834 52.0533 91.2466 52.6862H91.225C91.3183 51.9668 91.3548 51.5799 91.3548 50.7376V47.7442C91.3548 47.5781 91.3047 47.5166 91.1613 47.5166H90.8449C90.7083 47.5166 90.6582 47.5781 90.6582 47.7442V53.5193C90.6582 53.6855 90.7083 53.7469 90.8449 53.7469H91.1681C91.2683 53.7469 91.3115 53.7207 91.3616 53.6331L93.2657 50.1833C93.6106 49.5334 93.7836 49.192 94.0055 48.5774H94.034C93.9338 49.2796 93.9043 49.6302 93.9043 50.4645V53.5193C93.9043 53.6855 93.9475 53.7469 94.0909 53.7469H94.4073C94.5507 53.7469 94.594 53.6855 94.594 53.5193V47.7442C94.594 47.5781 94.5507 47.5166 94.4073 47.5166H94.4085Z" fill="#C1C7D2"/>
<path d="M89.4089 47.5166H89.0925C88.9491 47.5166 88.9058 47.5781 88.9058 47.7442V50.1936H86.4485V47.7442C86.4485 47.5781 86.3984 47.5166 86.255 47.5166H85.9386C85.802 47.5166 85.752 47.5781 85.752 47.7442V53.5193C85.752 53.6855 85.802 53.7469 85.9386 53.7469H86.255C86.3984 53.7469 86.4485 53.6855 86.4485 53.5193V50.9823H88.9058V53.5193C88.9058 53.6855 88.9491 53.7469 89.0925 53.7469H89.4089C89.5523 53.7469 89.5955 53.6855 89.5955 53.5193V47.7442C89.5955 47.5781 89.5523 47.5166 89.4089 47.5166Z" fill="#C1C7D2"/>
<path d="M83.0154 49.1131L83.7336 51.4213H81.9945L82.7206 49.104C82.8356 48.7 82.8356 48.305 82.8424 48.2879H82.8857C82.8857 48.305 82.9005 48.7 83.0154 49.1131ZM85.1279 53.519L83.259 47.6824C83.2157 47.5333 83.1577 47.498 83.0222 47.498H82.7343C82.5977 47.498 82.5397 47.5333 82.4975 47.6915L80.6298 53.5201C80.5866 53.6692 80.615 53.7477 80.7596 53.7477H81.0111C81.2399 53.7477 81.3048 53.7033 81.3548 53.5463L81.801 52.1156H83.9282L84.3733 53.5463C84.4165 53.7045 84.4814 53.7477 84.7181 53.7477H84.9981C85.1415 53.7477 85.1711 53.6692 85.1279 53.5201V53.519Z" fill="#C1C7D2"/>
<path d="M79.9803 47.5166H76.674C76.5419 47.5166 76.4941 47.5781 76.4941 47.7442V53.5193C76.4941 53.6855 76.5431 53.7469 76.674 53.7469H76.979C77.1179 53.7469 77.1657 53.6855 77.1657 53.5193V48.3054H79.4943V53.5193C79.4943 53.6855 79.5433 53.7469 79.6742 53.7469H79.9792C80.1181 53.7469 80.1659 53.6855 80.1659 53.5193V47.7442C80.1659 47.5781 80.1169 47.5166 79.9792 47.5166H79.9803Z" fill="#C1C7D2"/>
<path d="M75.22 47.5158H74.9468C74.7955 47.5158 74.7522 47.5511 74.6885 47.7002L73.0427 51.2808L71.3901 47.6911C71.3252 47.5511 71.2819 47.5158 71.1237 47.5158H70.8722C70.7356 47.5158 70.6855 47.5772 70.6855 47.7434V53.5185C70.6855 53.6847 70.7356 53.7461 70.8722 53.7461H71.1454C71.2888 53.7461 71.332 53.6847 71.332 53.5185V50.3498C71.332 49.832 71.3036 49.3232 71.2171 48.6995H71.2603C71.4322 49.3141 71.5767 49.6908 71.7987 50.1563L72.7263 52.1572C72.7912 52.2893 72.8344 52.3245 72.9494 52.3245H73.1292C73.2441 52.3245 73.2942 52.2802 73.3523 52.1572L74.2651 50.1734C74.4802 49.7079 74.66 49.2868 74.8399 48.6983H74.8763C74.7898 49.313 74.7465 49.857 74.7465 50.3487V53.5173C74.7465 53.6835 74.7898 53.745 74.9332 53.745H75.2211C75.3577 53.745 75.4078 53.6835 75.4078 53.5173V47.7423C75.4078 47.5761 75.3577 47.5146 75.2211 47.5146L75.22 47.5158Z" fill="#C1C7D2"/>
<path d="M68.9831 49.6305V51.6314C68.9831 52.5613 68.5165 53.0883 67.6685 53.0883C66.8206 53.0883 66.3528 52.5613 66.3528 51.6314V49.6305C66.3528 48.7006 66.8195 48.1737 67.6685 48.1737C68.5165 48.1737 68.9831 48.7006 68.9831 49.6305ZM65.6562 49.6305V51.6314C65.6562 53.0177 66.3676 53.8782 67.6685 53.8782C68.9695 53.8782 69.6808 53.0177 69.6808 51.6314V49.6305C69.6808 48.2442 68.9695 47.3838 67.6685 47.3838C66.3676 47.3838 65.6562 48.2442 65.6562 49.6305Z" fill="#C1C7D2"/>
<path d="M65.194 53.5105L64.5771 51.3605C64.4258 50.8336 64.1333 50.5263 63.7599 50.3692C64.5919 49.9151 64.8173 49.124 65.0757 47.7138C65.0984 47.5909 65.1109 47.4987 64.9823 47.4987H64.6716C64.4679 47.4987 64.3654 47.4805 64.3518 47.5397C64.3142 47.7013 64.3233 48.6893 63.9079 49.3426C63.7076 49.6578 63.4344 49.9686 63.06 50.1996L62.22 50.2019V47.7446C62.22 47.5784 62.1699 47.5169 62.0265 47.5169H61.7101C61.5735 47.5169 61.5234 47.5784 61.5234 47.7446V53.5196C61.5234 53.6858 61.5735 53.7473 61.7101 53.7473H62.0265C62.1699 53.7473 62.22 53.6858 62.22 53.5196V50.9747H62.9826C63.5221 50.9747 63.7793 51.1318 63.9386 51.6678L64.4963 53.5458C64.5475 53.7165 64.6397 53.7473 64.8696 53.7473H65.0939C65.2373 53.7473 65.2339 53.6483 65.194 53.5105Z" fill="#C1C7D2"/>
<path d="M56.4868 48.3062H57.9312V50.4562H56.4868C55.9189 50.4562 55.5888 50.0703 55.5888 49.3852C55.5888 48.692 55.9121 48.305 56.4868 48.305V48.3062ZM54.8627 49.3863C54.8627 50.3162 55.236 50.9228 55.8836 51.1243C55.7402 51.2301 55.6389 51.3963 55.5456 51.6251L54.7978 53.5121C54.7477 53.6521 54.7545 53.7489 54.8979 53.7489H55.2144C55.4511 53.7489 55.5308 53.7227 55.5877 53.5474L56.1909 51.9415C56.3855 51.4145 56.6006 51.2483 57.1322 51.2483H57.93V53.5213C57.93 53.6874 57.9733 53.7489 58.1167 53.7489H58.4331C58.5765 53.7489 58.6198 53.6874 58.6198 53.5213V47.7462C58.6198 47.58 58.5765 47.5186 58.4331 47.5186H56.4208C55.4511 47.5186 54.8615 48.2037 54.8615 49.3886L54.8627 49.3863Z" fill="#C1C7D2"/>
<path d="M52.3142 49.1131L53.0324 51.4213H51.2933L52.0195 49.104C52.1344 48.7 52.1344 48.305 52.1412 48.2879H52.1845C52.1845 48.305 52.1993 48.7 52.3142 49.1131ZM54.4267 53.519L52.5578 47.6824C52.5146 47.5333 52.4577 47.498 52.3211 47.498H52.0331C51.8965 47.498 51.8385 47.5333 51.7964 47.6915L49.9286 53.5201C49.8854 53.6692 49.9139 53.7477 50.0584 53.7477H50.3099C50.5387 53.7477 50.6036 53.7033 50.6537 53.5463L51.0998 52.1156H53.2271L53.6732 53.5463C53.7165 53.7045 53.7813 53.7477 54.0181 53.7477H54.2981C54.4415 53.7477 54.4699 53.6692 54.4278 53.5201L54.4267 53.519Z" fill="#C1C7D2"/>
<path d="M48.9113 51.966C48.9113 52.6239 48.6165 52.9574 48.0781 52.9574H46.5325V50.9656H48.0781C48.6176 50.9656 48.9113 51.3161 48.9113 51.966ZM48.7531 49.2538C48.7531 49.8855 48.4731 50.1928 47.9552 50.1928H46.5325V48.3057H47.9552C48.4719 48.3057 48.7531 48.6221 48.7531 49.2538ZM48.0349 47.5158H46.0226C45.886 47.5158 45.8359 47.5772 45.8359 47.7434V53.5185C45.8359 53.6847 45.886 53.7461 46.0226 53.7461H48.0998C49.0194 53.7461 49.6522 53.1497 49.6522 52.0525C49.6522 51.2365 49.3574 50.7095 48.8475 50.5251V50.4989C49.2641 50.2531 49.4656 49.8058 49.4656 49.1297C49.4656 48.0849 48.934 47.5146 48.036 47.5146L48.0349 47.5158Z" fill="#C1C7D2"/>
<path d="M44.2253 49.6305V51.6314C44.2253 52.5613 43.7587 53.0883 42.9107 53.0883C42.0628 53.0883 41.5961 52.5613 41.5961 51.6314V49.6305C41.5961 48.7006 42.0628 48.1737 42.9107 48.1737C43.7587 48.1737 44.2253 48.7006 44.2253 49.6305ZM40.8984 49.6305V51.6314C40.8984 53.0177 41.6098 53.8782 42.9107 53.8782C44.2116 53.8782 44.923 53.0177 44.923 51.6314V49.6305C44.923 48.2442 44.2116 47.3838 42.9107 47.3838C41.6098 47.3838 40.8984 48.2442 40.8984 49.6305Z" fill="#C1C7D2"/>
<path d="M40.2957 47.5166H37.6085C37.472 47.5166 37.4219 47.5781 37.4219 47.7442V53.5193C37.4219 53.6855 37.472 53.7469 37.6085 53.7469H37.9249C38.0684 53.7469 38.1196 53.6855 38.1196 53.5193V48.3054H40.2969C40.4403 48.3054 40.4835 48.2439 40.4835 48.0777V47.7442C40.4835 47.5781 40.4403 47.5166 40.2969 47.5166H40.2957Z" fill="#C1C7D2"/>
<path d="M36.1698 47.5166H35.8534C35.71 47.5166 35.6667 47.5781 35.6667 47.7442V50.1936H33.2094V47.7442C33.2094 47.5781 33.1593 47.5166 33.0148 47.5166H32.6984C32.5618 47.5166 32.5117 47.5781 32.5117 47.7442V53.5193C32.5117 53.6855 32.5618 53.7469 32.6984 53.7469H33.0148C33.1582 53.7469 33.2094 53.6855 33.2094 53.5193V50.9823H35.6667V53.5193C35.6667 53.6855 35.71 53.7469 35.8534 53.7469H36.1698C36.3132 53.7469 36.3564 53.6855 36.3564 53.5193V47.7442C36.3564 47.5781 36.3132 47.5166 36.1698 47.5166Z" fill="#C1C7D2"/>
<path d="M31.262 47.5166H30.9387C30.8386 47.5166 30.7885 47.561 30.7521 47.6304L28.8832 51.0005C28.5315 51.6504 28.3369 52.0533 28.1002 52.6862H28.0785C28.1719 51.9668 28.2083 51.5799 28.2083 50.7376V47.7442C28.2083 47.5781 28.1582 47.5166 28.0148 47.5166H27.6984C27.5618 47.5166 27.5117 47.5781 27.5117 47.7442V53.5193C27.5117 53.6855 27.5618 53.7469 27.6984 53.7469H28.0216C28.1218 53.7469 28.165 53.7207 28.2162 53.6331L30.1204 50.1833C30.4653 49.5334 30.6371 49.192 30.8602 48.5774H30.8887C30.7885 49.2796 30.7589 49.6302 30.7589 50.4645V53.5193C30.7589 53.6855 30.8022 53.7469 30.9456 53.7469H31.262C31.4054 53.7469 31.4486 53.6855 31.4486 53.5193V47.7442C31.4486 47.5781 31.4054 47.5166 31.262 47.5166Z" fill="#C1C7D2"/>
<path d="M26.5123 49.1571C26.5123 48.0429 25.9307 47.4453 24.8164 47.4453C23.6453 47.4453 23.3038 47.9586 23.0022 48.6882C22.9385 48.8418 22.9897 48.9227 23.1172 48.9773L23.4188 49.1093C23.5497 49.1662 23.5963 49.1321 23.6555 48.9693C23.8262 48.5049 23.9605 48.1737 24.7732 48.1737C25.4629 48.1737 25.8078 48.5425 25.8078 49.2265C25.8078 49.7797 25.5562 50.1917 25.0316 50.1917H24.5467C24.4033 50.1917 24.3532 50.2441 24.3532 50.4205V50.7278C24.3532 50.9031 24.4033 50.9566 24.5467 50.9566H25.1112C25.6575 50.9566 25.9375 51.3606 25.9375 51.9923C25.9375 52.6684 25.5995 53.0895 24.8164 53.0895C23.5337 53.0895 23.816 52.3098 23.5292 52.3098L23.0568 52.3087C22.9134 52.3087 22.8417 52.4316 22.8861 52.5989C23.1445 53.5607 23.7887 53.8418 24.8324 53.8202C26.1037 53.7929 26.6694 53.1601 26.6694 52.0276C26.6694 51.3515 26.4759 50.7813 25.8931 50.5093C26.3245 50.2634 26.5112 49.7717 26.5112 49.1571H26.5123Z" fill="#C1C7D2"/>
<path d="M21.7542 47.5166H21.4309C21.3308 47.5166 21.2807 47.561 21.2443 47.6304L19.3754 51.0005C19.0237 51.6504 18.8291 52.0533 18.5923 52.6862H18.5707C18.664 51.9668 18.7005 51.5799 18.7005 50.7376V47.7442C18.7005 47.5781 18.6504 47.5166 18.507 47.5166H18.1906C18.054 47.5166 18.0039 47.5781 18.0039 47.7442V53.5193C18.0039 53.6855 18.054 53.7469 18.1906 53.7469H18.5138C18.614 53.7469 18.6572 53.7207 18.7073 53.6331L20.6114 50.1833C20.9563 49.5334 21.1293 49.192 21.3513 48.5774H21.3797C21.2796 49.2796 21.25 49.6302 21.25 50.4645V53.5193C21.25 53.6855 21.2932 53.7469 21.4366 53.7469H21.753C21.8964 53.7469 21.9397 53.6855 21.9397 53.5193V47.7442C21.9397 47.5781 21.8964 47.5166 21.753 47.5166H21.7542Z" fill="#C1C7D2"/>
<path d="M16.7454 47.5166H13.9285C13.7919 47.5166 13.7418 47.5781 13.7418 47.7442V49.6757C13.7418 52.4847 13.282 52.8091 12.8358 53.0811C12.7061 53.1517 12.6776 53.2393 12.7425 53.3975L12.8859 53.731C12.9439 53.8892 13.0077 53.9063 13.1374 53.8368C13.8124 53.4328 14.4236 52.9411 14.4236 49.6768V48.3076H16.2412V53.5216C16.2412 53.6877 16.2913 53.7492 16.4279 53.7492H16.7443C16.8877 53.7492 16.9389 53.6877 16.9389 53.5216V47.7465C16.9389 47.5803 16.8888 47.5189 16.7443 47.5189L16.7454 47.5166Z" fill="#C1C7D2"/>
</g>
<defs>
<clipPath id="clip0_303_1610">
<rect width="110.352" height="53.6293" fill="white" transform="translate(0.820312 0.25)"/>
</clipPath>
</defs>
</svg>
