<svg width="60" height="47" viewBox="0 0 60 47" fill="none" xmlns="http://www.w3.org/2000/svg">
<path fill-rule="evenodd" clip-rule="evenodd" d="M0.40625 9.2848V18.4487L7.87677 18.3426C13.9376 18.2564 15.5388 18.1488 16.3627 17.7728C16.9212 17.5178 17.7674 16.8952 18.2435 16.3892C19.0094 15.5751 19.1211 15.227 19.2151 13.3639C19.3129 11.4317 19.2586 11.1836 18.5548 10.3469C18.133 9.84589 17.5194 9.35037 17.1913 9.24622C16.6255 9.06664 16.6435 9.00658 17.542 8.07966C18.3146 7.28241 18.513 6.81503 18.6184 5.5449C18.7054 4.49758 18.6036 3.7102 18.3079 3.14215C18.0663 2.67709 17.5606 2.00953 17.1846 1.6582C16.8086 1.30716 15.7241 0.817442 14.7752 0.570262C13.4723 0.231115 11.5006 0.120871 6.7279 0.120871H0.40625V9.2848ZM21.5848 1.81748V3.5663L26.9317 3.65682C31.823 3.7395 32.3484 3.79898 33.0967 4.35426C33.5466 4.68819 34.2084 5.39288 34.5676 5.92031C34.9267 6.44775 35.2203 7.05583 35.2203 7.27168C35.2203 7.5882 34.1002 7.66392 29.418 7.66392H23.6156V9.25956V10.8552H29.418C34.1002 10.8552 35.2203 10.9309 35.2203 11.2474C35.2203 11.4633 34.9235 12.0804 34.5606 12.6185C34.1979 13.157 33.4605 13.8945 32.922 14.2571C31.9948 14.882 31.6707 14.9168 26.764 14.9168H21.5848V16.6837V18.4508L27.3146 18.3446C32.5655 18.2474 33.1712 18.1818 34.5609 17.5601C35.395 17.187 36.5972 16.3181 37.2323 15.6288C37.8676 14.9398 38.6124 13.8774 38.8874 13.2681C39.25 12.4656 39.391 11.3618 39.4003 9.25956C39.4116 6.67114 39.3307 6.20202 38.6481 4.9078C38.2274 4.10998 37.4473 3.03974 36.9143 2.52913C36.3817 2.01882 35.2928 1.30281 34.495 0.937841C33.1715 0.332947 32.542 0.265639 27.3146 0.171641L21.5848 0.0683594V1.81748ZM41.893 9.28248V18.4444L48.7833 18.3486C55.0823 18.2613 55.7719 18.2016 56.8187 17.6527C57.4482 17.3222 58.3621 16.5595 58.8495 15.9575C59.6525 14.965 59.7352 14.6694 59.7352 12.7865C59.7352 11.1276 59.6018 10.4955 59.0714 9.64281C58.6644 8.9883 57.8791 8.31523 57.0406 7.90297C55.8036 7.29431 55.1978 7.22062 50.6691 7.12836L45.6645 7.02624V5.31426V3.60228H52.1922H58.7198V1.86157V0.120871H50.3064H41.893V9.28248ZM13.9098 4.31452C14.3014 4.70617 14.622 5.28293 14.622 5.59625C14.622 5.90958 14.5408 6.37725 14.4418 6.63545C14.3426 6.89395 13.8923 7.29605 13.4406 7.52959C12.8346 7.84292 11.554 7.95404 8.54404 7.95404H4.46789V5.77816V3.60228H8.8327C13.0803 3.60228 13.217 3.62143 13.9098 4.31452ZM55.1659 11.3296C55.525 11.7247 55.8186 12.3731 55.8186 12.7703C55.8186 13.1677 55.4981 13.813 55.1064 14.2046C54.4136 14.8977 54.277 14.9168 50.0294 14.9168H45.6645V12.7621C45.6645 10.944 45.7437 10.5912 46.1722 10.5018C46.4513 10.4435 48.4424 10.4441 50.5965 10.5036C54.3289 10.6063 54.5439 10.6452 55.1659 11.3296ZM14.1334 10.8987C14.4819 11.0821 14.8631 11.376 14.9803 11.5515C15.0975 11.727 15.1953 12.3528 15.1979 12.942C15.2011 13.7236 15.0279 14.1359 14.5573 14.4651C14.038 14.8289 12.9947 14.9168 9.19013 14.9168H4.46789V12.741V10.5651H8.98385C11.8256 10.5651 13.7345 10.6887 14.1334 10.8987ZM0.40625 23.6204V25.3611H29.9498C46.1989 25.3611 59.5478 25.3068 59.6142 25.2407C59.6807 25.1748 59.6906 24.3915 59.6357 23.5L59.5365 21.8797H29.9712H0.40625V23.6204ZM0.40625 37.546V46.2495H2.13361H3.86126L3.94684 44.2912L4.03272 42.3329L14.4044 42.2566L24.7761 42.1806V35.5114V28.8425H12.5912H0.40625V37.546ZM28.406 29.3502C28.4594 29.6296 28.5131 32.6323 28.5253 36.0229L28.5476 42.1879H35.3654H42.1831V44.2187V46.2495H44.0689H45.9547V44.2187C45.9547 42.4893 46.0301 42.1835 46.4624 42.1586C46.7415 42.1423 49.8097 42.1539 53.2801 42.1844L59.5902 42.2398V35.5413V28.8425H43.9494C29.21 28.8425 28.3144 28.8718 28.406 29.3502ZM21.2947 35.6263C21.2947 38.5336 21.2338 38.9429 20.787 39.0462C20.5076 39.1109 16.728 39.1376 12.3875 39.106C8.04707 39.074 4.3591 38.9635 4.1917 38.8602C4.0098 38.7477 3.88766 37.3986 3.88766 35.4981V32.3239H12.5912H21.2947V35.6263ZM42.1831 35.6292C42.1831 38.3754 42.1057 38.9644 41.7242 39.1106C41.4718 39.2075 39.481 39.285 37.2999 39.2826C35.1191 39.2806 33.041 39.1999 32.6818 39.1039C32.0534 38.9354 32.029 38.806 32.029 35.6263V32.3239H37.1061H42.1831V35.6292ZM56.1088 35.6164V38.909L53.2801 39.0964C51.7242 39.1994 49.7334 39.2826 48.8558 39.2812C47.9782 39.28 46.9666 39.1999 46.6074 39.1039C45.979 38.9354 45.9547 38.806 45.9547 35.6263V32.3239H51.0317H56.1088V35.6164Z" fill="#C1C7D2"/>
</svg>
