<svg width="118" height="26" viewBox="0 0 118 26" fill="none" xmlns="http://www.w3.org/2000/svg">
<g clip-path="url(#clip0_303_1691)">
<path d="M78.4171 11.6201L78.4881 10.4903C78.6305 10.5608 78.8437 10.5608 79.0571 10.5608C80.053 10.5608 80.124 9.07786 80.124 4.84043H84.8184V11.6201H83.396V5.97044H81.4045C81.4045 9.64287 81.2622 11.6908 79.4129 11.6908C79.0571 11.7613 78.7017 11.6908 78.4171 11.6201ZM86.4543 4.91113H87.8056V7.38285C87.8056 8.08906 87.7346 9.36026 87.7346 9.99577L90.6508 4.91093H92.1444V11.6908H90.793V9.21906C90.793 8.51286 90.864 7.24165 90.864 6.60614L87.9478 11.6908H86.4541V4.91113H86.4543ZM93.2821 11.5494L93.4243 10.3489C93.9221 10.6313 94.5622 10.702 95.1314 10.702C95.7714 10.702 96.5537 10.5608 96.5537 9.71316C96.5537 8.79506 95.5578 8.72436 94.9178 8.72436C94.7756 8.72436 94.6334 8.72436 94.42 8.72436V7.66505C94.5622 7.66505 94.7046 7.66505 94.7756 7.66505C95.4156 7.66505 96.4825 7.52385 96.4825 6.67624C96.4825 5.97004 95.7712 5.82884 95.2024 5.82884C94.7046 5.82884 93.9931 5.97004 93.5663 6.11124L93.4241 5.05193C93.9931 4.91073 94.7756 4.76953 95.4156 4.76953C96.7671 4.76953 97.834 5.26383 97.834 6.53504C97.834 7.24125 97.3361 7.80625 96.5537 8.01796C97.4073 8.15916 97.9762 8.86556 97.9762 9.64227C97.9762 11.1254 96.8383 11.6902 95.2734 11.6902C94.5624 11.832 93.8512 11.6908 93.2821 11.5494ZM99.3279 4.91113H100.679V7.38285C100.679 8.08906 100.608 9.36026 100.608 9.99577L103.524 4.91093H105.018V11.6908H103.666V9.21906C103.666 8.51286 103.737 7.24165 103.737 6.60614L100.822 11.6908H99.3279V4.91113ZM106.725 4.91113H108.147V7.59475H110.85V4.91113H112.272V11.6908H110.85V8.72456H108.147V11.6908H106.725V4.91113H106.725ZM113.837 4.91113H117.82V6.04114H115.189V11.6908H113.766V4.91113H113.837ZM62.5562 21.8601H65.6146C66.7527 21.8601 67.4639 21.5777 67.9617 20.942C68.1749 20.6596 68.5308 20.0945 68.5308 19.0352C68.5308 17.9759 68.1751 17.2695 67.4639 16.7047C67.0371 16.4223 66.468 16.2104 65.5434 16.2104H62.485V21.8601H62.5562ZM58.5024 25.2501V4.91113H71.8737L70.7359 8.30095H62.5564V12.8206H65.8994C68.531 12.8206 69.9536 13.4563 70.8783 14.233C71.5895 14.8687 72.8696 16.2809 72.8696 19.0354C72.8696 21.7896 71.5895 23.2727 70.4515 24.0496C69.1712 24.897 67.8199 25.1794 65.117 25.1794H58.5026V25.2501H58.5024ZM46.6956 25.2501V8.30095H40.792V4.91113H57.2929L56.1551 8.30095H50.892V25.2501H46.6956ZM30.1946 13.0325H32.4706C33.182 13.0325 33.5374 13.0325 33.893 12.962C34.8177 12.6796 35.4577 11.832 35.4577 10.7022C35.4577 9.36046 34.8177 8.72476 33.893 8.44235C33.5374 8.30115 33.1818 8.23046 32.3994 8.23046H30.2657V13.0327H30.1946V13.0325ZM30.2659 16.5637V21.9308H33.1108C33.9645 21.9308 34.7469 21.8603 35.3157 21.3658C35.8846 20.8713 36.098 20.1652 36.098 19.3178C36.098 18.6823 35.8848 18.0468 35.6001 17.5523C35.0311 16.8459 34.2489 16.6342 32.9686 16.6342H30.2659V16.5637ZM36.8094 14.4451C37.5917 14.798 38.3031 15.2925 38.7297 15.5749C39.939 16.5637 40.4368 17.8347 40.4368 19.5297C40.4368 22.2839 38.9431 24.332 36.5248 24.9675C35.8136 25.1794 35.0311 25.2501 33.5374 25.2501H26.1406V4.91113H32.6842C34.0355 4.91113 34.9601 4.98183 35.7426 5.19353C38.0895 5.82923 39.6544 7.45335 39.6544 9.99577C39.6544 11.3375 39.1565 12.5382 38.3743 13.3151C38.0895 13.668 37.5917 14.0918 36.8094 14.4451Z" fill="#C1C7D2"/>
<path d="M21.9441 3.35722H4.58972L5.86999 0.25H23.2243L21.9441 3.35722ZM21.304 4.91104H3.94968L2.66941 8.01826H20.024L21.304 4.91104ZM19.4547 9.50138H2.10038L0.820312 12.6086H18.1747L19.4547 9.50138Z" fill="#C1C7D2"/>
</g>
<defs>
<clipPath id="clip0_303_1691">
<rect width="117" height="25" fill="white" transform="translate(0.820312 0.25)"/>
</clipPath>
</defs>
</svg>
