<svg width="104" height="87" viewBox="0 0 104 87" fill="none" xmlns="http://www.w3.org/2000/svg">
<path d="M98.3394 51.809L77.0757 48.2643L70.9135 39.021C69.3152 36.6257 66.6432 35.1953 63.7655 35.1953H32.002C29.1243 35.1953 26.4521 36.6257 24.854 39.021L18.6372 48.3483L5.51563 51.6285C2.64212 52.3458 0.632812 54.9172 0.632812 57.8789V68.6703C0.632812 71.2019 1.61864 73.5825 3.40987 75.3737C5.17594 77.1376 7.61735 78.1508 10.1133 78.1508H15.8843C16.8822 83.0465 21.2186 86.7419 26.406 86.7419C31.5935 86.7419 35.9298 83.0465 36.9277 78.1508H65.2829C66.2808 83.0465 70.6171 86.7419 75.8046 86.7419C80.992 86.7419 85.3284 83.0465 86.3263 78.1508H95.9524C97.5926 78.1508 99.0649 77.2427 99.799 75.7764L103.272 68.8255C103.348 68.6745 103.407 68.515 103.444 68.3515L103.671 67.3909C103.709 67.2314 103.725 67.0679 103.725 66.9042V58.1643C103.726 54.9992 101.46 52.327 98.3394 51.809ZM26.406 82.446C22.8529 82.446 19.9627 79.5558 19.9627 76.0027C19.9627 72.4497 22.8529 69.5594 26.406 69.5594C29.9591 69.5594 32.8493 72.4497 32.8493 76.0027C32.8493 79.5558 29.9591 82.446 26.406 82.446ZM75.8046 82.446C72.2515 82.446 69.3613 79.5558 69.3613 76.0027C69.3613 72.4497 72.2515 69.5594 75.8046 69.5594C79.3577 69.5594 82.2479 72.4497 82.2479 76.0027C82.2479 79.5558 79.3577 82.446 75.8046 82.446ZM99.4303 66.6545L95.9526 73.8549H86.3265C85.3286 68.9592 80.9922 65.2638 75.8048 65.2638C70.6173 65.2638 66.281 68.9592 65.2831 73.8549H36.9277C35.9298 68.9592 31.5935 65.2638 26.406 65.2638C21.2186 65.2638 16.8822 68.9592 15.8843 73.8549H10.1131C8.74976 73.8549 7.41157 73.3012 6.44688 72.3363C5.46952 71.3567 4.92828 70.0544 4.92828 68.6701V57.8789C4.92828 56.8911 5.59939 56.0354 6.55582 55.7941L20.4828 52.3123C21.0029 52.1845 21.4519 51.8655 21.7497 51.4209L28.428 41.4036C29.225 40.206 30.5632 39.4908 32.002 39.4908H63.7655C65.2043 39.4908 66.5425 40.206 67.3395 41.4036L74.0178 51.4209C74.345 51.9159 74.8651 52.2515 75.4524 52.348L97.6349 56.0458C98.6753 56.2178 99.4303 57.1092 99.4303 58.1643V66.6545Z" fill="#292D31"/>
<path d="M98.0702 18.6364C97.6351 18.1366 96.97 17.9047 96.3192 18.0324L90.4191 19.1937C90.4155 19.1954 90.4155 19.1954 90.4118 19.1954C89.6963 19.3428 88.9737 19.1164 88.4667 18.6093L88.0173 18.1599C86.3994 16.542 85.9607 14.0594 86.9244 11.9794C87.1689 11.4526 87.6937 11.0409 88.3266 10.8792L94.935 9.19652C95.5462 9.04189 96.0352 8.58525 96.2329 7.98675C96.4271 7.38807 96.3049 6.7302 95.9021 6.24474C93.0761 2.80386 88.9449 0.830078 84.573 0.830078C80.6216 0.830078 76.9148 2.38691 74.1356 5.21461C72.2445 7.13628 69.8463 8.19332 67.3798 8.19332H25.6662C21.6069 8.19332 18.3027 11.4956 18.3027 15.5567C18.3027 19.6179 21.6069 22.9203 25.6662 22.9203H67.3798C69.8463 22.9203 72.2445 23.9774 74.1356 25.899C76.9148 28.7267 80.6216 30.2836 84.573 30.2836C90.7643 30.2836 96.3263 26.3341 98.4117 20.4538C98.6311 19.83 98.5016 19.1362 98.0702 18.6364ZM84.573 26.602C81.6176 26.602 78.842 25.4353 76.7602 23.3176C74.1715 20.6875 70.8421 19.2387 67.3798 19.2387H25.6662C23.6347 19.2387 21.9845 17.5866 21.9845 15.5571C21.9845 13.5276 23.6347 11.8753 25.6662 11.8753H67.3798C70.8423 11.8753 74.1715 10.4263 76.7602 7.79639C80.4095 4.08595 86.5433 3.53042 90.7606 6.46063L87.4169 7.31283C85.7234 7.746 84.2925 8.9109 83.5877 10.4301C81.9734 13.905 82.7069 18.0595 85.4107 20.7615L85.8601 21.2109C87.2443 22.5969 89.2254 23.1883 91.1381 22.8056L93.1838 22.4029C91.131 25.002 87.9814 26.602 84.573 26.602Z" fill="#0B5AD2"/>
</svg>
