<svg width="93" height="111" viewBox="0 0 93 111" fill="none" xmlns="http://www.w3.org/2000/svg">
<path d="M91.7911 18.692L62.4579 0.358744C62.1665 0.176636 61.8298 0.0800768 61.4862 0.0800781H32.1529C31.8093 0.0800768 31.4726 0.176636 31.1813 0.358744L1.84801 18.692C1.58433 18.8568 1.3669 19.086 1.21616 19.358C1.06543 19.6299 0.986342 19.9358 0.986343 20.2467V57.3349C0.980591 64.2771 2.69262 71.1129 5.9698 77.2329C9.24699 83.3529 13.9875 88.5669 19.7688 92.4102L45.8021 109.772C46.1033 109.973 46.4574 110.08 46.8196 110.08C47.1817 110.08 47.5358 109.973 47.8371 109.772L73.8703 92.4102C79.6516 88.5669 84.3921 83.3529 87.6693 77.2329C90.9465 71.1129 92.6585 64.2771 92.6528 57.3349V20.2467C92.6528 19.9358 92.5737 19.6299 92.423 19.358C92.2722 19.086 92.0548 18.8568 91.7911 18.692ZM88.9861 57.3349C88.9919 63.674 87.4291 69.9159 84.4369 75.5043C81.4447 81.0927 77.1161 85.8538 71.8372 89.3632L46.8196 106.046L21.802 89.3632C16.523 85.8538 12.1944 81.0927 9.20224 75.5043C6.21004 69.9159 4.64718 63.674 4.653 57.3349V21.2624L32.6791 3.74674H60.96L88.9861 21.2624V57.3349Z" fill="#262637"/>
<path d="M54.0239 34.9121H38.085C37.063 34.9086 36.0604 35.1915 35.191 35.7287C34.3216 36.266 33.6201 37.0361 33.1661 37.9518L29.186 45.9121H24.819C23.8465 45.9121 22.9139 46.2984 22.2263 46.9861C21.5387 47.6737 21.1523 48.6063 21.1523 49.5788V58.7454C21.1523 59.2316 21.3455 59.698 21.6893 60.0418C22.0331 60.3856 22.4994 60.5787 22.9857 60.5787H26.9897C27.363 61.6504 28.0606 62.5793 28.9857 63.2367C29.9108 63.894 31.0175 64.2471 32.1523 64.2471C33.2872 64.2471 34.3939 63.894 35.3189 63.2367C36.244 62.5793 36.9416 61.6504 37.315 60.5787H56.3229C56.6963 61.6504 57.3939 62.5793 58.3189 63.2367C59.244 63.894 60.3507 64.2471 61.4856 64.2471C62.6204 64.2471 63.7271 63.894 64.6522 63.2367C65.5773 62.5793 66.2749 61.6504 66.6482 60.5787H70.6522C71.1384 60.5787 71.6048 60.3856 71.9486 60.0418C72.2924 59.698 72.4855 59.2316 72.4855 58.7454V51.4121C72.4859 50.9271 72.2941 50.4617 71.952 50.1178L68.3019 46.4511C68.1314 46.2801 67.9288 46.1444 67.7057 46.0519C67.4827 45.9594 67.2435 45.9119 67.0021 45.9121H64.2997L58.5999 37.3615C58.0977 36.6081 57.4173 35.9904 56.619 35.5631C55.8207 35.1358 54.9293 34.9122 54.0239 34.9121ZM55.5493 39.3946L59.8942 45.9121H48.6523V38.5788H54.0239C54.3257 38.5788 54.6228 38.6532 54.8889 38.7955C55.1549 38.9378 55.3818 39.1436 55.5493 39.3946ZM36.446 39.5926C36.5971 39.2873 36.8308 39.0305 37.1205 38.8513C37.4102 38.6721 37.7443 38.5777 38.085 38.5788H44.9856V45.9121H33.2853L36.446 39.5926ZM24.819 49.5788H44.9856V56.9121H37.315C36.9416 55.8404 36.244 54.9115 35.3189 54.2542C34.3939 53.5968 33.2872 53.2437 32.1523 53.2437C31.0175 53.2437 29.9108 53.5968 28.9857 54.2542C28.0606 54.9115 27.363 55.8404 26.9897 56.9121H24.819V49.5788ZM32.1523 60.5787C31.7897 60.5787 31.4353 60.4712 31.1338 60.2698C30.8323 60.0683 30.5973 59.782 30.4585 59.447C30.3198 59.112 30.2835 58.7434 30.3542 58.3877C30.425 58.0321 30.5996 57.7055 30.856 57.4491C31.1124 57.1927 31.439 57.0181 31.7946 56.9473C32.1503 56.8766 32.5189 56.9129 32.8539 57.0516C33.1889 57.1904 33.4752 57.4254 33.6767 57.7269C33.8781 58.0284 33.9856 58.3828 33.9856 58.7454C33.9856 59.2316 33.7925 59.698 33.4487 60.0418C33.1049 60.3856 32.6385 60.5787 32.1523 60.5787ZM61.4856 60.5787C61.123 60.5787 60.7685 60.4712 60.467 60.2698C60.1655 60.0683 59.9306 59.782 59.7918 59.447C59.653 59.112 59.6167 58.7434 59.6875 58.3877C59.7582 58.0321 59.9328 57.7055 60.1892 57.4491C60.4456 57.1927 60.7723 57.0181 61.1279 56.9473C61.4835 56.8766 61.8522 56.9129 62.1872 57.0516C62.5222 57.1904 62.8085 57.4254 63.0099 57.7269C63.2114 58.0284 63.3189 58.3828 63.3189 58.7454C63.3189 59.2316 63.1257 59.698 62.7819 60.0418C62.4381 60.3856 61.9718 60.5787 61.4856 60.5787ZM66.2412 49.5788L68.8189 52.1693V56.9121H66.6482C66.2749 55.8404 65.5773 54.9115 64.6522 54.2542C63.7271 53.5968 62.6204 53.2437 61.4856 53.2437C60.3507 53.2437 59.244 53.5968 58.3189 54.2542C57.3939 54.9115 56.6963 55.8404 56.3229 56.9121H48.6523V49.5788H66.2412Z" fill="#2E75DE"/>
</svg>
