<svg width="104" height="104" viewBox="0 0 104 104" fill="none" xmlns="http://www.w3.org/2000/svg">
<path d="M84.3079 90.4922H11.1186C5.18596 90.4922 0.355469 85.6618 0.355469 79.7291V75.4239C0.355469 67.1147 7.11472 60.3555 15.4239 60.3555H59.9832C61.1715 60.3555 62.1359 61.3198 62.1359 62.5081C62.1359 63.6963 61.1715 64.6607 59.9832 64.6607H15.4239C9.49122 64.6607 4.66072 69.4912 4.66072 75.4239V79.7291C4.66072 83.2896 7.55816 86.187 11.1186 86.187H84.3079C87.8684 86.187 90.7658 83.2896 90.7658 79.7291V75.4239C90.7658 72.7288 89.7627 70.1585 87.9373 68.1867C87.1279 67.3128 87.1838 65.9523 88.0578 65.1429C88.9232 64.3335 90.2922 64.3852 91.1016 65.2635C93.6589 68.036 95.0711 71.6438 95.0711 75.4239V79.7291C95.0711 85.6618 90.2406 90.4922 84.3079 90.4922Z" fill="#292D31"/>
<path d="M8.96598 103.408C4.21728 103.408 0.355469 99.5459 0.355469 94.7972V79.7288C0.355469 78.5405 1.31985 77.5762 2.5081 77.5762C3.69635 77.5762 4.66072 78.5405 4.66072 79.7288V94.7972C4.66072 97.1694 6.59378 99.1024 8.96598 99.1024C11.3382 99.1024 13.2712 97.1694 13.2712 94.7972V88.3393C13.2712 87.1511 14.2356 86.1867 15.4239 86.1867C16.6121 86.1867 17.5765 87.1511 17.5765 88.3393V94.7972C17.5765 99.5459 13.7147 103.408 8.96598 103.408Z" fill="#292D31"/>
<path d="M86.4601 103.408C81.7114 103.408 77.8496 99.5459 77.8496 94.7972V88.3393C77.8496 87.1511 78.814 86.1867 80.0022 86.1867C81.1905 86.1867 82.1549 87.1511 82.1549 88.3393V94.7972C82.1549 97.1694 84.0879 99.1024 86.4601 99.1024C88.8323 99.1024 90.7654 97.1694 90.7654 94.7972V79.7288C90.7654 78.5405 91.7297 77.5762 92.918 77.5762C94.1062 77.5762 95.0706 78.5405 95.0706 79.7288V94.7972C95.0706 99.5459 91.2088 103.408 86.4601 103.408Z" fill="#292D31"/>
<path d="M11.1175 64.6602C10.842 64.6602 10.5621 64.6086 10.2909 64.4923C9.19305 64.036 8.67642 62.7745 9.13278 61.6767L17.7002 41.1406C19.3836 37.1238 23.2712 34.5234 27.6066 34.5234H42.2014C43.3897 34.5234 44.3541 35.4878 44.3541 36.6761C44.3541 37.8643 43.394 38.8287 42.2014 38.8287H27.6066C25.0493 38.8287 22.6685 40.4259 21.674 42.8024L13.1065 63.3385C12.7578 64.1608 11.957 64.6602 11.1175 64.6602Z" fill="#292D31"/>
<path d="M28.3399 77.5767H15.4241C14.2359 77.5767 13.2715 76.6124 13.2715 75.4241C13.2715 74.2359 14.2359 73.2715 15.4241 73.2715H28.3399C29.5281 73.2715 30.4925 74.2359 30.4925 75.4241C30.4925 76.6124 29.5281 77.5767 28.3399 77.5767Z" fill="#292D31"/>
<path d="M80.002 77.5767H67.0862C65.898 77.5767 64.9336 76.6124 64.9336 75.4241C64.9336 74.2359 65.898 73.2715 67.0862 73.2715H80.002C81.1902 73.2715 82.1546 74.2359 82.1546 75.4241C82.1546 76.6124 81.1902 77.5767 80.002 77.5767Z" fill="#292D31"/>
<path d="M77.8511 60.3547C77.5669 60.3547 77.2828 60.2987 77.0158 60.1825C75.9912 59.7563 52.0195 49.3935 52.0195 28.2203V10.2286C52.0195 9.30731 52.6094 8.48501 53.4833 8.18795L77.1622 0.193091C77.61 0.0424072 78.0921 0.0424072 78.5399 0.193091L102.219 8.18795C103.093 8.48501 103.683 9.30731 103.683 10.2286V28.2203C103.683 49.3935 79.7109 59.7563 78.6863 60.1868C78.4193 60.2987 78.1352 60.3547 77.8511 60.3547ZM56.3248 11.7742V28.2203C56.3248 44.5157 73.7826 53.871 77.8511 55.8342C81.9152 53.8667 99.3773 44.4769 99.3773 28.2203V11.7742L77.8511 4.50696L56.3248 11.7742Z" fill="#2E75DE"/>
<path d="M75.6976 38.8278C75.6589 38.8278 75.6158 38.8278 75.5771 38.8235C74.9657 38.7891 74.3974 38.4963 74.0143 38.0185L65.4038 27.2553C64.6633 26.3254 64.8139 24.9735 65.7396 24.2287C66.6695 23.4839 68.0214 23.6389 68.7662 24.5645L75.8741 33.4506L89.242 20.0828C90.0815 19.2432 91.4463 19.2432 92.2858 20.0828C93.1253 20.9223 93.1253 22.2871 92.2858 23.1266L77.2174 38.195C76.817 38.604 76.2659 38.8278 75.6976 38.8278Z" fill="#2E75DE"/>
</svg>
