<svg width="54" height="49" viewBox="0 0 54 49" fill="none" xmlns="http://www.w3.org/2000/svg">
<path d="M28.5683 7.96559L6.82934 16.2245C4.10505 17.2595 2.73071 20.3179 3.7657 23.0422L8.83369 36.382C9.86868 39.1063 12.9271 40.4806 15.6514 39.4456L23.2477 36.5597C23.9298 36.3005 24.2727 35.5375 24.0136 34.8553C23.7544 34.1731 22.9913 33.8302 22.3091 34.0894L14.7129 36.9753C13.3507 37.4928 11.8215 36.8056 11.304 35.4435L7.78743 26.1872L34.467 16.0512L35.6167 19.0774C35.8758 19.7595 36.6389 20.1025 37.3211 19.8433C38.0033 19.5841 38.3462 18.821 38.087 18.1389L35.386 11.0292C34.3509 8.30487 31.2925 6.93059 28.5683 7.96559ZM33.5285 13.5809L6.84891 23.7169L6.23601 22.1036C5.71851 20.7415 6.40569 19.2123 7.76783 18.6948L29.5068 10.4359C30.8689 9.91836 32.3981 10.6055 32.9156 11.9677L33.5285 13.5809Z" fill="black"/>
<path d="M47.3879 20.8123C46.828 20.3442 45.9947 20.4186 45.5267 20.9786L38.3507 29.5622C38.1579 29.7545 37.9323 29.7822 37.8126 29.7812C37.6894 29.7806 37.4526 29.7466 37.2631 29.537L33.362 25.1839C32.8749 24.6404 32.0394 24.5948 31.4962 25.0818C30.9527 25.5688 30.907 26.4041 31.394 26.9475L35.299 31.3049C35.8842 31.9523 36.7005 32.3493 37.5662 32.4143C37.6405 32.4199 37.7153 32.4231 37.7902 32.4237C38.738 32.4317 39.6529 32.0392 40.3003 31.3471C40.3171 31.3291 40.3332 31.3108 40.349 31.292L47.5542 22.6734C48.0222 22.1135 47.9478 21.2802 47.3879 20.8123Z" fill="black"/>
</svg>
