<svg width="44" height="36" viewBox="0 0 44 36" fill="none" xmlns="http://www.w3.org/2000/svg">
<path d="M12.6962 26.6074C12.8795 26.7907 13.0043 27.0242 13.0549 27.2784C13.1054 27.5327 13.0795 27.7962 12.9803 28.0356C12.8811 28.2751 12.7131 28.4798 12.4976 28.6238C12.2821 28.7678 12.0287 28.8447 11.7695 28.8447C11.5103 28.8447 11.2569 28.7678 11.0414 28.6238C10.8259 28.4798 10.6579 28.2751 10.5587 28.0356C10.4595 27.7962 10.4336 27.5327 10.4841 27.2784C10.5347 27.0242 10.6595 26.7907 10.8428 26.6074C11.0886 26.3617 11.4219 26.2236 11.7695 26.2236C12.1171 26.2236 12.4504 26.3617 12.6962 26.6074ZM21.9631 15.487C21.7798 15.6703 21.655 15.9039 21.6044 16.1581C21.5538 16.4123 21.5798 16.6759 21.679 16.9153C21.7782 17.1548 21.9462 17.3595 22.1617 17.5035C22.3772 17.6475 22.6306 17.7244 22.8898 17.7244C23.149 17.7244 23.4024 17.6475 23.618 17.5035C23.8335 17.3595 24.0015 17.1548 24.1007 16.9153C24.1999 16.6759 24.2258 16.4123 24.1753 16.1581C24.1247 15.9039 23.9999 15.6703 23.8166 15.487C23.5708 15.2413 23.2374 15.1032 22.8898 15.1032C22.5422 15.1032 22.2089 15.2413 21.9631 15.487ZM43.7561 34.9478C43.7561 35.0837 43.7294 35.2183 43.6774 35.3439C43.6255 35.4694 43.5492 35.5835 43.4531 35.6797C43.357 35.7758 43.2429 35.852 43.1173 35.904C42.9918 35.9559 42.8572 35.9827 42.7212 35.9826H1.32846C1.05401 35.9826 0.790797 35.8735 0.596731 35.6795C0.402664 35.4854 0.293639 35.2222 0.293639 34.9478C0.293639 34.6733 0.402664 34.4101 0.596731 34.216C0.790797 34.022 1.05401 33.9129 1.32846 33.9129H9.29108C9.25698 33.8814 9.21769 33.8591 9.1846 33.826L5.47788 30.1193C4.89707 29.536 4.53016 28.7737 4.43656 27.9559C4.34295 27.1381 4.52814 26.3126 4.96212 25.6132L0.815188 18.7009C0.394252 18.0021 0.219667 17.1824 0.319322 16.3727C0.418977 15.563 0.787123 14.8101 1.36495 14.2342L9.59085 6.00919C10.1669 5.43202 10.9196 5.06432 11.729 4.9647C12.5383 4.86508 13.3577 5.03928 14.0565 5.45954L20.9691 9.60678C21.6686 9.1732 22.4939 8.98822 23.3115 9.08177C24.1292 9.17532 24.8914 9.54192 25.4749 10.1223L29.1816 13.829C29.7358 14.3868 30.0949 15.1088 30.2054 15.8873C30.316 16.6658 30.1721 17.4592 29.7951 18.1493L31.035 19.3891C31.1326 19.4849 31.2104 19.599 31.2637 19.7249C31.3169 19.8509 31.3447 19.9862 31.3454 20.1229C31.3461 20.2597 31.3197 20.3952 31.2677 20.5217C31.2157 20.6482 31.1391 20.7631 31.0424 20.8598C30.9457 20.9565 30.8308 21.0331 30.7043 21.0851C30.5778 21.1371 30.4423 21.1635 30.3055 21.1628C30.1687 21.1622 30.0335 21.1344 29.9075 21.0811C29.7816 21.0278 29.6674 20.9501 29.5717 20.8524L28.45 19.7306L15.0863 33.0943L15.9049 33.9129H42.7212C42.8572 33.9129 42.9918 33.9396 43.1173 33.9915C43.2429 34.0435 43.357 34.1197 43.4531 34.2159C43.5492 34.312 43.6255 34.4261 43.6774 34.5517C43.7294 34.6772 43.7561 34.8118 43.7561 34.9478ZM6.41464 24.0124L19.3681 11.059L12.9914 7.234C12.6886 7.05112 12.3331 6.97521 11.982 7.01846C11.6309 7.0617 11.3045 7.22159 11.0552 7.47249L2.82814 15.6985C2.57733 15.9481 2.41752 16.2747 2.37428 16.6259C2.33104 16.9771 2.40688 17.3327 2.58966 17.6357L6.41464 24.0124ZM12.8913 32.3628L27.7184 17.5357C28.0155 17.2379 28.1823 16.8345 28.1823 16.4139C28.1823 15.9934 28.0155 15.59 27.7184 15.2922L24.0117 11.5855C23.714 11.2884 23.3105 11.1216 22.89 11.1216C22.4694 11.1216 22.066 11.2884 21.7682 11.5855L6.94113 26.4126C6.64409 26.7103 6.47728 27.1137 6.47728 27.5343C6.47728 27.9549 6.64409 28.3583 6.94113 28.656L10.6479 32.3628C10.9456 32.6598 11.349 32.8266 11.7696 32.8266C12.1902 32.8266 12.5936 32.6598 12.8913 32.3628ZM43.0487 13.2701L38.0635 11.6077L43.6085 2.36609C43.7273 2.16819 43.7764 1.93629 43.7482 1.70723C43.7201 1.47817 43.6161 1.26511 43.4529 1.10192C43.2897 0.938731 43.0767 0.834775 42.8476 0.806581C42.6185 0.778386 42.3866 0.827571 42.1887 0.946316L32.9471 6.49129L31.2847 1.50611C31.1994 1.31727 31.0615 1.15704 30.8874 1.04465C30.7134 0.932251 30.5106 0.872467 30.3034 0.872467C30.0962 0.872467 29.8934 0.932251 29.7194 1.04465C29.5453 1.15704 29.4074 1.31727 29.3221 1.50611L27.2525 7.71503C27.209 7.84403 27.1913 7.98035 27.2006 8.11618C27.2098 8.25202 27.2458 8.38469 27.3064 8.50659C27.3671 8.62848 27.4512 8.73721 27.5539 8.82654C27.6567 8.91586 27.7761 8.98403 27.9052 9.02712C28.0344 9.07021 28.1707 9.08739 28.3065 9.07766C28.4423 9.06793 28.5749 9.03149 28.6966 8.97043C28.8183 8.90937 28.9267 8.82489 29.0157 8.72183C29.1046 8.61877 29.1724 8.49916 29.215 8.36986L30.3034 5.10573L31.3918 8.36986C31.4409 8.51677 31.5223 8.65079 31.6301 8.76204C31.7378 8.87329 31.8692 8.95894 32.0145 9.01267C32.1598 9.06639 32.3152 9.08683 32.4695 9.07248C32.6237 9.05812 32.7727 9.00934 32.9056 8.92972L39.7047 4.85007L35.625 11.6492C35.5454 11.782 35.4966 11.9311 35.4823 12.0853C35.4679 12.2395 35.4884 12.395 35.5421 12.5403C35.5958 12.6856 35.6815 12.8169 35.7927 12.9247C35.904 13.0325 36.038 13.1139 36.1849 13.163L39.4491 14.2514L36.185 15.3397C36.0557 15.3824 35.9361 15.4501 35.833 15.5391C35.73 15.6281 35.6455 15.7365 35.5844 15.8582C35.5234 15.9799 35.4869 16.1124 35.4772 16.2482C35.4675 16.384 35.4847 16.5204 35.5277 16.6496C35.5708 16.7787 35.639 16.8981 35.7283 17.0008C35.8177 17.1036 35.9264 17.1877 36.0483 17.2483C36.1702 17.309 36.3029 17.3449 36.4387 17.3542C36.5745 17.3634 36.7108 17.3458 36.8398 17.3023L43.0488 15.2326C43.2547 15.164 43.4339 15.0323 43.5609 14.8562C43.6878 14.6801 43.7562 14.4685 43.7562 14.2514C43.7562 14.0343 43.6878 13.8226 43.5609 13.6465C43.4339 13.4704 43.2547 13.3387 43.0488 13.2701H43.0487Z" fill="black"/>
</svg>
