<svg width="45" height="50" viewBox="0 0 45 50" fill="none" xmlns="http://www.w3.org/2000/svg">
<path d="M34.457 9.46856L32.1374 14.9671C31.1094 17.4042 28.2989 18.5466 25.8623 17.5187L24.3914 16.8981L28.5727 6.98626C23.4597 6.22985 18.3027 8.65472 15.6667 13.2176L12.7243 11.9764C12.4598 12.4346 12.212 12.9061 12.0015 13.4052C10.1924 17.6936 10.9152 22.407 13.4765 25.9107L1.90958 37.3281L5.09379 38.6713L17.9763 25.9545C15.0069 23.6829 13.5745 19.8518 14.4462 16.1687L24.6211 20.461C28.6765 22.1718 33.3688 20.2642 35.0798 16.2084L35.3695 15.5216C36.5068 17.9239 36.625 20.7603 35.5391 23.3346C33.4861 28.2011 27.8563 30.491 22.9889 28.4377L22.3714 28.1772L9.74941 40.6353L12.9358 41.9795L23.1706 31.8753C29.307 33.6551 35.9384 30.604 38.4814 24.5758C40.7943 19.0931 38.9792 12.9171 34.457 9.46856ZM23.6005 10.5569L21.449 15.6569L18.6426 14.473C19.8204 12.6237 21.5753 11.2513 23.6005 10.5569Z" fill="black" stroke="white"/>
</svg>
