<svg width="39" height="39" viewBox="0 0 39 39" fill="none" xmlns="http://www.w3.org/2000/svg">
<path d="M7.97399 36.4054C10.1441 38.5756 13.6755 38.5757 15.8458 36.4054L23.7176 28.5336C25.0198 27.2314 25.0198 25.1127 23.7176 23.8105L22.9302 23.023L28.273 17.677C28.7075 17.2422 28.7074 16.5376 28.2727 16.1029C27.8387 15.6689 27.8387 14.9625 28.2727 14.5285C28.7078 14.0935 29.412 14.0933 29.8471 14.5285C30.2815 14.963 30.9867 14.9632 31.4214 14.5285L36.1446 9.80541C36.5793 9.37065 36.5793 8.66582 36.1446 8.23106C35.7105 7.79697 35.7105 7.09072 36.1446 6.65671L37.7189 5.08236C37.9277 4.87359 38.045 4.59045 38.045 4.29515V1.14645C38.045 0.53164 37.5466 0.0332031 36.9318 0.0332031H33.7831C33.4878 0.0332031 33.2047 0.150465 32.9959 0.359235L31.4216 1.93358C30.9865 2.36864 30.2824 2.36879 29.8472 1.93358C29.4128 1.49912 28.7076 1.4989 28.2729 1.93358L23.5498 6.65671C23.115 7.09147 23.115 7.7963 23.5498 8.23106C23.9848 8.66604 23.9849 9.37028 23.5498 9.80541C23.1146 10.2405 22.4105 10.2406 21.9754 9.80541C21.5408 9.37087 20.8354 9.37065 20.4008 9.80563L15.0585 15.1512L14.2714 14.3643C12.9693 13.0622 10.8505 13.0622 9.54834 14.3643L1.67652 22.2361C-0.498759 24.4113 -0.49913 27.9324 1.67652 30.1079L7.97399 36.4054ZM21.3221 12.0334C22.5362 12.6145 24.0757 12.4281 25.124 11.3798C26.1503 10.3535 26.3677 8.82004 25.7762 7.57877L29.1936 4.16141C30.4088 4.74319 31.9482 4.5555 32.9958 3.50801L34.2441 2.25969H35.8184V3.83404L34.5701 5.08236C33.5439 6.10862 33.3264 7.64215 33.9178 8.88334L30.5005 12.3007C29.2852 11.7189 27.7458 11.9067 26.6984 12.9541C25.672 13.9805 25.4546 15.5141 26.0462 16.7554L21.3559 21.4486L16.6327 16.7255L21.3221 12.0334ZM3.25087 23.8105L11.1227 15.9386C11.5567 15.5046 12.263 15.5045 12.697 15.9386C13.635 16.8766 20.7255 23.9671 22.1432 25.3848C22.5773 25.8188 22.5773 26.5251 22.1432 26.9592L14.2715 34.831C12.9693 36.1332 10.8505 36.1331 9.54834 34.831L3.25087 28.5335C1.9457 27.2284 1.94555 25.1158 3.25087 23.8105Z" fill="black"/>
<path d="M9.54801 31.6819C9.9827 32.1166 10.6876 32.1167 11.1224 31.6819C11.5571 31.2472 11.5571 30.5423 11.1224 30.1076L7.97366 26.9589C7.53898 26.5241 6.83407 26.5241 6.39931 26.9589C5.96455 27.3936 5.96455 28.0985 6.39931 28.5332L9.54801 31.6819Z" fill="black"/>
</svg>
