<svg width="25" height="25" viewBox="0 0 25 25" fill="none" xmlns="http://www.w3.org/2000/svg">
<path d="M14.8613 12.2539C14.8613 13.5225 13.833 14.5508 12.5645 14.5508C11.2959 14.5508 10.2676 13.5225 10.2676 12.2539C10.2676 10.9854 11.2959 9.95703 12.5645 9.95703C13.833 9.95703 14.8613 10.9854 14.8613 12.2539Z" fill="#fff"/>
<path d="M17.9358 8.19061C17.8254 7.89142 17.6492 7.62061 17.4203 7.39832C17.1981 7.16943 16.9274 6.99329 16.6281 6.88287C16.3853 6.78857 16.0205 6.67633 15.3487 6.64575C14.6219 6.61261 14.4041 6.60547 12.5642 6.60547C10.7242 6.60547 10.5063 6.61243 9.77972 6.64557C9.10791 6.67633 8.74298 6.78857 8.50037 6.88287C8.20099 6.99329 7.93018 7.16943 7.70807 7.39832C7.47919 7.62061 7.30304 7.89124 7.19244 8.19061C7.09814 8.43341 6.9859 8.79834 6.95532 9.47016C6.92218 10.1967 6.91504 10.4146 6.91504 12.2546C6.91504 14.0945 6.92218 14.3124 6.95532 15.0391C6.9859 15.7109 7.09814 16.0757 7.19244 16.3185C7.30304 16.6179 7.479 16.8885 7.70789 17.1108C7.93018 17.3397 8.20081 17.5158 8.50018 17.6262C8.74298 17.7207 9.10791 17.833 9.77972 17.8635C10.5063 17.8967 10.724 17.9036 12.564 17.9036C14.4042 17.9036 14.6221 17.8967 15.3485 17.8635C16.0203 17.833 16.3853 17.7207 16.6281 17.6262C17.229 17.3944 17.704 16.9194 17.9358 16.3185C18.0301 16.0757 18.1423 15.7109 18.1731 15.0391C18.2062 14.3124 18.2132 14.0945 18.2132 12.2546C18.2132 10.4146 18.2062 10.1967 18.1731 9.47016C18.1425 8.79834 18.0303 8.43341 17.9358 8.19061ZM12.5642 15.7928C10.6099 15.7928 9.0257 14.2087 9.0257 12.2545C9.0257 10.3002 10.6099 8.71613 12.5642 8.71613C14.5183 8.71613 16.1025 10.3002 16.1025 12.2545C16.1025 14.2087 14.5183 15.7928 12.5642 15.7928ZM16.2424 9.40314C15.7858 9.40314 15.4155 9.0329 15.4155 8.57623C15.4155 8.11957 15.7858 7.74933 16.2424 7.74933C16.6991 7.74933 17.0693 8.11957 17.0693 8.57623C17.0692 9.0329 16.6991 9.40314 16.2424 9.40314Z" fill="#fff"/>
<path d="M12.5645 0.253906C5.93805 0.253906 0.564453 5.6275 0.564453 12.2539C0.564453 18.8803 5.93805 24.2539 12.5645 24.2539C19.1909 24.2539 24.5645 18.8803 24.5645 12.2539C24.5645 5.6275 19.1909 0.253906 12.5645 0.253906ZM19.4135 15.0948C19.3802 15.8283 19.2635 16.3291 19.0933 16.7675C18.7353 17.6931 18.0036 18.4247 17.078 18.7827C16.6398 18.953 16.1389 19.0695 15.4055 19.103C14.6707 19.1365 14.436 19.1445 12.5646 19.1445C10.6931 19.1445 10.4586 19.1365 9.72357 19.103C8.99023 19.0695 8.48926 18.953 8.05109 18.7827C7.59113 18.6097 7.17474 18.3385 6.83051 17.9879C6.48004 17.6438 6.20886 17.2272 6.03583 16.7675C5.86554 16.3293 5.7489 15.8283 5.71558 15.095C5.6817 14.36 5.67383 14.1252 5.67383 12.2539C5.67383 10.3826 5.6817 10.1478 5.71539 9.41302C5.74872 8.6795 5.86517 8.17871 6.03546 7.74036C6.2085 7.28058 6.47986 6.86401 6.83051 6.51996C7.17456 6.16931 7.59113 5.89813 8.0509 5.7251C8.48926 5.55481 8.99005 5.43835 9.72357 5.40485C10.4584 5.37134 10.6931 5.36328 12.5645 5.36328C14.4358 5.36328 14.6705 5.37134 15.4053 5.40503C16.1389 5.43835 16.6396 5.55481 17.078 5.72491C17.5378 5.89795 17.9543 6.16931 18.2986 6.51996C18.649 6.8642 18.9204 7.28058 19.0933 7.74036C19.2637 8.17871 19.3802 8.6795 19.4137 9.41302C19.4472 10.1478 19.4551 10.3826 19.4551 12.2539C19.4551 14.1252 19.4472 14.36 19.4135 15.0948Z" fill="#fff"/>
</svg>
