<svg width="338" height="39" viewBox="0 0 338 39" fill="none" xmlns="http://www.w3.org/2000/svg">
<path fill-rule="evenodd" clip-rule="evenodd" d="M25.7485 38.9303H19.2482V19.3173L9.4977 38.9303H0.307617V12.2566H6.69584V31.3092L16.2221 12.2566H25.7485V38.9303ZM38.0766 28.1711V38.9303H30.6797V12.2566H38.0766V22.5674H46.9305V12.2566H54.3274V38.9303H46.9305V28.1711H38.0766ZM65.1986 38.9303V17.5241H57.1292V12.2566H80.7769V17.5241H72.5955V38.9303H65.1986ZM83.6908 38.9303V12.2566H103.416V17.412H90.8636V22.9037H102.856V27.947H90.9756V33.6628H103.864V38.9303H83.6908ZM115.296 24.2485H118.546C120.115 24.2485 121.348 23.9123 122.02 23.352C122.805 22.7916 123.141 21.895 123.141 20.6622C123.141 19.4294 122.805 18.6448 122.02 18.0845C121.236 17.5241 120.115 17.2999 118.546 17.2999H115.296V24.2485ZM107.899 38.9303V12.2566H120.115C123.589 12.2566 126.279 12.9291 128.072 14.386C129.865 15.843 130.762 17.9724 130.762 20.7742C130.762 23.464 129.865 25.5934 128.072 27.1625C126.279 28.7315 123.813 29.516 120.675 29.516H115.296V38.9303H107.899ZM141.857 17.2999V38.9303H134.46V12.2566H158.108V38.9303H150.711V17.2999H141.857ZM178.842 28.6194L175.48 17.5241L171.781 28.6194H178.842ZM160.91 38.9303L171.221 12.1445H180.187L190.722 38.9303H182.428L180.523 33.6628H169.988L168.195 38.9303H160.91ZM201.033 24.2485H204.283C205.852 24.2485 207.085 23.9123 207.757 23.352C208.541 22.7916 208.878 21.895 208.878 20.6622C208.878 19.4294 208.541 18.6448 207.757 18.0845C206.972 17.5241 205.852 17.2999 204.283 17.2999H201.033V24.2485ZM193.636 38.9303V12.2566H205.852C209.326 12.2566 212.016 12.9291 213.809 14.386C215.602 15.843 216.499 17.9724 216.499 20.7742C216.499 23.464 215.602 25.5934 213.809 27.1625C212.016 28.7315 209.55 29.516 206.412 29.516H201.033V38.9303H193.636ZM226.249 38.9303V17.5241H218.18V12.2566H241.828V17.5241H233.758V38.9303H226.249ZM251.914 28.1711V38.9303H244.517V12.2566H251.914V22.5674H260.768V12.2566H268.165V38.9303H260.88V28.1711H251.914ZM273.208 38.9303V12.2566H292.933V17.412H280.381V22.9037H292.261V27.947H280.381V33.6628H293.382V38.9303H273.208ZM304.925 24.2485H308.175C309.744 24.2485 310.977 23.9123 311.65 23.352C312.434 22.7916 312.77 21.895 312.77 20.6622C312.77 19.4294 312.434 18.6448 311.65 18.0845C310.865 17.5241 309.744 17.2999 308.175 17.2999H304.925V24.2485ZM297.416 38.9303V12.2566H309.632C313.107 12.2566 315.796 12.9291 317.59 14.386C319.383 15.843 320.279 17.9724 320.279 20.7742C320.279 23.464 319.383 25.5934 317.59 27.1625C315.796 28.7315 313.331 29.516 310.193 29.516H304.813V38.9303H297.416Z" fill="#0B5AD2"/>
<path fill-rule="evenodd" clip-rule="evenodd" d="M331.263 0.824219C334.961 0.824219 337.987 3.85022 337.987 7.54867C337.987 11.2471 334.961 14.2731 331.263 14.2731C327.564 14.2731 324.538 11.2471 324.538 7.54867C324.538 3.85022 327.564 0.824219 331.263 0.824219ZM328.237 11.4713V3.62607H331.711C333.168 3.62607 334.513 4.07437 334.513 5.75548C334.513 7.10037 333.504 7.77282 332.271 7.88489C332.495 7.99697 332.72 8.10904 332.944 8.33319C333.84 9.22978 334.513 10.4626 335.185 11.5833H333.84C333.28 10.6867 332.72 9.67808 332.047 8.89356C331.599 8.33319 331.15 8.10904 330.478 8.10904H329.245V11.5833H328.237V11.4713ZM329.245 7.10037H331.487C332.383 7.10037 333.392 6.87622 333.392 5.75548C333.392 4.74682 332.495 4.52267 331.711 4.52267H329.245V7.10037ZM331.263 1.72081C334.513 1.72081 337.09 4.29852 337.09 7.54867C337.09 10.7988 334.513 13.3765 331.263 13.3765C328.012 13.3765 325.435 10.7988 325.435 7.54867C325.435 4.29852 328.124 1.72081 331.263 1.72081Z" fill="#0B5AD2"/>
</svg>
