<svg width="261" height="33" viewBox="0 0 261 33" fill="none" xmlns="http://www.w3.org/2000/svg">
<path fill-rule="evenodd" clip-rule="evenodd" d="M50.5836 16.5436C43.0549 28.2989 15.5158 36.9503 3.36423 28.8932C-5.02299 23.2798 6.5342 12.2509 14.3931 9.80739C9.30792 12.2509 -2.51343 22.4212 4.68505 27.3083C12.9402 32.9217 41.1397 26.4497 48.6023 15.4869C51.244 11.6565 49.1967 8.35448 44.9701 7.03366C50.3194 7.49595 53.9517 11.3924 50.5836 16.5436ZM13.9968 20.1758C13.7987 20.7702 13.7327 21.3646 14.3931 21.9589C16.2422 23.742 20.0726 20.5721 21.3274 19.3173C21.9878 22.9496 13.6666 28.8932 11.4873 24.7987C9.50604 21.1664 11.7514 16.7417 14.5912 14.2982C15.7139 13.3076 16.6385 12.7792 17.431 12.7792C18.2235 12.7792 19.2141 12.9774 19.2141 13.968C19.2141 16.0152 15.5818 19.3173 13.9968 20.1758ZM28.1957 17.4021V0.759766H36.7149C40.1491 0.759766 44.1776 2.34475 44.1115 6.30721C44.0455 10.3357 40.2151 11.9207 36.7149 11.9207H33.8752V17.4021H28.1957ZM33.8752 4.39202V8.2224H35.4602C37.3093 8.2224 38.2339 7.56199 38.2339 6.30721C38.2339 5.05243 37.3093 4.39202 35.4602 4.39202H33.8752Z" fill="white"/>
<path fill-rule="evenodd" clip-rule="evenodd" d="M15.912 5.97662H19.7424L22.5821 2.27832L22.1859 5.97662H26.0163L21.8557 8.22201L21.4594 11.9203L19.3461 9.60887L15.1855 11.9203L18.0253 8.22201L15.912 5.97662Z" fill="#F1121F"/>
<path fill-rule="evenodd" clip-rule="evenodd" d="M76.5372 22.4869H72.7068V10.9298L66.9613 22.4869H61.5459V6.76917H65.3102V17.9961L70.9237 6.76917H76.5372V22.4869ZM83.8017 16.147V22.4869H79.443V6.76917H83.8017V12.8449H89.019V6.76917H93.3777V22.4869H89.019V16.147H83.8017ZM99.7837 22.4869V9.87309H95.0287V6.76917H108.963V9.87309H104.142V22.4869H99.7837ZM110.68 22.4869V6.76917H122.304V9.80705H114.907V13.0431H121.973V16.0149H114.973V19.383H122.568V22.4869H110.68ZM129.304 13.8356H131.219C132.144 13.8356 132.87 13.6374 133.266 13.3072C133.729 12.977 133.927 12.4487 133.927 11.7222C133.927 10.9958 133.729 10.5335 133.266 10.2033C132.804 9.87309 132.144 9.74101 131.219 9.74101H129.304V13.8356ZM124.945 22.4869V6.76917H132.144C134.191 6.76917 135.776 7.16541 136.833 8.02395C137.889 8.88248 138.418 10.1373 138.418 11.7883C138.418 13.3733 137.889 14.628 136.833 15.5526C135.776 16.4772 134.323 16.9395 132.474 16.9395H129.304V22.4869H124.945ZM144.956 9.74101V22.4869H140.597V6.76917H154.532V22.4869H150.173V9.74101H144.956ZM166.749 16.4112L164.768 9.87309L162.589 16.4112H166.749ZM156.183 22.4869L162.258 6.70312H167.542L173.75 22.4869H168.863L167.74 19.383H161.532L160.475 22.4869H156.183ZM179.825 13.8356H181.741C182.665 13.8356 183.392 13.6374 183.788 13.3072C184.25 12.977 184.448 12.4487 184.448 11.7222C184.448 10.9958 184.25 10.5335 183.788 10.2033C183.326 9.87309 182.665 9.74101 181.741 9.74101H179.825V13.8356ZM175.467 22.4869V6.76917H182.665C184.712 6.76917 186.297 7.16541 187.354 8.02395C188.411 8.88248 188.939 10.1373 188.939 11.7883C188.939 13.3733 188.411 14.628 187.354 15.5526C186.297 16.4772 184.845 16.9395 182.995 16.9395H179.825V22.4869H175.467ZM194.685 22.4869V9.87309H189.93V6.76917H203.864V9.87309H199.109V22.4869H194.685ZM209.808 16.147V22.4869H205.449V6.76917H209.808V12.8449H215.025V6.76917H219.384V22.4869H215.091V16.147H209.808ZM222.356 22.4869V6.76917H233.979V9.80705H226.582V13.0431H233.583V16.0149H226.582V19.383H234.243V22.4869H222.356ZM241.045 13.8356H242.961C243.885 13.8356 244.612 13.6374 245.008 13.3072C245.47 12.977 245.668 12.4487 245.668 11.7222C245.668 10.9958 245.47 10.5335 245.008 10.2033C244.546 9.87309 243.885 9.74101 242.961 9.74101H241.045V13.8356ZM236.621 22.4869V6.76917H243.819C245.866 6.76917 247.451 7.16541 248.508 8.02395C249.565 8.88248 250.093 10.1373 250.093 11.7883C250.093 13.3733 249.565 14.628 248.508 15.5526C247.451 16.4772 245.999 16.9395 244.149 16.9395H240.979V22.4869H236.621Z" fill="white"/>
<path fill-rule="evenodd" clip-rule="evenodd" d="M256.566 0.0332031C258.745 0.0332031 260.528 1.81631 260.528 3.99566C260.528 6.17502 258.745 7.95813 256.566 7.95813C254.387 7.95813 252.604 6.17502 252.604 3.99566C252.604 1.81631 254.387 0.0332031 256.566 0.0332031ZM254.783 6.3071V1.68423H256.83C257.689 1.68423 258.481 1.94839 258.481 2.93901C258.481 3.7315 257.887 4.12775 257.16 4.19379C257.292 4.25983 257.425 4.32587 257.557 4.45795C258.085 4.98628 258.481 5.71273 258.877 6.37314H258.085C257.755 5.84481 257.425 5.25044 257.028 4.78816C256.764 4.45795 256.5 4.32587 256.104 4.32587H255.377V6.37314H254.783V6.3071ZM255.377 3.7315H256.698C257.226 3.7315 257.821 3.59942 257.821 2.93901C257.821 2.34464 257.292 2.21256 256.83 2.21256H255.377V3.7315ZM256.566 0.561531C258.481 0.561531 260 2.08047 260 3.99566C260 5.91085 258.481 7.4298 256.566 7.4298C254.651 7.4298 253.132 5.91085 253.132 3.99566C253.132 2.08047 254.717 0.561531 256.566 0.561531Z" fill="white"/>
</svg>
