<svg width="165" height="39" viewBox="0 0 165 39" fill="none" xmlns="http://www.w3.org/2000/svg">
<path fill-rule="evenodd" clip-rule="evenodd" d="M2.88216 0.889763C2.73048 0.920049 2.48598 0.993685 2.33888 1.05349C2.19178 1.11326 1.95323 1.24713 1.80875 1.35101C1.66432 1.45484 1.44796 1.63677 1.328 1.75524C1.20804 1.87371 1.03757 2.07964 0.949131 2.21288C0.860692 2.34611 0.736156 2.58979 0.672361 2.75437C0.608608 2.91899 0.530985 3.17774 0.499851 3.32938C0.453107 3.55707 0.445599 6.44974 0.456628 19.9356C0.465238 30.4528 0.484835 36.3334 0.51177 36.4551C0.53476 36.5591 0.603009 36.769 0.66341 36.9217C0.723855 37.0744 0.860056 37.3297 0.966056 37.489C1.0721 37.6482 1.28626 37.8964 1.44197 38.0404C1.59769 38.1844 1.86657 38.383 2.0395 38.4817C2.21367 38.5812 2.50321 38.6995 2.68852 38.7468C3.0212 38.8319 3.11494 38.8324 19.5288 38.8324C34.1089 38.8324 36.064 38.8249 36.2873 38.7683C36.4264 38.7331 36.6963 38.6279 36.8872 38.5344C37.1343 38.4135 37.3335 38.2712 37.5783 38.041C37.7674 37.863 37.9872 37.6196 38.0666 37.4999C38.146 37.3803 38.2697 37.1569 38.3414 37.0035C38.4132 36.8502 38.5003 36.5886 38.535 36.4221C38.5904 36.1567 38.5967 34.105 38.5865 19.735C38.5754 4.0872 38.5714 3.33934 38.4984 3.10066C38.4563 2.96323 38.3646 2.72956 38.2946 2.58139C38.2246 2.43323 38.0822 2.19875 37.9781 2.0603C37.8741 1.92185 37.6797 1.71503 37.5463 1.60071C37.4128 1.48636 37.1891 1.32331 37.0491 1.2383C36.9092 1.15334 36.7087 1.05324 36.6037 1.01591C36.4988 0.978542 36.2728 0.920727 36.1016 0.887388C35.8349 0.835469 33.4553 0.827325 19.4742 0.830761C6.28718 0.833985 3.10506 0.84531 2.88216 0.889763ZM28.7394 7.26406C29.2598 8.15673 30.1662 9.72191 30.7537 10.7423C31.3412 11.7626 31.83 12.6118 31.8399 12.6293C31.8499 12.6468 26.3099 12.6611 19.5289 12.6611C7.80427 12.6611 7.2011 12.6575 7.22812 12.5869C7.24373 12.5461 8.14606 10.9856 9.2333 9.1193C10.3205 7.25295 11.2284 5.70201 11.2507 5.67279C11.2831 5.6305 12.9725 5.62184 19.5424 5.63037L27.7934 5.6411L28.7394 7.26406ZM148.573 10.4171C148.089 10.4355 147.354 10.4909 146.94 10.5403C146.527 10.5898 145.892 10.6779 145.531 10.7362C145.169 10.7945 144.625 10.89 144.322 10.9484C144.018 11.0069 143.417 11.1416 142.986 11.2479C142.555 11.3541 141.992 11.5032 141.735 11.5791C141.478 11.6551 141.018 11.8034 140.713 11.9087C140.408 12.014 139.96 12.1804 139.716 12.2785C139.473 12.3765 139.14 12.516 138.977 12.5885C138.814 12.6609 138.413 12.8568 138.086 13.0238C137.76 13.1907 137.292 13.4475 137.047 13.5944C136.802 13.7413 136.42 13.9854 136.199 14.1368C135.977 14.2884 135.576 14.5887 135.308 14.8043C135.04 15.0198 134.616 15.3904 134.366 15.6278C134.116 15.8651 133.733 16.2634 133.516 16.5129C133.298 16.7623 133.025 17.0905 132.907 17.2421C132.79 17.3938 132.593 17.6706 132.468 17.8572C132.344 18.0438 132.224 18.2156 132.2 18.2389C132.173 18.2669 132.167 18.1661 132.185 17.942C132.199 17.7554 132.268 16.6669 132.338 15.5232C132.408 14.3796 132.494 13.0346 132.53 12.5343C132.565 12.0341 132.582 11.5628 132.568 11.487C132.551 11.3977 132.51 11.3383 132.451 11.3186C132.401 11.3018 130.184 11.2854 127.525 11.2822C124.865 11.279 122.601 11.2931 122.493 11.3136C122.367 11.3375 122.26 11.3915 122.193 11.4651C122.136 11.528 121.901 11.8849 121.671 12.2582C121.441 12.6314 121.135 13.1277 120.99 13.361C120.846 13.5943 119.825 15.2454 118.722 17.0301C117.619 18.8148 116.598 20.4658 116.453 20.6991C116.308 20.9324 115.942 21.5241 115.64 22.0141C115.337 22.504 114.922 23.1774 114.716 23.5106C114.511 23.8438 114.336 24.1097 114.328 24.1015C114.32 24.0933 114.093 22.3605 113.825 20.2508C113.556 18.1411 113.27 15.8977 113.188 15.2653C113.106 14.633 112.956 13.5014 112.855 12.7507C112.751 11.9757 112.649 11.3636 112.62 11.3342C112.58 11.2945 111.635 11.2798 108.53 11.2708C106.309 11.2644 103.896 11.2713 103.168 11.2863L101.843 11.3135L101.735 11.4992C101.675 11.6014 101.533 11.9285 101.42 12.2261C101.307 12.5237 100.813 13.8074 100.323 15.0789C99.8324 16.3503 99.0079 18.4881 98.4903 19.8296C97.9727 21.171 97.3615 22.7553 97.1321 23.3502C96.9026 23.9451 96.4443 25.1285 96.1137 25.98C95.7831 26.8316 95.4266 27.7573 95.3215 28.0373C95.2163 28.3172 95.0973 28.6757 95.0571 28.8339C95.0168 28.9921 94.9663 29.1373 94.9449 29.1566C94.9235 29.176 94.6291 29.2323 94.2909 29.2819C93.9526 29.3315 93.5326 29.3919 93.3577 29.416C93.1827 29.4401 92.7532 29.4892 92.4033 29.525C92.0534 29.5608 91.1467 29.6006 90.3885 29.6134C89.3094 29.6317 88.8533 29.6221 88.2888 29.5691C87.8923 29.5319 87.2942 29.4448 86.9598 29.3757C86.6255 29.3064 86.1674 29.1902 85.9418 29.1174C85.7163 29.0446 85.3218 28.8832 85.0652 28.7587C84.7963 28.6284 84.4817 28.4351 84.3229 28.3028C84.1712 28.1765 83.9747 27.9845 83.8861 27.876C83.7975 27.7675 83.6423 27.5208 83.5412 27.3278C83.4402 27.1348 83.3239 26.8487 83.2829 26.692C83.2214 26.4574 83.2126 26.3003 83.2327 25.8013C83.2462 25.468 83.2868 25.0617 83.323 24.8984C83.3591 24.7351 83.4384 24.4488 83.4992 24.2622C83.56 24.0755 83.6923 23.747 83.7931 23.5322C83.894 23.3173 84.0974 22.9642 84.2452 22.7474C84.3929 22.5307 84.6832 22.1858 84.8903 21.9809C85.0974 21.7761 85.4505 21.4869 85.675 21.3383C85.8995 21.1897 86.2325 20.9892 86.415 20.8927C86.5974 20.7962 86.9315 20.6443 87.1573 20.5551C87.383 20.466 87.7014 20.3533 87.8647 20.3047C88.028 20.2562 88.3716 20.169 88.6282 20.111C88.8848 20.053 89.2379 19.985 89.4129 19.9598C89.5879 19.9347 90.0347 19.8856 90.4059 19.8507C90.7771 19.8158 91.4758 19.7872 91.9585 19.7872C92.4413 19.7872 93.0825 19.8063 93.3833 19.8296C93.6842 19.8529 94.1785 19.9019 94.4817 19.9386C94.785 19.9751 95.3861 20.0616 95.8176 20.1306C96.5652 20.2502 96.6046 20.2526 96.6586 20.1807C96.6898 20.1392 96.7513 20.0359 96.7952 19.9509C96.8392 19.8661 97.0588 19.3507 97.2832 18.8057C97.5075 18.2607 97.9984 17.0799 98.374 16.1817C98.7496 15.2835 99.2906 13.9665 99.5763 13.255C99.9688 12.2771 100.083 11.9499 100.046 11.9147C100.018 11.8892 99.681 11.7993 99.2961 11.715C98.9111 11.6307 98.3385 11.5145 98.0236 11.4568C97.7086 11.3991 97.1169 11.3039 96.7086 11.2454C96.3004 11.1868 95.575 11.0999 95.0968 11.0523C94.6185 11.0048 93.8379 10.9464 93.3621 10.9227C92.8862 10.899 92.1513 10.8796 91.729 10.8796C91.3067 10.8796 90.608 10.8988 90.1764 10.9222C89.7448 10.9456 89.0767 10.9942 88.6918 11.0301C88.3069 11.0661 87.5974 11.1517 87.1153 11.2205C86.6331 11.2893 85.9555 11.4041 85.6095 11.4758C85.2634 11.5475 84.7214 11.671 84.4049 11.7504C84.0883 11.8298 83.573 11.9734 83.2596 12.0694C82.9462 12.1655 82.4035 12.35 82.0536 12.4795C81.7036 12.6089 81.1978 12.8098 80.9295 12.9258C80.6612 13.0417 80.1459 13.2848 79.7842 13.466C79.4226 13.6471 79.06 13.8336 78.9783 13.8803C78.8967 13.9271 78.6867 14.0483 78.5117 14.1496C78.3368 14.2509 77.955 14.4948 77.6634 14.6915C77.3718 14.8883 76.9805 15.1645 76.7939 15.3054C76.6072 15.4463 76.2255 15.7509 75.9455 15.9822C75.6656 16.2135 75.1021 16.7396 74.6935 17.1512C74.2848 17.5628 73.7599 18.1287 73.527 18.4086C73.2941 18.6886 72.9398 19.1371 72.7397 19.4054C72.5395 19.6737 72.2643 20.065 72.128 20.275C71.9917 20.4849 71.7858 20.8094 71.6704 20.9961C71.5549 21.1827 71.2825 21.6694 71.0649 22.0777C70.8037 22.5679 70.6121 22.9928 70.5009 23.329C70.4082 23.6089 70.2845 24.067 70.226 24.347C70.1676 24.6269 70.0954 25.0469 70.0658 25.2802C70.0361 25.5135 70.0115 26.1243 70.0112 26.6375C70.0108 27.339 70.0297 27.6865 70.0872 28.0373C70.1293 28.2939 70.2185 28.7138 70.2854 28.9704C70.3523 29.2271 70.4624 29.5993 70.5301 29.7976C70.5979 29.9959 70.7056 30.2822 70.7696 30.4338C70.8335 30.5855 70.9906 30.9195 71.1187 31.1761C71.2468 31.4328 71.4392 31.7859 71.5463 31.9608C71.6534 32.1358 71.8554 32.4412 71.9952 32.6395C72.1349 32.8378 72.3836 33.1623 72.5477 33.3606C72.7118 33.5589 73.0663 33.9471 73.3354 34.2232C73.6045 34.4994 74.0633 34.921 74.3549 35.1601C74.6465 35.3991 75.0777 35.7289 75.3132 35.8929C75.5486 36.0569 75.8254 36.2422 75.9282 36.3047C76.0311 36.3672 76.1438 36.4362 76.1788 36.4581C76.2138 36.4799 76.3474 36.5579 76.4757 36.6314C76.604 36.7048 76.93 36.8759 77.2 37.0115C77.47 37.1471 77.9522 37.3637 78.2715 37.4927C78.5909 37.6217 79.0952 37.8037 79.3924 37.897C79.6896 37.9903 80.1999 38.1324 80.5265 38.2128C80.8532 38.2931 81.3303 38.3984 81.587 38.4467C81.8436 38.4951 82.2488 38.5634 82.4874 38.5986C82.726 38.6337 83.2191 38.6911 83.5834 38.726C83.9476 38.7608 84.6495 38.8015 85.1432 38.8163C85.6696 38.832 86.3916 38.8228 86.8891 38.794C87.3557 38.7669 88.0686 38.7062 88.4734 38.659C88.8782 38.6118 89.5176 38.5179 89.8943 38.4504C90.2711 38.3829 90.7461 38.2944 90.9499 38.2537L91.3204 38.1797L91.4135 37.9551C91.4647 37.8317 91.5112 37.7353 91.517 37.7411C91.5228 37.7469 91.5009 37.8755 91.4685 38.0269C91.436 38.1783 91.4088 38.3356 91.408 38.3764C91.4066 38.4467 91.6824 38.4506 96.6181 38.4506C101.757 38.4506 101.831 38.4495 101.937 38.3662C101.997 38.3186 102.108 38.1288 102.19 37.9314C102.271 37.7388 103.164 35.4292 104.175 32.7991C105.186 30.1691 106.018 28.0222 106.024 28.0282C106.03 28.0343 106.103 28.5542 106.185 29.1835C106.268 29.8129 106.413 30.9386 106.508 31.6851C106.604 32.4317 106.842 34.2508 107.039 35.7276C107.235 37.2045 107.407 38.4309 107.42 38.4529C107.436 38.4776 108.827 38.4931 111.04 38.4931H114.635L115.455 37.1463C115.906 36.4056 116.851 34.8547 117.556 33.6999C118.26 32.5451 119.329 30.793 119.93 29.8063C120.532 28.8196 121.028 28.0179 121.034 28.0248C121.039 28.0316 120.924 30.3564 120.777 33.1909C120.605 36.5274 120.526 38.3596 120.552 38.387C120.579 38.4148 122.36 38.4294 125.726 38.4294C129.643 38.4294 130.865 38.4175 130.889 38.379C130.906 38.3513 130.983 37.2442 131.06 35.9189C131.137 34.5935 131.246 32.8601 131.302 32.0669C131.359 31.2737 131.406 30.5961 131.407 30.5611C131.407 30.5261 131.537 30.7456 131.695 31.0489C131.854 31.3522 132.047 31.7053 132.124 31.8336C132.202 31.9619 132.316 32.1432 132.376 32.2366C132.437 32.3299 132.61 32.578 132.76 32.788C132.91 32.9979 133.163 33.3261 133.322 33.5172C133.481 33.7083 133.749 34.0137 133.918 34.1959C134.087 34.3781 134.464 34.7429 134.756 35.0068C135.048 35.2706 135.478 35.6236 135.711 35.7912C135.944 35.9588 136.246 36.1676 136.381 36.2553C136.515 36.3429 136.634 36.4146 136.645 36.4146C136.655 36.4146 136.784 36.4877 136.93 36.577C137.076 36.6663 137.429 36.8563 137.713 36.9991C137.998 37.142 138.495 37.3626 138.816 37.4894C139.138 37.6163 139.649 37.7976 139.953 37.8924C140.256 37.9871 140.733 38.1218 141.013 38.1917C141.293 38.2616 141.732 38.3574 141.989 38.4045C142.245 38.4516 142.588 38.511 142.751 38.5364C142.914 38.5618 143.267 38.6093 143.536 38.6419C143.805 38.6746 144.292 38.7205 144.619 38.744C144.945 38.7675 145.518 38.7988 145.891 38.8135C146.264 38.8282 146.999 38.8187 147.524 38.7922C148.049 38.7658 148.794 38.7159 149.178 38.6814C149.563 38.6468 150.117 38.5896 150.409 38.5542C150.7 38.5189 151.263 38.4341 151.66 38.3659C152.056 38.2977 152.519 38.2129 152.687 38.1774C152.856 38.1419 153.266 38.0444 153.599 37.9606C153.932 37.8768 154.539 37.6978 154.947 37.5628C155.355 37.4278 155.947 37.2073 156.262 37.0727C156.577 36.9382 157.073 36.7069 157.365 36.5586C157.657 36.4104 158.067 36.1885 158.278 36.0655C158.488 35.9426 158.822 35.7294 159.02 35.5918C159.218 35.4542 159.599 35.1663 159.868 34.9519C160.136 34.7375 160.587 34.3321 160.871 34.0509C161.155 33.7698 161.575 33.3038 161.804 33.0154C162.034 32.727 162.312 32.3535 162.423 32.1855C162.533 32.0174 162.723 31.712 162.844 31.5068C162.965 31.3016 163.168 30.9142 163.295 30.6459C163.422 30.3776 163.607 29.9482 163.707 29.6915C163.806 29.4349 163.946 29.0341 164.018 28.8008C164.089 28.5675 164.196 28.1666 164.255 27.91C164.314 27.6534 164.4 27.2144 164.446 26.9344C164.492 26.6545 164.553 26.2059 164.582 25.9376C164.61 25.6693 164.633 25.0395 164.632 24.5379C164.632 24.0363 164.608 23.3778 164.578 23.0745C164.549 22.7712 164.512 22.5087 164.495 22.4911C164.479 22.4736 160.763 22.4641 156.239 22.4699L148.012 22.4806L147.577 24.4318C147.337 25.505 147.018 26.9976 146.866 27.7488C146.715 28.5 146.591 29.1347 146.591 29.1592C146.591 29.1897 147.291 29.2055 148.807 29.2093C150.026 29.2124 151.242 29.2267 151.508 29.2412L151.993 29.2674L151.593 29.465C151.373 29.5737 151.021 29.7338 150.811 29.8207C150.602 29.9075 150.325 30.0151 150.196 30.0598C150.068 30.1044 149.83 30.177 149.666 30.2211C149.503 30.2651 149.229 30.3305 149.057 30.3662C148.885 30.402 148.542 30.4533 148.293 30.4802C148.03 30.5087 147.657 30.5173 147.397 30.5008C147.152 30.4852 146.813 30.4439 146.644 30.4091C146.476 30.3742 146.199 30.3004 146.029 30.245C145.86 30.1896 145.578 30.0757 145.403 29.992C145.228 29.9082 145.028 29.8062 144.958 29.7652C144.888 29.7243 144.716 29.6153 144.576 29.523C144.436 29.4308 144.13 29.1637 143.895 28.9296C143.66 28.6954 143.389 28.3872 143.293 28.2446C143.196 28.102 143.039 27.8292 142.943 27.6383C142.846 27.4475 142.731 27.1849 142.686 27.0549C142.642 26.9248 142.567 26.6193 142.52 26.3759C142.462 26.0754 142.434 25.7603 142.434 25.3947C142.434 25.0984 142.462 24.6837 142.497 24.473C142.531 24.2623 142.607 23.9216 142.667 23.7159C142.727 23.5101 142.866 23.1385 142.978 22.89C143.089 22.6415 143.283 22.2777 143.409 22.0815C143.535 21.8853 143.736 21.6061 143.855 21.4609C143.974 21.3157 144.204 21.0726 144.366 20.9205C144.528 20.7684 144.776 20.5603 144.916 20.458C145.056 20.3558 145.263 20.218 145.377 20.1518C145.491 20.0857 145.712 19.9686 145.867 19.8916C146.023 19.8147 146.341 19.6852 146.575 19.604C146.808 19.5227 147.189 19.417 147.421 19.3691C147.653 19.3211 148.084 19.2623 148.38 19.2383C148.731 19.2099 149.063 19.2088 149.335 19.235C149.564 19.2571 149.856 19.295 149.984 19.3191C150.113 19.3433 150.342 19.3935 150.493 19.4307C150.645 19.4679 150.965 19.5659 151.205 19.6485C151.445 19.7311 151.904 19.9271 152.223 20.0842C152.543 20.2412 153.022 20.5154 153.287 20.6935C153.552 20.8716 153.795 21.0173 153.826 21.0173C153.857 21.0173 154.795 20.7011 155.91 20.3146C157.025 19.9282 158.434 19.4403 159.04 19.2304C159.647 19.0205 160.849 18.5996 161.712 18.2952C162.575 17.9907 163.323 17.7255 163.375 17.7059C163.468 17.6702 163.468 17.6694 163.309 17.3819C163.221 17.2234 163.084 16.9887 163.005 16.8604C162.926 16.7321 162.794 16.5317 162.712 16.415C162.629 16.2984 162.46 16.0693 162.335 15.906C162.21 15.7427 161.928 15.4136 161.709 15.1747C161.491 14.9357 161.102 14.5471 160.847 14.3111C160.591 14.075 160.134 13.6979 159.831 13.473C159.527 13.2481 159.082 12.9404 158.842 12.7892C158.601 12.638 158.08 12.3506 157.683 12.1505C157.286 11.9503 156.733 11.6977 156.453 11.5889C156.173 11.4802 155.734 11.3226 155.477 11.2387C155.221 11.1548 154.839 11.0415 154.629 10.9871C154.419 10.9326 154.056 10.8487 153.823 10.8006C153.59 10.7524 153.227 10.684 153.017 10.6485C152.807 10.613 152.375 10.5551 152.056 10.5198C151.737 10.4845 151.04 10.4368 150.508 10.4138C149.975 10.3909 149.52 10.3747 149.497 10.3779C149.473 10.3811 149.058 10.3987 148.573 10.4171ZM46.091 11.2896C46.0755 11.3052 46.1557 11.4918 46.2693 11.7044C46.3829 11.9171 47.3686 13.5316 48.4599 15.2922C49.5511 17.0529 50.7207 18.942 51.059 19.4902C51.3974 20.0385 52.1581 21.264 52.7497 22.2136C53.3411 23.1632 53.8251 23.9587 53.8251 23.9812C53.8251 24.0038 53.7518 24.0858 53.6623 24.1634C53.5728 24.241 52.7377 25.0013 51.8065 25.8528C50.8754 26.7043 50.0169 27.4869 49.8988 27.5919C49.7806 27.6969 49.3798 28.0601 49.008 28.3992C48.6362 28.7382 47.8453 29.4548 47.2504 29.9917C46.6555 30.5285 45.5753 31.5027 44.8499 32.1564C44.1245 32.8102 42.7308 34.0691 41.7527 34.9541C40.7746 35.839 39.7265 36.7851 39.4237 37.0565C39.1209 37.3279 38.7013 37.7239 38.4913 37.9366C38.2813 38.1492 38.1096 38.3471 38.1096 38.3763C38.1096 38.4179 38.5203 38.4322 39.9971 38.4419C41.0353 38.4487 41.9653 38.4428 42.0638 38.4288C42.1651 38.4144 42.3251 38.3444 42.4317 38.268C42.5355 38.1935 42.9511 37.8293 43.3553 37.4586C43.7596 37.088 44.2717 36.6185 44.4933 36.4153C44.7149 36.2121 46.0415 35.0091 47.4413 33.7418C48.8411 32.4746 50.8728 30.6345 51.9563 29.6527C53.0399 28.6709 54.1957 27.6195 54.5249 27.3162C54.8541 27.0129 55.7264 26.2135 56.4634 25.5397L57.8033 24.3146L57.6911 24.1394C57.6294 24.043 55.7293 21.106 53.4686 17.6127L49.3582 11.2614H47.7388C46.848 11.2614 46.1066 11.2741 46.091 11.2896ZM51.8004 11.3025C51.375 11.318 51.0147 11.3429 50.9998 11.3578C50.9848 11.3727 51.0932 11.5814 51.2406 11.8216C51.3879 12.0617 52.0076 13.0407 52.6176 13.9972C53.2276 14.9538 54.4045 16.8053 55.233 18.1117C56.0615 19.4181 57.1064 21.0501 57.5551 21.7383C58.0038 22.4266 58.3935 23.0132 58.4212 23.042C58.4605 23.083 59.5245 22.1783 63.3273 18.8705C65.998 16.5474 68.5268 14.3469 68.9467 13.9807C69.3666 13.6144 69.9965 13.0684 70.3465 12.7674C70.6964 12.4663 71.1794 12.0397 71.4197 11.8193C71.6652 11.5941 71.8406 11.4024 71.82 11.3818C71.7999 11.3617 71.4124 11.324 70.9589 11.2981C70.5054 11.2722 69.6763 11.2616 69.1164 11.2745C68.3552 11.292 68.0608 11.3138 67.9495 11.3608C67.8676 11.3954 67.629 11.5818 67.4193 11.775C67.2095 11.9682 66.8661 12.2895 66.6561 12.4891C66.446 12.6887 65.9784 13.1299 65.6168 13.4696C65.2553 13.8093 64.6787 14.351 64.3355 14.6733C63.9923 14.9957 63.6713 15.2876 63.6223 15.322C63.5732 15.3563 63.527 15.3778 63.5197 15.3695C63.5124 15.3613 63.1251 14.7915 62.659 14.1033C62.193 13.4151 61.5887 12.5153 61.3162 12.1038C60.924 11.5113 60.7968 11.3497 60.7057 11.3277C60.6423 11.3125 58.7868 11.2942 56.5822 11.2872C54.3775 11.2801 52.2257 11.287 51.8004 11.3025ZM73.7993 11.3036C73.6921 11.3221 73.5431 11.369 73.4684 11.4076C73.3935 11.4463 73.3 11.5103 73.2604 11.5499C73.2208 11.5895 72.7398 12.0314 72.1916 12.532C71.6434 13.0325 71.1684 13.4679 71.1361 13.4996C71.1038 13.5313 70.6557 13.9425 70.1403 14.4135C69.6249 14.8844 68.9451 15.5089 68.6296 15.8012C68.3141 16.0934 67.6933 16.6643 67.25 17.0699C66.8068 17.4755 66.3484 17.8949 66.2313 18.0019C66.1144 18.109 65.4272 18.7385 64.7043 19.4008C63.9815 20.0632 63.1897 20.7902 62.9447 21.0164C62.6997 21.2426 61.7645 22.1011 60.8663 22.9243C59.9681 23.7475 59.228 24.4343 59.2216 24.4505C59.2153 24.4668 59.6616 25.185 60.2135 26.0466C60.7654 26.9082 61.8284 28.5675 62.5758 29.734C63.3233 30.9004 64.3667 32.5229 64.8947 33.3394C65.4226 34.1559 66.3739 35.6273 67.0088 36.6092L68.163 38.3943L70.803 38.4224C72.2549 38.4379 74.1337 38.4506 74.978 38.4506C75.9295 38.4506 76.5229 38.4349 76.5387 38.4093C76.5527 38.3866 76.4727 38.2798 76.3609 38.1721C76.2491 38.0644 75.8999 37.8037 75.585 37.5928C75.27 37.3818 74.8501 37.0839 74.6518 36.9308C74.4535 36.7776 74.1195 36.5088 73.9095 36.3334C73.6995 36.1581 73.2632 35.7562 72.9399 35.4405C72.6166 35.1248 72.1799 34.6676 71.9694 34.4245C71.7589 34.1815 71.4296 33.7711 71.2377 33.5125C71.0458 33.254 70.8033 32.9089 70.6991 32.7456C70.5948 32.5823 70.392 32.2387 70.2484 31.9821C70.1049 31.7254 69.8936 31.3031 69.7789 31.0436C69.6643 30.7841 69.5002 30.3642 69.4144 30.1104C69.3285 29.8567 69.2035 29.4296 69.1367 29.1613C69.0698 28.893 68.981 28.454 68.9395 28.1857C68.8836 27.8255 68.8638 27.4484 68.8638 26.7436C68.8637 26.1859 68.887 25.6217 68.9196 25.3862C68.9504 25.1646 69.0205 24.7595 69.0754 24.4859C69.1303 24.2124 69.2348 23.7744 69.3074 23.5125C69.3801 23.2506 69.5248 22.8064 69.6289 22.5252C69.7331 22.2441 69.9978 21.6514 70.217 21.2081C70.4363 20.7649 70.7889 20.1389 71.0005 19.8172C71.2121 19.4953 71.5026 19.0754 71.6462 18.884C71.7897 18.6925 72.064 18.345 72.2557 18.1117C72.4475 17.8784 72.7796 17.4967 72.9938 17.2634C73.208 17.0301 73.5589 16.6706 73.7736 16.4645C73.9883 16.2584 74.374 15.9041 74.6306 15.6771C74.8872 15.4502 75.288 15.1114 75.5213 14.9242C75.7546 14.7371 76.1739 14.4152 76.4531 14.209C76.7323 14.0026 77.2572 13.6395 77.6196 13.402C77.9819 13.1644 78.517 12.827 78.8087 12.6521C79.1003 12.4772 79.6157 12.1834 79.954 11.9992C80.2923 11.815 80.6437 11.6261 80.7348 11.5795C80.8259 11.5328 80.8988 11.4756 80.8969 11.4522C80.895 11.4289 80.8109 11.3816 80.71 11.3472C80.5552 11.2944 80.0158 11.2834 77.2604 11.2772C75.4641 11.2731 73.9066 11.285 73.7993 11.3036ZM33.9714 16.3024C35.0926 18.2468 36.0099 19.8545 36.0099 19.8752C36.0099 19.8958 34.2768 22.886 32.1585 26.52C30.0403 30.1541 28.184 33.3417 28.0335 33.6038L27.7598 34.0803L24.8118 34.0754C23.1904 34.0727 21.3576 34.0587 20.7389 34.0443L19.6141 34.0181L22.7418 28.5887C24.4619 25.6025 27.2205 20.8087 28.8718 17.9356C30.5231 15.0625 31.8874 12.7243 31.9036 12.7395C31.9196 12.7547 32.8502 14.358 33.9714 16.3024ZM10.0946 18.0905C11.7361 20.925 14.4863 25.6731 16.2061 28.6417L19.3331 34.0393L15.2751 34.0385L11.2172 34.0377L9.43826 30.9526C8.45982 29.2559 6.6115 26.0543 5.33085 23.838C3.60516 20.8515 3.01251 19.7919 3.04131 19.7448C3.06269 19.7098 3.9738 18.1484 5.066 16.275C6.15819 14.4017 7.06494 12.8842 7.08093 12.9029C7.09696 12.9216 8.45312 15.256 10.0946 18.0905ZM57.7868 25.6151C57.5558 25.8095 56.8229 26.4703 56.158 27.0836C55.4931 27.6969 54.8534 28.2864 54.7365 28.3937C54.6195 28.5009 53.3595 29.6576 51.9364 30.964C50.5133 32.2705 49.2331 33.4444 49.0913 33.5727C48.9496 33.701 48.1287 34.455 47.2671 35.2482C46.4056 36.0414 45.3956 36.9702 45.0228 37.3122C44.6499 37.6542 44.2598 38.0216 44.1559 38.1285C44.0045 38.2845 43.9775 38.3336 44.0202 38.3762C44.0621 38.4182 45.1887 38.4324 49.3392 38.4433C53.4327 38.454 54.6468 38.4454 54.7927 38.4045C54.9131 38.3708 55.0661 38.2735 55.2193 38.1331C55.3506 38.0127 55.7444 37.6594 56.0944 37.3479C56.4443 37.0364 57.472 36.1216 58.3781 35.315C59.2842 34.5084 60.0499 33.8346 60.0797 33.8176C60.1155 33.7973 60.1768 33.8549 60.2607 33.9873C60.3305 34.0976 60.8127 34.8463 61.3322 35.6511C61.8517 36.456 62.474 37.4028 62.7151 37.7551L63.1535 38.3957L63.4415 38.4229C63.5998 38.4378 64.1703 38.4502 64.7091 38.4503C65.2479 38.4505 65.8635 38.4383 66.077 38.4231C66.2906 38.4079 66.4653 38.3772 66.4653 38.3547C66.4653 38.3323 66.0137 37.5859 65.4617 36.6962C64.9098 35.8065 63.7767 34 62.9438 32.6819C62.1109 31.3638 60.9093 29.4646 60.2737 28.4614C59.6381 27.4583 58.9279 26.3372 58.6955 25.9702C58.4632 25.6031 58.2581 25.2936 58.2399 25.2823C58.2216 25.271 58.0177 25.4208 57.7868 25.6151Z" fill="#0B5AD2"/>
</svg>
