<svg width="135" height="71" viewBox="0 0 135 71" fill="none" xmlns="http://www.w3.org/2000/svg">
<g clip-path="url(#clip0_502_360)">
<path fill-rule="evenodd" clip-rule="evenodd" d="M76.9714 39.7653C78.7635 38.8021 82.6236 34.9494 82.6236 32.4726C82.6236 31.3719 81.5207 31.0967 80.6936 31.0967C79.8664 31.0967 78.9014 31.7847 77.5228 32.8854C74.352 35.775 72.0084 40.8661 74.0763 45.1316C76.5578 49.9475 85.6565 42.93 84.9672 38.6645C83.5886 40.1781 79.315 43.7556 77.2471 41.8292C76.6956 41.1413 76.8335 40.4533 76.9714 39.7653Z" fill="#3D8AFF"/>
<path fill-rule="evenodd" clip-rule="evenodd" d="M100.547 26.0054H98.7545V21.6023H100.547C102.615 21.6023 103.58 22.2903 103.58 23.8039C103.717 25.1798 102.615 26.0054 100.547 26.0054ZM101.925 17.1992H92.5508V36.6004H98.7545V30.2709H101.925C105.785 30.2709 110.059 28.4822 110.059 23.8039C110.197 18.988 105.785 17.1992 101.925 17.1992Z" fill="#3D8AFF"/>
<path fill-rule="evenodd" clip-rule="evenodd" d="M79.0401 23.2538H83.3137L86.4845 18.9883L85.9331 23.2538H90.2067L85.6573 25.8681L85.1059 30.2712L82.7623 27.5193L78.2129 30.2712L81.3837 25.8681L79.0401 23.2538Z" fill="#FA0615"/>
<path fill-rule="evenodd" clip-rule="evenodd" d="M118.606 71.0002V60.4053H123.431C124.81 60.4053 125.912 60.6805 126.602 61.2309C127.291 61.7812 127.705 62.6068 127.705 63.7076C127.705 64.8084 127.291 65.634 126.602 66.1843C125.912 66.7347 124.947 67.1475 123.707 67.1475H121.639V70.8626H118.606V71.0002ZM121.501 65.2212H122.88C123.569 65.2212 123.982 65.0836 124.258 64.8084C124.534 64.5332 124.672 64.258 124.672 63.7076C124.672 63.2948 124.534 62.882 124.258 62.6068C123.982 62.3316 123.431 62.3316 122.88 62.3316H121.501V65.2212ZM108.956 71.0002V60.4053H116.814V62.4692H111.851V64.6708H116.538V66.7347H111.851V68.9363H116.952V71.0002H108.956ZM100.546 66.7347V71.0002H97.6512V60.4053H100.546V64.5332H104.131V60.4053H107.026V71.0002H104.131V66.7347H100.546ZM90.3446 71.0002V62.4692H87.1738V60.4053H96.5483V62.4692H93.3775V71.0002H90.3446ZM77.3857 71.0002V60.4053H82.2108C83.5894 60.4053 84.6923 60.6805 85.3816 61.2309C86.0709 61.7812 86.4845 62.6068 86.4845 63.7076C86.4845 64.8084 86.0709 65.634 85.3816 66.1843C84.6923 66.7347 83.7273 67.1475 82.4865 67.1475H80.4186V70.8626H77.3857V71.0002ZM80.2808 65.2212H81.5215C82.2108 65.2212 82.6244 65.0836 82.9001 64.8084C83.1758 64.5332 83.3137 64.258 83.3137 63.7076C83.3137 63.2948 83.1758 62.882 82.9001 62.6068C82.6244 62.3316 82.073 62.3316 81.5215 62.3316H80.2808V65.2212ZM64.4269 71.0002L68.5627 60.4053H72.147L76.2828 71.0002H72.9742L72.2849 68.9363H68.1491L67.4598 71.0002H64.4269ZM71.4577 67.0099L70.0791 62.6068L68.5627 67.0099H71.4577ZM56.8446 62.4692V71.0002H53.9495V60.4053H63.324V71.0002H60.4289V62.4692H56.8446ZM43.3343 71.0002V60.4053H48.1594C49.538 60.4053 50.6409 60.6805 51.3302 61.2309C52.0195 61.7812 52.433 62.6068 52.433 63.7076C52.433 64.8084 52.0195 65.634 51.3302 66.1843C50.6409 66.7347 49.6758 67.1475 48.4351 67.1475H46.3672V70.8626H43.3343V71.0002ZM46.2293 65.2212H47.6079C48.2972 65.2212 48.7108 65.0836 48.9865 64.8084C49.2623 64.5332 49.4001 64.258 49.4001 63.7076C49.4001 63.2948 49.2623 62.882 48.9865 62.6068C48.7108 62.3316 48.1594 62.3316 47.6079 62.3316H46.2293V65.2212ZM33.6841 71.0002V60.4053H41.5421V62.4692H36.5791V64.6708H41.2664V66.7347H36.5791V68.9363H41.68V71.0002H33.6841ZM26.3775 71.0002V62.4692H23.2067V60.4053H32.5812V62.4692H29.4104V71.0002H26.3775ZM15.6244 66.7347V71.0002H12.5915V60.4053H15.4865V64.5332H19.0709V60.4053H21.966V71.0002H19.0709V66.7347H15.6244ZM10.6614 71.0002H8.0421V63.2948L4.18202 71.1378H0.597656V60.5429H3.07914V68.1107L6.80136 60.5429H10.5236V71.0002H10.6614Z" fill="#3D8AFF"/>
<path fill-rule="evenodd" clip-rule="evenodd" d="M132.115 56.4147C130.875 56.4147 129.91 57.3779 129.91 58.6163C129.91 59.8547 130.875 60.8179 132.115 60.8179C133.356 60.8179 134.321 59.8547 134.321 58.6163C134.321 57.3779 133.356 56.4147 132.115 56.4147ZM131.288 58.3411H132.115C132.391 58.3411 132.805 58.2035 132.805 57.7907C132.805 57.3779 132.529 57.2403 132.115 57.2403H131.15V58.3411H131.288ZM130.875 60.1299H131.288V58.7539H131.702C131.978 58.7539 132.115 58.8915 132.253 59.0291C132.529 59.3043 132.667 59.7171 132.943 60.1299H133.494C133.218 59.7171 132.943 59.1667 132.667 58.8915C132.667 58.8915 132.529 58.7539 132.391 58.7539C132.805 58.7539 133.218 58.4787 133.218 57.9283C133.218 57.2403 132.667 57.1027 132.115 57.1027H130.737V60.1299H130.875ZM132.115 56.002C133.494 56.002 134.735 57.1027 134.735 58.6163C134.735 59.9923 133.632 61.2306 132.115 61.2306C130.737 61.2306 129.496 60.1299 129.496 58.6163C129.496 57.1027 130.599 56.002 132.115 56.002Z" fill="#3D8AFF"/>
<path fill-rule="evenodd" clip-rule="evenodd" d="M97.9262 6.32946C79.7287 10.4574 71.5949 10.1822 71.5949 10.1822C71.5949 10.1822 70.7678 12.5213 71.4571 12.5213C71.7328 12.5213 73.2493 12.7965 76.2822 12.7965H76.1443C76.5579 12.9341 68.1484 30.8217 68.1484 30.8217L71.8707 32.0601C71.8707 32.0601 72.4221 31.2345 74.49 29.7209C76.5579 28.345 78.3501 27.3818 78.3501 27.3818L78.7637 25.0426L75.0414 26.5562L81.7966 12.6589C85.7945 12.2461 91.1711 11.5581 97.9262 9.90698C113.642 6.19186 119.57 2.06395 119.57 2.06395L120.26 0C120.26 0 115.572 2.33915 97.9262 6.32946Z" fill="#3D8AFF"/>
<path fill-rule="evenodd" clip-rule="evenodd" d="M111.023 24.4922C115.71 26.0058 116.951 29.8585 114.056 34.2616C105.784 47.0581 75.8687 54.4883 66.7699 48.0213C62.772 45.1317 64.5642 40.3158 68.1485 36.8759L67.1835 36.3255C63.0477 40.0406 60.7041 46.6453 65.3913 49.6724C81.1074 60.1298 110.334 48.9844 118.605 35.3623C122.19 29.5833 116.951 25.0426 111.023 24.4922Z" fill="#3D8AFF"/>
<path fill-rule="evenodd" clip-rule="evenodd" d="M64.564 21.1895C68.4241 11.4201 60.8418 3.85228 43.4714 8.53057C30.5126 12.1081 27.4797 22.0151 27.3418 26.143C27.204 30.5461 31.2019 33.1604 31.2019 33.1604L32.7184 32.3348C32.7184 32.3348 32.1669 29.5829 32.1669 27.1062C32.3048 21.3271 35.3377 13.4841 43.4714 11.0073C54.2245 7.70499 63.4612 12.5209 58.4982 21.6023C46.7801 43.4802 15.2101 52.1488 15.2101 52.1488C14.7965 52.2864 15.2101 54.7631 15.4858 54.9007C15.7616 55.0383 30.5126 52.1488 43.885 52.1488C56.1546 52.1488 60.1525 53.2496 60.1525 53.2496L60.4282 51.4608C60.4282 51.4608 56.8439 47.7457 46.2286 47.7457C39.0599 47.7457 30.5126 49.3969 24.4467 50.7728C37.1299 45.6817 59.0496 34.9492 64.564 21.1895Z" fill="#3D8AFF"/>
</g>
<defs>
<clipPath id="clip0_502_360">
<rect width="134" height="71" fill="white" transform="translate(0.597656)"/>
</clipPath>
</defs>
</svg>
