<svg width="329" height="54" viewBox="0 0 329 54" fill="none" xmlns="http://www.w3.org/2000/svg">
<path fill-rule="evenodd" clip-rule="evenodd" d="M116.657 33.4054H112.239V20.0745L105.612 33.4054H99.3652V15.2754H103.707V28.2254L110.182 15.2754H116.657V33.4054ZM125.037 26.0924V33.4054H120.009V15.2754H125.037V22.2836H131.055V15.2754H136.082V33.4054H131.055V26.0924H125.037ZM143.471 33.4054V18.8557H137.987V15.2754H154.06V18.8557H148.499V33.4054H143.471ZM156.04 33.4054V15.2754H169.448V18.7795H160.916V22.5122H169.067V25.9401H160.992V29.8251H169.752V33.4054H156.04ZM177.522 23.4263H179.731C180.798 23.4263 181.636 23.1977 182.093 22.8169C182.626 22.436 182.855 21.8266 182.855 20.9886C182.855 20.1507 182.626 19.6174 182.093 19.2366C181.56 18.8557 180.798 18.7033 179.731 18.7033H177.522V23.4263ZM172.495 33.4054V15.2754H180.798C183.159 15.2754 184.987 15.7325 186.206 16.7227C187.425 17.713 188.035 19.1604 188.035 21.0648C188.035 22.893 187.425 24.3404 186.206 25.4069C184.987 26.4733 183.312 27.0066 181.179 27.0066H177.522V33.4054H172.495ZM195.576 18.7033V33.4054H190.548V15.2754H206.622V33.4054H201.594V18.7033H195.576ZM220.714 26.3971L218.429 18.8557L215.915 26.3971H220.714ZM208.526 33.4054L215.534 15.1992H221.628L228.789 33.4054H223.152L221.857 29.8251H214.696L213.477 33.4054H208.526ZM235.797 23.4263H238.006C239.073 23.4263 239.911 23.1977 240.368 22.8169C240.901 22.436 241.13 21.8266 241.13 20.9886C241.13 20.1507 240.901 19.6174 240.368 19.2366C239.835 18.8557 239.073 18.7033 238.006 18.7033H235.797V23.4263ZM230.77 33.4054V15.2754H239.073C241.434 15.2754 243.262 15.7325 244.481 16.7227C245.7 17.713 246.309 19.1604 246.309 21.0648C246.309 22.893 245.7 24.3404 244.481 25.4069C243.262 26.4733 241.587 27.0066 239.454 27.0066H235.797V33.4054H230.77ZM252.937 33.4054V18.8557H247.452V15.2754H263.525V18.8557H258.041V33.4054H252.937ZM270.381 26.0924V33.4054H265.354V15.2754H270.381V22.2836H276.399V15.2754H281.427V33.4054H276.475V26.0924H270.381ZM284.855 33.4054V15.2754H298.262V18.7795H289.73V22.5122H297.805V25.9401H289.73V29.8251H298.566V33.4054H284.855ZM306.413 23.4263H308.622C309.688 23.4263 310.526 23.1977 310.983 22.8169C311.516 22.436 311.745 21.8266 311.745 20.9886C311.745 20.1507 311.516 19.6174 310.983 19.2366C310.45 18.8557 309.688 18.7033 308.622 18.7033H306.413V23.4263ZM301.309 33.4054V15.2754H309.612C311.974 15.2754 313.802 15.7325 315.021 16.7227C316.239 17.713 316.849 19.1604 316.849 21.0648C316.849 22.893 316.239 24.3404 315.021 25.4069C313.802 26.4733 312.126 27.0066 309.993 27.0066H306.336V33.4054H301.309Z" fill="#0B5AD2"/>
<path fill-rule="evenodd" clip-rule="evenodd" d="M57.566 30.2434C58.9168 29.5109 61.8262 26.5806 61.8262 24.6969C61.8262 23.8597 60.995 23.6504 60.3715 23.6504C59.7481 23.6504 59.0207 24.1736 57.9816 25.0109C55.5917 27.2085 53.8252 31.0806 55.3839 34.3248C57.2542 37.9876 64.1123 32.6504 63.5927 29.4062C62.5536 30.5574 59.3324 33.2783 57.7738 31.8132C57.3581 31.2899 57.4621 30.7667 57.566 30.2434Z" fill="#0A5AD2"/>
<path fill-rule="evenodd" clip-rule="evenodd" d="M75.3344 19.7797H73.9835V16.4309H75.3344C76.893 16.4309 77.6204 16.9541 77.6204 18.1053C77.7243 19.1518 76.893 19.7797 75.3344 19.7797ZM76.3735 13.082H69.3076V27.8378H73.9835V23.0239H76.3735C79.2829 23.0239 82.5041 21.6634 82.5041 18.1053C82.608 14.4425 79.2829 13.082 76.3735 13.082Z" fill="#0A5AD2"/>
<path fill-rule="evenodd" clip-rule="evenodd" d="M59.1244 17.6856H62.3456L64.7355 14.4414L64.3199 17.6856H67.5411L64.1121 19.674L63.6964 23.0228L61.93 20.9298L58.501 23.0228L60.8909 19.674L59.1244 17.6856Z" fill="#FA0615"/>
<path fill-rule="evenodd" clip-rule="evenodd" d="M73.3605 4.81395C59.6444 7.95349 53.5138 7.74419 53.5138 7.74419C53.5138 7.74419 52.8903 9.52326 53.4098 9.52326C53.6177 9.52326 54.7607 9.73256 57.0467 9.73256H56.9428C57.2545 9.83721 50.916 23.4419 50.916 23.4419L53.7216 24.3837C53.7216 24.3837 54.1372 23.7558 55.6958 22.6047C57.2545 21.5581 58.6053 20.8256 58.6053 20.8256L58.917 19.0465L56.1115 20.1977L61.2031 9.62791C64.2164 9.31395 68.2689 8.7907 73.3605 7.53488C85.2061 4.7093 89.6743 1.56977 89.6743 1.56977L90.1938 0C90.1938 0 86.6609 1.77907 73.3605 4.81395Z" fill="#0A5AD2"/>
<path fill-rule="evenodd" clip-rule="evenodd" d="M83.2314 18.627C86.7643 19.7781 87.6995 22.7083 85.5174 26.0572C79.2828 35.7897 56.7345 41.4409 49.8764 36.5223C46.8631 34.3246 48.2139 30.6618 50.9155 28.0456L50.1882 27.627C47.0709 30.4525 45.3044 35.4758 48.8373 37.7781C60.683 45.7316 82.7118 37.2549 88.9464 26.8944C91.648 22.499 87.6995 19.0456 83.2314 18.627Z" fill="#0A5AD2"/>
<path fill-rule="evenodd" clip-rule="evenodd" d="M48.2143 16.1163C51.1237 8.68605 45.4087 2.93023 32.3161 6.48837C22.5486 9.2093 20.2626 16.7442 20.1587 19.8837C20.0548 23.2326 23.0682 25.2209 23.0682 25.2209L24.2112 24.593C24.2112 24.593 23.7956 22.5 23.7956 20.6163C23.8995 16.2209 26.1855 10.2558 32.3161 8.37209C40.4211 5.86047 47.383 9.52326 43.6423 16.4302C34.81 33.0698 11.0147 39.6628 11.0147 39.6628C10.703 39.7674 11.0147 41.6512 11.2225 41.7558C11.4303 41.8605 22.5486 39.6628 32.6279 39.6628C41.8758 39.6628 44.8892 40.5 44.8892 40.5L45.097 39.1395C45.097 39.1395 42.3953 36.314 34.3943 36.314C28.991 36.314 22.5486 37.5698 17.9766 38.6163C27.5363 34.7442 44.0579 26.5814 48.2143 16.1163Z" fill="#0A5AD2"/>
<path fill-rule="evenodd" clip-rule="evenodd" d="M324.314 7.50586C326.828 7.50586 328.884 9.56262 328.884 12.0764C328.884 14.5903 326.828 16.647 324.314 16.647C321.8 16.647 319.743 14.5903 319.743 12.0764C319.743 9.56262 321.8 7.50586 324.314 7.50586ZM322.257 14.7426V9.41027H324.618C325.609 9.41027 326.523 9.71497 326.523 10.8576C326.523 11.7717 325.837 12.2288 324.999 12.305C325.152 12.3811 325.304 12.4573 325.456 12.6097C326.066 13.2191 326.523 14.057 326.98 14.8188H326.066C325.685 14.2094 325.304 13.5238 324.847 12.9906C324.542 12.6097 324.238 12.4573 323.781 12.4573H322.943V14.8188H322.257V14.7426ZM322.943 11.7717H324.466C325.076 11.7717 325.761 11.6194 325.761 10.8576C325.761 10.172 325.152 10.0197 324.618 10.0197H322.943V11.7717ZM324.314 8.11527C326.523 8.11527 328.275 9.86733 328.275 12.0764C328.275 14.2856 326.523 16.0376 324.314 16.0376C322.105 16.0376 320.353 14.2856 320.353 12.0764C320.353 9.86733 322.181 8.11527 324.314 8.11527Z" fill="#0B5AD2"/>
</svg>
