<svg width="44" height="36" viewBox="0 0 44 36" fill="none" xmlns="http://www.w3.org/2000/svg">
<path d="M12.5243 26.4844C12.7076 26.6677 12.8324 26.9012 12.883 27.1554C12.9335 27.4096 12.9076 27.6731 12.8084 27.9126C12.7092 28.1521 12.5412 28.3567 12.3257 28.5007C12.1102 28.6447 11.8568 28.7216 11.5976 28.7216C11.3384 28.7216 11.085 28.6447 10.8695 28.5007C10.654 28.3567 10.486 28.1521 10.3868 27.9126C10.2877 27.6731 10.2617 27.4096 10.3123 27.1554C10.3628 26.9012 10.4877 26.6677 10.6709 26.4844C10.9167 26.2386 11.2501 26.1006 11.5976 26.1006C11.9452 26.1006 12.2785 26.2386 12.5243 26.4844ZM21.7912 15.364C21.6079 15.5473 21.4831 15.7808 21.4325 16.0351C21.3819 16.2893 21.4079 16.5528 21.5071 16.7923C21.6063 17.0318 21.7743 17.2365 21.9898 17.3805C22.2053 17.5245 22.4587 17.6014 22.7179 17.6014C22.9772 17.6014 23.2306 17.5245 23.4461 17.3805C23.6616 17.2365 23.8296 17.0318 23.9288 16.7923C24.028 16.5528 24.054 16.2893 24.0034 16.0351C23.9528 15.7808 23.828 15.5473 23.6447 15.364C23.3989 15.1182 23.0655 14.9802 22.7179 14.9802C22.3704 14.9802 22.037 15.1182 21.7912 15.364ZM43.5842 34.8247C43.5843 34.9606 43.5575 35.0952 43.5056 35.2208C43.4536 35.3464 43.3774 35.4605 43.2813 35.5566C43.1852 35.6527 43.071 35.7289 42.9455 35.7809C42.8199 35.8329 42.6853 35.8596 42.5494 35.8595H1.15658C0.882132 35.8595 0.618922 35.7505 0.424856 35.5564C0.230789 35.3624 0.121764 35.0992 0.121764 34.8247C0.121764 34.5503 0.230789 34.287 0.424856 34.093C0.618922 33.8989 0.882132 33.7899 1.15658 33.7899H9.11921C9.0851 33.7583 9.04582 33.7361 9.01273 33.703L5.306 29.9962C4.7252 29.4129 4.35829 28.6507 4.26468 27.8329C4.17108 27.015 4.35626 26.1896 4.79025 25.4901L0.643313 18.5778C0.222377 17.879 0.0477916 17.0593 0.147447 16.2496C0.247102 15.4399 0.615248 14.687 1.19307 14.1111L9.41898 5.88614C9.99503 5.30897 10.7477 4.94127 11.5571 4.84165C12.3664 4.74203 13.1858 4.91624 13.8847 5.33649L20.7972 9.48374C21.4967 9.05015 22.322 8.86518 23.1397 8.95872C23.9573 9.05227 24.7195 9.41887 25.303 9.99924L29.0097 13.706C29.5639 14.2638 29.923 14.9858 30.0336 15.7643C30.1441 16.5428 30.0002 17.3362 29.6232 18.0263L30.8631 19.2661C30.9608 19.3618 31.0385 19.476 31.0918 19.6019C31.1451 19.7278 31.1729 19.8631 31.1736 19.9999C31.1743 20.1366 31.1478 20.2722 31.0958 20.3987C31.0438 20.5251 30.9672 20.64 30.8705 20.7368C30.7738 20.8335 30.6589 20.91 30.5324 20.962C30.4059 21.0141 30.2704 21.0405 30.1336 21.0398C29.9969 21.0391 29.8616 21.0113 29.7357 20.958C29.6097 20.9047 29.4956 20.827 29.3998 20.7293L28.2781 19.6076L14.9144 32.9712L15.7331 33.7899H42.5494C42.6853 33.7898 42.8199 33.8165 42.9455 33.8685C43.071 33.9205 43.1852 33.9967 43.2813 34.0928C43.3774 34.1889 43.4536 34.303 43.5056 34.4286C43.5575 34.5542 43.5843 34.6888 43.5842 34.8247ZM6.24276 23.8894L19.1962 10.9359L12.8195 7.11096C12.5167 6.92807 12.1613 6.85216 11.8102 6.89541C11.4591 6.93865 11.1327 7.09854 10.8833 7.34944L2.65627 15.5754C2.40545 15.8251 2.24564 16.1516 2.2024 16.5028C2.15916 16.8541 2.235 17.2096 2.41778 17.5126L6.24276 23.8894ZM12.7195 32.2397L27.5466 17.4126C27.8436 17.1149 28.0104 16.7115 28.0104 16.2909C28.0104 15.8703 27.8436 15.4669 27.5466 15.1692L23.8398 11.4624C23.5421 11.1654 23.1387 10.9986 22.7181 10.9986C22.2975 10.9986 21.8941 11.1654 21.5963 11.4624L6.76926 26.2895C6.47222 26.5873 6.3054 26.9907 6.3054 27.4113C6.3054 27.8318 6.47222 28.2353 6.76926 28.533L10.476 32.2397C10.7737 32.5368 11.1771 32.7036 11.5977 32.7036C12.0183 32.7036 12.4217 32.5368 12.7195 32.2397ZM42.8768 13.1471L37.8917 11.4847L43.4366 2.24304C43.5554 2.04515 43.6046 1.81324 43.5764 1.58418C43.5482 1.35512 43.4442 1.14206 43.281 0.978874C43.1178 0.815684 42.9048 0.711728 42.6757 0.683534C42.4467 0.65534 42.2148 0.704524 42.0169 0.823269L32.7752 6.36825L31.1128 1.38307C31.0275 1.19423 30.8896 1.03399 30.7156 0.921599C30.5415 0.809204 30.3387 0.74942 30.1315 0.74942C29.9243 0.74942 29.7215 0.809204 29.5475 0.921599C29.3734 1.03399 29.2355 1.19423 29.1503 1.38307L27.0806 7.59198C27.0371 7.72098 27.0194 7.8573 27.0287 7.99314C27.038 8.12897 27.0739 8.26164 27.1346 8.38354C27.1952 8.50544 27.2793 8.61417 27.3821 8.70349C27.4848 8.79282 27.6042 8.86098 27.7333 8.90407C27.8625 8.94717 27.9989 8.96434 28.1347 8.95461C28.2705 8.94488 28.403 8.90844 28.5247 8.84738C28.6464 8.78632 28.7548 8.70184 28.8438 8.59878C28.9328 8.49572 29.0005 8.37611 29.0431 8.24682L30.1315 4.98268L31.2199 8.24682C31.269 8.39372 31.3504 8.52774 31.4582 8.639C31.566 8.75025 31.6973 8.83589 31.8426 8.88962C31.9879 8.94335 32.1434 8.96379 32.2976 8.94943C32.4518 8.93508 32.6009 8.88629 32.7337 8.80667L39.5328 4.72702L35.4532 11.5261C35.3736 11.659 35.3248 11.808 35.3104 11.9622C35.2961 12.1165 35.3165 12.272 35.3702 12.4172C35.424 12.5625 35.5096 12.6939 35.6208 12.8016C35.7321 12.9094 35.8661 12.9908 36.013 13.0399L39.2773 14.1283L36.0131 15.2167C35.8838 15.2593 35.7642 15.3271 35.6612 15.4161C35.5581 15.505 35.4736 15.6135 35.4126 15.7351C35.3515 15.8568 35.3151 15.9894 35.3053 16.1252C35.2956 16.261 35.3128 16.3974 35.3559 16.5265C35.399 16.6557 35.4671 16.775 35.5565 16.8778C35.6458 16.9805 35.7545 17.0646 35.8764 17.1253C35.9983 17.1859 36.131 17.2219 36.2668 17.2311C36.4026 17.2404 36.539 17.2228 36.668 17.1792L42.8769 15.1096C43.0829 15.041 43.262 14.9093 43.389 14.7331C43.516 14.557 43.5843 14.3454 43.5843 14.1283C43.5843 13.9112 43.516 13.6996 43.389 13.5235C43.262 13.3474 43.0829 13.2157 42.8769 13.1471H42.8768Z" fill="black"/>
</svg>
