<svg width="55" height="49" viewBox="0 0 55 49" fill="none" xmlns="http://www.w3.org/2000/svg">
<path d="M29.3954 7.86012L7.65649 16.1191C4.9322 17.1541 3.55786 20.2125 4.59285 22.9368L9.66084 36.2765C10.6958 39.0008 13.7542 40.3752 16.4785 39.3402L24.0748 36.4542C24.757 36.1951 25.0999 35.432 24.8407 34.7498C24.5815 34.0676 23.8185 33.7247 23.1363 33.9839L15.54 36.8698C14.1779 37.3873 12.6487 36.7002 12.1312 35.338L8.61457 26.0818L35.2942 15.9458L36.4438 18.9719C36.703 19.6541 37.4661 19.997 38.1483 19.7378C38.8305 19.4787 39.1733 18.7155 38.9142 18.0334L36.2131 10.9237C35.1781 8.1994 32.1197 6.82512 29.3954 7.86012ZM34.3557 13.4755L7.67606 23.6114L7.06316 21.9982C6.54566 20.636 7.23284 19.1068 8.59498 18.5893L30.3339 10.3304C31.696 9.81289 33.2253 10.5001 33.7428 11.8622L34.3557 13.4755Z" fill="black"/>
<path d="M48.215 20.7068C47.6551 20.2388 46.8219 20.3132 46.3539 20.8731L39.1778 29.4567C38.985 29.6491 38.7594 29.6768 38.6397 29.6757C38.5165 29.6751 38.2798 29.6411 38.0902 29.4315L34.1891 25.0785C33.702 24.5349 32.8666 24.4893 32.3233 24.9763C31.7799 25.4633 31.7341 26.2987 32.2211 26.8421L36.1261 31.1994C36.7114 31.8468 37.5276 32.2438 38.3933 32.3089C38.4677 32.3144 38.5424 32.3176 38.6174 32.3182C39.5651 32.3262 40.48 31.9338 41.1275 31.2416C41.1442 31.2236 41.1604 31.2053 41.1762 31.1865L48.3814 22.5679C48.8494 22.008 48.775 21.1748 48.215 20.7068Z" fill="black"/>
</svg>
