<svg width="39" height="39" viewBox="0 0 39 39" fill="none" xmlns="http://www.w3.org/2000/svg">
<g clip-path="url(#clip0_307_149)">
<path d="M8.13805 37.2687C10.3082 39.4388 13.8396 39.439 16.0099 37.2687L23.8817 29.3969C25.1839 28.0947 25.1839 25.9759 23.8817 24.6737L23.0943 23.8863L28.437 18.5403C28.8716 18.1055 28.8715 17.4008 28.4368 16.9662C28.0028 16.5321 28.0028 15.8258 28.4368 15.3918C28.8719 14.9568 29.576 14.9566 30.0111 15.3918C30.4456 15.8263 31.1508 15.8265 31.5855 15.3918L36.3086 10.6687C36.7434 10.2339 36.7434 9.5291 36.3086 9.09434C35.8745 8.66025 35.8745 7.95401 36.3086 7.51999L37.883 5.94564C38.0917 5.73687 38.2091 5.45373 38.2091 5.15843V2.00973C38.2091 1.39492 37.7106 0.896484 37.0958 0.896484H33.9471C33.6519 0.896484 33.3688 1.01375 33.16 1.22252L31.5856 2.79687C31.1506 3.23192 30.4464 3.23207 30.0113 2.79687C29.5768 2.3624 28.8716 2.36218 28.4369 2.79687L23.7138 7.51999C23.2791 7.95475 23.2791 8.65958 23.7138 9.09434C24.1489 9.52932 24.149 10.2336 23.7138 10.6687C23.2787 11.1037 22.5746 11.1039 22.1395 10.6687C21.7049 10.2342 20.9995 10.2339 20.5648 10.6689L15.2226 16.0145L14.4355 15.2276C13.1333 13.9254 11.0145 13.9254 9.71241 15.2276L1.84058 23.0994C-0.334696 25.2746 -0.335067 28.7956 1.84058 30.9712L8.13805 37.2687ZM21.4861 12.8967C22.7003 13.4778 24.2398 13.2913 25.288 12.2431C26.3144 11.2168 26.5317 9.68332 25.9403 8.44205L29.3577 5.02469C30.5729 5.60647 32.1123 5.41878 33.1598 4.37129L34.4082 3.12297H35.9825V4.69732L34.7342 5.94564C33.7079 6.9719 33.4905 8.50543 34.0819 9.74663L30.6645 13.164C29.4493 12.5821 27.9099 12.77 26.8624 13.8174C25.836 14.8438 25.6187 16.3774 26.2102 17.6187L21.5199 22.3119L16.7968 17.5888L21.4861 12.8967ZM3.41493 24.6737L11.2868 16.8019C11.7208 16.3679 12.427 16.3678 12.8611 16.8019C13.799 17.7399 20.8895 24.8303 22.3073 26.2481C22.7414 26.6821 22.7414 27.3884 22.3073 27.8224L14.4355 35.6943C13.1333 36.9965 11.0145 36.9964 9.71241 35.6943L3.41493 29.3968C2.10976 28.0917 2.10962 25.9791 3.41493 24.6737Z" fill="black"/>
<path d="M9.71207 32.5452C10.1468 32.9799 10.8517 32.98 11.2864 32.5452C11.7212 32.1105 11.7212 31.4056 11.2864 30.9709L8.13772 27.8222C7.70304 27.3874 6.99813 27.3874 6.56337 27.8222C6.12861 28.2569 6.12861 28.9618 6.56337 29.3965L9.71207 32.5452Z" fill="black"/>
</g>
<defs>
<clipPath id="clip0_307_149">
<rect width="38" height="38" fill="white" transform="translate(0.208984 0.896484)"/>
</clipPath>
</defs>
</svg>
