<svg width="44" height="50" viewBox="0 0 44 50" fill="none" xmlns="http://www.w3.org/2000/svg">
<path d="M34.0312 9.12871L31.7117 14.6273C30.6836 17.0643 27.8732 18.2067 25.4366 17.1788L23.9656 16.5583L28.1469 6.64642C23.0339 5.89001 17.8769 8.31488 15.2409 12.8778L12.2985 11.6365C12.034 12.0947 11.7863 12.5662 11.5757 13.0654C9.76661 17.3538 10.4894 22.0672 13.0508 25.5708L1.4838 36.9882L4.66801 38.3315L17.5505 25.6147C14.5811 23.3431 13.1487 19.512 14.0204 15.8289L24.1953 20.1212C28.2507 21.832 32.9431 19.9244 34.654 15.8685L34.9437 15.1818C36.081 17.5841 36.1992 20.4204 35.1133 22.9947C33.0603 27.8613 27.4305 30.1512 22.5631 28.0978L21.9457 27.8374L9.32363 40.2955L12.51 41.6397L22.7448 31.5355C28.8813 33.3152 35.5127 30.2641 38.0556 24.236C40.3685 18.7533 38.5534 12.5773 34.0312 9.12871ZM23.1747 10.217L21.0232 15.3171L18.2168 14.1332C19.3946 12.2839 21.1496 10.9114 23.1747 10.217Z" fill="black" stroke="white"/>
</svg>
