<svg width="26" height="26" viewBox="0 0 26 26" fill="none" xmlns="http://www.w3.org/2000/svg">
<path d="M24.0681 18.3892C24.0019 18.1475 23.8838 17.9219 23.7217 17.727C23.5595 17.5322 23.3568 17.3723 23.1267 17.2577L18.2947 14.8401C17.9048 14.6405 17.4536 14.5829 17.0233 14.6778C16.5931 14.7726 16.2125 15.0136 15.9509 15.3568L15.1697 16.3902C15.1295 16.4439 15.0705 16.4816 15.0036 16.4962C14.9367 16.5108 14.8665 16.5013 14.8064 16.4694C13.6575 15.8382 12.6056 15.0549 11.6814 14.1424C10.7363 13.25 9.92508 12.2344 9.27125 11.1252C9.23827 11.0671 9.22841 10.9994 9.24352 10.9348C9.25863 10.8702 9.29766 10.8132 9.35328 10.7744L10.4197 10.0201C10.7752 9.76757 11.0248 9.4001 11.123 8.98469C11.2212 8.56929 11.1616 8.13363 10.9548 7.75716L8.46656 3.09553C8.34706 2.87303 8.18035 2.67734 7.97728 2.52122C7.77422 2.36509 7.53936 2.25203 7.28801 2.1894C7.03666 2.12678 6.77447 2.11599 6.51851 2.15774C6.26256 2.1995 6.01859 2.29286 5.8025 2.43174L2.76734 4.39294C2.34116 4.66693 1.99702 5.04424 1.76941 5.48707C1.54181 5.9299 1.43871 6.4227 1.47047 6.91611C1.51064 7.75034 1.62698 8.57953 1.81813 9.39402C2.64234 12.4641 4.63062 15.6208 7.39234 18.2911C10.1541 20.9614 13.4275 22.8735 16.6072 23.6618C17.4508 23.8463 18.3096 23.9586 19.1736 23.9975H19.3689C19.8456 23.9965 20.3148 23.8829 20.7356 23.6666C21.1564 23.4503 21.5159 23.1379 21.783 22.7566L23.8064 19.8261C23.9524 19.6179 24.0513 19.3823 24.0964 19.1347C24.1415 18.887 24.1318 18.633 24.0681 18.3892ZM22.5056 18.9851L20.4939 21.9193C20.3604 22.1097 20.1777 22.263 19.9639 22.3642C19.7502 22.4654 19.5128 22.511 19.2752 22.4964C18.5089 22.4622 17.747 22.3651 16.9978 22.206C14.0837 21.4743 11.0681 19.7054 8.50172 17.2162C5.93531 14.727 4.09547 11.8267 3.33766 9.01309C3.17152 8.28985 3.06959 7.55425 3.03297 6.81428C3.01736 6.58534 3.06436 6.35646 3.16926 6.1506C3.27415 5.94473 3.43326 5.7691 3.63062 5.64133L6.66578 3.68766C6.71199 3.65779 6.76643 3.64202 6.82203 3.6424H6.89625C6.93471 3.65208 6.97061 3.66952 7.00159 3.69358C7.03256 3.71763 7.0579 3.74775 7.07594 3.78195L9.57594 8.44736C9.60701 8.50521 9.61582 8.57183 9.60079 8.63537C9.58577 8.6989 9.5479 8.75523 9.49391 8.79434L8.4275 9.54865C8.06588 9.80841 7.81534 10.1871 7.72321 10.613C7.63108 11.039 7.70376 11.4828 7.9275 11.8606C8.6505 13.0808 9.54434 14.1989 10.5837 15.1833C11.6033 16.187 12.7613 17.05 14.0252 17.748C14.4164 17.964 14.8761 18.0342 15.3173 17.9452C15.7585 17.8563 16.1507 17.6144 16.4197 17.2652L17.2009 16.2318C17.2414 16.1797 17.2998 16.1431 17.3656 16.1286C17.4314 16.1141 17.5004 16.1226 17.5603 16.1526L22.3923 18.5664C22.4277 18.5843 22.4588 18.6091 22.4836 18.6394C22.5084 18.6696 22.5263 18.7045 22.5363 18.7418C22.5462 18.7791 22.5479 18.818 22.5413 18.8561C22.5347 18.8941 22.5199 18.9303 22.4978 18.9624L22.5056 18.9851Z" fill="black"/>
</svg>
