<svg width="53" height="59" viewBox="0 0 53 59" fill="none" xmlns="http://www.w3.org/2000/svg">
<path d="M26.3747 46.5033C37.4461 46.5033 46.4213 37.5281 46.4213 26.4567C46.4213 15.3853 37.4461 6.41016 26.3747 6.41016C15.3033 6.41016 6.32812 15.3853 6.32812 26.4567C6.32812 37.5281 15.3033 46.5033 26.3747 46.5033Z" fill="white"/>
<path fill-rule="evenodd" clip-rule="evenodd" d="M39.1253 26.3241C35.0524 32.7069 20.154 37.4044 13.5802 33.0296C9.04276 29.9817 15.2951 23.9933 19.5467 22.6665C16.7956 23.9933 10.4004 29.5155 14.2947 32.169C18.7607 35.217 34.0163 31.7029 38.0535 25.7504C39.4826 23.6706 38.3751 21.8776 36.0885 21.1605C38.9824 21.4115 40.9474 23.5271 39.1253 26.3241ZM19.3323 28.2963C19.2251 28.619 19.1894 28.9418 19.5467 29.2645C20.547 30.2327 22.6192 28.5115 23.298 27.8302C23.6553 29.8024 19.1537 33.0296 17.9746 30.8064C16.9028 28.8342 18.1176 26.4317 19.6538 25.1049C20.2612 24.567 20.7614 24.2802 21.1901 24.2802C21.6189 24.2802 22.1548 24.3877 22.1548 24.9256C22.1548 26.0372 20.1898 27.8302 19.3323 28.2963ZM27.0137 26.7903V17.7539H31.6226C33.4804 17.7539 35.6598 18.6145 35.624 20.766C35.5883 22.9534 33.5161 23.814 31.6226 23.814H30.0863V26.7903H27.0137ZM30.0863 19.7261V21.8059H30.9437C31.9441 21.8059 32.4443 21.4473 32.4443 20.766C32.4443 20.0847 31.9441 19.7261 30.9437 19.7261H30.0863Z" fill="#0B5AD2"/>
<path fill-rule="evenodd" clip-rule="evenodd" d="M20.3982 20.6874H22.4L23.8841 18.6973L23.677 20.6874H25.6788L23.5044 21.8957L23.2973 23.8858L22.1929 22.642L20.0186 23.8858L21.5026 21.8957L20.3982 20.6874Z" fill="#F1121F"/>
<path d="M44.5128 7.87052C39.6679 3.02565 33.2262 0.357422 26.3743 0.357422C19.5225 0.357422 13.0807 3.02565 8.23587 7.87052C3.39088 12.7156 0.722656 19.1573 0.722656 26.0091C0.722656 38.097 9.1734 48.5329 20.9134 51.0761L26.3743 58.3574L31.8354 51.076C43.5752 48.5328 52.026 38.097 52.026 26.0091C52.026 19.1573 49.3578 12.7156 44.5128 7.87052ZM26.3743 7.05409C36.7636 7.05409 45.2158 15.5064 45.2158 25.8956C45.2158 36.2847 36.7636 44.7371 26.3743 44.7371C15.9851 44.7371 7.53283 36.2847 7.53283 25.8956C7.53283 15.5064 15.9851 7.05409 26.3743 7.05409Z" fill="#0B5AD2"/>
</svg>
