<svg width="17" height="21" viewBox="0 0 17 21" fill="none" xmlns="http://www.w3.org/2000/svg">
<path d="M14.6287 13.373C14.1508 16.206 11.6858 18.373 8.71875 18.373C5.41075 18.373 2.71875 15.681 2.71875 12.373C2.71875 9.06505 5.41075 6.37305 8.71875 6.37305H10.8907L8.80475 8.45905L10.2188 9.87305L14.7188 5.37305L10.2188 0.873047L8.80475 2.28705L10.8907 4.37305H8.71875C6.59702 4.37305 4.56219 5.2159 3.0619 6.71619C1.5616 8.21648 0.71875 10.2513 0.71875 12.373C0.71875 14.4948 1.5616 16.5296 3.0619 18.0299C4.56219 19.5302 6.59702 20.373 8.71875 20.373C12.7978 20.373 16.1567 17.318 16.6497 13.373H14.6287Z" fill="#CED2D9"/>
</svg>
