<svg width="8" height="9" viewBox="0 0 8 9" fill="none" xmlns="http://www.w3.org/2000/svg">
<path fill-rule="evenodd" clip-rule="evenodd" d="M4.40688 0.152344C4.53949 0.152344 4.66667 0.205022 4.76044 0.29879C4.8542 0.392559 4.90688 0.519736 4.90688 0.652344V6.44534L7.05288 4.29834C7.09937 4.25186 7.15456 4.21498 7.2153 4.18982C7.27604 4.16466 7.34114 4.15171 7.40688 4.15171C7.47263 4.15171 7.53773 4.16466 7.59847 4.18982C7.6592 4.21498 7.71439 4.25186 7.76088 4.29834C7.80737 4.34483 7.84425 4.40002 7.86941 4.46076C7.89456 4.5215 7.90751 4.5866 7.90751 4.65234C7.90751 4.71809 7.89456 4.78319 7.86941 4.84393C7.84425 4.90467 7.80737 4.95986 7.76088 5.00634L4.76088 8.00634C4.71444 8.05291 4.65926 8.08985 4.59852 8.11506C4.53777 8.14026 4.47265 8.15324 4.40688 8.15324C4.34111 8.15324 4.27599 8.14026 4.21525 8.11506C4.1545 8.08985 4.09933 8.05291 4.05288 8.00634L1.05288 5.00634C1.00639 4.95986 0.969517 4.90467 0.944358 4.84393C0.919199 4.78319 0.90625 4.71809 0.90625 4.65234C0.90625 4.5866 0.919199 4.5215 0.944358 4.46076C0.969517 4.40002 1.00639 4.34483 1.05288 4.29834C1.14677 4.20446 1.27411 4.15171 1.40688 4.15171C1.47263 4.15171 1.53773 4.16466 1.59847 4.18982C1.6592 4.21498 1.71439 4.25186 1.76088 4.29834L3.90688 6.44534V0.652344C3.90688 0.519736 3.95956 0.392559 4.05333 0.29879C4.1471 0.205022 4.27427 0.152344 4.40688 0.152344Z" fill="#8C9198"/>
</svg>
