<svg width="25" height="25" viewBox="0 0 25 25" fill="none" xmlns="http://www.w3.org/2000/svg">
<path d="M12.5645 0.277344C5.93695 0.277344 0.564453 5.64984 0.564453 12.2773C0.564453 18.9048 5.93695 24.2773 12.5645 24.2773C19.192 24.2773 24.5645 18.9048 24.5645 12.2773C24.5645 5.64984 19.192 0.277344 12.5645 0.277344ZM17.1795 13.8161C17.1795 13.8161 18.2407 14.8636 18.502 15.3498C18.5095 15.3598 18.5132 15.3698 18.5157 15.3748C18.622 15.5536 18.647 15.6923 18.5945 15.7961C18.507 15.9686 18.207 16.0536 18.1045 16.0611H16.2295C16.0995 16.0611 15.827 16.0273 15.497 15.7998C15.2432 15.6223 14.9932 15.3311 14.7495 15.0473C14.3857 14.6248 14.0707 14.2598 13.7532 14.2598C13.7129 14.2598 13.6728 14.2661 13.6345 14.2786C13.3945 14.3561 13.087 14.6986 13.087 15.6111C13.087 15.8961 12.862 16.0598 12.7032 16.0598H11.8445C11.552 16.0598 10.0282 15.9573 8.6782 14.5336C7.0257 12.7898 5.5382 9.29234 5.5257 9.25984C5.43195 9.03359 5.6257 8.91234 5.83695 8.91234H7.7307C7.9832 8.91234 8.0657 9.06609 8.1232 9.20234C8.1907 9.36109 8.4382 9.99234 8.84445 10.7023C9.5032 11.8598 9.90695 12.3298 10.2307 12.3298C10.2914 12.3291 10.351 12.3137 10.4045 12.2848C10.827 12.0498 10.7482 10.5436 10.7295 10.2311C10.7295 10.1723 10.7282 9.55734 10.512 9.26234C10.357 9.04859 10.0932 8.96734 9.9332 8.93734C9.99796 8.84798 10.0833 8.77552 10.182 8.72609C10.472 8.58109 10.9945 8.55984 11.5132 8.55984H11.802C12.3645 8.56734 12.5095 8.60359 12.7132 8.65484C13.1257 8.75359 13.1345 9.01984 13.0982 9.93109C13.087 10.1898 13.0757 10.4823 13.0757 10.8273C13.0757 10.9023 13.072 10.9823 13.072 11.0673C13.0595 11.5311 13.0445 12.0573 13.372 12.2736C13.4147 12.3004 13.464 12.3147 13.5145 12.3148C13.6282 12.3148 13.9707 12.3148 14.8982 10.7236C15.1842 10.2114 15.4328 9.67919 15.642 9.13109C15.6607 9.09859 15.7157 8.99859 15.7807 8.95984C15.8287 8.93539 15.8819 8.92295 15.9357 8.92359H18.162C18.4045 8.92359 18.5707 8.95984 18.602 9.05359C18.657 9.20234 18.592 9.65609 17.5757 11.0323L17.122 11.6311C16.2007 12.8386 16.2007 12.8998 17.1795 13.8161Z" fill="#fff"/>
</svg>
