<svg width="25" height="25" viewBox="0 0 25 25" fill="none" xmlns="http://www.w3.org/2000/svg">
<path d="M14.5682 12.0452L11.7607 10.7352C11.5157 10.6214 11.3145 10.7489 11.3145 11.0202V13.4877C11.3145 13.7589 11.5157 13.8864 11.7607 13.7727L14.567 12.4627C14.8132 12.3477 14.8132 12.1602 14.5682 12.0452ZM12.5645 0.253906C5.93695 0.253906 0.564453 5.62641 0.564453 12.2539C0.564453 18.8814 5.93695 24.2539 12.5645 24.2539C19.192 24.2539 24.5645 18.8814 24.5645 12.2539C24.5645 5.62641 19.192 0.253906 12.5645 0.253906ZM12.5645 17.1289C6.42195 17.1289 6.31445 16.5752 6.31445 12.2539C6.31445 7.93266 6.42195 7.37891 12.5645 7.37891C18.707 7.37891 18.8145 7.93266 18.8145 12.2539C18.8145 16.5752 18.707 17.1289 12.5645 17.1289Z" fill="#fff"/>
</svg>
